<?xml version="1.0" encoding="UTF-8" standalone="no"?>
<!-- Created with Inkscape (http://www.inkscape.org/) -->

<svg
   version="1.1"
   id="svg2"
   xml:space="preserve"
   width="960"
   height="960.00134"
   viewBox="0 0 960 960.00134"
   xmlns="http://www.w3.org/2000/svg"
   xmlns:svg="http://www.w3.org/2000/svg"><defs
     id="defs6"><clipPath
       clipPathUnits="userSpaceOnUse"
       id="clipPath16"><path
         d="M 0,720.001 H 720 V 0 H 0 Z"
         id="path14" /></clipPath></defs><g
     id="g8"
     transform="matrix(1.3333333,0,0,-1.3333333,0,960.00133)"><g
       id="g10"><g
         id="g12"
         clip-path="url(#clipPath16)"><g
           id="g18"
           transform="translate(720,360.0068)"><path
             d="M 0,0 C -29.643,-29.645 -330.359,-330.362 -360.002,-360.007 -389.648,-330.362 -690.36,-29.645 -720,0 -690.358,29.641 -389.648,330.351 -360.004,359.994 -330.359,330.351 -29.643,29.641 0,0"
             style="fill:#ffffff;fill-opacity:1;fill-rule:nonzero;stroke:none"
             id="path20" /></g><g
           id="g22"
           transform="translate(346.5224,470.1978)"><path
             d="M 0,0 4.345,6.339 11.86,14.52 7.72,27.915 2.044,28.016 -0.409,21.778 -5.215,23.67 -7.669,11.758 -2.556,9.356 Z"
             style="fill:#0a0f0c;fill-opacity:1;fill-rule:nonzero;stroke:none"
             id="path24" /></g><g
           id="g26"
           transform="translate(392.7334,463.6699)"><path
             d="m 0,0 -3.181,-4.462 -1.834,-9.293 6.418,-5.563 4.588,5.563 1.283,6.297 -2.812,7.52 -2.201,-2.322 z"
             style="fill:#0a0f0c;fill-opacity:1;fill-rule:nonzero;stroke:none"
             id="path28" /></g><g
           id="g30"
           transform="translate(466.2246,457.2153)"><path
             d="M 0,0 -117.764,-82.994 0,-9.898 Z"
             style="fill:#0a0f0c;fill-opacity:1;fill-rule:nonzero;stroke:none"
             id="path32" /></g><g
           id="g34"
           transform="translate(429.6777,402.9033)"><path
             d="M 0,0 -0.508,5.836 -69.795,-26.905 Z"
             style="fill:#0a0f0c;fill-opacity:1;fill-rule:nonzero;stroke:none"
             id="path36" /></g><g
           id="g38"
           transform="translate(449.7285,419.3994)"><path
             d="M 0,0 -2.285,-6.092 18.779,-8.629 4.82,5.33 Z"
             style="fill:#0a0f0c;fill-opacity:1;fill-rule:nonzero;stroke:none"
             id="path40" /></g><g
           id="g42"
           transform="translate(507.5937,445.0322)"><path
             d="M 0,0 14.213,-9.643 13.959,7.615 4.57,23.605 0.256,10.154 l -11.422,-0.51 -3.301,-2.537 -1.521,-9.645 8.881,-5.076 z"
             style="fill:#0a0f0c;fill-opacity:1;fill-rule:nonzero;stroke:none"
             id="path44" /></g><g
           id="g46"
           transform="translate(553.918,416.8545)"><path
             d="M 0,0 -2.879,6.08 -210.24,-47.682 Z"
             style="fill:#0a0f0c;fill-opacity:1;fill-rule:nonzero;stroke:none"
             id="path48" /></g><g
           id="g50"
           transform="translate(434.2373,355.7329)"><path
             d="m 0,0 2.337,-2.516 -10.226,0.324 z m -184.185,0.593 -0.514,0.926 2.793,-0.113 z M 144.962,45.761 -82.851,7.154 -85.717,9.432 V 0.247 l -7.456,-5.018 -6.866,4.97 6.596,-5.152 -5.927,-3.986 -18.617,15.889 -13.157,-11.42 -17.209,4.528 10.531,-0.423 -11.91,0.786 -0.279,0.074 -0.021,-0.054 -27.397,1.808 -0.065,0.733 -1.723,-0.615 -6.179,0.407 -1.178,2.122 -9.32,0.475 -1.111,-1.831 -56.723,3.743 2.868,-3.106 52.951,-2.128 -2.766,-4.564 7.648,-5.496 8.364,-1.434 2.629,4.301 h 5.257 l -0.561,6.367 27.187,-1.093 -0.149,-0.387 c 0.4,-2.176 0.948,-4.291 1.619,-6.345 l -141.372,-16.227 -0.239,-3.106 141.681,19.128 c 0.456,-1.373 0.97,-2.715 1.539,-4.026 l -106.179,-23.465 -0.717,-3.587 107.155,26.451 c 0.247,-0.547 0.505,-1.086 0.77,-1.621 l -35.752,-9.534 -0.478,-3.584 36.738,12.138 c 0.104,-0.198 0.207,-0.396 0.314,-0.592 l -57.604,-31.143 0.239,-3.107 57.56,33.883 c 1.424,-2.561 3.078,-4.954 4.919,-7.161 l -67.258,-53.727 5.018,-4.78 39.927,36.601 -0.974,-1.948 4.302,-4.78 4.78,2.151 2.389,-2.39 4.78,2.867 1.911,6.453 -4.54,2.869 h -6.951 l 17.308,15.866 c 7.817,-8.936 18.891,-14.514 31.173,-14.514 11.919,0 22.696,5.256 30.469,13.73 L -32,-60.641 l -2.759,6.241 -42.51,31.199 c 0.975,1.101 1.899,2.255 2.772,3.452 l 57.738,-45.09 2.759,2.758 -59.815,43.299 c 0.562,0.816 1.104,1.648 1.617,2.504 l 53.922,-33.023 -2.987,6.059 -50.484,27.75 c 0.961,1.679 1.828,3.426 2.586,5.238 l 31.587,-8.139 -1.378,-1.912 -9.611,1.777 -2.666,-4.845 9.693,-7.19 25.523,-4.361 0.405,6.139 -4.202,4.766 -6.019,2.601 37.35,-9.623 1.6,10.88 -81.673,11.435 c 0.492,1.299 0.939,2.623 1.323,3.978 l -6.323,2.264 -1.4,2.381 63.408,-2.999 0.025,-0.099 0.301,0.084 14.762,-0.698 0.617,-0.665 14.08,-0.959 0.783,0.891 100.018,-4.731 -4.16,3.199 -94.572,2.995 7.211,8.207 -25.28,11.199 -6.719,-6.401 -9.601,-3.199 2.267,-8.789 -63.162,2 -1.06,1.805 -6.793,5.398 227.789,30.945 z"
             style="fill:#0a0f0c;fill-opacity:1;fill-rule:nonzero;stroke:none"
             id="path52" /></g><g
           id="g54"
           transform="translate(241.2104,323.3467)"><path
             d="m 0,0 v 4.301 l -12.666,0.717 7.408,-7.169 z"
             style="fill:#0a0f0c;fill-opacity:1;fill-rule:nonzero;stroke:none"
             id="path56" /></g><g
           id="g58"
           transform="translate(208.7095,305.1836)"><path
             d="m 0,0 -7.169,4.54 -2.629,-8.603 7.303,-10.042 0.344,-0.472 2.39,6.691 4.54,0.24 2.867,3.103 L 9.082,0 2.15,2.628 Z"
             style="fill:#0a0f0c;fill-opacity:1;fill-rule:nonzero;stroke:none"
             id="path60" /></g><g
           id="g62"
           transform="translate(196.7607,346.2881)"><path
             d="M 0,0 V -2.87 L 20.552,-4.78 7.408,5.496 Z"
             style="fill:#0a0f0c;fill-opacity:1;fill-rule:nonzero;stroke:none"
             id="path64" /></g><g
           id="g66"
           transform="translate(243.1221,371.8584)"><path
             d="m 0,0 -3.584,-3.105 56.637,-8.844 z"
             style="fill:#0a0f0c;fill-opacity:1;fill-rule:nonzero;stroke:none"
             id="path68" /></g><g
           id="g70"
           transform="translate(298.3261,362.2993)"><path
             d="m 0,0 -38.714,20.553 0.956,-2.39 z"
             style="fill:#0a0f0c;fill-opacity:1;fill-rule:nonzero;stroke:none"
             id="path72" /></g><g
           id="g74"
           transform="translate(284.6181,376.7041)"><path
             d="m 0,0 c -0.052,-0.205 -0.109,-0.407 -0.159,-0.613 l 5.973,-6.457 4.35,0.244 8.084,-5.427 -7.267,5.473 12.458,0.702 17.377,-8.688 9.931,11.914 -4.47,10.924 13.654,-1.489 1.986,8.192 8.314,-0.097 -21.108,-22.996 22.759,22.977 6.916,-0.081 c -0.913,1.391 -1.938,2.72 -3.043,3.991 l 5.912,5.968 0.701,-1.639 9.393,4.315 2.031,-7.106 14.975,12.183 8.375,15.481 -13.198,-10.914 -10.291,-0.218 88.207,89.049 -5.076,5.075 -89.435,-97.436 -7.262,-5.099 0.821,-1.917 -6.128,-6.677 c -2.488,2.66 -5.365,5.02 -8.514,7.025 l 44.165,75.89 -5.034,3.076 -39.769,-78.563 c -0.107,0.067 -0.211,0.137 -0.317,0.203 l 52.114,145.215 -9.789,4.475 L 56.594,31.392 c -0.431,0.154 -0.86,0.31 -1.294,0.451 l 30.236,93.923 -5.594,3.356 -24.9,-97.188 C 50.585,33.362 45.946,34.137 41.377,34.137 22.015,34.137 5.649,20.281 0.323,1.25 l -16.965,12.783 2.151,-4.301 z"
             style="fill:#0a0f0c;fill-opacity:1;fill-rule:nonzero;stroke:none"
             id="path76" /></g><g
           id="g78"
           transform="translate(662.9551,360.0049)"><path
             d="M 0,0 C -24.943,-24.944 -278.01,-278.013 -302.956,-302.96 -327.903,-278.013 -580.965,-24.944 -605.91,0 -580.965,24.948 -327.903,278.008 -302.957,302.953 -278.012,278.008 -24.943,24.948 0,0 M -662.955,0 -302.956,-360.004 57.045,0 -302.957,359.996 Z"
             style="fill:#b71c2d;fill-opacity:1;fill-rule:nonzero;stroke:none"
             id="path80" /></g></g></g></g></svg>
