<?xml version="1.0" encoding="UTF-8" standalone="no"?>
<!-- Created with Inkscape (http://www.inkscape.org/) -->

<svg
   version="1.1"
   id="svg2"
   xml:space="preserve"
   width="960"
   height="960.00269"
   viewBox="0 0 960 960.00269"
   xmlns="http://www.w3.org/2000/svg"
   xmlns:svg="http://www.w3.org/2000/svg"><defs
     id="defs6"><clipPath
       clipPathUnits="userSpaceOnUse"
       id="clipPath16"><path
         d="M 0,720.002 H 720 V 0 H 0 Z"
         id="path14" /></clipPath></defs><g
     id="g8"
     transform="matrix(1.3333333,0,0,-1.3333333,0,960.00267)"><g
       id="g10"><g
         id="g12"
         clip-path="url(#clipPath16)"><g
           id="g18"
           transform="translate(720,360.0068)"><path
             d="M 0,0 C -29.642,-29.645 -330.358,-330.36 -360.002,-360.005 -389.647,-330.36 -690.359,-29.644 -720,0 -690.357,29.64 -389.647,330.351 -360.005,359.995 -330.36,330.351 -29.642,29.64 0,0"
             style="fill:#ffffff;fill-opacity:1;fill-rule:nonzero;stroke:none"
             id="path20" /></g><g
           id="g22"
           transform="translate(522.5,294.1288)"><path
             d="m 0,0 c 0.456,2.182 0.754,3.592 0.766,3.647 0.6,2.855 -1.223,5.658 -4.079,6.261 -2.854,0.603 -5.656,-1.223 -6.257,-4.076 -0.207,-0.982 -5.086,-24.096 -6.161,-30.542 -0.625,-3.749 -5.129,-6.269 -8.943,-6.269 -6.206,0 -12.259,7.114 -12.596,9.795 -2.049,16.363 -11.918,24.331 -19.832,28.137 l -51.019,24.537 c 2.449,2.664 4.553,5.399 6.292,8.11 10.778,-5.157 48.808,-23.332 53.206,-25.184 l 2.603,-1.27 c 3.084,-1.669 5.01,-2.348 11.733,-2.348 4.664,0 8.8,1.546 12.799,3.042 4.426,1.655 9.002,3.365 14.972,3.365 7.065,0 16.082,-4.973 16.082,-8.87 C 9.566,5.174 9.184,4.385 0,0 m -133.439,25.496 -0.562,-0.281 c -8.384,-4.215 -18.813,-9.034 -23.13,-9.034 -3.974,0 -17.416,3.919 -28.152,9.315 -17.323,8.709 -26.904,23.638 -26.904,30.629 v 25.602 c 0.222,-0.129 0.449,-0.26 0.664,-0.383 10.659,-6.19 11.469,-6.914 11.506,-11.743 -0.155,-1.304 -0.202,-3.436 -0.202,-7.413 0,-13.094 25.512,-24.143 41.535,-24.143 17.779,0 41.321,12.021 41.321,24.5 v 6.739 c 0,5.326 0.563,5.816 10.829,11.847 V 56.125 c 0,-6.991 -9.582,-21.92 -26.905,-30.629 m -115.472,-14.803 -7.902,-3.74 c -7.916,-3.806 -17.784,-11.774 -19.833,-28.137 -0.336,-2.681 -6.392,-9.795 -12.596,-9.795 -3.815,0 -8.319,2.52 -8.942,6.269 -1.077,6.446 -5.954,29.56 -6.161,30.542 -0.604,2.853 -3.405,4.679 -6.26,4.076 -2.855,-0.603 -4.68,-3.406 -4.076,-6.261 0.012,-0.055 0.308,-1.465 0.765,-3.647 -9.182,4.385 -9.567,5.174 -9.567,8.335 0,3.897 9.017,8.87 16.082,8.87 5.971,0 10.547,-1.71 14.973,-3.365 4,-1.496 8.136,-3.042 12.8,-3.042 6.72,0 8.646,0.679 11.733,2.348 l 2.602,1.27 c 4.072,1.715 35.658,16.791 49.568,23.443 1.942,-2.783 4.266,-5.57 6.94,-8.259 z m 10.588,112.845 c 0,15.234 3.63,20.68 3.63,25.381 0,4.7 -5.076,23.031 -5.076,25.883 0,0.37 0.044,3.462 0.044,3.462 0,6.855 0.873,12.574 11.464,21.992 0.862,0.764 2.169,3.092 1.124,4.382 -1.046,1.289 -1.47,1.826 -2.69,3.269 -1.221,1.444 -4.427,1.152 -5.37,0.315 -12.531,-11.136 -15.093,-19.565 -15.093,-29.958 0,0 -0.042,-3.086 -0.042,-3.548 0,-2.82 -0.118,-1.396 1.333,-7.341 -4.524,7.67 -8.329,16.295 -8.329,24.97 0,5.392 10.334,14.75 21.275,24.657 l 4.787,4.348 c 3.777,3.45 7.063,6.675 10.241,9.796 7.238,7.11 12.955,12.726 19.61,16.097 14.998,7.602 28.61,10.405 42.837,10.405 29.373,0 43.637,-12.249 61.695,-28.692 l 9.581,-8.589 3.57,-3.098 c 11.488,-9.952 22.339,-19.354 22.339,-24.924 0,-6.907 -2.413,-13.782 -5.677,-20.168 0.375,2.354 0.402,3.901 0.402,6.888 0,11.375 -3.144,16.281 -14.758,28.42 l -7.635,-7.302 c 10.88,-11.373 11.829,-13.798 11.829,-21.118 0,-4.55 0,-4.55 -2.311,-14.81 l -3.066,-13.75 0.355,-1.255 c 0.035,-0.13 3.587,-13.188 3.587,-25.712 0,-13.094 -8.013,-17.993 -18.157,-24.195 l -3.186,-1.961 -10.89,-6.566 c -11.502,-6.753 -17.245,-9.738 -17.245,-21.532 v -6.739 c 0,-3.912 -14.783,-13.936 -30.539,-13.936 -14.469,0 -30.394,10.029 -30.974,13.643 0.004,4.829 0.209,6.928 0.209,6.928 0,11.564 -5.605,14.817 -16.772,21.3 -3.109,1.804 -6.977,4.049 -11.53,6.902 l -3.184,1.961 c -10.144,6.202 -17.388,9.722 -17.388,24.195 m 15.572,-57.612 -53.046,26.866 -0.075,0.034 c -7.724,3.616 -13.206,3.356 -15.841,3.231 l -0.765,-0.028 c -4.505,0 -8.909,-2.148 -13.573,-4.424 -4.044,-1.973 -8.228,-4.011 -11.501,-4.011 -3.988,0 -4.826,3.435 -4.826,6.32 v 10.168 c 0,0.45 0.146,1.141 0.442,1.951 l 0.045,-2.123 c 0.066,-2.916 2.483,-5.344 5.4,-5.28 2.916,0.063 5.23,2.364 5.166,5.28 l -0.129,5.953 c -0.238,7.503 -0.564,17.777 2.836,21.29 0.559,0.574 1.568,1.338 3.901,1.338 7.094,0 12.82,-4.416 15.571,-8.197 l 1.592,-2.272 c 4.141,-6.008 11.078,-16.065 20.206,-20.764 7.086,-3.647 32.268,-15.233 44.597,-20.879 z m 176.181,35.332 c 9.129,4.699 16.065,14.756 20.209,20.764 l 1.591,2.272 c 2.749,3.781 8.478,8.197 15.569,8.197 2.335,0 3.345,-0.764 3.902,-1.338 3.402,-3.512 3.074,-13.787 2.838,-21.29 l -0.131,-5.953 c -0.064,-2.916 2.25,-5.217 5.164,-5.28 2.917,-0.064 5.335,2.364 5.4,5.28 l 0.047,2.125 c 0.296,-0.811 0.441,-1.502 0.441,-1.953 V 93.914 c 0,-2.885 -0.836,-6.32 -4.824,-6.32 -3.275,0 -7.46,2.038 -11.501,4.011 -4.664,2.276 -9.071,4.424 -13.574,4.424 l -0.764,0.028 c -2.635,0.125 -8.118,0.385 -15.842,-3.231 l -0.148,-0.072 -57.776,-29.261 v 14.689 c 8.542,3.904 41.337,18.927 49.399,23.076 M -6.516,27.771 c -7.88,0 -13.866,-2.237 -18.672,-4.037 -3.406,-1.271 -6.347,-2.373 -9.099,-2.373 -4.717,0 -5.181,0.25 -6.713,1.076 l -3.522,1.717 c -3.716,1.563 -34.56,16.27 -52.682,24.943 0.248,0.762 0.458,1.512 0.632,2.248 12.41,6.286 62.828,31.819 63.035,31.925 5.34,2.492 8.645,2.339 10.834,2.236 l 1.264,-0.041 c 2.066,0 5.561,-1.704 8.941,-3.354 4.885,-2.382 10.421,-5.083 16.134,-5.083 9.06,0 15.387,6.945 15.387,16.886 v 10.168 c 0,5.524 -3.812,13.219 -10.909,17.519 -0.388,6.564 -1.772,12.718 -5.825,16.901 -2.928,3.021 -6.793,4.553 -11.49,4.553 -11.05,0 -19.701,-6.481 -24.113,-12.547 l -1.744,-2.489 c -3.346,-4.851 -9.574,-13.882 -16.348,-17.367 -4.87,-2.507 -19.219,-9.184 -31.459,-14.829 7.959,5.799 14.762,13.591 14.762,27.715 0,8.824 -1.51,17.607 -2.667,23.045 l 1.902,2.817 c 7.614,10.993 18.04,26.047 18.04,42.945 0,10.396 -10.9,19.84 -25.986,32.908 l -3.552,3.081 -9.405,8.434 c -18.178,16.55 -35.344,32.181 -68.807,32.181 -15.732,0 -31.304,-4.016 -47.614,-12.283 -8.112,-4.111 -14.659,-10.54 -22.237,-17.981 -3.109,-3.056 -6.326,-6.214 -9.96,-9.535 l -4.754,-4.317 c -14.368,-13.011 -24.75,-22.411 -24.75,-32.488 0,-16.898 10.426,-31.952 18.04,-42.945 l 1.348,-1.997 c -1.084,-7.726 -2.199,-17.946 -2.199,-25.131 0,-9.853 4.539,-16.804 10.478,-22.208 -9.499,4.41 -18.588,8.685 -22.288,10.588 -6.77,3.485 -12.999,12.516 -16.346,17.367 l -1.741,2.489 c -4.414,6.066 -13.066,12.547 -24.116,12.547 -4.697,0 -8.561,-1.532 -11.488,-4.553 -4.052,-4.182 -5.437,-10.337 -5.826,-16.901 -7.098,-4.3 -10.911,-11.995 -10.911,-17.519 V 93.914 c 0,-9.941 6.329,-16.886 15.39,-16.886 5.714,0 11.249,2.701 16.132,5.083 3.382,1.65 6.878,3.354 8.942,3.354 l 1.266,0.041 c 2.186,0.103 5.494,0.256 10.834,-2.236 0.185,-0.094 40.256,-20.389 57.756,-29.251 0.247,-2.146 0.861,-4.464 1.815,-6.882 -18.327,-8.762 -45.138,-21.533 -48.586,-22.983 l -3.523,-1.717 c -1.531,-0.826 -1.996,-1.076 -6.712,-1.076 -2.753,0 -5.696,1.102 -9.1,2.373 -4.808,1.8 -10.79,4.037 -18.673,4.037 -10.866,0 -26.646,-7.571 -26.646,-19.436 0,-10.558 6.769,-13.737 17.985,-19.007 l 4.828,-2.291 c 1.13,-5.545 2.206,-10.953 2.628,-13.484 1.574,-9.449 11.082,-15.096 19.364,-15.096 11.806,0 22.138,11.556 23.078,19.047 1.187,9.476 5.743,15.994 13.927,19.931 l 7.797,3.688 44.488,20.959 c 3.046,-2.195 6.357,-4.23 9.925,-6.024 8.718,-4.382 25.2,-10.868 32.896,-10.868 6.823,0 17.051,5.142 27.877,10.587 l 0.561,0.281 c 4.478,2.252 8.562,4.879 12.211,7.732 L -61.68,-2.565 c 8.186,-3.937 12.74,-10.455 13.928,-19.931 0.94,-7.491 11.27,-19.047 23.078,-19.047 8.279,0 17.786,5.647 19.363,15.096 0.422,2.531 1.497,7.939 2.627,13.484 l 4.83,2.291 c 11.214,5.27 17.986,8.449 17.986,19.007 0,11.865 -15.782,19.436 -26.648,19.436"
             style="fill:#0a0f0c;fill-opacity:1;fill-rule:nonzero;stroke:none"
             id="path24" /></g><g
           id="g26"
           transform="translate(406.8907,406.7289)"><path
             d="m 0,0 c 17.604,0 25.018,22.106 25.018,27.798 0,5.692 -4.5,8.075 -7.149,8.075 h -33.491 c -3.573,0 -12.179,-2.913 -12.179,-8.472 0,-2.085 1.561,-6.659 4.924,-11.113 C -17.078,8.604 -12.047,0 0,0"
             style="fill:#0a0f0c;fill-opacity:1;fill-rule:nonzero;stroke:none"
             id="path28" /></g><g
           id="g30"
           transform="translate(319.3897,406.7289)"><path
             d="m 0,0 c 12.046,0 17.077,8.604 22.876,16.288 3.363,4.454 4.922,9.028 4.922,11.113 0,5.559 -8.603,8.472 -12.179,8.472 h -33.49 c -2.648,0 -7.147,-2.383 -7.147,-8.075 C -25.018,22.106 -17.604,0 0,0"
             style="fill:#0a0f0c;fill-opacity:1;fill-rule:nonzero;stroke:none"
             id="path32" /></g><g
           id="g34"
           transform="translate(354.1284,363.3222)"><path
             d="m 0,0 c 8.232,0 5.457,3.33 12.485,3.33 5.735,0 3.793,-3.239 11.562,-3.239 7.211,0 8.97,5.457 8.97,7.678 0,3.422 -3.876,5.622 -5.641,10.264 -1.759,4.623 -5.182,21.733 -15.631,21.733 -3.84,0 -6.059,-1.57 -8.971,-4.994 C -1.942,29.224 -2.319,19.894 -5.271,16.277 -8.138,12.763 -9.249,8.99 -9.249,7.028 -9.249,4.901 -8.23,0 0,0"
             style="fill:#0a0f0c;fill-opacity:1;fill-rule:nonzero;stroke:none"
             id="path36" /></g><g
           id="g38"
           transform="translate(662.957,360.0058)"><path
             d="M 0,0 C -24.945,-24.947 -278.012,-278.014 -302.958,-302.961 -327.907,-278.014 -580.969,-24.946 -605.913,0 -580.967,24.943 -327.907,278.005 -302.96,302.952 -278.014,278.005 -24.945,24.943 0,0 M -662.957,0 -302.958,-360.006 57.043,0 -302.96,359.994 Z"
             style="fill:#b71c2d;fill-opacity:1;fill-rule:nonzero;stroke:none"
             id="path40" /></g></g></g></g></svg>
