<?xml version="1.0" encoding="UTF-8" standalone="no"?>
<!-- Created with Inkscape (http://www.inkscape.org/) -->

<svg
   version="1.1"
   id="svg2"
   xml:space="preserve"
   width="960"
   height="960"
   viewBox="0 0 960 960"
   xmlns="http://www.w3.org/2000/svg"
   xmlns:svg="http://www.w3.org/2000/svg"><defs
     id="defs6"><clipPath
       clipPathUnits="userSpaceOnUse"
       id="clipPath16"><path
         d="M 0,720 H 720 V 0 H 0 Z"
         id="path14" /></clipPath></defs><g
     id="g8"
     transform="matrix(1.3333333,0,0,-1.3333333,0,960)"><g
       id="g10"><g
         id="g12"
         clip-path="url(#clipPath16)"><g
           id="g18"
           transform="translate(720,360.0049)"><path
             d="M 0,0 C -29.643,-29.645 -330.358,-330.36 -360.003,-360.005 -389.649,-330.36 -690.36,-29.642 -720,0 -690.358,29.642 -389.649,330.352 -360.005,359.995 -330.36,330.352 -29.643,29.642 0,0"
             style="fill:#ffffff;fill-opacity:1;fill-rule:nonzero;stroke:none"
             id="path20" /></g><g
           id="g22"
           transform="translate(323.6001,326.1797)"><path
             d="m 0,0 c -2.878,0 -5.214,-2.335 -5.214,-5.215 0,-2.881 2.336,-5.214 5.214,-5.214 2.881,0 5.215,2.333 5.215,5.214 C 5.215,-2.335 2.881,0 0,0"
             style="fill:#0a0f0c;fill-opacity:1;fill-rule:nonzero;stroke:none"
             id="path24" /></g><g
           id="g26"
           transform="translate(402.6162,276.1279)"><path
             d="m 0,0 c 0,3.005 -2.436,5.442 -5.441,5.442 -3.006,0 -5.442,-2.437 -5.442,-5.442 0,-0.687 0.133,-1.343 0.365,-1.95 -1.972,-0.277 -3.496,-1.953 -3.496,-4.003 0,-0.573 0.123,-1.119 0.34,-1.615 0.569,-1.436 1.961,-2.454 3.598,-2.454 l 0.105,0.009 0.012,-10e-4 c 2.25,0 4.068,1.82 4.068,4.061 0,0.183 -0.029,0.359 -0.054,0.537 0.166,-0.017 0.334,-0.026 0.504,-0.026 C -2.436,-5.442 0,-3.005 0,0"
             style="fill:#0a0f0c;fill-opacity:1;fill-rule:nonzero;stroke:none"
             id="path28" /></g><g
           id="g30"
           transform="translate(349.46,269.6269)"><path
             d="m 0,0 c 0,-2.804 2.271,-5.078 5.076,-5.078 2.805,0 5.076,2.274 5.076,5.078 0,2.803 -2.271,5.076 -5.076,5.076 C 2.271,5.076 0,2.803 0,0"
             style="fill:#0a0f0c;fill-opacity:1;fill-rule:nonzero;stroke:none"
             id="path32" /></g><g
           id="g34"
           transform="translate(333.1392,296.0937)"><path
             d="m 0,0 c 2.805,0 5.076,2.273 5.076,5.078 0,2.805 -2.271,5.076 -5.076,5.076 -1.4,0 -2.666,-0.567 -3.585,-1.482 -0.383,1.607 -1.821,2.805 -3.545,2.805 -2.02,0 -3.657,-1.635 -3.657,-3.655 0,-2.018 1.637,-3.655 3.657,-3.655 0.773,0 1.488,0.243 2.08,0.655 C -4.914,2.14 -2.716,0 0,0"
             style="fill:#0a0f0c;fill-opacity:1;fill-rule:nonzero;stroke:none"
             id="path36" /></g><g
           id="g38"
           transform="translate(389.0655,314.5927)"><path
             d="m 0,0 c -0.895,0 -1.734,-0.22 -2.48,-0.602 -0.502,1.685 -2.045,2.92 -3.893,2.92 -2.254,0 -4.082,-1.828 -4.082,-4.083 0,-2.254 1.828,-4.081 4.082,-4.081 0.326,0 0.641,0.048 0.943,0.12 0.149,-2.872 2.52,-5.159 5.43,-5.159 0.396,0 0.783,0.044 1.158,0.127 2.528,0.288 4.5,2.409 4.5,5.018 0,0.926 -0.265,1.78 -0.699,2.528 C 4.107,-1.32 2.209,0 0,0"
             style="fill:#0a0f0c;fill-opacity:1;fill-rule:nonzero;stroke:none"
             id="path40" /></g><g
           id="g42"
           transform="translate(369.4873,346.9814)"><path
             d="m 0,0 c 0,2.805 -2.273,5.077 -5.076,5.077 -2.805,0 -5.078,-2.272 -5.078,-5.077 0,-1.938 1.099,-3.603 2.697,-4.459 -1.523,-0.439 -2.647,-1.828 -2.647,-3.495 0,-2.019 1.637,-3.655 3.657,-3.655 2.017,0 3.654,1.636 3.654,3.655 0,1.219 -0.602,2.291 -1.519,2.955 C -1.875,-4.628 0,-2.542 0,0"
             style="fill:#0a0f0c;fill-opacity:1;fill-rule:nonzero;stroke:none"
             id="path44" /></g><g
           id="g46"
           transform="translate(324.9112,273.9629)"><path
             d="m 0,0 c -2.245,0 -4.062,-1.817 -4.062,-4.062 0,-2.242 1.817,-4.06 4.062,-4.06 2.242,0 4.06,1.818 4.06,4.06 C 4.06,-1.817 2.242,0 0,0"
             style="fill:#0a0f0c;fill-opacity:1;fill-rule:nonzero;stroke:none"
             id="path48" /></g><g
           id="g50"
           transform="translate(353.6241,326.4082)"><path
             d="m 0,0 c 0,-2.016 1.637,-3.654 3.654,-3.654 2.02,0 3.657,1.638 3.657,3.654 0,2.021 -1.637,3.657 -3.657,3.657 C 1.637,3.657 0,2.021 0,0"
             style="fill:#0a0f0c;fill-opacity:1;fill-rule:nonzero;stroke:none"
             id="path52" /></g><g
           id="g54"
           transform="translate(370.4229,227.9365)"><path
             d="m 0,0 c 0,2.286 -1.361,4.249 -3.316,5.136 0.336,0.591 0.543,1.263 0.543,1.99 0,2.246 -1.819,4.062 -4.061,4.062 -2.244,0 -4.062,-1.816 -4.062,-4.062 0,-1.21 0.541,-2.285 1.382,-3.031 C -10.6,3.067 -11.281,1.616 -11.281,0 c 0,-3.115 2.525,-5.64 5.64,-5.64 C -2.524,-5.64 0,-3.115 0,0"
             style="fill:#0a0f0c;fill-opacity:1;fill-rule:nonzero;stroke:none"
             id="path56" /></g><g
           id="g58"
           transform="translate(362.7725,176.2793)"><path
             d="m 0,0 c 0,4.024 -2.389,7.48 -5.822,9.047 1.349,1.029 2.226,2.651 2.226,4.482 0,1.911 -0.953,3.598 -2.408,4.617 0.818,0.979 1.311,2.238 1.311,3.613 0,3.115 -2.526,5.639 -5.641,5.639 -0.471,0 -0.924,-0.063 -1.359,-0.171 0.63,1.308 0.996,2.769 0.996,4.32 0,1.451 -0.319,2.824 -0.877,4.068 2.926,0.21 5.234,2.641 5.234,5.621 0,2.428 -1.537,4.491 -3.687,5.285 2.105,1.825 3.445,4.513 3.445,7.518 0,3.441 -1.746,6.471 -4.398,8.258 1.537,1.751 2.478,4.042 2.478,6.556 0,2.202 -0.725,4.227 -1.936,5.872 1.569,0.562 2.696,2.048 2.696,3.81 0,2.244 -1.817,4.062 -4.061,4.062 -1.371,0 -2.578,-0.683 -3.313,-1.726 -1.822,2.251 -4.601,3.691 -7.724,3.691 -1.459,0 -2.838,-0.324 -4.086,-0.887 -0.951,1.772 -2.82,2.981 -4.974,2.981 -3.116,0 -5.641,-2.527 -5.641,-5.642 0,-2.832 2.088,-5.168 4.806,-5.573 -0.017,-0.211 -0.039,-0.42 -0.043,-0.634 -1.722,1.427 -3.933,2.287 -6.346,2.287 -3.622,0 -6.783,-1.94 -8.523,-4.835 -1.474,1.622 -3.593,2.647 -5.959,2.647 -3.763,0 -6.914,-2.581 -7.802,-6.067 -1.293,0.885 -2.857,1.404 -4.544,1.404 -4.448,0 -8.058,-3.607 -8.058,-8.058 0,-0.623 0.078,-1.228 0.213,-1.811 -2.139,1.946 -4.971,3.142 -8.09,3.142 -4.965,0 -9.224,-3.006 -11.066,-7.295 -1.293,0.884 -2.857,1.404 -4.544,1.404 -4.448,0 -8.058,-3.607 -8.058,-8.059 0,-0.65 0.076,-1.28 0.222,-1.884 l 97.724,-99.278 c 1.275,0.538 2.17,1.799 2.17,3.273 0,1.393 -0.809,2.587 -1.977,3.169 1.383,0.485 2.379,1.79 2.379,3.34 0,1.463 -0.883,2.716 -2.147,3.261 1.248,0.826 2.073,2.24 2.073,3.85 0,2.196 -1.535,4.025 -3.588,4.494 4.092,2.823 6.779,7.539 6.779,12.889 0,3.301 -1.027,6.359 -2.773,8.882 C -1.877,-6.678 0,-3.563 0,0"
             style="fill:#0a0f0c;fill-opacity:1;fill-rule:nonzero;stroke:none"
             id="path60" /></g><g
           id="g62"
           transform="translate(257.7681,363.8242)"><path
             d="m 0,0 c 0.928,-4.534 4.94,-7.943 9.747,-7.943 0.847,0 1.665,0.117 2.451,0.317 1.109,-4.284 4.988,-7.45 9.619,-7.45 0.49,0 0.966,0.047 1.437,0.115 1.139,-4.24 4.998,-7.364 9.598,-7.364 1.354,0 2.643,0.272 3.82,0.762 0.315,-3.191 3.004,-5.682 6.278,-5.682 0.644,0 1.267,0.097 1.853,0.277 0.807,-4.683 4.879,-8.25 9.793,-8.25 3.824,0 7.139,2.161 8.805,5.323 1.67,-1.27 3.748,-2.032 6.008,-2.032 1.465,0 2.851,0.323 4.103,0.892 1.297,-2.746 3.702,-4.864 6.634,-5.78 -0.118,-0.364 -0.2,-0.744 -0.2,-1.15 0,-2.017 1.637,-3.654 3.656,-3.654 2.017,0 3.654,1.637 3.654,3.654 0,0.451 -0.092,0.879 -0.242,1.277 4.266,1.496 7.326,5.544 7.326,10.321 0,2.185 -0.642,4.215 -1.746,5.92 1.785,0.241 3.166,1.755 3.166,3.605 0,1.578 -1.004,2.91 -2.404,3.42 1.527,1.748 2.459,4.026 2.459,6.531 0,0.478 -0.045,0.944 -0.109,1.405 3.75,1.424 6.418,5.043 6.418,9.293 0,2.657 -1.057,5.056 -2.756,6.838 0.31,-0.084 0.631,-0.145 0.966,-0.145 2.018,0 3.655,1.636 3.655,3.656 0,2.019 -1.637,3.654 -3.655,3.654 -0.802,0 -1.537,-0.266 -2.14,-0.703 -0.733,1.353 -2.051,2.338 -3.621,2.598 1.232,2.011 1.955,4.369 1.955,6.902 0,1.64 -0.313,3.203 -0.856,4.653 3.768,1.415 6.452,5.04 6.452,9.304 0,2.482 -0.915,4.745 -2.416,6.488 2.763,0.915 4.757,3.515 4.757,6.584 0,2.522 -1.349,4.723 -3.359,5.938 0.939,1.183 1.504,2.677 1.504,4.306 0,0.416 -0.043,0.823 -0.113,1.221 1.439,0.065 2.769,0.555 3.851,1.367 -0.082,-0.425 -0.127,-0.863 -0.127,-1.31 0,-2.463 1.285,-4.62 3.217,-5.851 -0.383,-1.057 -0.602,-2.192 -0.602,-3.382 0,-4.05 2.424,-7.526 5.895,-9.078 -0.32,-1.137 -0.504,-2.331 -0.504,-3.57 0,-4.209 1.984,-7.945 5.063,-10.349 -2.696,-1.178 -4.582,-3.865 -4.582,-6.996 0,-3.125 1.878,-5.807 4.566,-6.988 -0.539,-0.931 -0.854,-2.008 -0.854,-3.162 0,-2.526 1.487,-4.697 3.629,-5.706 -0.617,-1.523 -0.965,-3.183 -0.965,-4.929 0,-2.102 0.506,-4.083 1.385,-5.844 -0.42,-0.475 -0.808,-0.977 -1.158,-1.508 -0.662,0.672 -1.582,1.088 -2.598,1.088 -2.019,0 -3.656,-1.635 -3.656,-3.655 0,-2.018 1.637,-3.655 3.656,-3.655 0.172,0 0.336,0.028 0.502,0.05 -0.025,-0.336 -0.05,-0.672 -0.05,-1.014 0,-2.535 0.728,-4.892 1.97,-6.896 -1.06,-2.02 -1.668,-4.315 -1.668,-6.755 0,-3.738 1.42,-7.136 3.735,-9.713 -0.645,-1.035 -1.022,-2.255 -1.022,-3.563 0,-3.738 3.031,-6.768 6.77,-6.768 3.328,0 6.088,2.404 6.656,5.567 1.83,0.195 3.555,0.737 5.117,1.547 0.805,-1.739 2.555,-2.954 4.598,-2.954 2.804,0 5.076,2.273 5.076,5.078 0,2.123 -1.307,3.936 -3.156,4.695 0.513,1.107 0.877,2.294 1.103,3.528 1.096,-0.294 2.242,-0.467 3.43,-0.467 0.15,0 0.297,0.019 0.447,0.023 0.895,-2.287 3.113,-3.91 5.721,-3.91 2.004,0 3.779,0.965 4.9,2.452 0.629,-2.309 2.737,-4.007 5.244,-4.007 1.901,0 3.573,0.975 4.545,2.451 1.055,-0.647 2.291,-1.028 3.621,-1.028 3.832,0 6.94,3.108 6.94,6.94 0,1.28 -0.354,2.476 -0.957,3.505 0.527,-0.172 1.09,-0.265 1.672,-0.265 3.006,0 5.443,2.435 5.443,5.442 0,0.256 -0.023,0.506 -0.058,0.752 1.154,-2.23 3.478,-3.755 6.162,-3.755 3.785,0 6.855,3.03 6.931,6.796 1.811,1.119 3.069,3.045 3.268,5.277 0.353,-0.113 0.721,-0.19 1.111,-0.19 2.02,0 3.658,1.637 3.658,3.656 0,0.42 -0.074,0.822 -0.205,1.198 l -5.55,1.79 -57.969,18.67 -0.235,24.757 c 8.807,9.476 15.672,21.7 20.647,34.954 9.426,25.125 14.508,51.676 14.508,65.582 0,36.019 -34.399,82.726 -76.83,82.726 -42.431,0 -76.829,-37.038 -76.829,-82.726 0,-29.695 11.1,-71.359 32.748,-96.902 L 58.066,21.008 Z"
             style="fill:#0a0f0c;fill-opacity:1;fill-rule:nonzero;stroke:none"
             id="path64" /></g><g
           id="g66"
           transform="translate(466.6944,229.7675)"><path
             d="m 0,0 c -0.969,0 -1.879,-0.245 -2.676,-0.675 -0.976,3.351 -4.066,5.801 -7.732,5.801 -1.582,0 -3.051,-0.464 -4.295,-1.249 0.012,0.207 0.029,0.411 0.029,0.621 0,5.495 -4.453,9.947 -9.947,9.947 -1.287,0 -2.514,-0.252 -3.643,-0.697 -0.142,2.988 -2.603,5.369 -5.627,5.369 -3.115,0 -5.64,-2.525 -5.64,-5.641 0,-0.244 0.019,-0.483 0.051,-0.72 -1.418,2.308 -3.958,3.853 -6.866,3.853 -0.463,0 -0.912,-0.047 -1.353,-0.122 -0.063,5.444 -4.487,9.834 -9.944,9.834 -0.554,0 -1.095,-0.057 -1.627,-0.145 -0.269,2.866 -2.679,5.107 -5.613,5.107 -2.431,0 -4.496,-1.541 -5.291,-3.695 -0.25,0.016 -0.5,0.039 -0.756,0.039 -1.134,0 -2.228,-0.168 -3.269,-0.461 -0.967,2.555 -3.432,4.377 -6.326,4.377 -3.739,0 -6.77,-3.031 -6.77,-6.771 0,-1.15 0.291,-2.233 0.797,-3.184 -0.975,0.808 -2.223,1.295 -3.586,1.295 -3.115,0 -5.641,-2.526 -5.641,-5.641 0,-2.681 1.871,-4.92 4.377,-5.492 -0.734,-1.389 -1.154,-2.967 -1.154,-4.646 0,-3.229 1.543,-6.086 3.924,-7.904 -0.91,-1.694 -1.428,-3.632 -1.428,-5.689 0,-3.195 1.25,-6.085 3.279,-8.24 -0.664,-1.494 -1.041,-3.141 -1.041,-4.879 0,-0.674 0.071,-1.329 0.176,-1.971 -0.816,0.565 -1.781,0.931 -2.832,1.002 0.69,0.934 1.102,2.088 1.102,3.339 0,3.116 -2.526,5.641 -5.641,5.641 -3.115,0 -5.641,-2.525 -5.641,-5.641 0,-1.494 0.583,-2.852 1.532,-3.859 -2.362,-0.674 -4.092,-2.842 -4.092,-5.421 0,-3.115 2.525,-5.639 5.641,-5.639 0.179,0 0.349,0.029 0.523,0.045 -1.041,-1.78 -1.646,-3.845 -1.646,-6.056 0,-4.198 2.15,-7.888 5.406,-10.041 -4.307,-1.834 -7.326,-6.103 -7.326,-11.08 0,-3.608 1.593,-6.836 4.109,-9.042 -2.607,-1.794 -4.318,-4.794 -4.318,-8.197 0,-1.388 0.287,-2.709 0.798,-3.909 -0.724,-1.209 -1.148,-2.619 -1.148,-4.131 0,-1.748 0.562,-3.36 1.508,-4.679 -0.817,-0.65 -1.352,-1.644 -1.352,-2.77 0,-1.219 0.615,-2.291 1.549,-2.932 -0.971,-0.633 -1.615,-1.725 -1.615,-2.973 0,-0.224 0.027,-0.444 0.066,-0.66 -0.81,-0.65 -1.34,-1.638 -1.34,-2.761 0,-1.47 0.893,-2.733 2.168,-3.272 L 5.318,-7.529 C 5.527,-6.94 5.643,-6.304 5.643,-5.643 5.643,-2.524 3.115,0 0,0"
             style="fill:#0a0f0c;fill-opacity:1;fill-rule:nonzero;stroke:none"
             id="path68" /></g><g
           id="g70"
           transform="translate(511.5752,348.832)"><path
             d="m 0,0 c -3.213,1.102 -24.453,8.034 -24.453,8.034 -2.445,-0.188 -4.438,-1.996 -4.908,-4.35 -0.746,0.382 -1.59,0.602 -2.487,0.602 -3.004,0 -5.441,-2.437 -5.441,-5.442 0,-0.296 0.029,-0.584 0.076,-0.866 -1.658,1.233 -3.705,1.972 -5.93,1.972 -5.493,0 -9.949,-4.454 -9.949,-9.948 l 0.004,-0.051 c -1.008,0.247 -2.053,0.394 -3.137,0.394 -7.254,0 -13.132,-5.88 -13.132,-13.134 0,-0.682 0.066,-1.345 0.168,-1.998 -0.776,0.339 -1.631,0.53 -2.53,0.53 -2.072,0 -3.904,-1.002 -5.054,-2.544 -1.188,0.394 -2.456,0.612 -3.774,0.612 -6.474,0 -11.74,-5.112 -12.012,-11.521 -0.412,0.085 -0.837,0.13 -1.275,0.13 -3.484,0 -6.309,-2.823 -6.309,-6.31 0,-1.057 0.264,-2.052 0.723,-2.928 -1.004,0.564 -2.158,0.888 -3.393,0.888 -3.833,0 -6.941,-3.106 -6.941,-6.938 0,-2.003 0.854,-3.8 2.209,-5.063 l 0.004,-0.073 c -1.613,-0.152 -2.943,-1.23 -3.457,-2.709 -0.203,-0.455 -0.32,-0.955 -0.32,-1.483 0,-1.284 0.666,-2.409 1.668,-3.063 0.691,-0.538 1.548,-0.87 2.492,-0.87 1.744,0 3.22,1.098 3.806,2.638 0.95,-0.513 2.03,-0.811 3.182,-0.811 0.52,0 1.024,0.064 1.51,0.176 -0.043,-0.419 -0.067,-0.84 -0.067,-1.268 0,-1.588 0.315,-3.103 0.875,-4.492 -2.242,-0.526 -3.916,-2.527 -3.916,-4.928 0,-0.743 0.166,-1.439 0.45,-2.073 0.722,-1.832 2.5,-3.134 4.589,-3.134 1.731,0 3.247,0.895 4.129,2.242 0.327,0.457 0.586,0.968 0.752,1.521 1.567,-0.746 3.309,-1.173 5.159,-1.173 0.57,0 1.128,0.053 1.679,0.129 -0.328,-0.876 -0.515,-1.821 -0.515,-2.81 0,-1.305 0.324,-2.527 0.875,-3.617 -0.258,0.052 -0.522,0.083 -0.795,0.083 -2.243,0 -4.063,-1.82 -4.063,-4.063 0,-2.243 1.82,-4.062 4.063,-4.062 2.025,0 3.689,1.487 3.996,3.424 1.095,-4.304 4.984,-7.493 9.631,-7.493 2.086,0 4.019,0.645 5.617,1.741 0.48,-3.994 3.873,-7.09 7.996,-7.09 2.1,0 4.006,0.808 5.439,2.125 -0.015,-0.242 -0.037,-0.485 -0.037,-0.73 0,-5.495 4.455,-9.948 9.949,-9.948 1.883,0 3.635,0.531 5.135,1.437 -0.752,-1.024 -1.201,-2.287 -1.201,-3.657 0,-3.427 2.779,-6.203 6.205,-6.203 2.072,0 3.903,1.019 5.029,2.577 l 0.004,-0.001 53.873,49.588 v 36.318 C 26.191,-18.668 14.332,-4.903 0,0"
             style="fill:#0a0f0c;fill-opacity:1;fill-rule:nonzero;stroke:none"
             id="path72" /></g><g
           id="g74"
           transform="translate(270.3306,246.5029)"><path
             d="m 0,0 c 0,0.395 -0.029,0.78 -0.072,1.161 1.477,-1.825 3.733,-2.994 6.264,-2.994 4.451,0 8.058,3.607 8.058,8.059 0,1.205 -0.271,2.341 -0.744,3.368 1.616,0.563 2.991,1.63 3.953,3.005 1.024,-1.043 2.447,-1.694 4.026,-1.694 3.115,0 5.64,2.528 5.64,5.641 0,1.622 -0.685,3.076 -1.781,4.106 2.062,1.005 3.631,2.863 4.249,5.115 1.298,-1.424 3.093,-2.383 5.114,-2.593 -0.814,-0.979 -1.306,-2.237 -1.306,-3.611 0,-3.115 2.525,-5.64 5.641,-5.64 3.115,0 5.64,2.525 5.64,5.64 0,2.552 -1.693,4.704 -4.018,5.402 1.794,1.478 2.938,3.718 2.938,6.222 0,0.739 -0.108,1.45 -0.293,2.128 0.243,-0.022 0.488,-0.039 0.739,-0.039 1.136,0 2.214,0.239 3.194,0.663 0.084,-2.168 1.858,-3.904 4.045,-3.904 2.244,0 4.063,1.818 4.063,4.062 0,2.189 -1.736,3.962 -3.906,4.045 0.423,0.979 0.661,2.058 0.661,3.195 0,0.691 -0.106,1.357 -0.271,1.996 h 0.002 c 2.02,0 3.657,1.639 3.657,3.658 0,2.019 -1.637,3.653 -3.657,3.653 -0.105,0 -0.204,-0.022 -0.308,-0.03 -0.21,3.042 -1.774,5.706 -4.108,7.385 0.016,0.232 0.035,0.466 0.035,0.703 0,5.497 -4.453,9.948 -9.946,9.948 -1.916,0 -3.698,-0.549 -5.216,-1.487 0.217,0.574 0.342,1.195 0.342,1.847 0,2.881 -2.333,5.214 -5.213,5.214 -0.513,0 -1.007,-0.077 -1.477,-0.214 0.069,0.466 0.114,0.941 0.114,1.427 0,5.496 -4.451,9.948 -9.947,9.948 -1.699,0 -3.299,-0.429 -4.699,-1.18 -1.26,2.047 -3.233,3.607 -5.582,4.316 0.301,0.66 0.472,1.388 0.472,2.16 0,2.879 -2.335,5.214 -5.215,5.214 -0.675,0 -1.32,-0.132 -1.914,-0.368 -0.037,5.465 -4.471,9.882 -9.944,9.882 -0.882,0 -1.731,-0.126 -2.546,-0.342 -0.795,1.866 -2.645,3.171 -4.799,3.171 -1.271,0 -2.437,-0.458 -3.342,-1.215 -0.347,2.543 -2.522,4.505 -5.159,4.505 -1.003,0 -1.934,-0.287 -2.727,-0.774 C -43.14,105.469 -54.595,101.058 -58.966,99.312 -68.703,95.423 -75.949,85.015 -75.949,74.7 V 41.472 l 53.827,-54.647 c 0.549,-0.117 1.122,-0.179 1.706,-0.179 2.989,0 5.59,1.63 6.984,4.045 1.085,-0.407 2.257,-0.639 3.485,-0.639 C -4.452,-9.948 0,-5.495 0,0"
             style="fill:#0a0f0c;fill-opacity:1;fill-rule:nonzero;stroke:none"
             id="path76" /></g><g
           id="g78"
           transform="translate(662.9561,360.0058)"><path
             d="M 0,0 C -24.947,-24.947 -278.012,-278.014 -302.96,-302.963 -327.906,-278.014 -580.967,-24.947 -605.914,0 -580.967,24.944 -327.906,278.004 -302.96,302.951 -278.016,278.004 -24.947,24.944 0,0 M -662.956,0 -302.96,-360.006 57.044,0 -302.96,359.994 Z"
             style="fill:#b71c2d;fill-opacity:1;fill-rule:nonzero;stroke:none"
             id="path80" /></g></g></g></g></svg>
