<?xml version="1.0" encoding="UTF-8" standalone="no"?>
<!-- Created with Inkscape (http://www.inkscape.org/) -->

<svg
   version="1.1"
   id="svg2"
   xml:space="preserve"
   width="960"
   height="960"
   viewBox="0 0 960 960"
   xmlns="http://www.w3.org/2000/svg"
   xmlns:svg="http://www.w3.org/2000/svg"><defs
     id="defs6"><clipPath
       clipPathUnits="userSpaceOnUse"
       id="clipPath16"><path
         d="M 0,720 H 720 V 0 H 0 Z"
         id="path14" /></clipPath></defs><g
     id="g8"
     transform="matrix(1.3333333,0,0,-1.3333333,0,960)"><g
       id="g10"><g
         id="g12"
         clip-path="url(#clipPath16)"><g
           id="g18"
           transform="translate(720.0004,360.0049)"><path
             d="M 0,0 C -29.644,-29.645 -330.36,-330.36 -360.004,-360.005 -389.649,-330.36 -690.36,-29.643 -720,0 -690.358,29.642 -389.649,330.351 -360.006,359.995 -330.361,330.351 -29.644,29.642 0,0"
             style="fill:#ffffff;fill-opacity:1;fill-rule:nonzero;stroke:none"
             id="path20" /></g><g
           id="g22"
           transform="translate(225.7939,343.8398)"><path
             d="m 0,0 c -11.12,0 -17.898,3.85 -21.106,10.131 h -79.98 V -26.428 H 98.221 V 10.131 H 25.757 C 20.829,3.811 11.221,0 0,0"
             style="fill:#0a0f0c;fill-opacity:1;fill-rule:nonzero;stroke:none"
             id="path24" /></g><g
           id="g26"
           transform="translate(244.1977,357.3721)"><path
             d="m 0,0 c 3.25,0 7.913,1.575 11.667,9.081 0.854,1.711 1.031,3.893 1.218,6.203 0.097,1.205 0.261,3.135 0.539,3.867 0.362,0.246 1.19,0.614 1.778,0.87 2.21,0.967 5.235,2.29 6.827,5.472 0.889,1.78 1.152,3.537 1.152,5.218 0,1.257 -0.147,2.47 -0.285,3.618 -0.146,1.207 -0.284,2.365 -0.284,3.572 0,0.409 0.015,0.822 0.053,1.245 0.181,2.098 3.867,6.65 7.195,9.583 l -5.07,5.768 c -1.538,-1.35 -9.231,-8.404 -9.778,-14.686 -0.215,-2.47 0.037,-4.559 0.259,-6.4 0.264,-2.194 0.388,-3.482 -0.112,-4.485 C 14.813,28.233 13.384,27.609 12.124,27.058 10.168,26.202 7.951,25.233 6.727,22.989 5.643,21.001 5.434,18.41 5.231,15.902 5.137,14.748 4.996,13.003 4.782,12.485 4.126,11.173 3.429,10.118 2.726,9.321 2.242,7.998 1.418,6.107 0,4.075 Z"
             style="fill:#0a0f0c;fill-opacity:1;fill-rule:nonzero;stroke:none"
             id="path28" /></g><g
           id="g30"
           transform="translate(234.1967,362.1558)"><path
             d="m 0,0 4.391,-6.3 c 2.511,1.75 4.308,3.726 5.61,5.592 1.418,2.031 2.242,3.922 2.726,5.246 0.181,0.496 0.32,0.919 0.42,1.23 0.693,2.148 0.181,4.184 -0.269,5.98 -0.472,1.879 -0.734,3.09 -0.222,4.233 0.601,1.34 1.618,2.139 2.906,3.152 1.469,1.155 3.296,2.594 4.442,5.005 1.416,2.981 0.588,6.265 -0.213,9.441 -0.563,2.231 -1.145,4.539 -0.833,6.3 l -7.561,1.342 c -0.146,-0.82 -0.208,-1.634 -0.208,-2.435 0,-2.508 0.605,-4.907 1.156,-7.087 0.311,-1.232 0.756,-3.001 0.756,-3.902 0,-0.16 -0.014,-0.293 -0.045,-0.39 C 12.712,26.685 12.016,26.114 10.814,25.17 9.126,23.842 7.025,22.19 5.65,19.127 4.942,17.551 4.702,16.022 4.702,14.614 4.702,12.776 5.11,11.144 5.429,9.877 5.58,9.278 5.801,8.393 5.804,8.036 5.013,5.611 3.635,2.533 0,0"
             style="fill:#0a0f0c;fill-opacity:1;fill-rule:nonzero;stroke:none"
             id="path32" /></g><g
           id="g34"
           transform="translate(200.4809,377.8901)"><path
             d="M 0,0 C 0.513,-0.946 0.838,-1.84 1.059,-2.685 1.823,-3.173 2.938,-3.9 3.158,-4.27 3.5,-5.169 3.175,-7.701 2.961,-9.376 2.891,-9.929 2.824,-10.46 2.768,-10.979 c 1.827,-1.831 4.709,-3.947 6.263,-4.725 l -2.893,-5.789 c 1.43,-2.044 3.1,-4.078 4.615,-5.745 l 5.683,5.166 c -3.273,3.602 -5.569,7.099 -6.119,8.641 -0.008,0.068 -0.014,0.142 -0.014,0.239 0,0.673 0.162,1.949 0.278,2.841 0.192,1.506 0.398,3.117 0.398,4.706 0,1.442 -0.17,2.866 -0.674,4.176 C 9.29,1.175 6.928,2.68 5.031,3.892 3.913,4.606 2.377,5.584 2.301,6.2 2.282,6.358 2.272,6.512 2.272,6.667 c 0,0.771 0.241,1.559 0.673,2.896 0.629,1.949 1.464,4.532 1.464,8.295 0,0.507 -0.016,1.035 -0.048,1.585 L -3.307,18.986 C -3.115,15.788 -3.722,13.911 -4.364,11.922 -4.969,10.049 -5.654,7.926 -5.32,5.249 -5.305,5.119 -5.278,4.998 -5.256,4.873 -3.471,3.93 -1.396,2.58 0,0"
             style="fill:#0a0f0c;fill-opacity:1;fill-rule:nonzero;stroke:none"
             id="path36" /></g><g
           id="g38"
           transform="translate(184.2841,393.8071)"><path
             d="m 0,0 c 0.129,-1.498 -0.108,-2.565 -0.381,-3.799 -0.466,-2.106 -1.048,-4.726 0.687,-8.196 1.548,-3.094 4.208,-4.416 6.151,-5.382 1.571,-0.78 2.483,-1.266 2.988,-2.196 0.626,-1.158 0.555,-1.961 0.436,-3.288 -0.144,-1.622 -0.343,-3.845 1.072,-6.249 2.303,-3.915 8.294,-8.107 10.841,-9.381 l 0.541,1.081 2.893,5.789 c -1.555,0.778 -4.436,2.894 -6.263,4.725 -0.611,0.612 -1.105,1.192 -1.392,1.678 -0.138,0.235 -0.145,0.517 -0.042,1.675 0.112,1.241 0.247,2.938 -0.275,4.941 -0.221,0.845 -0.547,1.739 -1.059,2.685 -1.396,2.58 -3.471,3.93 -5.256,4.873 -0.369,0.194 -0.731,0.378 -1.066,0.545 -1.636,0.812 -2.338,1.215 -2.7,1.939 -0.499,0.998 -0.437,1.393 -0.058,3.099 0.322,1.455 0.765,3.451 0.536,6.119 C 7.214,5.726 3.289,9.975 0.134,13.386 l -2.33,2.612 -5.945,-4.864 2.635,-2.961 C -3.146,5.621 -0.212,2.445 0,0"
             style="fill:#0a0f0c;fill-opacity:1;fill-rule:nonzero;stroke:none"
             id="path40" /></g><g
           id="g42"
           transform="translate(331.8383,472.0327)"><path
             d="m 0,0 c -10.24,-0.64 -99.681,-9.28 -99.681,-9.28 l -1.92,12.64 c 0,0 88.48,15.36 98.88,17.121 C 7.68,22.241 15.04,18.08 15.04,11.52 15.04,4.959 10.239,0.64 0,0 M 22.639,13.92 C 20.719,24 9.918,30.72 -5.201,28.321 -20.32,25.92 -89.253,13.518 -95.92,12.241 c -9.806,-1.879 -12.076,7.036 -16.56,9.119 0,0 6.614,-38.835 6.997,-41.717 1.378,-10.375 -5.718,-15.725 -5.718,-23.482 0,-2.811 1.221,-8.037 4.787,-10.355 -1.069,-13.899 -7.144,-23.86 -7.144,-29.24 0,-5.896 1.424,-13.825 8.336,-13.825 6.913,0 8.744,8.945 8.744,12.605 0,3.23 -4.907,16.91 -6.061,29.304 0.048,-10e-4 0.09,-0.01 0.139,-0.01 6.719,0 8.16,6.72 8.16,11.84 0,7.925 -3.841,12.479 -3.841,14.399 0,1.92 1.601,4.16 7.681,5.121 6.08,0.959 82.08,14.161 94.08,16.08 12,1.92 20.88,11.76 18.959,21.84"
             style="fill:#0a0f0c;fill-opacity:1;fill-rule:nonzero;stroke:none"
             id="path44" /></g><g
           id="g46"
           transform="translate(384.3178,474.5928)"><path
             d="m 0,0 c -10.24,0.639 -14.881,4.16 -14.881,10.72 0,6.56 8.16,12.8 19.841,10.881 C 15.368,19.89 109.04,3.52 109.04,3.52 l -1.92,-12.64 c 0,0 -96.881,8.48 -107.12,9.12 m 117.526,-40.603 c 0,10.967 -5.704,8.811 -4.327,19.186 0.382,2.885 5.916,40.537 5.916,40.537 -4.484,-2.083 -5.674,-9.818 -15.478,-7.939 -6.668,1.277 -83.788,15.511 -98.908,17.912 -15.123,2.4 -25.358,-5.465 -27.278,-15.545 -1.92,-10.08 6.48,-19.786 18.48,-21.706 12,-1.92 96.105,-15.933 102.185,-16.902 3.473,-0.553 6.315,-2.839 6.315,-3.787 0,-0.947 -3.707,-4.497 -3.707,-10.731 0,-4.761 0.744,-12.26 6.255,-13.285 -2.066,-10.682 -6.519,-20.929 -6.519,-23.739 0,-3.66 1.089,-12.804 8.003,-12.804 6.912,0 9.077,8.128 9.077,14.024 0,4.664 -4.08,12.2 -5.791,23.089 4.145,1.832 5.777,6.989 5.777,11.69"
             style="fill:#0a0f0c;fill-opacity:1;fill-rule:nonzero;stroke:none"
             id="path48" /></g><g
           id="g50"
           transform="translate(525.2202,409.7422)"><path
             d="m 0,0 c 0.054,-1.078 0.084,-1.672 -0.513,-3.004 -1.116,-2.476 -3.07,-5.574 -6.041,-6.267 l 1.744,-7.48 c 3.329,0.777 7.992,3.245 11.299,10.595 1.358,3.019 1.255,5.054 1.18,6.541 -0.06,1.203 -0.085,1.702 0.936,3.311 0.726,1.141 0.93,1.195 1.8,1.422 1.97,0.516 4.233,1.37 6.179,4.995 2.218,4.137 1.504,7.581 0.979,10.096 -0.283,1.377 -0.51,2.465 -0.333,3.589 0.271,1.721 1.484,3.036 3.788,5.407 1.253,1.289 2.672,2.75 4.109,4.576 l -6.039,4.746 C 17.903,37.018 16.686,35.767 15.51,34.556 12.952,31.925 10.309,29.203 9.644,24.996 9.248,22.484 9.689,20.356 10.048,18.646 10.51,16.41 10.679,15.354 9.815,13.744 9.291,12.766 9.274,12.762 8.459,12.548 6.525,12.041 4.28,11.217 2.119,7.808 -0.03,4.42 -0.11,2.182 0,0"
             style="fill:#0a0f0c;fill-opacity:1;fill-rule:nonzero;stroke:none"
             id="path52" /></g><g
           id="g54"
           transform="translate(512.0737,396.7109)"><path
             d="m 0,0 c 3.683,3.238 4.822,4.412 6.5,9.804 1.093,3.508 0.843,5.827 0.641,7.691 -0.162,1.481 -0.277,2.55 0.233,4.456 0.262,0.975 0.349,1.021 1.426,1.598 1.635,0.877 4.377,2.346 5.592,7.111 1.114,4.369 -0.148,7.118 -1.068,9.125 -0.714,1.562 -1.147,2.507 -0.774,4.557 L 4.992,45.717 C 4.187,41.289 5.434,38.57 6.343,36.584 7.063,35.014 7.392,34.295 6.948,32.559 6.57,31.068 6.302,30.923 5.172,30.32 3.638,29.498 1.072,28.123 -0.048,23.93 -0.924,20.643 -0.686,18.441 -0.494,16.671 -0.325,15.107 -0.216,14.074 -0.835,12.086 -1.946,8.515 -2.062,8.412 -5.07,5.77 l -1.792,-1.59 5.137,-5.708 z"
             style="fill:#0a0f0c;fill-opacity:1;fill-rule:nonzero;stroke:none"
             id="path56" /></g><g
           id="g58"
           transform="translate(455.2251,422.252)"><path
             d="m 0,0 c 0.866,-3.85 3.608,-5.544 5.611,-6.78 1.826,-1.126 2.437,-1.592 2.693,-2.795 0.399,-1.883 0.222,-2.415 -0.049,-3.221 -0.538,-1.603 -0.951,-3.283 -0.126,-6.179 1.446,-5.054 2.985,-6.755 8.105,-11.874 l 5.429,5.431 c -4.847,4.848 -5.251,5.407 -6.149,8.553 -0.239,0.844 -0.221,0.902 0.021,1.625 0.566,1.683 1.054,3.631 0.281,7.262 -0.962,4.517 -4.094,6.452 -6.168,7.731 C 8.076,0.725 7.632,1.074 7.492,1.686 7.22,2.905 7.518,3.837 8.164,5.668 8.947,7.887 9.925,10.649 9.461,14.593 L 1.832,13.695 C 2.089,11.525 1.575,10.07 0.922,8.229 0.168,6.092 -0.773,3.433 0,0"
             style="fill:#0a0f0c;fill-opacity:1;fill-rule:nonzero;stroke:none"
             id="path60" /></g><g
           id="g62"
           transform="translate(450.0415,424.3374)"><path
             d="m 0,0 c 0,1.366 -0.208,2.966 -0.853,4.862 -1.779,5.234 -3.628,7.249 -5.772,9.584 l -2.151,2.437 -5.915,-4.898 2.409,-2.732 c 1.929,-2.103 2.898,-3.158 4.157,-6.862 0.663,-1.949 0.466,-2.969 0.167,-4.513 -0.384,-1.981 -0.908,-4.693 0.792,-8.519 1.876,-4.222 4.694,-5.259 6.559,-5.945 1.241,-0.456 1.464,-0.539 1.898,-1.472 0.741,-1.6 0.645,-2.059 0.469,-2.891 -0.228,-1.097 -0.615,-2.936 0.45,-5.353 1.372,-3.119 5.239,-10.475 11.505,-11.397 l 1.119,7.597 c -1.536,0.227 -3.995,3.253 -5.596,6.892 l -0.063,0.176 0.102,0.511 c 0.161,0.764 0.296,1.567 0.296,2.486 0,1.387 -0.309,3.037 -1.314,5.207 -1.768,3.815 -4.443,4.8 -6.213,5.452 -1.322,0.486 -1.636,0.601 -2.194,1.857 -0.382,0.862 -0.52,1.469 -0.52,2.091 0,0.546 0.106,1.101 0.25,1.848 C -0.228,-2.598 0,-1.427 0,0"
             style="fill:#0a0f0c;fill-opacity:1;fill-rule:nonzero;stroke:none"
             id="path64" /></g><g
           id="g66"
           transform="translate(448.1098,372.084)"><path
             d="m 0,0 c 0.975,0.074 2.152,0.115 3.15,0.143 3.682,0.107 8.107,0.313 12.314,1.693 4.276,-3.261 9.439,-5.204 14.753,-6.067 -0.119,-0.186 -0.238,-0.372 -0.35,-0.565 H 10.712 C 4.479,-4.796 1.213,-1.856 0,0 m 46.521,-3.758 v 0.232 c 3.178,0.835 6.104,2.061 8.559,3.651 4.078,-1.758 9.804,-5.23 13.776,-7.643 3.458,-2.098 5.171,-3.127 6.308,-3.565 3.485,-1.341 17.996,-2.531 26.991,-2.531 v 7.679 c -10.156,0 -22.323,1.34 -24.243,2.024 -0.612,0.252 -3.085,1.753 -5.071,2.96 -5.17,3.138 -12.251,7.435 -17.09,9.049 L 53.757,8.762 52.122,7.439 C 50.004,5.727 47.135,4.478 43.925,3.72 43.24,3.62 42.52,3.478 41.779,3.297 33.959,2.055 24.672,3.661 18.796,9.003 L 16.911,10.717 14.6,9.646 C 11.173,8.058 6.602,7.925 2.932,7.82 -1.736,7.686 -5.424,7.58 -7.318,4.633 -8.69,2.494 -8.559,-0.42 -6.952,-3.361 c 0.261,-0.477 0.569,-0.957 0.912,-1.435 h -11.895 c -12.902,0 -14.276,-7.901 -14.276,-10.67 0,-0.766 0.094,-1.749 0.357,-2.8 h -4.483 c -7.405,0 -12.38,-5.812 -12.38,-11.239 0,-5.177 4.601,-11.429 12.758,-11.429 h 2.387 c -0.117,-0.625 -0.156,-1.195 -0.156,-1.662 0,-6.3 5.546,-11.429 15.035,-11.429 h 0.175 c -0.261,-0.77 -0.413,-1.577 -0.413,-2.42 0,-4.82 4.316,-10.041 13.957,-10.846 6.983,-0.581 37.106,-1.531 42.624,-1.531 4.496,0 23.366,0.605 33.518,3.568 3.027,0.883 5.556,2.061 8,3.197 5.279,2.457 10.736,4.996 22.606,4.996 v 7.681 c -13.569,0 -20.092,-3.036 -25.844,-5.713 -2.287,-1.065 -4.448,-2.069 -6.912,-2.788 -8.527,-2.488 -25.977,-3.261 -31.368,-3.261 -5.093,0 -35.225,0.941 -41.987,1.505 -4.885,0.407 -6.912,2.28 -6.912,3.192 0.171,0.466 2.518,2.42 7.922,2.42 h 30.925 l -7.4,7.681 H -3.327 c -0.515,0 -1.02,-0.017 -1.518,-0.045 v 0.045 h -13.848 c -4.759,0 -7.356,2.477 -7.356,3.748 0,1.091 2.94,1.662 5.837,1.662 h 33.77 v 7.68 h -33.77 c -0.597,0 -1.161,-0.019 -1.708,-0.051 v 0.051 h -14.039 c -2.874,0 -5.014,2.824 -5.076,3.762 0,1 1.397,3.547 4.698,3.547 h 49.895 v 7.679 h -33.77 c -3.421,0 -4.51,1.34 -4.51,2.775 0,1.434 1.311,3.014 6.787,3.014 h 45.941 c 0.135,-7.197 4.195,-19.276 28.954,-22.404 l 0.962,7.619 c -8.307,1.049 -22.242,4.416 -22.242,15.168 0,0.465 0.039,0.901 0.109,1.315 1.125,6.585 10.629,7.021 10.732,7.021"
             style="fill:#0a0f0c;fill-opacity:1;fill-rule:nonzero;stroke:none"
             id="path68" /></g><g
           id="g70"
           transform="translate(662.9575,360.0039)"><path
             d="M 0,0 C -24.946,-24.945 -278.014,-278.014 -302.96,-302.961 -327.906,-278.014 -580.968,-24.945 -605.914,0 -580.968,24.946 -327.906,278.007 -302.96,302.953 -278.014,278.007 -24.946,24.946 0,0 M -662.957,0 -302.96,-360.004 57.043,0 -302.96,359.996 Z"
             style="fill:#b71c2d;fill-opacity:1;fill-rule:nonzero;stroke:none"
             id="path72" /></g></g></g></g></svg>
