<?xml version="1.0" encoding="UTF-8" standalone="no"?>
<!-- Created with Inkscape (http://www.inkscape.org/) -->

<svg
   version="1.1"
   id="svg2"
   xml:space="preserve"
   width="516.62665"
   height="252"
   viewBox="0 0 516.62665 252"
   xmlns="http://www.w3.org/2000/svg"
   xmlns:svg="http://www.w3.org/2000/svg"><defs
     id="defs6"><clipPath
       clipPathUnits="userSpaceOnUse"
       id="clipPath16"><path
         d="M 0,189 H 387.47 V 0 H 0 Z"
         id="path14" /></clipPath></defs><g
     id="g8"
     transform="matrix(1.3333333,0,0,-1.3333333,0,252)"><g
       id="g10"><g
         id="g12"
         clip-path="url(#clipPath16)"><g
           id="g18"
           transform="translate(298.127,131.1001)"><path
             d="M 0,0 89.343,-36.6 0,-73.15 l -0.01,24.8 c 0,0 -74.085,-0.03 -111.117,0.019 0.866,7.781 0.866,15.681 0,23.461 37.032,0.05 111.117,0.02 111.117,0.02 z"
             style="fill:#0a0f0c;fill-opacity:1;fill-rule:nonzero;stroke:none"
             id="path20" /></g><g
           id="g22"
           transform="translate(188.4199,94.5)"><path
             d="m 0,0 c 0,-52.19 -42.179,-94.5 -94.21,-94.5 -52.031,0 -94.21,42.31 -94.21,94.5 0,52.191 42.179,94.5 94.21,94.5 C -42.179,94.5 0,52.191 0,0"
             style="fill:#b71c2d;fill-opacity:1;fill-rule:nonzero;stroke:none"
             id="path24" /></g></g></g></g></svg>
