<?xml version="1.0" encoding="UTF-8" standalone="no"?>
<!-- Created with Inkscape (http://www.inkscape.org/) -->

<svg
   version="1.1"
   id="svg2"
   xml:space="preserve"
   width="511.00934"
   height="260.31866"
   viewBox="0 0 511.00934 260.31866"
   xmlns="http://www.w3.org/2000/svg"
   xmlns:svg="http://www.w3.org/2000/svg"><defs
     id="defs6"><clipPath
       clipPathUnits="userSpaceOnUse"
       id="clipPath16"><path
         d="M 0,195.239 H 383.257 V 0 H 0 Z"
         id="path14" /></clipPath></defs><g
     id="g8"
     transform="matrix(1.3333333,0,0,-1.3333333,0,260.31867)"><g
       id="g10"><g
         id="g12"
         clip-path="url(#clipPath16)"><g
           id="g18"
           transform="translate(288.75,97.5229)"><path
             d="m 0,0 c 0,-53.764 -43.584,-97.348 -97.349,-97.348 -53.763,0 -97.348,43.584 -97.348,97.348 0,53.764 43.585,97.348 97.348,97.348 C -43.584,97.348 0,53.764 0,0"
             style="fill:#0a0f0c;fill-opacity:1;fill-rule:nonzero;stroke:none"
             id="path20" /></g><g
           id="g22"
           transform="translate(275.2305,148.0493)"><path
             d="m 0,0 c 0,0 72,-0.03 108.01,-0.06 0.029,-33.58 0.01,-67.16 0.01,-100.74 -35.991,-0.02 -107.96,-0.02 -107.96,-0.02 l -167.38,0.01 H -275.23 V -0.06 h 107.899 z"
             style="fill:#0a0f0c;fill-opacity:1;fill-rule:nonzero;stroke:none"
             id="path24" /></g><g
           id="g26"
           transform="translate(165.1602,185.0591)"><path
             d="M 0,0 C 17.8,5.48 37.27,5.19 54.95,-0.64 74.29,-7.02 91.43,-19.99 102.57,-37.06 51.82,-37.07 1.07,-37.11 -49.68,-37.04 -38.12,-19.42 -20.21,-6.03 0,0"
             style="fill:#b71c2d;fill-opacity:1;fill-rule:nonzero;stroke:none"
             id="path28" /></g><g
           id="g30"
           transform="translate(6.2798,141.749)"><path
             d="m 0,0 c 123.53,0.02 247.07,-0.07 370.6,0.05 0.26,-29.44 0.08,-58.88 0.09,-88.32 -123.569,0.03 -247.14,0 -370.71,0.02 0,29.42 -0.04,58.83 0.02,88.25"
             style="fill:#b71c2d;fill-opacity:1;fill-rule:nonzero;stroke:none"
             id="path32" /></g><g
           id="g34"
           transform="translate(115.4302,47.2197)"><path
             d="m 0,0 c 50.78,0.029 101.56,0.029 152.33,0 -12.02,-18.19 -30.72,-31.851 -51.75,-37.631 -18.36,-5.14 -38.32,-4.3 -56.17,2.391 C 26.38,-28.561 10.61,-16.03 0,0"
             style="fill:#b71c2d;fill-opacity:1;fill-rule:nonzero;stroke:none"
             id="path36" /></g></g></g></g></svg>
