<?xml version="1.0" encoding="UTF-8" standalone="no"?>
<!-- Created with Inkscape (http://www.inkscape.org/) -->

<svg
   version="1.1"
   id="svg2"
   xml:space="preserve"
   width="316"
   height="316"
   viewBox="0 0 316 316"
   xmlns="http://www.w3.org/2000/svg"
   xmlns:svg="http://www.w3.org/2000/svg"><defs
     id="defs6"><clipPath
       clipPathUnits="userSpaceOnUse"
       id="clipPath16"><path
         d="M 0,237 H 237 V 0 H 0 Z"
         id="path14" /></clipPath></defs><g
     id="g8"
     transform="matrix(1.3333333,0,0,-1.3333333,0,316)"><g
       id="g10"><g
         id="g12"
         clip-path="url(#clipPath16)"><g
           id="g18"
           transform="translate(0,237)"><path
             d="m 0,0 h 236.997 c 0,-78.999 0.011,-157.998 -0.01,-236.987 -78.989,-0.021 -157.988,-0.01 -236.987,-0.01 z"
             style="fill:#b71c2d;fill-opacity:1;fill-rule:nonzero;stroke:none"
             id="path20" /></g><g
           id="g22"
           transform="translate(57.0698,221.0298)"><path
             d="m 0,0 c 4.04,0.79 9.58,2.79 12.56,-1.16 4.21,-16.4 7.65,-33 11.35,-49.52 0.36,-1.58 1.03,-3.56 -0.62,-4.68 -2.62,-3.61 -7.35,-3.93 -11.38,-3.06 C 7.91,-38.95 3.94,-19.48 0,0"
             style="fill:#ffffff;fill-opacity:1;fill-rule:nonzero;stroke:none"
             id="path24" /></g><g
           id="g26"
           transform="translate(23.1099,208.8599)"><path
             d="m 0,0 c 8.14,7.55 19.4,10.61 30.31,10.44 3.92,-19.82 7.98,-39.61 11.83,-59.44 -5.62,-0.02 -12.82,4.57 -16.9,-1.39 4.32,-16.54 9.31,-32.9 15.1,-48.98 4.56,-12.799 8.35,-25.88 13.5,-38.47 1.1,-2.89 3.01,-5.329 5,-7.67 4,3.801 7.85,7.76 12.07,11.32 13.05,-15.2 26.37,-30.16 39.51,-45.29 -12.66,-8.88 -28.05,-12.5 -43.13,-14.62 -0.41,0.16 -1.25,0.48 -1.66,0.63 -19.61,14.49 -35.82,33.61 -46.86,55.37 -5.56,10.99 -10.29,22.41 -14.28,34.07 -7.64,25.15 -11.79,51.49 -10.67,77.8 0.1,6.58 0.49,13.15 1.11,19.71 C -4.9,-3.55 -1.82,-1.99 0,0"
             style="fill:#ffffff;fill-opacity:1;fill-rule:nonzero;stroke:none"
             id="path28" /></g><g
           id="g30"
           transform="translate(196.2695,183.8501)"><path
             d="m 0,0 c 3.011,-9.5 6.74,-18.87 12.261,-27.21 3.09,-4.73 7.62,-8.51 12.96,-10.43 0.009,-8.95 0.029,-17.89 -0.01,-26.83 C 14.341,-56.73 4.141,-46.84 -0.5,-34.04 -3.96,-23 -2.659,-11.07 0,0"
             style="fill:#ffffff;fill-opacity:1;fill-rule:nonzero;stroke:none"
             id="path32" /></g><g
           id="g34"
           transform="translate(158.2402,171.1201)"><path
             d="m 0,0 c 5.7,0.91 11.91,0.19 16.66,-3.32 5.119,-3.78 10.06,-8.3 12.5,-14.32 3.55,-7.99 6.819,-16.13 11.46,-23.58 5.04,-9.54 13.13,-17.49 22.87,-22.18 -8.68,-2.49 -18.421,-2.06 -26.2,2.82 -7.681,3.729 -12.9,10.79 -17.09,17.98 -4.91,8.68 -7.41,18.39 -9.77,28 C 9.13,-8.54 4.819,-3.64 0,0"
             style="fill:#ffffff;fill-opacity:1;fill-rule:nonzero;stroke:none"
             id="path36" /></g><g
           id="g38"
           transform="translate(164.3496,132.8398)"><path
             d="m 0,0 c 7.261,-12.21 17.92,-22.1 29.92,-29.57 8.2,-4.63 17.12,-9.02 26.74,-9.09 -0.019,-8.84 0,-17.68 -0.019,-26.52 C 45.301,-62.05 34,-57.979 24.271,-51.22 14.16,-43.649 6.91,-32.7 2.391,-21.01 -0.29,-14.35 -0.34,-7.06 0,0"
             style="fill:#ffffff;fill-opacity:1;fill-rule:nonzero;stroke:none"
             id="path40" /></g><g
           id="g42"
           transform="translate(145.2803,81.4902)"><path
             d="M 0,0 C 5.47,4.17 12.39,5.95 19.189,5.93 25.88,5.25 32.05,2.12 37.21,-2.101 41.279,-5 44,-9.28 47.7,-12.58 55.46,-20.101 66.1,-23.42 76.27,-26.25 63.18,-38.03 40.79,-36.03 29.42,-22.8 25.16,-18.36 22.18,-12.82 17.55,-8.71 12.81,-4.01 6.37,-1.58 0,0"
             style="fill:#ffffff;fill-opacity:1;fill-rule:nonzero;stroke:none"
             id="path44" /></g><g
           id="g46"
           transform="translate(97.52,77.3496)"><path
             d="M 0,0 C 2.26,4.32 6.87,7.19 11.79,6.87 12.06,6.69 12.58,6.32 12.85,6.141 24.24,-7.76 36.12,-21.239 47.79,-34.909 48.67,-40.17 43.53,-43.119 39.71,-45.38 26.43,-30.29 13.19,-15.159 0,0"
             style="fill:#ffffff;fill-opacity:1;fill-rule:nonzero;stroke:none"
             id="path48" /></g><g
           id="g50"
           transform="translate(163.7695,55.4199)"><path
             d="m 0,0 c 6.471,-7.91 16.271,-11.979 25.94,-14.4 10.151,-2.6 20.85,-1.1 30.79,1.73 0,-8.57 0.01,-17.14 -0.009,-25.71 C 44.28,-38.93 31.16,-38.51 19.811,-32.81 7.961,-26.34 2.19,-12.729 0,0"
             style="fill:#ffffff;fill-opacity:1;fill-rule:nonzero;stroke:none"
             id="path52" /></g></g></g></g></svg>
