<?xml version="1.0" encoding="UTF-8" standalone="no"?>
<!-- Created with Inkscape (http://www.inkscape.org/) -->

<svg
   version="1.1"
   id="svg2"
   xml:space="preserve"
   width="316"
   height="316"
   viewBox="0 0 316 316"
   xmlns="http://www.w3.org/2000/svg"
   xmlns:svg="http://www.w3.org/2000/svg"><defs
     id="defs6"><clipPath
       clipPathUnits="userSpaceOnUse"
       id="clipPath16"><path
         d="M 0,237 H 237 V 0 H 0 Z"
         id="path14" /></clipPath></defs><g
     id="g8"
     transform="matrix(1.3333333,0,0,-1.3333333,0,316)"><g
       id="g10"><g
         id="g12"
         clip-path="url(#clipPath16)"><g
           id="g18"
           transform="translate(0,237)"><path
             d="m 0,0 h 236.995 c 0,-78.999 0.011,-157.997 0,-236.995 -78.998,-0.011 -157.996,0 -236.995,0 z"
             style="fill:#b71c2d;fill-opacity:1;fill-rule:nonzero;stroke:none"
             id="path20" /></g><g
           id="g22"
           transform="translate(27.75,217.4902)"><path
             d="m 0,0 c 16.58,0.02 33.16,0.01 49.75,0.01 -0.04,-16.57 0.09,-33.14 -0.07,-49.71 -4.22,-0.06 -8.44,-0.04 -12.66,-0.05 -0.49,2.82 -1.59,5.48 -3.29,7.78 2.76,-0.02 5.51,-0.02 8.27,-0.02 V -7.5 c -11.41,0.02 -22.83,0 -34.24,0.02 -0.02,-11.51 0,-23.01 -0.01,-34.51 2.54,0 5.08,0 7.63,0.02 -1.63,-2.33 -2.72,-4.97 -3.16,-7.78 C 8.15,-49.74 4.07,-49.74 0,-49.74 0,-33.16 0.01,-16.58 0,0"
             style="fill:#ffffff;fill-opacity:1;fill-rule:nonzero;stroke:none"
             id="path24" /></g><g
           id="g26"
           transform="translate(48.8701,200.96)"><path
             d="M 0,0 C 6.5,3.42 14.73,-3.41 12.6,-10.41 11.41,-16.8 2.72,-19.47 -2.03,-15.2 -7.02,-11.31 -5.97,-2.36 0,0"
             style="fill:#ffffff;fill-opacity:1;fill-rule:nonzero;stroke:none"
             id="path28" /></g><g
           id="g30"
           transform="translate(196.2598,183.8501)"><path
             d="m 0,0 c 3.03,-9.51 6.75,-18.9 12.29,-27.24 3.09,-4.73 7.62,-8.47 12.94,-10.42 0.01,-8.94 0.03,-17.88 -0.009,-26.82 C 14.33,-56.72 4.11,-46.81 -0.52,-33.98 -3.939,-22.95 -2.64,-11.06 0,0"
             style="fill:#ffffff;fill-opacity:1;fill-rule:nonzero;stroke:none"
             id="path32" /></g><g
           id="g34"
           transform="translate(43.52,167.5498)"><path
             d="m 0,0 c -0.38,6.59 8.12,11.08 13.45,7.36 2.88,-1.74 4.5,-5.05 4.29,-8.39 -0.07,-12.58 0.1,-25.16 -0.1,-37.74 2.73,5.21 9.56,7.89 14.95,5.23 4.01,-1.67 6.46,-5.81 6.64,-10.07 3.42,4.52 10.62,5.67 14.91,1.75 2.7,-2.07 3.6,-5.57 3.34,-8.829 3.63,4.979 11.68,5.799 15.81,1.009 3.14,-2.91 2.67,-7.45 2.46,-11.31 -0.06,-19.699 0.01,-39.4 -0.03,-59.1 -0.53,-5.96 -4.45,-10.849 -8.66,-14.78 -0.24,-4.47 0,-8.949 -0.08,-13.43 -23.17,0 -46.34,-0.01 -69.5,0.01 -0.28,8.431 -4.81,15.73 -8.81,22.86 -3.62,6.31 -7.43,12.5 -11.55,18.491 -0.66,1.179 -1.79,2.279 -1.63,3.75 -0.04,16.729 0.02,33.469 -0.03,50.21 -0.27,3.369 3.18,6.479 6.52,5.919 3.5,-0.34 6.89,-2.24 8.73,-5.28 3.19,-4.92 3.88,-10.979 3.78,-16.72 -0.14,-6.83 0.45,-13.65 0.23,-20.48 1.75,0 3.5,-0.01 5.24,-0.02 C 0.02,-59.71 -0.06,-29.86 0,0"
             style="fill:#ffffff;fill-opacity:1;fill-rule:nonzero;stroke:none"
             id="path36" /></g><g
           id="g38"
           transform="translate(158.2305,171.1499)"><path
             d="m 0,0 c 6.659,1.15 13.8,-0.39 18.859,-5 5.43,-4.09 9.491,-9.66 11.851,-16.02 2.939,-7.45 6.51,-14.63 10.649,-21.48 4.981,-9.04 12.88,-16.419 22.13,-20.94 -8.91,-2.56 -18.889,-1.97 -26.79,3.17 -6.729,3.34 -11.399,9.44 -15.319,15.64 -4.41,7.31 -7.32,15.44 -9.311,23.71 -1.319,4.51 -1.84,9.44 -4.71,13.32 C 5.46,-4.58 2.75,-2.22 0,0"
             style="fill:#ffffff;fill-opacity:1;fill-rule:nonzero;stroke:none"
             id="path40" /></g><g
           id="g42"
           transform="translate(164.3398,132.8301)"><path
             d="m 0,0 c 7.3,-12.21 17.96,-22.12 29.97,-29.59 8.19,-4.63 17.091,-8.96 26.69,-9.08 0,-8.83 0.01,-17.66 -0.01,-26.5 C 45.3,-62.04 33.99,-57.96 24.26,-51.2 13.99,-43.49 6.65,-32.311 2.17,-20.38 -0.32,-13.89 -0.3,-6.84 0,0"
             style="fill:#ffffff;fill-opacity:1;fill-rule:nonzero;stroke:none"
             id="path44" /></g><g
           id="g46"
           transform="translate(145.2803,81.5)"><path
             d="M 0,0 C 5.47,4.14 12.359,5.94 19.149,5.91 29.72,4.83 38.609,-2.11 45.16,-10.06 53.13,-19.15 64.939,-23.22 76.27,-26.26 63.72,-37.54 42.5,-36.25 30.85,-24.29 25.7,-19.4 22.42,-12.89 17.02,-8.23 12.34,-3.81 6.13,-1.56 0,0"
             style="fill:#ffffff;fill-opacity:1;fill-rule:nonzero;stroke:none"
             id="path48" /></g><g
           id="g50"
           transform="translate(163.75,55.4102)"><path
             d="m 0,0 c 6.49,-7.86 16.23,-11.96 25.89,-14.37 10.17,-2.62 20.9,-1.12 30.86,1.7 -0.01,-8.56 0.02,-17.13 -0.02,-25.7 -12.45,-0.55 -25.59,-0.12 -36.95,5.59 C 7.95,-26.29 2.23,-12.7 0,0"
             style="fill:#ffffff;fill-opacity:1;fill-rule:nonzero;stroke:none"
             id="path52" /></g></g></g></g></svg>
