<?xml version="1.0" encoding="UTF-8" standalone="no"?>
<!-- Created with Inkscape (http://www.inkscape.org/) -->

<svg
   version="1.1"
   id="svg2"
   xml:space="preserve"
   width="268.66934"
   height="157.66933"
   viewBox="0 0 268.66934 157.66933"
   xmlns="http://www.w3.org/2000/svg"
   xmlns:svg="http://www.w3.org/2000/svg"><defs
     id="defs6"><clipPath
       clipPathUnits="userSpaceOnUse"
       id="clipPath16"><path
         d="M 0,118.252 H 201.502 V 0 H 0 Z"
         id="path14" /></clipPath></defs><g
     id="g8"
     transform="matrix(1.3333333,0,0,-1.3333333,0,157.66933)"><g
       id="g10"><g
         id="g12"
         clip-path="url(#clipPath16)"><g
           id="g18"
           transform="translate(0,118.2525)"><path
             d="m 0,0 h 201.5 c 0,-39.41 0.009,-78.83 -0.008,-118.24 C 134.334,-118.26 67.167,-118.25 0,-118.25 Z"
             style="fill:#b71c2d;fill-opacity:1;fill-rule:nonzero;stroke:none"
             id="path20" /></g><g
           id="g22"
           transform="translate(16.5776,25.6841)"><path
             d="M 0,0 V 66.93 H 46.188 V 55.608 H 12.577 V 40.771 H 43.851 V 29.492 H 12.577 V 11.276 h 34.8 V 0 Z"
             style="fill:#ffffff;fill-opacity:1;fill-rule:nonzero;stroke:none"
             id="path24" /></g><g
           id="g26"
           transform="translate(114.4756,50.2916)"><path
             d="m 0,0 12.195,-4.154 c -1.87,-7.305 -4.979,-12.731 -9.327,-16.276 -4.348,-3.547 -9.865,-5.319 -16.549,-5.319 -8.272,0 -15.07,3.036 -20.396,9.108 -5.326,6.073 -7.988,14.373 -7.988,24.905 0,11.14 2.677,19.792 8.031,25.955 5.354,6.163 12.392,9.245 21.117,9.245 7.62,0 13.81,-2.42 18.568,-7.259 2.832,-2.861 4.957,-6.97 6.374,-12.327 l -12.45,-3.195 c -0.737,3.469 -2.273,6.209 -4.61,8.217 -2.337,2.009 -5.177,3.014 -8.519,3.014 -4.617,0 -8.363,-1.781 -11.238,-5.342 -2.876,-3.561 -4.313,-9.329 -4.313,-17.303 0,-8.462 1.416,-14.489 4.249,-18.08 2.832,-3.591 6.515,-5.387 11.047,-5.387 3.342,0 6.217,1.141 8.625,3.424 C -2.776,-8.491 -1.048,-4.9 0,0"
             style="fill:#ffffff;fill-opacity:1;fill-rule:nonzero;stroke:none"
             id="path28" /></g><g
           id="g30"
           transform="translate(134.2764,47.4615)"><path
             d="m 0,0 12.237,1.278 c 0.737,-4.414 2.231,-7.655 4.483,-9.724 2.252,-2.071 5.29,-3.105 9.114,-3.105 4.051,0 7.103,0.92 9.157,2.762 2.054,1.842 3.08,3.995 3.08,6.461 0,1.582 -0.431,2.929 -1.296,4.04 -0.864,1.11 -2.373,2.077 -4.525,2.899 -1.473,0.547 -4.83,1.522 -10.07,2.922 -6.742,1.795 -11.473,4.003 -14.192,6.62 -3.824,3.683 -5.736,8.173 -5.736,13.469 0,3.408 0.898,6.597 2.698,9.564 1.799,2.968 4.391,5.228 7.776,6.78 3.384,1.552 7.471,2.328 12.258,2.328 7.819,0 13.704,-1.842 17.656,-5.524 3.951,-3.683 6.026,-8.599 6.224,-14.747 L 36.287,25.43 c -0.538,3.439 -1.693,5.912 -3.463,7.419 -1.77,1.506 -4.427,2.26 -7.967,2.26 -3.654,0 -6.516,-0.807 -8.584,-2.42 -1.331,-1.035 -1.997,-2.419 -1.997,-4.154 0,-1.583 0.623,-2.938 1.87,-4.063 1.586,-1.431 5.439,-2.922 11.558,-4.475 6.118,-1.552 10.644,-3.158 13.575,-4.816 2.933,-1.66 5.227,-3.927 6.884,-6.803 1.657,-2.877 2.485,-6.431 2.485,-10.661 0,-3.835 -0.991,-7.427 -2.973,-10.775 -1.984,-3.348 -4.788,-5.836 -8.413,-7.463 -3.627,-1.628 -8.145,-2.444 -13.555,-2.444 -7.876,0 -13.923,1.956 -18.144,5.867 C 3.342,-13.188 0.821,-7.487 0,0"
             style="fill:#ffffff;fill-opacity:1;fill-rule:nonzero;stroke:none"
             id="path32" /></g></g></g></g></svg>
