<?xml version="1.0" encoding="UTF-8" standalone="no"?>
<!-- Created with Inkscape (http://www.inkscape.org/) -->

<svg
   version="1.1"
   id="svg2"
   xml:space="preserve"
   width="316"
   height="316"
   viewBox="0 0 316 316"
   xmlns="http://www.w3.org/2000/svg"
   xmlns:svg="http://www.w3.org/2000/svg"><defs
     id="defs6"><clipPath
       clipPathUnits="userSpaceOnUse"
       id="clipPath18"><path
         d="M 0,237 H 237 V 0 H 0 Z"
         id="path16" /></clipPath></defs><g
     id="g8"
     transform="matrix(1.3333333,0,0,-1.3333333,0,316)"><path
       d="M 0,0 H 237 V 237 H 0 Z"
       style="fill:#b71c2d;fill-opacity:1;fill-rule:nonzero;stroke:none"
       id="path10" /><g
       id="g12"><g
         id="g14"
         clip-path="url(#clipPath18)"><g
           id="g20"
           transform="translate(196.25,183.8398)"><path
             d="m 0,0 c 3.14,-9.71 6.91,-19.35 12.7,-27.81 3.05,-4.49 7.48,-7.94 12.55,-9.86 -0.01,-8.93 0.02,-17.87 -0.02,-26.8 C 14.56,-56.85 4.55,-47.2 -0.24,-34.73 -4.04,-23.52 -2.66,-11.3 0,0"
             style="fill:#ffffff;fill-opacity:1;fill-rule:nonzero;stroke:none"
             id="path22" /></g><g
           id="g24"
           transform="translate(29.4302,158.5498)"><path
             d="m 0,0 c 11.9,12.71 30.17,18.24 47.26,16.72 22.25,-2.8 42.41,-16.11 55.25,-34.27 1.56,-0.74 3.46,-1.14 4.49,-2.64 0.57,-2.16 -0.581,-4.26 -2.31,-5.49 -4.61,-3.52 -10.13,-5.57 -15.49,-7.67 1.09,-6.48 -0.04,-13.02 -2.37,-19.1 1.19,-4.46 5.66,-7.779 5.74,-12.65 0.04,-3.06 2,-5.69 2.09,-8.75 0.38,-5.42 1.14,-10.91 0.36,-16.32 -1.13,-5.24 -7.28,-6.89 -11.92,-7.07 -11.79,3.24 -22.09,10.46 -30.97,18.69 -0.49,-8.11 -5.83,-16.11 -14.11,-17.79 -8.18,-0.96 -16.31,1.14 -24.19,3.1 -8.05,2.1 -16.41,4.61 -22.72,10.301 -3.21,2.949 -5.75,7.409 -4.8,11.879 1.67,2.18 4.27,3.98 4.49,6.951 -0.38,8.759 -3.7,17.21 -3.26,26.039 0,13.51 3.75,27.52 12.46,38.07"
             style="fill:#ffffff;fill-opacity:1;fill-rule:nonzero;stroke:none"
             id="path26" /></g><g
           id="g28"
           transform="translate(158.2305,171.1802)"><path
             d="m 0,0 c 5.229,0.66 10.85,0.34 15.409,-2.56 4.361,-2.83 8.28,-6.42 11.351,-10.62 4.029,-6.69 6.17,-14.3 9.969,-21.11 3.151,-5.67 6.121,-11.52 10.321,-16.5 4.679,-5.14 10.109,-9.71 16.439,-12.7 -8.7,-2.43 -18.429,-2.04 -26.229,2.869 -7.651,3.721 -12.861,10.771 -17.04,17.941 -4.91,8.68 -7.41,18.39 -9.771,28 C 9.149,-8.58 4.789,-3.73 0,0"
             style="fill:#ffffff;fill-opacity:1;fill-rule:nonzero;stroke:none"
             id="path30" /></g><g
           id="g32"
           transform="translate(164.3301,132.8301)"><path
             d="m 0,0 c 7.6,-12.63 18.729,-22.91 31.37,-30.38 7.8,-4.28 16.25,-8.181 25.319,-8.31 -0.039,-8.831 0,-17.65 -0.029,-26.48 -11.56,3.21 -23.13,7.35 -32.95,14.39 -9.97,7.73 -17.16,18.7 -21.54,30.45 C -0.311,-13.85 -0.271,-6.82 0,0"
             style="fill:#ffffff;fill-opacity:1;fill-rule:nonzero;stroke:none"
             id="path34" /></g><g
           id="g36"
           transform="translate(90.0601,111.9697)"><path
             d="M 0,0 C 7.58,5.46 15.91,9.82 24.54,13.37 25.86,6.93 24.62,0.33 21.89,-5.56 l 0.09,-0.929 c 1.21,-4.33 5,-7.54 5.97,-11.941 -0.19,-3.719 -0.03,-8.73 -3.72,-10.86 -2.2,-1.64 -5.1,-0.779 -7.59,-0.55 -8.67,1.63 -17.26,3.78 -25.55,6.811 -2.12,2.859 -2,6.529 -0.89,9.769 C -8.11,-7.92 -4.48,-3.3 0,0"
             style="fill:#b71c2d;fill-opacity:1;fill-rule:nonzero;stroke:none"
             id="path38" /></g><g
           id="g40"
           transform="translate(105.8799,117.4902)"><path
             d="m 0,0 c 0.38,1.13 -0.3,3.81 1.8,3.28 1.05,-7.82 -3.44,-14.97 -7.05,-21.57 2.01,1.68 3.86,3.6 6.24,4.75 l 0.53,-1.351 c -3.51,-3.119 -7.04,-7 -11.85,-7.869 C -6.32,-15.49 -0.77,-8.58 0,0"
             style="fill:#ffffff;fill-opacity:1;fill-rule:nonzero;stroke:none"
             id="path42" /></g><g
           id="g44"
           transform="translate(109.8198,104.7305)"><path
             d="m 0,0 c 0.38,-0.051 1.13,-0.15 1.5,-0.2 0.1,-1.571 -1.36,-2.571 -2.16,-3.74 -4.89,-6.09 -12.58,-10.55 -20.6,-9.47 -2.28,0.489 -5.75,0.38 -6.28,3.309 3.98,-0.86 8.05,-2.42 12.17,-1.32 C -8.79,-10.15 -3.89,-5.141 0,0"
             style="fill:#ffffff;fill-opacity:1;fill-rule:nonzero;stroke:none"
             id="path46" /></g><g
           id="g48"
           transform="translate(79.2002,87.3799)"><path
             d="m 0,0 c 11.11,-4.06 22.7,-7.3 34.54,-8.06 0.08,-4.089 -0.64,-8.12 -0.77,-12.19 l 1.7,-0.76 c 0.92,4.19 1.06,8.49 1.34,12.76 0.57,0.18 1.71,0.54 2.28,0.73 0.2,-3.55 -0.14,-7.09 -0.08,-10.64 3.53,1.79 2.04,6.65 2.929,9.86 -0.409,-3.82 0.551,-8.139 -1.469,-11.57 -2.63,-1.76 -6.29,-2.94 -9.32,-1.43 C 19.07,-17.03 9.31,-8.5 0,0"
             style="fill:#b71c2d;fill-opacity:1;fill-rule:nonzero;stroke:none"
             id="path50" /></g><g
           id="g52"
           transform="translate(145.3398,81.5)"><path
             d="m 0,0 c 5.44,4.19 12.37,5.95 19.16,5.9 6.651,-0.65 12.77,-3.78 17.91,-7.94 4.25,-3.07 7.13,-7.57 11.05,-11 7.731,-7.23 18.13,-10.43 28.09,-13.24 C 63.47,-37.69 41.88,-36.2 30.311,-23.81 25.43,-19 22.2,-12.75 16.99,-8.25 12.32,-3.82 6.11,-1.6 0,0"
             style="fill:#ffffff;fill-opacity:1;fill-rule:nonzero;stroke:none"
             id="path54" /></g><g
           id="g56"
           transform="translate(163.7305,55.4102)"><path
             d="m 0,0 c 6.699,-8.07 16.779,-12.19 26.739,-14.57 9.941,-2.34 20.33,-0.84 30.031,1.9 V -38.38 C 44.319,-38.91 31.17,-38.5 19.819,-32.78 7.96,-26.311 2.27,-12.7 0,0"
             style="fill:#ffffff;fill-opacity:1;fill-rule:nonzero;stroke:none"
             id="path58" /></g></g></g></g></svg>
