<?xml version="1.0" encoding="UTF-8" standalone="no"?>
<!-- Created with Inkscape (http://www.inkscape.org/) -->

<svg
   version="1.1"
   id="svg2"
   xml:space="preserve"
   width="959.99866"
   height="960"
   viewBox="0 0 959.99866 960"
   xmlns="http://www.w3.org/2000/svg"
   xmlns:svg="http://www.w3.org/2000/svg"><defs
     id="defs6"><clipPath
       clipPathUnits="userSpaceOnUse"
       id="clipPath16"><path
         d="M 0,720 H 720 V 0 H 0 Z"
         id="path14" /></clipPath></defs><g
     id="g8"
     transform="matrix(1.3333333,0,0,-1.3333333,0,960)"><g
       id="g10"><g
         id="g12"
         clip-path="url(#clipPath16)"><g
           id="g18"
           transform="translate(719.9995,360.0049)"><path
             d="M 0,0 C -29.644,-29.645 -330.358,-330.36 -360.003,-360.005 -389.648,-330.36 -690.359,-29.643 -720,0 -690.357,29.642 -389.648,330.351 -360.005,359.995 -330.362,330.351 -29.644,29.642 0,0"
             style="fill:#ffffff;fill-opacity:1;fill-rule:nonzero;stroke:none"
             id="path20" /></g><g
           id="g22"
           transform="translate(337.125,234.8984)"><path
             d="M 0,0 H -70.218 V -29.572 H 124.88 V 0 H 45.689 C 38.37,-1.801 30.72,-2.762 22.845,-2.762 14.97,-2.762 7.321,-1.801 0,0"
             style="fill:#0a0f0c;fill-opacity:1;fill-rule:nonzero;stroke:none"
             id="path24" /></g><g
           id="g26"
           transform="translate(359.9692,259.5195)"><path
             d="m 0,0 c -37.534,0 -67.961,30.428 -67.961,67.961 0,37.533 30.427,67.961 67.961,67.961 37.532,0 67.961,-30.428 67.961,-67.961 C 67.961,30.428 37.532,0 0,0 m 88.545,69.906 3.13,24.33 C 87.833,107.665 81.12,119.882 72.243,130.18 l -6.102,-5.128 -4.23,5.327 -2.371,12.046 c -8.939,7.156 -19.191,12.735 -30.342,16.319 l -4.964,-7.661 -3.28,9.906 C 14.21,162.501 7.199,163.304 0,163.304 c -7.639,0 -15.065,-0.904 -22.185,-2.6 l 0.094,-4.134 -9.37,-2.378 -1.685,3.188 c -7.98,-2.96 -15.458,-6.955 -22.266,-11.826 l 2.331,-5.77 -9.159,0.401 c -9.339,-8.054 -17.098,-17.889 -22.751,-28.977 l 0.19,-10.607 -5.759,-47.04 -4.357,5.396 c 3.817,-40.746 33.272,-74.037 72.073,-83.578 7.321,-1.801 14.969,-2.762 22.844,-2.762 7.876,0 15.525,0.961 22.845,2.762 34.156,8.4 61.07,35.201 69.629,69.293 l -3.617,-5.786 z"
             style="fill:#0a0f0c;fill-opacity:1;fill-rule:nonzero;stroke:none"
             id="path28" /></g><g
           id="g30"
           transform="translate(351.0097,586.9829)"><path
             d="m 0,0 v -23.663 l -6.208,-32.266 -7.992,-20.053 -10.12,13.279 -4.481,8.64 -2.56,8.961 -16.321,19.84 3.862,-14.615 -8.021,-15.145 -3.2,-22.4 3.979,-32.136 -14.365,7.587 -9.453,13.989 -12.801,15.36 3.52,-21.76 0.171,-36.642 3.551,-19.208 -17.48,10.73 -15.682,11.839 3.52,-33.92 v -42.241 l 7.36,-38.398 7.68,-15.04 9.083,-11.244 4.357,-5.397 5.76,47.041 -0.191,10.607 -0.21,11.628 -5.004,20.176 -2.274,14.868 13.089,-12.769 7.908,-4.521 9.242,-0.405 9.159,-0.402 -2.331,5.771 -4.125,10.209 7.264,24.696 3.421,25.119 7.207,-32.116 8.499,-16.082 1.686,-3.188 9.369,2.377 -0.094,4.134 -0.39,17.174 14.3,28.014 0.315,21.62 17.703,-20.994 3.758,-23.029 7.454,-22.499 3.28,-9.906 4.964,7.66 20.806,32.108 9.536,-48.426 2.371,-12.046 4.229,-5.327 6.103,5.128 8.625,7.248 13.316,9.4 -0.157,-34.309 -2.353,-18.283 -3.13,-24.33 0.313,-31.021 3.616,5.786 20.667,33.069 11.02,32.78 v 40.001 l -10.88,45.118 v -7.358 l -11.842,-11.202 -13.758,-6.398 3.997,18.76 7.05,23.5 -7.678,27.573 -4.328,-11.594 -7.681,-7.987 -13.442,-6.399 3.201,18.547 v 22.08 l -18.56,40 v -8.321 L 55.359,-58.543 48,-72.622 33.92,-79.663 v 32.641 l -7.68,25.6 -10.56,25.28 -7.633,31.079 z"
             style="fill:#0a0f0c;fill-opacity:1;fill-rule:nonzero;stroke:none"
             id="path32" /></g><g
           id="g34"
           transform="translate(662.9545,360.0039)"><path
             d="M 0,0 C -24.945,-24.947 -278.012,-278.014 -302.959,-302.961 -327.905,-278.014 -580.966,-24.945 -605.912,0 -580.966,24.946 -327.905,278.007 -302.959,302.953 -278.014,278.007 -24.945,24.946 0,0 M -662.955,0 -302.959,-360.004 57.045,0 -302.959,359.996 Z"
             style="fill:#b71c2d;fill-opacity:1;fill-rule:nonzero;stroke:none"
             id="path36" /></g></g></g></g></svg>
