<?xml version="1.0" encoding="UTF-8" standalone="no"?>
<!-- Created with Inkscape (http://www.inkscape.org/) -->

<svg
   version="1.1"
   id="svg2"
   xml:space="preserve"
   width="960"
   height="960.00134"
   viewBox="0 0 960 960.00134"
   xmlns="http://www.w3.org/2000/svg"
   xmlns:svg="http://www.w3.org/2000/svg"><defs
     id="defs6"><clipPath
       clipPathUnits="userSpaceOnUse"
       id="clipPath16"><path
         d="M 0,720.001 H 720 V 0 H 0 Z"
         id="path14" /></clipPath></defs><g
     id="g8"
     transform="matrix(1.3333333,0,0,-1.3333333,0,960.00133)"><g
       id="g10"><g
         id="g12"
         clip-path="url(#clipPath16)"><g
           id="g18"
           transform="translate(720,360.0058)"><path
             d="M 0,0 C -29.644,-29.643 -330.358,-330.361 -360.003,-360.006 -389.648,-330.361 -690.36,-29.643 -720,0 -690.358,29.641 -389.648,330.351 -360.006,359.995 -330.361,330.351 -29.644,29.641 0,0"
             style="fill:#ffffff;fill-opacity:1;fill-rule:nonzero;stroke:none"
             id="path20" /></g><g
           id="g22"
           transform="translate(350.6377,540.7607)"><path
             d="m 0,0 -0.119,-35.76 -2.761,-26.761 -4.078,-16.44 -8.521,-19.199 -9.6,19.32 -2.64,17.52 -5.521,14.16 -8.16,8.639 -12.359,3 3.12,-15.96 -3.361,-16.32 -2.519,-21 -0.24,-21.24 5.399,-16.081 -11.04,7.081 -15.359,22.08 -13.32,13.56 2.64,-27.48 0.24,-21.119 2.279,-18.36 6.841,-18.48 8.759,-18.6 -21.719,3.12 -12.121,9.359 -7.68,10.201 -11.759,12.118 2.759,-18.598 18.96,-66.12 13.201,-23.641 21.839,-15.719 31.081,-12.842 49.08,-3.119 -23.04,4.2 -18.72,9.121 -18.961,22.56 -11.639,26.76 12.119,-8.881 11.281,-3.959 20.639,-2.4 -11.4,14.638 -6.239,10.682 -4.56,13.318 3,12.602 0.72,13.32 5.159,-13.441 7.32,-10.559 21.721,-12 -3.121,18.119 -0.239,13.92 12.84,36.841 v 25.68 l 12.841,-12.721 12.238,-18.479 6.121,-25.56 -0.121,-38.161 10.321,10.68 18.361,12.121 6.238,14.04 v -26.521 l -6.719,-19.92 -7.8,-10.679 -8.16,-8.161 14.16,-0.121 12.48,3.481 14.52,9.24 -14.879,-27.84 -19.561,-19.199 -11.279,-8.4 -8.123,-4.641 h 17.248 l 18.777,3.273 19.649,9.608 18.558,12.881 15.502,24.672 9.606,31.439 3.033,45.017 -3.469,-15.98 -12.008,-8.297 -21.834,-6.33 12.227,18.12 6.551,12.883 6.08,25.253 -2.887,17.897 -6.764,23.752 -10.226,-19.876 -12.289,-12.288 -14.432,-8.166 8.328,20.537 0.248,27.133 -3.133,26.969 -13.113,25.567 -3.299,-31.505 -6.433,-22.515 -9.155,-9.237 -9.566,-3.546 2.969,19.134 -2.309,16.823 -12.949,36.7 L 16.45,2.959 9.961,34.321 3.361,14.64 Z"
             style="fill:#0a0f0c;fill-opacity:1;fill-rule:nonzero;stroke:none"
             id="path24" /></g><path
           d="m 258.54,203.648 h 216.731 v 22.254 H 258.54 Z"
           style="fill:#0a0f0c;fill-opacity:1;fill-rule:nonzero;stroke:none"
           id="path26" /><g
           id="g28"
           transform="translate(662.9551,360.0058)"><path
             d="M 0,0 C -24.945,-24.947 -278.012,-278.015 -302.958,-302.961 -327.904,-278.015 -580.966,-24.947 -605.911,0 -580.966,24.944 -327.904,278.003 -302.958,302.952 -278.012,278.003 -24.945,24.944 0,0 M -662.955,0 -302.958,-360.005 57.045,0 -302.958,359.995 Z"
             style="fill:#b71c2d;fill-opacity:1;fill-rule:nonzero;stroke:none"
             id="path30" /></g></g></g></g></svg>
