<?xml version="1.0" encoding="UTF-8" standalone="no"?>
<!-- Created with Inkscape (http://www.inkscape.org/) -->

<svg
   version="1.1"
   id="svg2"
   xml:space="preserve"
   width="960"
   height="960.00134"
   viewBox="0 0 960 960.00134"
   xmlns="http://www.w3.org/2000/svg"
   xmlns:svg="http://www.w3.org/2000/svg"><defs
     id="defs6"><clipPath
       clipPathUnits="userSpaceOnUse"
       id="clipPath16"><path
         d="M 0,720.001 H 720 V 0 H 0 Z"
         id="path14" /></clipPath></defs><g
     id="g8"
     transform="matrix(1.3333333,0,0,-1.3333333,0,960.00133)"><g
       id="g10"><g
         id="g12"
         clip-path="url(#clipPath16)"><g
           id="g18"
           transform="translate(719.9995,360.0068)"><path
             d="M 0,0 C -29.643,-29.645 -330.358,-330.362 -360.003,-360.007 -389.648,-330.362 -690.359,-29.645 -720,0 -690.357,29.641 -389.648,330.351 -360.006,359.993 -330.36,330.351 -29.643,29.641 0,0"
             style="fill:#ffffff;fill-opacity:1;fill-rule:nonzero;stroke:none"
             id="path20" /></g><g
           id="g22"
           transform="translate(662.9565,360.0054)"><path
             d="M 0,0 C -24.946,-24.947 -278.012,-278.012 -302.96,-302.958 -327.906,-278.012 -580.967,-24.945 -605.912,0 -580.967,24.946 -327.906,278.007 -302.96,302.952 -278.015,278.007 -24.946,24.946 0,0 M -662.956,0 -302.96,-360.004 57.044,0 -302.96,359.996 Z"
             style="fill:#b71c2d;fill-opacity:1;fill-rule:nonzero;stroke:none"
             id="path24" /></g><g
           id="g26"
           transform="translate(212.1143,339.4351)"><path
             d="M 0,0 H 281.172"
             style="fill:#0a0f0c;fill-opacity:1;fill-rule:nonzero;stroke:#0a0f0c;stroke-width:5;stroke-linecap:butt;stroke-linejoin:miter;stroke-miterlimit:4;stroke-dasharray:none;stroke-opacity:1"
             id="path28" /></g><g
           id="g30"
           transform="translate(249.9663,266.4707)"><path
             d="m 0,0 34.607,20.008 1.623,85.4 -42.719,23.252 c 0,0 -6.489,4.326 -15.682,1.623 -3.244,-1.082 -7.57,-2.163 -7.57,-2.163 0,0 23.252,19.466 27.577,17.844 4.326,-1.622 34.608,-16.222 34.608,-16.222 0,0 -3.244,22.711 -11.356,29.2 -8.11,6.489 -39.473,31.363 -39.473,31.363 v 5.947 l 42.718,-25.954 c 0,0 1.622,24.873 -7.029,39.473 C 8.651,224.372 2.162,237.35 2.162,237.35 l 2.704,2.162 21.089,-32.445 7.029,22.171 4.327,1.081 c 0,0 -5.408,-31.362 -1.623,-41.095 3.785,-9.734 17.845,-62.726 17.845,-62.726 l 21.089,30.281 c 0,0 0.54,12.437 -0.54,21.089 -1.082,8.652 -2.705,48.667 -2.705,48.667 h 3.785 l 5.949,-43.8 34.054,39.473 v -4.325 c 0,0 -33.514,-42.178 -31.891,-51.371 1.622,-9.193 3.244,-14.599 -2.704,-27.577 -5.948,-12.978 -9.734,-22.171 -9.734,-22.171 0,0 17.845,21.089 25.956,22.712 8.111,0.54 18.913,-0.541 26.484,5.947 7.569,6.49 25.954,27.037 25.954,27.037 l -28.658,-44.34 c 0,0 -13.507,-0.54 -18.913,-6.489 C 96.251,115.683 74.082,90.268 74.082,90.268 V 31.904 L 110.844,13.52 65.97,7.029 55.155,-8.652 40.555,3.785 Z"
             style="fill:#0a0f0c;fill-opacity:1;fill-rule:nonzero;stroke:none"
             id="path32" /></g><g
           id="g34"
           transform="translate(249.9663,266.4707)"><path
             d="m 0,0 34.607,20.008 1.623,85.4 -42.719,23.252 c 0,0 -6.489,4.326 -15.682,1.623 -3.244,-1.082 -7.57,-2.163 -7.57,-2.163 0,0 23.252,19.466 27.577,17.844 4.326,-1.622 34.608,-16.222 34.608,-16.222 0,0 -3.244,22.711 -11.356,29.2 -8.11,6.489 -39.473,31.363 -39.473,31.363 v 5.947 l 42.718,-25.954 c 0,0 1.622,24.873 -7.029,39.473 C 8.651,224.372 2.162,237.35 2.162,237.35 l 2.704,2.162 21.089,-32.445 7.029,22.171 4.327,1.081 c 0,0 -5.408,-31.362 -1.623,-41.095 3.785,-9.734 17.845,-62.726 17.845,-62.726 l 21.089,30.281 c 0,0 0.54,12.437 -0.54,21.089 -1.082,8.652 -2.705,48.667 -2.705,48.667 h 3.785 l 5.949,-43.8 34.054,39.473 v -4.325 c 0,0 -33.514,-42.178 -31.891,-51.371 1.622,-9.193 3.244,-14.599 -2.704,-27.577 -5.948,-12.978 -9.734,-22.171 -9.734,-22.171 0,0 17.845,21.089 25.956,22.712 8.111,0.54 18.913,-0.541 26.484,5.947 7.569,6.49 25.954,27.037 25.954,27.037 l -28.658,-44.34 c 0,0 -13.507,-0.54 -18.913,-6.489 C 96.251,115.683 74.082,90.268 74.082,90.268 V 31.904 L 110.844,13.52 65.97,7.029 55.155,-8.652 40.555,3.785 Z"
             style="fill:none;stroke:#0a0f0c;stroke-width:4;stroke-linecap:butt;stroke-linejoin:miter;stroke-miterlimit:4;stroke-dasharray:none;stroke-opacity:1"
             id="path36" /></g><g
           id="g38"
           transform="translate(213.1963,215.6406)"><path
             d="m 0,0 c 0,0 49.207,14.6 57.318,8.652 10.815,4.868 89.756,38.393 89.756,36.231 0,-2.164 90.839,28.117 90.839,28.117 l 32.984,-23.793 -31.361,-15.141 42.177,-3.785 -11.355,-15.14 h 23.25 l 0.541,-16.762 z"
             style="fill:#0a0f0c;fill-opacity:1;fill-rule:nonzero;stroke:none"
             id="path40" /></g><g
           id="g42"
           transform="translate(213.1963,215.6406)"><path
             d="m 0,0 c 0,0 49.207,14.6 57.318,8.652 10.815,4.868 89.756,38.393 89.756,36.231 0,-2.164 90.839,28.117 90.839,28.117 l 32.984,-23.793 -31.361,-15.141 42.177,-3.785 -11.355,-15.14 h 23.25 l 0.541,-16.762 z"
             style="fill:none;stroke:#0a0f0c;stroke-width:4;stroke-linecap:butt;stroke-linejoin:miter;stroke-miterlimit:4;stroke-dasharray:none;stroke-opacity:1"
             id="path44" /></g><g
           id="g46"
           transform="translate(322.9658,258.3594)"><path
             d="M 0,0 C 0,0 14.06,0.541 20.548,3.244 30.838,7.533 47.573,14.6 57.305,28.66 67.37,43.195 103.268,104.328 152.477,99.461 149.772,92.973 141.122,78.912 141.122,78.912 l 35.146,10.816 c 0,0 0.541,-46.468 -65.969,-76.208 C 79.477,2.703 72.987,2.164 70.284,-1.621 67.581,-5.406 55.144,-24.334 55.144,-24.334 Z"
             style="fill:#0a0f0c;fill-opacity:1;fill-rule:nonzero;stroke:none"
             id="path48" /></g><g
           id="g50"
           transform="translate(322.9658,258.3594)"><path
             d="M 0,0 C 0,0 14.06,0.541 20.548,3.244 30.838,7.533 47.573,14.6 57.305,28.66 67.37,43.195 103.268,104.328 152.477,99.461 149.772,92.973 141.122,78.912 141.122,78.912 l 35.146,10.816 c 0,0 0.541,-46.468 -65.969,-76.208 C 79.477,2.703 72.987,2.164 70.284,-1.621 67.581,-5.406 55.144,-24.334 55.144,-24.334 Z"
             style="fill:none;stroke:#0a0f0c;stroke-width:5;stroke-linecap:butt;stroke-linejoin:miter;stroke-miterlimit:4;stroke-dasharray:none;stroke-opacity:1"
             id="path52" /></g><g
           id="g54"
           transform="translate(466.7905,320.8184)"><path
             d="m 0,0 c 0,2.831 2.662,5.125 5.947,5.125 3.285,0 5.949,-2.294 5.949,-5.125 0,-2.836 -2.664,-5.137 -5.949,-5.137 C 2.662,-5.137 0,-2.836 0,0"
             style="fill:#0a0f0c;fill-opacity:1;fill-rule:nonzero;stroke:none"
             id="path56" /></g><g
           id="g58"
           transform="translate(466.7905,320.8184)"><path
             d="m 0,0 c 0,2.831 2.662,5.125 5.947,5.125 3.285,0 5.949,-2.294 5.949,-5.125 0,-2.836 -2.664,-5.137 -5.949,-5.137 C 2.662,-5.137 0,-2.836 0,0 Z"
             style="fill:none;stroke:#0a0f0c;stroke-width:1;stroke-linecap:butt;stroke-linejoin:miter;stroke-miterlimit:10;stroke-dasharray:none;stroke-opacity:1"
             id="path60" /></g></g></g></g></svg>
