<?xml version="1.0" encoding="UTF-8" standalone="no"?>
<!-- Created with Inkscape (http://www.inkscape.org/) -->

<svg
   version="1.1"
   id="svg2"
   xml:space="preserve"
   width="524"
   height="260.33334"
   viewBox="0 0 524 260.33334"
   xmlns="http://www.w3.org/2000/svg"
   xmlns:svg="http://www.w3.org/2000/svg"><defs
     id="defs6"><clipPath
       clipPathUnits="userSpaceOnUse"
       id="clipPath16"><path
         d="M 0,195.25 H 393 V 0 H 0 Z"
         id="path14" /></clipPath></defs><g
     id="g8"
     transform="matrix(1.3333333,0,0,-1.3333333,0,260.33333)"><g
       id="g10"><g
         id="g12"
         clip-path="url(#clipPath16)"><g
           id="g18"
           transform="translate(41.5,195.25)"><path
             d="m 0,0 h 195.25 c 0,-19.23 0.01,-38.47 0,-57.7 l 1.24,0.42 c -2.45,-1.02 -4.97,-1.86 -7.46,-2.76 -0.07,17.93 -0.01,35.85 -0.03,53.77 -60.91,0.04 -121.82,0.01 -182.74,0.01 -0.03,-60.91 -0.01,-121.82 0,-182.73 60.91,-0.01 121.83,-0.04 182.75,0.02 0,42.34 -0.04,84.69 0.02,127.04 0.81,-0.6 1.64,-1.2 2.47,-1.79 1.24,0.44 2.5,0.87 3.75,1.32 0.01,-44.28 0,-88.56 0,-132.84 -65.08,-0.02 -130.16,0 -195.23,-0.01 -0.06,19.24 0.02,38.49 -0.04,57.73 l -1.36,-0.5 c 2.26,0.86 4.51,1.73 6.79,2.54 0.16,1.5 -0.37,2.9 -1.02,4.23 -1.45,-0.51 -2.91,-1.01 -4.34,-1.56 C -0.06,-88.54 0.03,-44.27 0,0"
             style="fill:#0a0f0c;fill-opacity:1;fill-rule:nonzero;stroke:none"
             id="path20" /></g><g
           id="g22"
           transform="translate(47.7598,188.9902)"><path
             d="m 0,0 c 60.92,0 121.83,0.03 182.74,-0.01 0.02,-17.92 -0.04,-35.84 0.031,-53.77 v -1.89 C 182.71,-98.021 182.75,-140.37 182.75,-182.71 121.83,-182.771 60.91,-182.74 0,-182.73 -0.01,-121.82 -0.03,-60.91 0,0"
             style="fill:#efc521;fill-opacity:1;fill-rule:nonzero;stroke:none"
             id="path24" /></g><g
           id="g26"
           transform="translate(237.9902,137.9702)"><path
             d="m 0,0 c 13.52,5.2 27.04,10.39 40.56,15.6 -3.27,-16.25 -6.51,-32.5 -9.76,-48.74 21.94,8.41 43.88,16.86 65.809,25.31 -1.83,4.66 -3.569,9.36 -5.42,14.01 18.901,1.9 37.821,3.65 56.721,5.52 2.35,0.28 4.72,0.46 7.1,0.34 v -0.3 c -1,-0.45 -1.941,-1 -2.81,-1.64 -16.24,-12 -32.53,-23.93 -48.79,-35.9 -1.681,4.67 -3.53,9.28 -5.28,13.93 -24.32,-9.42 -48.71,-18.71 -73.04,-28.14 3.16,16.27 6.45,32.52 9.68,48.77 C 22.779,4.09 10.76,-0.48 -1.24,-5.12 -2.49,-5.57 -3.75,-6 -4.99,-6.44 c -0.83,0.59 -1.66,1.19 -2.47,1.79 v 1.89 C -4.971,-1.86 -2.45,-1.02 0,0"
             style="fill:#0a0f0c;fill-opacity:1;fill-rule:nonzero;stroke:none"
             id="path28" /></g><g
           id="g30"
           transform="translate(68.7598,140.2402)"><path
             d="m 0,0 c 10.72,0.02 21.45,0 32.17,0.01 6.4,-0.18 13.2,-0.7 18.7,-4.32 7.29,-4.73 11.08,-14.29 8.78,-22.72 -1.45,-5.65 -5.66,-10.3 -10.87,-12.81 5.04,-1.53 9.81,-4.54 12.55,-9.15 6.01,-9.85 3.06,-24.01 -6.13,-30.89 -6.69,-4.63 -15.13,-5.141 -23,-5.36 C 21.47,-85.23 10.73,-85.25 0,-85.23 -0.02,-56.82 -0.01,-28.41 0,0"
             style="fill:#0a0f0c;fill-opacity:1;fill-rule:nonzero;stroke:none"
             id="path32" /></g><g
           id="g34"
           transform="translate(142,140.25)"><path
             d="m 0,0 c 22.52,-0.07 45.04,0.14 67.56,-0.11 -0.11,-3.38 -0.03,-6.76 -0.09,-10.14 -9.33,-0.04 -18.68,0.1 -28.01,-0.08 0.08,-24.97 0.04,-49.95 0.02,-74.92 -3.83,0.01 -7.65,0 -11.47,0.01 -0.03,25 0.01,50 -0.02,75 -9.33,-0.01 -18.66,-0.01 -27.98,0 C -0.01,-6.83 0,-3.42 0,0"
             style="fill:#0a0f0c;fill-opacity:1;fill-rule:nonzero;stroke:none"
             id="path36" /></g><g
           id="g38"
           transform="translate(80.25,130)"><path
             d="m 0,0 c 9.73,-0.23 19.6,0.71 29.22,-1.11 8.98,-2.15 11.22,-15.66 4.16,-21.17 -3.85,-2.99 -8.96,-3 -13.61,-3.22 -6.59,-0.01 -13.18,0 -19.77,0 -0.01,8.5 -0.01,17 0,25.5"
             style="fill:#efc521;fill-opacity:1;fill-rule:nonzero;stroke:none"
             id="path40" /></g><g
           id="g42"
           transform="translate(80.2402,94.2402)"><path
             d="m 0,0 c 7.62,0 15.25,0.05 22.87,-0.021 4.58,-0.279 9.6,-0.639 13.32,-3.639 6.53,-5.191 6.47,-16.481 0.01,-21.691 -2.63,-2.109 -6,-3.04 -9.3,-3.339 C 17.94,-29.23 8.97,-28.91 0,-28.98 0.01,-19.32 0.01,-9.66 0,0"
             style="fill:#efc521;fill-opacity:1;fill-rule:nonzero;stroke:none"
             id="path44" /></g><g
           id="g46"
           transform="translate(41.5498,62.4404)"><path
             d="M 0,0 C 1.43,0.55 2.89,1.05 4.34,1.56 4.99,0.229 5.52,-1.171 5.36,-2.671 3.08,-3.48 0.83,-4.351 -1.43,-5.21 c -12.9,-4.931 -25.76,-9.971 -38.69,-14.841 -0.49,1.231 -0.97,2.471 -1.43,3.7 v 0.571 C -27.59,-10.891 -13.84,-5.28 0,0"
             style="fill:#0a0f0c;fill-opacity:1;fill-rule:nonzero;stroke:none"
             id="path48" /></g></g></g></g></svg>
