<?xml version="1.0" encoding="UTF-8" standalone="no"?>
<!-- Created with Inkscape (http://www.inkscape.org/) -->

<svg
   version="1.1"
   id="svg2"
   xml:space="preserve"
   width="524"
   height="260.33334"
   viewBox="0 0 524 260.33334"
   xmlns="http://www.w3.org/2000/svg"
   xmlns:svg="http://www.w3.org/2000/svg"><defs
     id="defs6"><clipPath
       clipPathUnits="userSpaceOnUse"
       id="clipPath16"><path
         d="M 0,195.25 H 393 V 0 H 0 Z"
         id="path14" /></clipPath></defs><g
     id="g8"
     transform="matrix(1.3333333,0,0,-1.3333333,0,260.33333)"><g
       id="g10"><g
         id="g12"
         clip-path="url(#clipPath16)"><g
           id="g18"
           transform="translate(41.5,195.25)"><path
             d="m 0,0 h 195.25 c 0,-19.23 0.01,-38.46 -0.01,-57.69 l 1.26,0.41 c -2.46,-1.02 -4.98,-1.87 -7.47,-2.79 -0.07,17.93 0,35.87 -0.03,53.8 -60.91,0.04 -121.82,0.02 -182.74,0.01 -0.03,-60.91 -0.01,-121.82 0,-182.73 60.91,-0.01 121.83,-0.04 182.75,0.02 0.01,42.34 -0.05,84.68 0.02,127.02 0.81,-0.61 1.63,-1.2 2.45,-1.79 1.26,0.44 2.51,0.87 3.76,1.34 0.02,-44.28 0.01,-88.56 0.01,-132.84 -65.08,-0.02 -130.16,0 -195.23,-0.01 -0.06,19.24 0.02,38.48 -0.04,57.72 l -1.38,-0.5 c 2.26,0.86 4.52,1.72 6.8,2.54 0.15,1.5 -0.27,2.9 -1.01,4.18 -1.46,-0.45 -2.91,-0.94 -4.34,-1.49 C -0.06,-88.54 0.03,-44.27 0,0"
             style="fill:#0a0f0c;fill-opacity:1;fill-rule:nonzero;stroke:none"
             id="path20" /></g><g
           id="g22"
           transform="translate(47.7598,188.9902)"><path
             d="m 0,0 c 60.92,0.01 121.83,0.03 182.74,-0.01 0.031,-17.93 -0.04,-35.87 0.031,-53.8 v -1.88 C 182.7,-98.03 182.76,-140.37 182.75,-182.71 121.83,-182.771 60.91,-182.74 0,-182.73 -0.01,-121.82 -0.03,-60.91 0,0"
             style="fill:#efc521;fill-opacity:1;fill-rule:nonzero;stroke:none"
             id="path24" /></g><g
           id="g26"
           transform="translate(238,137.9702)"><path
             d="m 0,0 c 13.52,5.2 27.03,10.4 40.55,15.6 -3.28,-16.25 -6.5,-32.5 -9.76,-48.74 21.94,8.41 43.88,16.85 65.81,25.31 -1.81,4.66 -3.58,9.34 -5.42,13.99 21.26,2.13 42.54,4.22 63.82,6.15 v -0.19 c -17.21,-12.59 -34.35,-25.28 -51.57,-37.87 -1.76,4.63 -3.55,9.25 -5.31,13.88 C 73.8,-21.3 49.41,-30.58 25.08,-40.01 28.24,-23.74 31.53,-7.49 34.76,8.76 22.77,4.09 10.74,-0.48 -1.26,-5.12 c -1.25,-0.47 -2.5,-0.9 -3.76,-1.34 -0.82,0.59 -1.64,1.18 -2.45,1.79 v 1.88 C -4.98,-1.87 -2.46,-1.02 0,0"
             style="fill:#0a0f0c;fill-opacity:1;fill-rule:nonzero;stroke:none"
             id="path28" /></g><g
           id="g30"
           transform="translate(66,140.25)"><path
             d="m 0,0 h 11.49 c 0.07,-11.68 -0.11,-23.35 0.09,-35.02 14.55,0.05 29.11,0 43.66,0.03 0.02,11.66 0.01,23.32 0.01,34.98 3.83,0.02 7.67,0.02 11.5,-0.01 -0.01,-28.4 0.01,-56.81 0,-85.22 -3.84,0.01 -7.68,-0.08 -11.52,0.06 0.03,13.31 0.03,26.62 0.01,39.93 -14.58,0.01 -29.15,0 -43.73,0 -0.06,-13.33 0.05,-26.67 -0.05,-40.01 -3.82,0.02 -7.63,0 -11.45,0.02 C -0.01,-56.83 0,-28.42 0,0"
             style="fill:#000000;fill-opacity:1;fill-rule:nonzero;stroke:none"
             id="path32" /></g><g
           id="g34"
           transform="translate(144.7598,140.2402)"><path
             d="m 0,0 c 22.49,0.01 44.99,0.01 67.48,0 0.01,-3.41 0.01,-6.82 0,-10.23 -9.33,-0.03 -18.66,0.01 -27.99,-0.01 -0.02,-25 0.01,-49.99 -0.01,-74.99 -3.83,-0.01 -7.65,-0.01 -11.48,0 -0.02,25 0.01,49.99 -0.01,74.99 C 18.66,-10.22 9.33,-10.25 0,-10.23 -0.02,-6.82 -0.01,-3.41 0,0"
             style="fill:#000000;fill-opacity:1;fill-rule:nonzero;stroke:none"
             id="path36" /></g><g
           id="g38"
           transform="translate(41.5498,62.4502)"><path
             d="M 0,0 C 1.43,0.55 2.88,1.04 4.34,1.49 5.08,0.21 5.5,-1.19 5.35,-2.69 3.07,-3.51 0.81,-4.37 -1.45,-5.23 c -12.89,-4.93 -25.75,-9.951 -38.66,-14.831 -0.49,1.231 -0.97,2.46 -1.44,3.691 v 0.349 C -27.72,-10.641 -13.81,-5.44 0,0"
             style="fill:#0a0f0c;fill-opacity:1;fill-rule:nonzero;stroke:none"
             id="path40" /></g></g></g></g></svg>
