<?xml version="1.0" encoding="UTF-8" standalone="no"?>
<!-- Created with Inkscape (http://www.inkscape.org/) -->

<svg
   version="1.1"
   id="svg2"
   xml:space="preserve"
   width="315.07999"
   height="369.38266"
   viewBox="0 0 315.07999 369.38266"
   xmlns="http://www.w3.org/2000/svg"
   xmlns:svg="http://www.w3.org/2000/svg"><defs
     id="defs6"><clipPath
       clipPathUnits="userSpaceOnUse"
       id="clipPath16"><path
         d="M 0,277.037 H 236.31 V 0 H 0 Z"
         id="path14" /></clipPath></defs><g
     id="g8"
     transform="matrix(1.3333333,0,0,-1.3333333,0,369.38267)"><g
       id="g10"><g
         id="g12"
         clip-path="url(#clipPath16)"><g
           id="g18"
           transform="translate(116.2202,277.0371)"><path
             d="m 0,0 h 3.61 c 3.849,-1.09 5.21,-5.12 7.099,-8.19 35.361,-61.27 70.721,-122.54 106.111,-183.79 1.349,-2.54 3.5,-5.01 3.25,-8.07 0.019,-3.75 -3.6,-6.82 -7.28,-6.45 -74,0.01 -148,-0.01 -222,0.01 -3.23,-0.28 -5.89,2.06 -7.01,4.92 v 4.02 c 37.12,64.41 74.34,128.75 111.48,193.15 1,2 2.67,3.55 4.74,4.4"
             style="fill:#0a0f0c;fill-opacity:1;fill-rule:nonzero;stroke:none"
             id="path20" /></g><g
           id="g22"
           transform="translate(116.6499,249.3472)"><path
             d="m 0,0 c 0.29,1.08 1.96,2.61 2.48,0.7 31.33,-54.43 62.88,-108.73 94.11,-163.2 -63.45,-0.12 -126.9,-0.09 -190.35,-0.01 C -62.54,-108.32 -31.18,-54.21 0,0"
             style="fill:#efc521;fill-opacity:1;fill-rule:nonzero;stroke:none"
             id="path24" /></g><g
           id="g26"
           transform="translate(79.5298,142.5171)"><path
             d="m 0,0 c 6,10.09 21.3,12.74 30.49,5.61 3.02,-2.44 4.98,-5.93 5.97,-9.65 -2.04,-0.44 -4.07,-0.9 -6.09,-1.42 -1.46,3.23 -3.03,6.88 -6.52,8.38 C 17.56,5.61 9,3.68 5.65,-2.64 2.25,-9.45 2.27,-17.81 5.2,-24.79 c 3.18,-7.37 13.44,-9.94 19.96,-5.47 3.31,2.11 4.74,5.97 5.97,9.5 2.02,-0.56 4.05,-1.1 6.08,-1.63 -1.32,-6.2 -5.43,-12.07 -11.55,-14.26 -5.67,-1.91 -12.09,-1.62 -17.62,0.64 -6.38,2.89 -9.88,9.71 -10.96,16.35 C -3.84,-13.05 -3.55,-5.86 0,0"
             style="fill:#0a0f0c;fill-opacity:1;fill-rule:nonzero;stroke:none"
             id="path28" /></g><g
           id="g30"
           transform="translate(124,151.2871)"><path
             d="m 0,0 h 6.25 c 0.1,-6.28 -0.2,-12.57 0.17,-18.84 7.8,0.29 15.6,-0.09 23.39,0.21 C 29.68,-12.42 29.76,-6.21 29.76,0 H 36 c -0.09,-15.29 0.18,-30.59 -0.13,-45.88 -2.07,0.07 -4.13,0.15 -6.18,0.28 0.15,7.09 -0.04,14.18 0.11,21.28 -7.86,0.13 -15.72,0.08 -23.58,0.02 -0.07,-7.18 0.32,-14.39 -0.21,-21.57 -2.02,0.07 -4.04,0.13 -6.07,0.21 C 0.07,-30.44 -0.03,-15.22 0,0"
             style="fill:#0a0f0c;fill-opacity:1;fill-rule:nonzero;stroke:none"
             id="path32" /></g><g
           id="g34"
           transform="translate(73.5381,23.4082)"><path
             d="m 0,0 v 10.251 h 26.479 v -24.238 c -2.573,-2.491 -6.302,-4.684 -11.185,-6.578 -4.884,-1.896 -9.83,-2.843 -14.837,-2.843 -6.365,0 -11.912,1.334 -16.644,4.005 -4.731,2.669 -8.287,6.487 -10.666,11.455 -2.38,4.966 -3.569,10.368 -3.569,16.207 0,6.336 1.328,11.967 3.984,16.891 2.656,4.926 6.543,8.703 11.663,11.331 3.901,2.02 8.757,3.031 14.567,3.031 7.554,0 13.454,-1.585 17.702,-4.753 4.247,-3.169 6.979,-7.547 8.197,-13.136 L 13.489,19.34 c -0.858,2.988 -2.47,5.347 -4.835,7.077 -2.366,1.729 -5.32,2.594 -8.862,2.594 -5.368,0 -9.636,-1.702 -12.803,-5.105 -3.169,-3.404 -4.753,-8.453 -4.753,-15.149 0,-7.222 1.605,-12.638 4.815,-16.249 3.209,-3.611 7.415,-5.416 12.617,-5.416 2.573,0 5.153,0.504 7.741,1.514 2.586,1.01 4.807,2.235 6.661,3.673 l 0,7.721 z"
             style="fill:#0a0f0c;fill-opacity:1;fill-rule:nonzero;stroke:none"
             id="path36" /></g><g
           id="g38"
           transform="translate(135.5859,22.2041)"><path
             d="m 0,0 c -1.494,-0.498 -3.859,-1.093 -7.097,-1.784 -3.237,-0.693 -5.354,-1.37 -6.35,-2.034 -1.522,-1.079 -2.282,-2.449 -2.282,-4.109 0,-1.633 0.608,-3.045 1.826,-4.234 1.216,-1.19 2.766,-1.784 4.648,-1.784 2.103,0 4.109,0.691 6.018,2.075 1.411,1.051 2.338,2.338 2.781,3.859 C -0.152,-7.015 0,-5.119 0,-2.324 Z m -15.605,9.463 -10.583,1.909 c 1.189,4.261 3.237,7.415 6.142,9.463 2.905,2.047 7.222,3.071 12.949,3.071 5.201,0 9.076,-0.616 11.621,-1.846 2.545,-1.233 4.337,-2.795 5.375,-4.691 1.038,-1.895 1.557,-5.374 1.557,-10.438 L 11.331,-6.683 c 0,-3.873 0.187,-6.73 0.561,-8.57 0.373,-1.84 1.072,-3.811 2.095,-5.914 H 2.449 c -0.304,0.774 -0.678,1.923 -1.121,3.445 -0.193,0.692 -0.332,1.148 -0.415,1.369 -1.992,-1.937 -4.123,-3.389 -6.392,-4.357 -2.268,-0.969 -4.689,-1.453 -7.262,-1.453 -4.538,0 -8.114,1.23 -10.729,3.693 -2.615,2.463 -3.922,5.576 -3.922,9.339 0,2.49 0.595,4.711 1.785,6.661 1.189,1.951 2.856,3.446 5.001,4.483 2.144,1.038 5.236,1.943 9.276,2.718 C -5.88,5.755 -2.103,6.71 0,7.595 v 1.162 c 0,2.242 -0.554,3.84 -1.66,4.794 -1.107,0.955 -3.195,1.432 -6.267,1.432 -2.075,0 -3.694,-0.409 -4.856,-1.224 -1.162,-0.817 -2.103,-2.248 -2.822,-4.296"
             style="fill:#0a0f0c;fill-opacity:1;fill-rule:nonzero;stroke:none"
             id="path40" /></g><g
           id="g42"
           transform="translate(153.8486,1.0371)"><path
             d="m 0,0 v 9.09 l 16.518,18.967 c 2.711,3.098 4.717,5.298 6.018,6.599 -1.356,-0.084 -3.14,-0.138 -5.354,-0.166 L 1.618,34.406 v 9.671 H 38.059 V 35.818 L 21.208,16.395 15.273,9.961 c 3.237,0.193 5.243,0.291 6.018,0.291 H 39.346 L 39.346,0 Z"
             style="fill:#0a0f0c;fill-opacity:1;fill-rule:nonzero;stroke:none"
             id="path44" /></g></g></g></g></svg>
