<?xml version="1.0" encoding="UTF-8" standalone="no"?>
<!-- Created with Inkscape (http://www.inkscape.org/) -->

<svg
   version="1.1"
   id="svg2"
   xml:space="preserve"
   width="315.16266"
   height="275.34668"
   viewBox="0 0 315.16266 275.34668"
   xmlns="http://www.w3.org/2000/svg"
   xmlns:svg="http://www.w3.org/2000/svg"><defs
     id="defs6"><clipPath
       clipPathUnits="userSpaceOnUse"
       id="clipPath16"><path
         d="M 0,206.51 H 236.372 V 0 H 0 Z"
         id="path14" /></clipPath></defs><g
     id="g8"
     transform="matrix(1.3333333,0,0,-1.3333333,0,275.34667)"><g
       id="g10"><g
         id="g12"
         clip-path="url(#clipPath16)"><g
           id="g18"
           transform="translate(116.3999,206.51)"><path
             d="M 0,0 H 3.38 C 5.07,-0.6 6.76,-1.49 7.62,-3.15 44.8,-67.59 82.03,-132 119.2,-196.44 c 2.27,-4.12 -0.73,-9.95 -5.56,-10.07 -74.72,0.03 -149.43,0 -224.15,0.01 -2.83,0.32 -5.19,2.51 -5.89,5.24 v 3.5 c 5.47,10.03 11.39,19.83 17.04,29.77 31.62,54.75 63.22,109.52 94.84,164.27 0.9,1.83 2.6,3.1 4.52,3.72"
             style="fill:#0a0f0c;fill-opacity:1;fill-rule:nonzero;stroke:none"
             id="path20" /></g><g
           id="g22"
           transform="translate(22.8501,16.2795)"><path
             d="M 0,0 C 31.79,54.94 63.41,109.971 95.25,164.88 127.08,109.971 158.77,54.971 190.49,0 126.99,-0.029 63.5,-0.039 0,0"
             style="fill:#efc521;fill-opacity:1;fill-rule:nonzero;stroke:none"
             id="path24" /></g><g
           id="g26"
           transform="translate(70.75,70.7502)"><path
             d="M 0,0 C -0.12,16.97 9.29,33.75 24.32,41.82 30.07,32.46 35.25,22.54 40.81,12.97 36.13,10.399 33.32,5.29 33.17,0 22.12,0.01 11.06,0.01 0,0"
             style="fill:#0a0f0c;fill-opacity:1;fill-rule:nonzero;stroke:none"
             id="path28" /></g><g
           id="g30"
           transform="translate(142.2803,111.9602)"><path
             d="m 0,0 c 14.25,-8.3 23.62,-24.641 22.939,-41.19 -11.04,-0.04 -22.089,0.04 -33.129,-0.05 0.06,5.059 -2.6,10.03 -6.9,12.73 C -11.45,-18.97 -5.73,-9.48 0,0"
             style="fill:#0a0f0c;fill-opacity:1;fill-rule:nonzero;stroke:none"
             id="path32" /></g><g
           id="g34"
           transform="translate(115.4102,80.8596)"><path
             d="m 0,0 c 3.979,1.261 8.53,-0.489 10.92,-3.85 2.47,-3.61 2.309,-8.839 -0.561,-12.17 C 6.81,-20.59 -0.67,-20.71 -4.58,-16.52 -9.66,-11.46 -7.12,-1.59 0,0"
             style="fill:#0a0f0c;fill-opacity:1;fill-rule:nonzero;stroke:none"
             id="path36" /></g><g
           id="g38"
           transform="translate(110.7598,59.2903)"><path
             d="m 0,0 c 4.58,-2.88 10.431,-2.54 15.05,0.05 5.23,-9.68 10.671,-19.24 15.98,-28.88 -14.4,-8.84 -33.77,-8.63 -48.1,0.28 C -11.32,-19.07 -5.71,-9.5 0,0"
             style="fill:#0a0f0c;fill-opacity:1;fill-rule:nonzero;stroke:none"
             id="path40" /></g></g></g></g></svg>
