<?xml version="1.0" encoding="UTF-8" standalone="no"?>
<!-- Created with Inkscape (http://www.inkscape.org/) -->

<svg
   version="1.1"
   id="svg2"
   xml:space="preserve"
   width="315.16132"
   height="275.34668"
   viewBox="0 0 315.16132 275.34668"
   xmlns="http://www.w3.org/2000/svg"
   xmlns:svg="http://www.w3.org/2000/svg"><defs
     id="defs6"><clipPath
       clipPathUnits="userSpaceOnUse"
       id="clipPath16"><path
         d="M 0,206.51 H 236.371 V 0 H 0 Z"
         id="path14" /></clipPath></defs><g
     id="g8"
     transform="matrix(1.3333333,0,0,-1.3333333,0,275.34667)"><g
       id="g10"><g
         id="g12"
         clip-path="url(#clipPath16)"><g
           id="g18"
           transform="translate(116.4102,206.51)"><path
             d="M 0,0 H 3.359 C 5.06,-0.6 6.74,-1.48 7.609,-3.14 44.78,-67.57 82,-131.97 119.17,-196.4 c 2.33,-4.13 -0.771,-10.09 -5.64,-10.11 -74.66,0.02 -149.32,0 -223.99,0.01 -2.85,0.27 -5.24,2.49 -5.95,5.23 v 3.47 c 13.69,24.42 27.98,48.54 41.88,72.86 23.46,40.57 46.86,81.18 70.32,121.76 0.9,1.6 2.51,2.59 4.21,3.18"
             style="fill:#0a0f0c;fill-opacity:1;fill-rule:nonzero;stroke:none"
             id="path20" /></g><g
           id="g22"
           transform="translate(22.8501,16.2795)"><path
             d="M 0,0 C 31.79,54.94 63.42,109.971 95.25,164.88 127.09,109.971 158.74,54.95 190.49,0 127,-0.029 63.5,-0.039 0,0"
             style="fill:#efc521;fill-opacity:1;fill-rule:nonzero;stroke:none"
             id="path24" /></g><g
           id="g26"
           transform="translate(106.6401,142.0198)"><path
             d="M 0,0 C 8.07,-0.02 16.14,-0.01 24.209,-0.01 15.56,-17.85 6.89,-35.67 -1.59,-53.58 c 12.34,7.15 24.69,14.28 37.06,21.39 -5.44,-22.2 -10.99,-44.37 -16.41,-66.57 3.42,1.3 6.79,2.731 10.21,4.05 -5.601,-8.439 -11.37,-16.76 -17.02,-25.17 l -0.54,0.231 c -3.19,9.519 -6.55,18.989 -9.72,28.509 3.1,-1.889 5.66,-4.61 8.84,-6.37 2.46,15.72 4.87,31.441 7.31,47.16 C 5.68,-57.54 -6.75,-64.75 -19.23,-71.89 -12.89,-47.91 -6.43,-23.96 0,0"
             style="fill:#0a0f0c;fill-opacity:1;fill-rule:nonzero;stroke:none"
             id="path28" /></g></g></g></g></svg>
