<?xml version="1.0" encoding="UTF-8" standalone="no"?>
<!-- Created with Inkscape (http://www.inkscape.org/) -->

<svg
   version="1.1"
   id="svg2"
   xml:space="preserve"
   width="402.86401"
   height="369.54932"
   viewBox="0 0 402.86401 369.54932"
   xmlns="http://www.w3.org/2000/svg"
   xmlns:svg="http://www.w3.org/2000/svg"><defs
     id="defs6"><clipPath
       clipPathUnits="userSpaceOnUse"
       id="clipPath16"><path
         d="M 0,277.162 H 302.148 V 0 H 0 Z"
         id="path14" /></clipPath></defs><g
     id="g8"
     transform="matrix(1.3333333,0,0,-1.3333333,0,369.54933)"><g
       id="g10"><g
         id="g12"
         clip-path="url(#clipPath16)"><g
           id="g18"
           transform="translate(149.3242,277.1621)"><path
             d="m 0,0 h 3.57 c 3.85,-1.09 5.22,-5.11 7.11,-8.18 36.08,-62.55 72.22,-125.07 108.3,-187.62 1.78,-2.85 1.38,-6.97 -1.3,-9.13 -2.45,-2.17 -5.96,-1.45 -8.95,-1.59 -72.65,0.06 -145.3,-0.01 -217.95,0.04 -3.25,-0.3 -5.88,2.05 -7.03,4.91 v 3.92 c 36.9,64.28 74.12,128.37 111.09,192.61 1.12,2.2 2.8,4.13 5.16,5.04"
             style="fill:#0a0f0c;fill-opacity:1;fill-rule:nonzero;stroke:none"
             id="path20" /></g><g
           id="g22"
           transform="translate(150.5645,250.772)"><path
             d="M 0,0 C 0.26,0.08 0.78,0.24 1.04,0.32 32.67,-54.36 64.31,-109.04 95.77,-163.83 32.31,-163.9 -31.15,-163.87 -94.61,-163.84 -63.09,-109.21 -31.6,-54.57 0,0"
             style="fill:#efc521;fill-opacity:1;fill-rule:nonzero;stroke:none"
             id="path24" /></g><g
           id="g26"
           transform="translate(139.7344,212.6821)"><path
             d="M 0,0 C 8.06,-0.05 16.109,-0.03 24.17,-0.01 15.609,-17.83 6.86,-35.57 -1.54,-53.47 c 12.39,6.96 24.59,14.24 36.96,21.22 -5.39,-22.18 -11.01,-44.29 -16.35,-66.48 3.36,1.27 6.68,2.65 10.05,3.9 -5.73,-8.39 -11.06,-17.12 -17.34,-25.11 -3.17,9.59 -6.62,19.09 -9.73,28.69 3,-2.01 5.77,-4.35 8.78,-6.35 2.39,15.74 4.859,31.47 7.29,47.21 C 5.69,-57.43 -6.59,-64.75 -19.06,-71.73 -13.05,-47.74 -6.35,-23.91 0,0"
             style="fill:#0a0f0c;fill-opacity:1;fill-rule:nonzero;stroke:none"
             id="path28" /></g><g
           id="g30"
           transform="translate(18.0547,0.9961)"><path
             d="M 0,0 V 50.551 H -18.055 V 60.844 H 30.298 V 50.551 H 12.285 V 0 Z"
             style="fill:#0a0f0c;fill-opacity:1;fill-rule:nonzero;stroke:none"
             id="path32" /></g><g
           id="g34"
           transform="translate(62.6709,0.9961)"><path
             d="M 0,0 H -11.662 V 44.076 H -0.83 V 37.81 c 1.853,2.96 3.52,4.911 5.001,5.852 1.48,0.94 3.161,1.41 5.043,1.41 2.656,0 5.216,-0.732 7.679,-2.199 L 13.281,32.705 C 11.316,33.977 9.49,34.613 7.803,34.613 6.17,34.613 4.787,34.164 3.652,33.266 2.518,32.365 1.625,30.74 0.976,28.389 0.325,26.036 0,21.111 0,13.613 Z"
             style="fill:#0a0f0c;fill-opacity:1;fill-rule:nonzero;stroke:none"
             id="path36" /></g><g
           id="g38"
           transform="translate(108.9063,22.1621)"><path
             d="m 0,0 c -1.494,-0.498 -3.859,-1.093 -7.097,-1.784 -3.237,-0.693 -5.354,-1.37 -6.35,-2.034 -1.522,-1.078 -2.282,-2.449 -2.282,-4.109 0,-1.633 0.608,-3.044 1.826,-4.233 1.216,-1.19 2.766,-1.785 4.648,-1.785 2.103,0 4.109,0.691 6.018,2.076 1.411,1.051 2.338,2.338 2.781,3.859 C -0.152,-7.014 0,-5.119 0,-2.324 Z m -15.605,9.463 -10.583,1.91 c 1.189,4.26 3.237,7.414 6.142,9.463 2.905,2.047 7.222,3.07 12.949,3.07 5.201,0 9.076,-0.615 11.621,-1.845 2.545,-1.233 4.337,-2.796 5.375,-4.692 1.038,-1.894 1.556,-5.374 1.556,-10.437 L 11.331,-6.682 c 0,-3.874 0.187,-6.73 0.561,-8.57 0.373,-1.841 1.071,-3.812 2.095,-5.914 H 2.449 c -0.304,0.773 -0.678,1.922 -1.121,3.444 -0.193,0.692 -0.332,1.148 -0.415,1.37 -1.992,-1.937 -4.123,-3.39 -6.392,-4.358 -2.268,-0.968 -4.689,-1.452 -7.262,-1.452 -4.538,0 -8.114,1.23 -10.729,3.693 -2.615,2.463 -3.923,5.575 -3.923,9.338 0,2.49 0.595,4.711 1.786,6.662 1.189,1.951 2.856,3.446 5.001,4.483 2.143,1.037 5.236,1.943 9.276,2.718 C -5.88,5.756 -2.103,6.71 0,7.596 v 1.162 c 0,2.241 -0.554,3.84 -1.66,4.793 -1.107,0.955 -3.195,1.432 -6.267,1.432 -2.075,0 -3.694,-0.409 -4.856,-1.223 -1.162,-0.818 -2.103,-2.249 -2.822,-4.297"
             style="fill:#0a0f0c;fill-opacity:1;fill-rule:nonzero;stroke:none"
             id="path40" /></g><g
           id="g42"
           transform="translate(171.9512,0.9961)"><path
             d="m 0,0 h -11.663 v 22.494 c 0,4.76 -0.249,7.838 -0.747,9.235 -0.498,1.397 -1.308,2.484 -2.428,3.258 -1.121,0.775 -2.47,1.162 -4.047,1.162 -2.019,0 -3.832,-0.553 -5.436,-1.66 -1.606,-1.106 -2.705,-2.573 -3.3,-4.399 -0.596,-1.826 -0.893,-5.202 -0.893,-10.127 V 0 h -11.662 v 44.076 h 10.832 v -6.474 c 3.846,4.98 8.689,7.47 14.527,7.47 2.573,0 4.924,-0.463 7.055,-1.39 2.131,-0.927 3.742,-2.11 4.835,-3.548 1.093,-1.439 1.854,-3.071 2.283,-4.898 C -0.215,33.41 0,30.795 0,27.393 Z"
             style="fill:#0a0f0c;fill-opacity:1;fill-rule:nonzero;stroke:none"
             id="path44" /></g><g
           id="g46"
           transform="translate(179.6709,13.5713)"><path
             d="m 0,0 11.704,1.784 c 0.498,-2.268 1.508,-3.991 3.029,-5.166 1.522,-1.178 3.653,-1.764 6.392,-1.764 3.016,0 5.285,0.553 6.807,1.66 1.023,0.774 1.536,1.811 1.536,3.112 0,0.886 -0.278,1.619 -0.83,2.2 -0.581,0.554 -1.882,1.066 -3.902,1.536 -9.408,2.075 -15.371,3.97 -17.888,5.686 -3.487,2.379 -5.23,5.685 -5.23,9.92 0,3.818 1.508,7.027 4.525,9.629 3.015,2.599 7.691,3.9 14.028,3.9 6.031,0 10.514,-0.982 13.447,-2.946 2.933,-1.965 4.952,-4.87 6.06,-8.716 L 28.679,18.802 c -0.471,1.715 -1.364,3.029 -2.677,3.942 -1.315,0.913 -3.19,1.37 -5.624,1.37 -3.071,0 -5.271,-0.429 -6.599,-1.287 -0.885,-0.609 -1.328,-1.397 -1.328,-2.365 0,-0.83 0.387,-1.536 1.162,-2.117 1.051,-0.776 4.683,-1.867 10.895,-3.28 6.211,-1.41 10.549,-3.14 13.012,-5.187 2.434,-2.075 3.652,-4.967 3.652,-8.674 0,-4.041 -1.689,-7.513 -5.064,-10.418 -3.376,-2.905 -8.37,-4.357 -14.983,-4.357 -6.004,0 -10.757,1.217 -14.256,3.652 C 3.368,-7.485 1.079,-4.179 0,0"
             style="fill:#0a0f0c;fill-opacity:1;fill-rule:nonzero;stroke:none"
             id="path48" /></g><g
           id="g50"
           transform="translate(225.9473,45.0723)"><path
             d="m 0,0 h 6.475 v 3.32 c 0,3.708 0.394,6.475 1.182,8.301 0.789,1.826 2.241,3.314 4.359,4.463 2.116,1.146 4.794,1.722 8.031,1.722 3.32,0 6.571,-0.498 9.753,-1.494 L 28.223,8.177 C 26.369,8.619 24.584,8.841 22.869,8.841 21.181,8.841 19.97,8.447 19.237,7.658 18.504,6.869 18.138,5.354 18.138,3.113 V 0 h 8.716 V -9.172 H 18.138 V -44.076 H 6.475 v 34.904 l -6.475,0 z"
             style="fill:#0a0f0c;fill-opacity:1;fill-rule:nonzero;stroke:none"
             id="path52" /></g><g
           id="g54"
           transform="translate(268.6133,23.0342)"><path
             d="m 0,0 c 0,-4.372 1.038,-7.72 3.113,-10.044 2.075,-2.324 4.634,-3.486 7.678,-3.486 3.044,0 5.596,1.162 7.657,3.486 2.062,2.324 3.093,5.699 3.093,10.127 0,4.316 -1.031,7.637 -3.093,9.961 -2.061,2.324 -4.613,3.486 -7.657,3.486 -3.044,0 -5.603,-1.162 -7.678,-3.486 C 1.038,7.72 0,4.372 0,0 m -11.953,0.622 c 0,3.874 0.955,7.623 2.864,11.248 1.909,3.625 4.613,6.392 8.113,8.301 3.5,1.909 7.41,2.863 11.726,2.863 6.668,0 12.133,-2.165 16.394,-6.494 4.26,-4.332 6.391,-9.803 6.391,-16.416 0,-6.668 -2.151,-12.195 -6.454,-16.58 -4.303,-4.387 -9.719,-6.578 -16.248,-6.578 -4.04,0 -7.894,0.912 -11.56,2.738 -3.666,1.826 -6.453,4.504 -8.362,8.031 -1.909,3.528 -2.864,7.825 -2.864,12.887"
             style="fill:#0a0f0c;fill-opacity:1;fill-rule:nonzero;stroke:none"
             id="path56" /></g></g></g></g></svg>
