<?xml version="1.0" encoding="UTF-8" standalone="no"?>
<!-- Created with Inkscape (http://www.inkscape.org/) -->

<svg
   version="1.1"
   id="svg2"
   xml:space="preserve"
   width="55.493069"
   height="55.493069"
   viewBox="0 0 55.493069 55.493069"
   xmlns="http://www.w3.org/2000/svg"
   xmlns:svg="http://www.w3.org/2000/svg"><defs
     id="defs6"><clipPath
       clipPathUnits="userSpaceOnUse"
       id="clipPath16"><path
         d="M 0,41.62 H 41.62 V 0 H 0 Z"
         id="path14" /></clipPath></defs><g
     id="g8"
     transform="matrix(1.3333333,0,0,-1.3333333,0,55.493067)"><g
       id="g10"><g
         id="g12"
         clip-path="url(#clipPath16)"><g
           id="g18"
           transform="translate(41.6201,20.8102)"><path
             d="m 0,0 c 0,-11.493 -9.317,-20.811 -20.811,-20.811 -11.492,0 -20.809,9.318 -20.809,20.811 0,11.492 9.317,20.81 20.809,20.81 C -9.317,20.81 0,11.492 0,0"
             style="fill:#0b4e82;fill-opacity:1;fill-rule:nonzero;stroke:none"
             id="path20" /></g><g
           id="g22"
           transform="translate(9.6357,27.7018)"><path
             d="m 0,0 -2.508,6.223 h 1.729 L 0.393,3.047 0.732,1.986 c 0.09,0.27 0.147,0.448 0.17,0.534 0.055,0.175 0.114,0.351 0.176,0.527 L 2.262,6.223 H 3.955 L 1.482,0 Z"
             style="fill:#ffffff;fill-opacity:1;fill-rule:nonzero;stroke:none"
             id="path24" /></g><g
           id="g26"
           transform="translate(15.9053,30.8132)"><path
             d="m 0,0 c 0,-0.617 0.146,-1.09 0.439,-1.418 0.293,-0.328 0.655,-0.492 1.084,-0.492 0.43,0 0.79,0.164 1.081,0.492 0.292,0.328 0.437,0.805 0.437,1.43 0,0.609 -0.145,1.078 -0.437,1.406 C 2.313,1.746 1.953,1.91 1.523,1.91 1.094,1.91 0.732,1.746 0.439,1.418 0.146,1.09 0,0.617 0,0 m -1.687,0.088 c 0,0.547 0.134,1.076 0.404,1.588 0.269,0.512 0.651,0.902 1.145,1.172 0.494,0.269 1.046,0.404 1.656,0.404 0.941,0 1.712,-0.306 2.314,-0.917 0.602,-0.611 0.902,-1.384 0.902,-2.317 0,-0.942 -0.303,-1.722 -0.911,-2.341 -0.607,-0.619 -1.372,-0.929 -2.294,-0.929 -0.57,0 -1.114,0.129 -1.632,0.387 -0.517,0.258 -0.911,0.636 -1.18,1.134 -0.27,0.498 -0.404,1.104 -0.404,1.819"
             style="fill:#ffffff;fill-opacity:1;fill-rule:nonzero;stroke:none"
             id="path28" /></g><g
           id="g30"
           transform="translate(26.0244,27.7018)"><path
             d="M 0,0 V 0.932 C -0.227,0.6 -0.524,0.338 -0.894,0.146 c -0.369,-0.191 -0.758,-0.287 -1.169,-0.287 -0.417,0 -0.792,0.092 -1.125,0.276 -0.332,0.183 -0.572,0.441 -0.72,0.773 -0.149,0.332 -0.223,0.791 -0.223,1.377 v 3.938 h 1.647 v -2.86 c 0,-0.875 0.03,-1.411 0.09,-1.608 0.061,-0.197 0.171,-0.354 0.331,-0.469 0.161,-0.115 0.364,-0.173 0.61,-0.173 0.281,0 0.533,0.077 0.756,0.232 0.222,0.154 0.375,0.345 0.457,0.574 0.082,0.228 0.123,0.788 0.123,1.679 V 6.223 H 1.529 L 1.529,0 Z"
             style="fill:#ffffff;fill-opacity:1;fill-rule:nonzero;stroke:none"
             id="path32" /></g><g
           id="g34"
           transform="translate(28.6787,29.4772)"><path
             d="m 0,0 1.652,0.252 c 0.071,-0.32 0.213,-0.564 0.428,-0.73 0.215,-0.166 0.516,-0.249 0.902,-0.249 0.426,0 0.747,0.079 0.961,0.235 0.145,0.109 0.217,0.256 0.217,0.439 0,0.125 -0.039,0.229 -0.117,0.311 C 3.961,0.336 3.777,0.408 3.492,0.475 2.164,0.768 1.322,1.035 0.967,1.277 0.475,1.613 0.229,2.08 0.229,2.678 c 0,0.539 0.212,0.992 0.638,1.359 0.426,0.367 1.086,0.551 1.981,0.551 0.851,0 1.484,-0.139 1.898,-0.416 C 5.16,3.895 5.445,3.484 5.602,2.941 L 4.049,2.654 C 3.982,2.896 3.856,3.082 3.671,3.211 3.485,3.34 3.221,3.404 2.877,3.404 2.443,3.404 2.133,3.344 1.945,3.223 1.82,3.137 1.758,3.025 1.758,2.889 1.758,2.771 1.812,2.672 1.922,2.59 2.07,2.48 2.583,2.326 3.46,2.127 4.337,1.928 4.949,1.684 5.297,1.395 5.641,1.102 5.812,0.693 5.812,0.17 5.812,-0.4 5.574,-0.891 5.098,-1.301 4.621,-1.711 3.916,-1.916 2.982,-1.916 2.135,-1.916 1.464,-1.744 0.97,-1.4 0.476,-1.057 0.152,-0.59 0,0"
             style="fill:#ffffff;fill-opacity:1;fill-rule:nonzero;stroke:none"
             id="path36" /></g><g
           id="g38"
           transform="translate(13.6172,19.3464)"><path
             d="m 0,0 c -0.012,0.477 -0.135,0.839 -0.369,1.087 -0.235,0.248 -0.52,0.372 -0.856,0.372 -0.359,0 -0.656,-0.131 -0.89,-0.393 C -2.35,0.805 -2.465,0.449 -2.461,0 Z m -3.252,3.363 1.231,1.729 h 1.523 L 0.715,3.363 h -1.324 l -0.68,0.873 -0.633,-0.873 z m 3.158,-5.027 1.641,-0.275 C 1.336,-2.541 1.003,-2.999 0.548,-3.313 0.093,-3.628 -0.477,-3.785 -1.16,-3.785 c -1.082,0 -1.883,0.353 -2.403,1.06 -0.41,0.567 -0.615,1.282 -0.615,2.145 0,1.031 0.27,1.839 0.809,2.423 0.539,0.584 1.221,0.876 2.045,0.876 0.926,0 1.656,-0.306 2.191,-0.917 C 1.402,1.19 1.658,0.254 1.635,-1.008 H -2.49 c 0.011,-0.488 0.144,-0.868 0.398,-1.139 0.254,-0.272 0.571,-0.408 0.949,-0.408 0.258,0 0.475,0.071 0.651,0.211 0.176,0.141 0.308,0.367 0.398,0.68"
             style="fill:#ffffff;fill-opacity:1;fill-rule:nonzero;stroke:none"
             id="path40" /></g><g
           id="g42"
           transform="translate(19.4473,21.9245)"><path
             d="M 0,0 V -1.312 H -1.125 V -3.82 c 0,-0.508 0.011,-0.804 0.032,-0.888 0.022,-0.084 0.071,-0.153 0.147,-0.208 0.076,-0.055 0.169,-0.082 0.278,-0.082 0.152,0 0.373,0.053 0.662,0.158 l 0.141,-1.277 c -0.383,-0.164 -0.817,-0.246 -1.301,-0.246 -0.297,0 -0.564,0.05 -0.803,0.149 -0.238,0.1 -0.413,0.229 -0.524,0.387 -0.111,0.158 -0.189,0.372 -0.232,0.641 -0.035,0.192 -0.052,0.579 -0.052,1.161 v 2.713 H -3.533 V 0 h 0.756 v 1.236 l 1.652,0.961 0,-2.197 z"
             style="fill:#ffffff;fill-opacity:1;fill-rule:nonzero;stroke:none"
             id="path44" /></g><g
           id="g46"
           transform="translate(24.2871,19.3464)"><path
             d="m 0,0 c -0.012,0.477 -0.135,0.839 -0.369,1.087 -0.235,0.248 -0.52,0.372 -0.856,0.372 -0.359,0 -0.656,-0.131 -0.89,-0.393 C -2.35,0.805 -2.465,0.449 -2.461,0 Z M -0.094,-1.664 1.547,-1.939 C 1.336,-2.541 1.003,-2.999 0.548,-3.313 0.093,-3.628 -0.477,-3.785 -1.16,-3.785 c -1.082,0 -1.883,0.353 -2.403,1.06 -0.41,0.567 -0.615,1.282 -0.615,2.145 0,1.031 0.27,1.839 0.809,2.423 0.539,0.584 1.221,0.876 2.045,0.876 0.926,0 1.656,-0.306 2.191,-0.917 C 1.402,1.19 1.658,0.254 1.635,-1.008 H -2.49 c 0.011,-0.488 0.144,-0.868 0.398,-1.139 0.254,-0.272 0.571,-0.408 0.949,-0.408 0.258,0 0.475,0.071 0.651,0.211 0.176,0.141 0.308,0.367 0.398,0.68"
             style="fill:#ffffff;fill-opacity:1;fill-rule:nonzero;stroke:none"
             id="path48" /></g><g
           id="g50"
           transform="translate(26.6836,17.4772)"><path
             d="m 0,0 1.652,0.252 c 0.071,-0.32 0.213,-0.564 0.428,-0.73 0.215,-0.166 0.516,-0.249 0.902,-0.249 0.426,0 0.747,0.079 0.961,0.235 0.145,0.109 0.217,0.256 0.217,0.439 0,0.125 -0.039,0.229 -0.117,0.311 C 3.961,0.336 3.777,0.408 3.492,0.475 2.164,0.768 1.322,1.035 0.967,1.277 0.475,1.613 0.229,2.08 0.229,2.678 c 0,0.539 0.212,0.992 0.638,1.359 0.426,0.367 1.086,0.551 1.981,0.551 0.851,0 1.484,-0.139 1.898,-0.416 C 5.16,3.895 5.445,3.484 5.602,2.941 L 4.049,2.654 C 3.982,2.896 3.856,3.082 3.671,3.211 3.485,3.34 3.221,3.404 2.877,3.404 2.443,3.404 2.133,3.344 1.945,3.223 1.82,3.137 1.758,3.025 1.758,2.889 1.758,2.771 1.812,2.672 1.922,2.59 2.07,2.48 2.583,2.326 3.46,2.127 4.337,1.928 4.949,1.684 5.297,1.395 5.641,1.102 5.812,0.693 5.812,0.17 5.812,-0.4 5.574,-0.891 5.098,-1.301 4.621,-1.711 3.916,-1.916 2.982,-1.916 2.135,-1.916 1.464,-1.744 0.97,-1.4 0.476,-1.057 0.152,-0.59 0,0"
             style="fill:#ffffff;fill-opacity:1;fill-rule:nonzero;stroke:none"
             id="path52" /></g><path
           d="m 14.221,12.292 h 1.734 v -8.59 h -1.734 z"
           style="fill:#ffffff;fill-opacity:1;fill-rule:nonzero;stroke:none"
           id="path54" /><g
           id="g56"
           transform="translate(23.1035,6.86)"><path
             d="M 0,0 1.682,-0.533 C 1.424,-1.471 0.995,-2.167 0.396,-2.622 c -0.6,-0.455 -1.361,-0.683 -2.283,-0.683 -1.14,0 -2.078,0.39 -2.812,1.169 -0.735,0.78 -1.102,1.845 -1.102,3.197 0,1.429 0.369,2.54 1.108,3.331 0.738,0.791 1.709,1.186 2.912,1.186 1.051,0 1.904,-0.31 2.56,-0.932 C 1.17,4.279 1.463,3.752 1.658,3.064 L -0.059,2.654 C -0.16,3.1 -0.372,3.451 -0.694,3.709 -1.017,3.967 -1.408,4.096 -1.869,4.096 -2.506,4.096 -3.022,3.867 -3.419,3.41 -3.815,2.953 -4.014,2.213 -4.014,1.189 c 0,-1.085 0.196,-1.859 0.586,-2.32 0.391,-0.461 0.899,-0.691 1.524,-0.691 0.461,0 0.857,0.146 1.189,0.439 C -0.383,-1.09 -0.145,-0.629 0,0"
             style="fill:#ffffff;fill-opacity:1;fill-rule:nonzero;stroke:none"
             id="path58" /></g><path
           d="m 26.221,12.292 h 1.734 v -8.59 h -1.734 z"
           style="fill:#ffffff;fill-opacity:1;fill-rule:nonzero;stroke:none"
           id="path60" /></g></g></g></svg>
