<?xml version="1.0" encoding="UTF-8" standalone="no"?>
<!-- Created with Inkscape (http://www.inkscape.org/) -->

<svg
   version="1.1"
   id="svg2"
   xml:space="preserve"
   width="165.66667"
   height="354.66934"
   viewBox="0 0 165.66667 354.66934"
   xmlns="http://www.w3.org/2000/svg"
   xmlns:svg="http://www.w3.org/2000/svg"><defs
     id="defs6"><clipPath
       clipPathUnits="userSpaceOnUse"
       id="clipPath16"><path
         d="M 0,266.003 H 124.25 V 0 H 0 Z"
         id="path14" /></clipPath></defs><g
     id="g8"
     transform="matrix(1.3333333,0,0,-1.3333333,0,354.66933)"><g
       id="g10"><g
         id="g12"
         clip-path="url(#clipPath16)"><g
           id="g18"
           transform="translate(124.2497,266.0027)"><path
             d="m 0,0 v -242.5 c -9.83,0 -19.67,0.01 -29.5,0 -0.01,-7.831 0,-15.661 0,-23.5 -21.75,0 -43.5,-0.01 -65.25,0.01 v 23.49 c -9.84,0.01 -19.67,-0.01 -29.5,0.01 V 0 Z"
             style="fill:#0a0f0c;fill-opacity:1;fill-rule:nonzero;stroke:none"
             id="path20" /></g><g
           id="g22"
           transform="translate(117.99,249.4827)"><path
             d="m 0,0 c 0.03,-28.42 -0.02,-56.84 0.03,-85.26 -4.65,13.44 -14.27,25.03 -26.64,32.05 C -17.729,-35.47 -8.87,-17.73 0,0"
             style="fill:#ffffff;fill-opacity:1;fill-rule:nonzero;stroke:none"
             id="path24" /></g><g
           id="g26"
           transform="translate(118.0105,125.3128)"><path
             d="m 0,0 c -0.03,-28.431 0,-56.86 -0.021,-85.3 -8.87,17.739 -17.74,35.489 -26.61,53.23 C -14.29,-25.021 -4.61,-13.46 0,0"
             style="fill:#ffffff;fill-opacity:1;fill-rule:nonzero;stroke:none"
             id="path28" /></g><g
           id="g30"
           transform="translate(8.1501,259.7527)"><path
             d="M 0,0 C 35.95,0.01 71.899,-0.01 107.86,0.01 97.76,-20.2 87.61,-40.38 77.57,-60.62 62.66,-54.2 45.21,-54.19 30.29,-60.61 20.17,-40.42 10.07,-20.22 0,0"
             style="fill:#ffffff;fill-opacity:1;fill-rule:nonzero;stroke:none"
             id="path32" /></g><g
           id="g34"
           transform="translate(85.6902,90.4026)"><path
             d="m 0,0 c 10.09,-20.23 20.22,-40.44 30.31,-60.66 -35.951,0.03 -71.9,-0.01 -107.85,0.02 10.07,20.22 20.19,40.43 30.31,60.64 14.89,-6.43 32.35,-6.44 47.23,0"
             style="fill:#ffffff;fill-opacity:1;fill-rule:nonzero;stroke:none"
             id="path36" /></g><g
           id="g38"
           transform="translate(114.1003,152.9226)"><path
             d="M 0,0 C 2.12,-12.71 -0.891,-26.121 -7.94,-36.871 -15.561,-48.6 -28.011,-57.11 -41.761,-59.81 c -11.479,-2.37 -23.729,-0.64 -34.129,4.76 -12.89,6.48 -22.81,18.509 -26.76,32.38 -3.6,12.52 -2.4,26.43 3.56,38.05 7.02,14.23 20.819,24.88 36.38,28.03 14.01,3.06 29.199,-0.18 40.859,-8.48 C -10.271,26.84 -2.16,13.98 0,0"
             style="fill:#ffffff;fill-opacity:1;fill-rule:nonzero;stroke:none"
             id="path40" /></g><g
           id="g42"
           transform="translate(35.7502,23.5022)"><path
             d="m 0,0 c 17.58,0 35.169,0.011 52.75,-0.01 0,-5.74 0.01,-11.49 -0.01,-17.24 H 0 C -0.01,-11.5 0,-5.75 0,0"
             style="fill:#ffffff;fill-opacity:1;fill-rule:nonzero;stroke:none"
             id="path44" /></g><g
           id="g46"
           transform="translate(78.3298,167.4021)"><path
             d="m 0,0 c 6.069,1.35 12.88,0.79 18.13,-2.8 5.559,-3.54 8.53,-10.06 9.189,-16.45 0.781,-7.08 -0.769,-14.83 -5.71,-20.201 -8.46,-9.069 -25.16,-8.59 -32.549,1.611 -5.121,6.88 -5.68,16.26 -3.26,24.27 2,6.56 7.47,11.98 14.2,13.57"
             style="fill:#0a0f0c;fill-opacity:1;fill-rule:nonzero;stroke:none"
             id="path48" /></g><g
           id="g50"
           transform="translate(18.2395,167.242)"><path
             d="m 0,0 c 2.25,0.01 4.51,0.01 6.76,0.01 4.58,-13.09 9.56,-26.05 13.85,-39.24 4.4,13.23 9.59,26.18 14.4,39.27 2.1,-0.03 4.2,-0.03 6.31,-0.02 C 35.53,-15.01 29.55,-29.96 23.76,-44.99 H 17.42 C 11.66,-29.98 5.82,-14.99 0,0"
             style="fill:#0a0f0c;fill-opacity:1;fill-rule:nonzero;stroke:none"
             id="path52" /></g><g
           id="g54"
           transform="translate(80.4099,162.2918)"><path
             d="m 0,0 c 5.359,1.42 11.529,-0.33 15.08,-4.65 2.84,-3.54 4,-8.18 3.88,-12.66 0.149,-4.73 -0.88,-9.79 -4.221,-13.33 -5.34,-6.35 -16.33,-6.36 -21.75,-0.09 -5.019,5.61 -5.059,13.93 -3.229,20.84 1.229,4.9 5.439,8.62 10.24,9.89"
             style="fill:#ffffff;fill-opacity:1;fill-rule:nonzero;stroke:none"
             id="path56" /></g><g
           id="g58"
           transform="translate(6.3899,249.1526)"><path
             d="M 0,0 C 8.66,-17.68 17.56,-35.23 26.35,-52.84 14.3,-59.91 4.43,-71.12 0.02,-84.48 -0.27,-56.33 -0.21,-28.15 0,0"
             style="fill:#ffffff;fill-opacity:1;fill-rule:nonzero;stroke:none"
             id="path60" /></g><g
           id="g62"
           transform="translate(6.2702,124.7522)"><path
             d="M 0,0 C 4.79,-13.16 14.28,-24.55 26.47,-31.479 17.67,-49.14 8.83,-66.79 -0.01,-84.439 -0.02,-56.29 -0.04,-28.149 0,0"
             style="fill:#ffffff;fill-opacity:1;fill-rule:nonzero;stroke:none"
             id="path64" /></g></g></g></g></svg>
