<?xml version="1.0" encoding="UTF-8" standalone="no"?>
<!-- Created with Inkscape (http://www.inkscape.org/) -->

<svg
   version="1.1"
   id="svg2"
   xml:space="preserve"
   width="354.66934"
   height="165.66667"
   viewBox="0 0 354.66934 165.66667"
   xmlns="http://www.w3.org/2000/svg"
   xmlns:svg="http://www.w3.org/2000/svg"><defs
     id="defs6"><clipPath
       clipPathUnits="userSpaceOnUse"
       id="clipPath16"><path
         d="M 0,124.25 H 266.003 V 0 H 0 Z"
         id="path14" /></clipPath></defs><g
     id="g8"
     transform="matrix(1.3333333,0,0,-1.3333333,0,165.66667)"><g
       id="g10"><g
         id="g12"
         clip-path="url(#clipPath16)"><g
           id="g18"
           transform="translate(266.0029)"><path
             d="m 0,0 h -242.5 c 0,9.83 0.01,19.67 0,29.5 -7.831,0.01 -15.661,0 -23.5,0 0,21.75 -0.01,43.5 0.01,65.25 h 23.49 c 0.01,9.84 -0.01,19.67 0.01,29.5 H 0 Z"
             style="fill:#0a0f0c;fill-opacity:1;fill-rule:nonzero;stroke:none"
             id="path20" /></g><g
           id="g22"
           transform="translate(249.4824,6.2598)"><path
             d="M 0,0 C -28.42,-0.029 -56.84,0.021 -85.26,-0.029 -71.82,4.62 -60.229,14.24 -53.21,26.61 -35.47,17.73 -17.729,8.87 0,0"
             style="fill:#ffffff;fill-opacity:1;fill-rule:nonzero;stroke:none"
             id="path24" /></g><g
           id="g26"
           transform="translate(125.3125,6.2402)"><path
             d="m 0,0 c -28.43,0.029 -56.86,0 -85.3,0.02 17.74,8.87 35.49,17.74 53.23,26.61 C -25.02,14.29 -13.46,4.609 0,0"
             style="fill:#ffffff;fill-opacity:1;fill-rule:nonzero;stroke:none"
             id="path28" /></g><g
           id="g30"
           transform="translate(259.7529,116.1001)"><path
             d="m 0,0 c 0.01,-35.95 -0.011,-71.9 0.01,-107.86 -20.21,10.1 -40.391,20.25 -60.63,30.29 6.42,14.91 6.43,32.36 0.01,47.28 C -40.421,-20.17 -20.221,-10.07 0,0"
             style="fill:#ffffff;fill-opacity:1;fill-rule:nonzero;stroke:none"
             id="path32" /></g><g
           id="g34"
           transform="translate(90.4023,38.5596)"><path
             d="m 0,0 c -20.23,-10.09 -40.44,-20.22 -60.66,-30.31 0.03,35.951 -0.01,71.9 0.02,107.851 C -40.42,67.47 -20.21,57.351 0,47.23 -6.43,32.34 -6.44,14.881 0,0"
             style="fill:#ffffff;fill-opacity:1;fill-rule:nonzero;stroke:none"
             id="path36" /></g><g
           id="g38"
           transform="translate(152.9229,10.1504)"><path
             d="m 0,0 c -12.71,-2.12 -26.12,0.89 -36.87,7.939 -11.731,7.621 -20.24,20.071 -22.941,33.821 -2.369,11.48 -0.639,23.73 4.761,34.13 6.48,12.89 18.509,22.81 32.38,26.759 12.52,3.601 26.43,2.401 38.05,-3.559 C 29.609,92.07 40.26,78.27 43.409,62.709 46.47,48.699 43.229,33.51 34.93,21.85 26.84,10.27 13.979,2.159 0,0"
             style="fill:#ffffff;fill-opacity:1;fill-rule:nonzero;stroke:none"
             id="path40" /></g><g
           id="g42"
           transform="translate(23.5024,88.5)"><path
             d="m 0,0 c 0,-17.58 0.01,-35.17 -0.01,-52.75 -5.74,0 -11.49,-0.01 -17.24,0.01 V 0 C -11.5,0.01 -5.75,0 0,0"
             style="fill:#ffffff;fill-opacity:1;fill-rule:nonzero;stroke:none"
             id="path44" /></g><g
           id="g46"
           transform="translate(161.0811,84.8198)"><path
             d="m 0,0 c 6.07,1.35 12.88,0.79 18.13,-2.8 5.56,-3.54 8.53,-10.06 9.19,-16.45 0.781,-7.08 -0.769,-14.83 -5.71,-20.2 -8.46,-9.07 -25.16,-8.59 -32.549,1.61 -5.121,6.881 -5.681,16.26 -3.26,24.27 2,6.56 7.47,11.98 14.199,13.57"
             style="fill:#0a0f0c;fill-opacity:1;fill-rule:nonzero;stroke:none"
             id="path48" /></g><g
           id="g50"
           transform="translate(100.9912,84.6597)"><path
             d="m 0,0 c 2.25,0.01 4.51,0.01 6.76,0.01 4.58,-13.09 9.56,-26.05 13.85,-39.24 4.4,13.23 9.59,26.18 14.4,39.27 2.1,-0.03 4.2,-0.03 6.31,-0.02 C 35.53,-15.01 29.55,-29.959 23.76,-44.99 H 17.42 C 11.66,-29.98 5.82,-14.99 0,0"
             style="fill:#0a0f0c;fill-opacity:1;fill-rule:nonzero;stroke:none"
             id="path52" /></g><g
           id="g54"
           transform="translate(163.1611,79.71)"><path
             d="m 0,0 c 5.36,1.42 11.53,-0.33 15.08,-4.65 2.84,-3.54 4,-8.18 3.88,-12.66 0.15,-4.73 -0.88,-9.79 -4.22,-13.33 -5.34,-6.35 -16.33,-6.36 -21.75,-0.09 -5.019,5.61 -5.059,13.93 -3.23,20.84 C -9.01,-4.99 -4.8,-1.27 0,0"
             style="fill:#ffffff;fill-opacity:1;fill-rule:nonzero;stroke:none"
             id="path56" /></g><g
           id="g58"
           transform="translate(249.1523,117.8599)"><path
             d="M 0,0 C -17.68,-8.66 -35.229,-17.56 -52.84,-26.35 -59.91,-14.3 -71.12,-4.43 -84.479,-0.02 -56.33,0.27 -28.149,0.21 0,0"
             style="fill:#ffffff;fill-opacity:1;fill-rule:nonzero;stroke:none"
             id="path60" /></g><g
           id="g62"
           transform="translate(124.7524,117.98)"><path
             d="M 0,0 C -13.16,-4.79 -24.55,-14.28 -31.48,-26.47 -49.14,-17.67 -66.79,-8.83 -84.44,0.01 -56.29,0.02 -28.15,0.04 0,0"
             style="fill:#ffffff;fill-opacity:1;fill-rule:nonzero;stroke:none"
             id="path64" /></g></g></g></g></svg>
