<?xml version="1.0" encoding="UTF-8" standalone="no"?>
<!-- Created with Inkscape (http://www.inkscape.org/) -->

<svg
   version="1.1"
   id="svg2"
   xml:space="preserve"
   width="260.32001"
   height="165.65334"
   viewBox="0 0 260.32001 165.65334"
   xmlns="http://www.w3.org/2000/svg"
   xmlns:svg="http://www.w3.org/2000/svg"><defs
     id="defs6"><clipPath
       clipPathUnits="userSpaceOnUse"
       id="clipPath20"><path
         d="M 0,124.24 H 195.24 V 0 H 0 Z"
         id="path18" /></clipPath></defs><g
     id="g8"
     transform="matrix(1.3333333,0,0,-1.3333333,0,165.65333)"><g
       id="g10"
       transform="translate(43.8784,35.2771)"><path
         d="m 0,0 v 53.686 h 16.223 l 9.741,-36.621 9.632,36.621 h 16.26 V 0 H 41.785 V 42.26 L 31.127,0 H 20.691 L 10.071,42.26 V 0 Z"
         style="fill:#0a0f0c;fill-opacity:1;fill-rule:nonzero;stroke:none"
         id="path12" /></g><g
       id="g14"><g
         id="g16"
         clip-path="url(#clipPath20)"><g
           id="g22"
           transform="translate(140.8506,55.0154)"><path
             d="M 0,0 10.511,-3.332 C 8.899,-9.191 6.22,-13.544 2.473,-16.388 c -3.748,-2.844 -8.503,-4.266 -14.264,-4.266 -7.13,0 -12.989,2.435 -17.578,7.306 -4.591,4.87 -6.885,11.53 -6.885,19.976 0,8.936 2.307,15.875 6.921,20.82 4.614,4.943 10.681,7.415 18.2,7.415 6.568,0 11.903,-1.941 16.004,-5.822 2.441,-2.295 4.273,-5.591 5.493,-9.888 L -0.365,16.589 c -0.636,2.784 -1.96,4.981 -3.974,6.592 -2.015,1.611 -4.462,2.417 -7.343,2.417 -3.979,0 -7.209,-1.428 -9.686,-4.285 -2.478,-2.856 -3.717,-7.483 -3.717,-13.879 0,-6.788 1.221,-11.621 3.662,-14.501 2.442,-2.881 5.615,-4.322 9.522,-4.322 2.88,0 5.358,0.915 7.434,2.746 C -2.393,-6.812 -0.903,-3.931 0,0"
             style="fill:#0a0f0c;fill-opacity:1;fill-rule:nonzero;stroke:none"
             id="path24" /></g></g></g></g></svg>
