<?xml version="1.0" encoding="UTF-8" standalone="no"?>
<!-- Created with Inkscape (http://www.inkscape.org/) -->

<svg
   version="1.1"
   id="svg2"
   xml:space="preserve"
   width="165.66667"
   height="354.66934"
   viewBox="0 0 165.66667 354.66934"
   xmlns="http://www.w3.org/2000/svg"
   xmlns:svg="http://www.w3.org/2000/svg"><defs
     id="defs6"><clipPath
       clipPathUnits="userSpaceOnUse"
       id="clipPath16"><path
         d="M 0,266.003 H 124.25 V 0 H 0 Z"
         id="path14" /></clipPath></defs><g
     id="g8"
     transform="matrix(1.3333333,0,0,-1.3333333,0,354.66933)"><g
       id="g10"><g
         id="g12"
         clip-path="url(#clipPath16)"><g
           id="g18"
           transform="translate(2e-4,3e-4)"><path
             d="m 0,0 v 242.5 c 9.83,0 19.67,-0.01 29.5,0 0.01,7.83 0,15.66 0,23.5 21.75,0 43.5,0.01 65.25,-0.01 V 242.5 c 9.839,-0.01 19.669,0.01 29.5,-0.01 V 0 Z"
             style="fill:#0a0f0c;fill-opacity:1;fill-rule:nonzero;stroke:none"
             id="path20" /></g><g
           id="g22"
           transform="translate(6.26,16.5198)"><path
             d="M 0,0 C -0.03,28.42 0.02,56.84 -0.03,85.26 4.62,71.82 14.24,60.23 26.61,53.21 17.73,35.47 8.87,17.73 0,0"
             style="fill:#ffffff;fill-opacity:1;fill-rule:nonzero;stroke:none"
             id="path24" /></g><g
           id="g26"
           transform="translate(6.24,140.6902)"><path
             d="M 0,0 C 0.03,28.43 0,56.86 0.02,85.3 8.89,67.56 17.76,49.81 26.63,32.07 14.29,25.02 4.61,13.46 0,0"
             style="fill:#ffffff;fill-opacity:1;fill-rule:nonzero;stroke:none"
             id="path28" /></g><g
           id="g30"
           transform="translate(116.1003,6.2503)"><path
             d="M 0,0 C -35.95,-0.011 -71.9,0.01 -107.86,-0.011 -97.76,20.2 -87.61,40.38 -77.57,60.62 -62.66,54.2 -45.21,54.189 -30.29,60.609 -20.17,40.42 -10.07,20.22 0,0"
             style="fill:#ffffff;fill-opacity:1;fill-rule:nonzero;stroke:none"
             id="path32" /></g><g
           id="g34"
           transform="translate(38.5598,175.5999)"><path
             d="M 0,0 C -10.09,20.23 -20.22,40.44 -30.31,60.66 5.64,60.63 41.59,60.67 77.541,60.64 67.47,40.42 57.35,20.21 47.23,0 32.34,6.43 14.88,6.44 0,0"
             style="fill:#ffffff;fill-opacity:1;fill-rule:nonzero;stroke:none"
             id="path36" /></g><g
           id="g38"
           transform="translate(54.0027,173.2376)"><path
             d="m 0,0 c 12.71,2.12 26.12,-0.89 36.87,-7.94 11.73,-7.62 20.24,-20.07 22.94,-33.82 2.37,-11.48 0.64,-23.73 -4.76,-34.13 -6.48,-12.89 -18.51,-22.81 -32.38,-26.76 -12.52,-3.6 -26.43,-2.4 -38.05,3.56 -14.23,7.02 -24.88,20.819 -28.03,36.38 -3.06,14.01 0.18,29.2 8.48,40.86 C -26.84,-10.27 -13.98,-2.16 0,0"
             style="fill:#ffffff;fill-opacity:1;fill-rule:nonzero;stroke:none"
             id="path40" /></g><g
           id="g42"
           transform="translate(88.4997,242.4998)"><path
             d="m 0,0 c -17.58,0 -35.17,-0.01 -52.75,0.01 0,5.74 -0.01,11.49 0.01,17.24 H 0 C 0.011,11.5 0,5.75 0,0"
             style="fill:#ffffff;fill-opacity:1;fill-rule:nonzero;stroke:none"
             id="path44" /></g><g
           id="g46"
           transform="translate(78.4997,143.8206)"><path
             d="m 0,0 c 6.069,1.35 12.88,0.79 18.13,-2.8 5.559,-3.54 8.529,-10.06 9.189,-16.45 0.781,-7.08 -0.769,-14.83 -5.71,-20.2 -8.46,-9.071 -25.16,-8.59 -32.549,1.61 -5.121,6.88 -5.68,16.26 -3.26,24.27 2,6.56 7.47,11.98 14.2,13.57"
             style="fill:#0a0f0c;fill-opacity:1;fill-rule:nonzero;stroke:none"
             id="path48" /></g><g
           id="g50"
           transform="translate(18.4094,143.6604)"><path
             d="M 0,0 C 2.25,0.01 4.51,0.01 6.76,0.01 11.34,-13.08 16.32,-26.04 20.61,-39.229 25.01,-26 30.2,-13.05 35.01,0.04 37.11,0.01 39.21,0.01 41.32,0.02 35.53,-15.01 29.55,-29.96 23.76,-44.99 H 17.42 C 11.66,-29.979 5.82,-14.99 0,0"
             style="fill:#0a0f0c;fill-opacity:1;fill-rule:nonzero;stroke:none"
             id="path52" /></g><g
           id="g54"
           transform="translate(80.5798,138.7107)"><path
             d="m 0,0 c 5.359,1.42 11.529,-0.33 15.079,-4.65 2.841,-3.54 4,-8.181 3.881,-12.66 0.149,-4.731 -0.881,-9.79 -4.221,-13.33 -5.34,-6.35 -16.33,-6.36 -21.75,-0.09 -5.019,5.609 -5.059,13.93 -3.229,20.84 1.229,4.9 5.439,8.62 10.24,9.89"
             style="fill:#ffffff;fill-opacity:1;fill-rule:nonzero;stroke:none"
             id="path56" /></g><g
           id="g58"
           transform="translate(117.8601,16.8499)"><path
             d="M 0,0 C -8.66,17.68 -17.561,35.23 -26.35,52.84 -14.3,59.91 -4.43,71.12 -0.021,84.48 0.27,56.33 0.21,28.15 0,0"
             style="fill:#ffffff;fill-opacity:1;fill-rule:nonzero;stroke:none"
             id="path60" /></g><g
           id="g62"
           transform="translate(117.9802,141.2498)"><path
             d="M 0,0 C -4.79,13.16 -14.28,24.55 -26.47,31.48 -17.67,49.14 -8.83,66.79 0.01,84.44 0.02,56.29 0.04,28.15 0,0"
             style="fill:#ffffff;fill-opacity:1;fill-rule:nonzero;stroke:none"
             id="path64" /></g></g></g></g></svg>
