<?xml version="1.0" encoding="UTF-8" standalone="no"?>
<!-- Created with Inkscape (http://www.inkscape.org/) -->

<svg
   version="1.1"
   id="svg2"
   xml:space="preserve"
   width="260.32001"
   height="165.65334"
   viewBox="0 0 260.32001 165.65334"
   xmlns="http://www.w3.org/2000/svg"
   xmlns:svg="http://www.w3.org/2000/svg"><defs
     id="defs6"><clipPath
       clipPathUnits="userSpaceOnUse"
       id="clipPath20"><path
         d="M 0,124.24 H 195.24 V 0 H 0 Z"
         id="path18" /></clipPath></defs><g
     id="g8"
     transform="matrix(1.3333333,0,0,-1.3333333,0,165.65333)"><g
       id="g10"
       transform="translate(56.978,56.5349)"><path
         d="M 0,0 -6.937,19.922 -13.736,0 Z M 18.715,-21.24 H 7.658 L 3.262,-9.045 h -20.123 l -4.155,-12.195 h -10.783 l 19.608,53.687 h 10.749 z"
         style="fill:#0a0f0c;fill-opacity:1;fill-rule:nonzero;stroke:none"
         id="path12" /></g><g
       id="g14"><g
         id="g16"
         clip-path="url(#clipPath20)"><g
           id="g22"
           transform="translate(78.5093,52.7634)"><path
             d="m 0,0 9.89,1.025 c 0.595,-3.541 1.803,-6.14 3.623,-7.8 1.82,-1.661 4.275,-2.491 7.365,-2.491 3.274,0 5.741,0.739 7.401,2.216 1.66,1.477 2.49,3.204 2.49,5.182 0,1.269 -0.35,2.349 -1.047,3.241 -0.699,0.891 -1.918,1.666 -3.658,2.325 -1.189,0.44 -3.902,1.221 -8.138,2.344 -5.449,1.44 -9.272,3.21 -11.47,5.311 -3.091,2.953 -4.636,6.555 -4.636,10.803 0,2.734 0.727,5.292 2.181,7.672 1.453,2.38 3.548,4.193 6.284,5.438 2.736,1.245 6.038,1.868 9.907,1.868 6.319,0 11.075,-1.478 14.268,-4.431 3.194,-2.954 4.872,-6.898 5.032,-11.829 L 29.326,20.398 c -0.434,2.759 -1.368,4.742 -2.799,5.951 -1.43,1.208 -3.576,1.813 -6.438,1.813 -2.953,0 -5.266,-0.647 -6.937,-1.941 -1.076,-0.83 -1.613,-1.941 -1.613,-3.333 0,-1.269 0.503,-2.356 1.51,-3.259 1.282,-1.148 4.396,-2.344 9.341,-3.589 4.945,-1.245 8.602,-2.533 10.971,-3.864 2.369,-1.33 4.224,-3.149 5.564,-5.456 1.338,-2.308 2.008,-5.158 2.008,-8.552 0,-3.076 -0.801,-5.957 -2.404,-8.643 -1.602,-2.685 -3.869,-4.681 -6.799,-5.987 -2.93,-1.306 -6.582,-1.959 -10.955,-1.959 -6.364,0 -11.252,1.568 -14.662,4.706 C 2.701,-10.578 0.664,-6.006 0,0"
             style="fill:#0a0f0c;fill-opacity:1;fill-rule:nonzero;stroke:none"
             id="path24" /></g><g
           id="g26"
           transform="translate(160.2041,55.033)"><path
             d="M 0,0 9.856,-3.332 C 8.345,-9.191 5.832,-13.544 2.318,-16.388 c -3.514,-2.843 -7.972,-4.266 -13.375,-4.266 -6.685,0 -12.179,2.435 -16.483,7.306 -4.305,4.87 -6.456,11.53 -6.456,19.977 0,8.936 2.163,15.875 6.49,20.82 4.327,4.943 10.016,7.415 17.068,7.415 6.157,0 11.16,-1.941 15.005,-5.822 2.289,-2.295 4.006,-5.591 5.152,-9.888 L -0.343,16.59 c -0.595,2.784 -1.837,4.981 -3.726,6.592 -1.889,1.611 -4.184,2.417 -6.885,2.417 -3.732,0 -6.76,-1.428 -9.083,-4.285 -2.323,-2.856 -3.485,-7.483 -3.485,-13.879 0,-6.788 1.144,-11.622 3.433,-14.502 2.289,-2.881 5.266,-4.322 8.929,-4.322 2.701,0 5.025,0.916 6.971,2.746 C -2.243,-6.811 -0.847,-3.931 0,0"
             style="fill:#0a0f0c;fill-opacity:1;fill-rule:nonzero;stroke:none"
             id="path28" /></g></g></g></g></svg>
