<?xml version="1.0" encoding="UTF-8" standalone="no"?>
<!-- Created with Inkscape (http://www.inkscape.org/) -->

<svg
   version="1.1"
   id="svg2"
   xml:space="preserve"
   width="446.01334"
   height="260.34399"
   viewBox="0 0 446.01334 260.34399"
   xmlns="http://www.w3.org/2000/svg"
   xmlns:svg="http://www.w3.org/2000/svg"><defs
     id="defs6"><clipPath
       clipPathUnits="userSpaceOnUse"
       id="clipPath16"><path
         d="M 0,195.258 H 334.51 V 0 H 0 Z"
         id="path14" /></clipPath></defs><g
     id="g8"
     transform="matrix(1.3333333,0,0,-1.3333333,0,260.344)"><g
       id="g10"><g
         id="g12"
         clip-path="url(#clipPath16)"><g
           id="g18"
           transform="translate(264.8838,97.6289)"><path
             d="m 0,0 c 0,-53.918 -43.71,-97.629 -97.629,-97.629 -53.919,0 -97.629,43.711 -97.629,97.629 0,53.919 43.71,97.629 97.629,97.629 C -43.71,97.629 0,53.919 0,0"
             style="fill:#0b4e82;fill-opacity:1;fill-rule:nonzero;stroke:none"
             id="path20" /></g><g
           id="g22"
           transform="translate(163,192.0918)"><path
             d="M 0,0 8,0.667 C 32.45,-0.394 54.606,-10.4 71.667,-28 c 17.199,-17.19 26.847,-39.088 27.666,-63.338 23.221,-0.031 48.937,0.014 72.157,-0.005 0,-2.071 0.01,-4.151 0.02,-6.221 -23.23,-0.05 -48.947,0.019 -72.177,-0.012 -0.729,-20.17 -7.347,-37.061 -19.666,-53.091 -14.19,-18.66 -33.96,-32.166 -57,-36.666 -23.68,-4.81 -47.684,-0.923 -68.334,11.666 -27.979,16.59 -43.926,45.013 -44.666,77.543 -23.2,0.071 -49.467,0.521 -72.667,0.541 v 6.25 c 23.21,0.04 48.79,-0.161 72,-0.01 0.62,27.03 12.4,51.206 33,68.676 C -41.68,-8.447 -21.57,-1.12 0,0"
             style="fill:#0b4e82;fill-opacity:1;fill-rule:nonzero;stroke:none"
             id="path24" /></g><g
           id="g26"
           transform="translate(145.8198,186.4785)"><path
             d="M 0,0 C 18.52,4.52 38.44,2.95 56.06,-4.33 73.63,-11.5 88.74,-24.4 98.831,-40.45 73,-55.35 47.19,-70.27 21.36,-85.17 -4.47,-70.27 -30.29,-55.37 -56.1,-40.44 -43.62,-20.33 -23.02,-5.48 0,0"
             style="fill:#ffffff;fill-opacity:1;fill-rule:nonzero;stroke:none"
             id="path28" /></g><g
           id="g30"
           transform="translate(76,100.7486)"><path
             d="M 0,0 C 0.2,15.2 4.81,30.22 12.49,43.3 12.52,28.87 12.5,14.44 12.5,0.01 8.33,0 4.16,0.01 0,0"
             style="fill:#ffffff;fill-opacity:1;fill-rule:nonzero;stroke:none"
             id="path32" /></g><g
           id="g34"
           transform="translate(245.7598,144.1983)"><path
             d="M 0,0 C 7.86,-13.1 12.13,-28.19 12.811,-43.42 8.53,-43.46 4.26,-43.44 -0.01,-43.44 -0.01,-28.96 -0.02,-14.48 0,0"
             style="fill:#ffffff;fill-opacity:1;fill-rule:nonzero;stroke:none"
             id="path36" /></g><g
           id="g38"
           transform="translate(94.75,135.7784)"><path
             d="M 0,0 C 20.22,-11.66 40.46,-23.31 60.65,-35.03 40.43,-35.01 20.22,-35.04 0,-35.01 Z"
             style="fill:#ffffff;fill-opacity:1;fill-rule:nonzero;stroke:none"
             id="path40" /></g><g
           id="g42"
           transform="translate(178.96,100.7784)"><path
             d="M 0,0 C 20.18,11.67 40.36,23.32 60.56,34.95 60.521,23.3 60.56,11.64 60.54,-0.02 40.36,-0.02 20.18,-0.05 0,0"
             style="fill:#ffffff;fill-opacity:1;fill-rule:nonzero;stroke:none"
             id="path44" /></g><g
           id="g46"
           transform="translate(75.98,94.5083)"><path
             d="M 0,0 H 12.51 C 12.52,-14.38 12.56,-28.77 12.49,-43.16 4.79,-30.15 0.27,-15.14 0,0"
             style="fill:#ffffff;fill-opacity:1;fill-rule:nonzero;stroke:none"
             id="path48" /></g><g
           id="g50"
           transform="translate(94.7598,94.4986)"><path
             d="M 0,0 C 20.2,0.02 40.41,0.01 60.61,0.01 40.41,-11.681 20.22,-23.37 -0.02,-34.98 0.01,-23.32 -0.03,-11.66 0,0"
             style="fill:#ffffff;fill-opacity:1;fill-rule:nonzero;stroke:none"
             id="path52" /></g><g
           id="g54"
           transform="translate(179.0898,94.4781)"><path
             d="M 0,0 C 20.13,0.07 40.271,0.021 60.41,0.03 60.43,-11.63 60.38,-23.279 60.43,-34.93 40.28,-23.3 20.101,-11.72 0,0"
             style="fill:#ffffff;fill-opacity:1;fill-rule:nonzero;stroke:none"
             id="path56" /></g><g
           id="g58"
           transform="translate(245.7598,94.4986)"><path
             d="M 0,0 C 4.25,0.02 8.51,0.01 12.78,0 12.12,-15.2 7.891,-30.32 -0.01,-43.351 0,-28.9 -0.02,-14.45 0,0"
             style="fill:#ffffff;fill-opacity:1;fill-rule:nonzero;stroke:none"
             id="path60" /></g><g
           id="g62"
           transform="translate(89.6899,49.2583)"><path
             d="m 0,0 c 25.85,14.87 51.64,29.85 77.5,44.71 25.82,-14.9 51.64,-29.8 77.44,-44.73 -12.07,-19.32 -31.55,-33.89 -53.58,-39.78 -18.64,-5.1 -38.88,-4.03 -56.87,3 C 26.2,-29.74 10.39,-16.6 0,0"
             style="fill:#ffffff;fill-opacity:1;fill-rule:nonzero;stroke:none"
             id="path64" /></g></g></g></g></svg>
