<?xml version="1.0" encoding="UTF-8" standalone="no"?>
<!-- Created with Inkscape (http://www.inkscape.org/) -->

<svg
   version="1.1"
   id="svg2"
   xml:space="preserve"
   width="316"
   height="316"
   viewBox="0 0 316 316"
   xmlns="http://www.w3.org/2000/svg"
   xmlns:svg="http://www.w3.org/2000/svg"><defs
     id="defs6"><clipPath
       clipPathUnits="userSpaceOnUse"
       id="clipPath16"><path
         d="M 0,237 H 237 V 0 H 0 Z"
         id="path14" /></clipPath></defs><g
     id="g8"
     transform="matrix(1.3333333,0,0,-1.3333333,0,316)"><g
       id="g10"><g
         id="g12"
         clip-path="url(#clipPath16)"><g
           id="g18"
           transform="translate(237,237)"><path
             d="m 0,0 h -236.996 c 0,-78.999 -0.009,-157.997 0,-236.995 78.999,-0.011 157.997,0 236.996,0 z"
             style="fill:#1ea366;fill-opacity:1;fill-rule:nonzero;stroke:none"
             id="path20" /></g><g
           id="g22"
           transform="translate(189.2402,221)"><path
             d="m 0,0 c -47.33,-0.01 -94.66,0.02 -141.99,-0.01 v -88.98 c 7.49,-0.02 14.98,-0.02 22.48,0 5.93,7.49 11.86,14.99 17.62,22.61 2.77,3.72 6.54,6.93 11.18,7.91 5.24,1.11 10.64,0.94 15.97,0.98 10.69,-0.09 21.38,0.15 32.07,-0.14 5.85,-0.17 12.93,-1.07 16.22,-6.6 4.9,-8.09 9.729,-16.22 14.62,-24.32 2.399,-3.44 1.55,-8.56 -1.771,-11.1 -3.639,-2.84 -9.67,-1.93 -11.979,2.17 -4.441,7.34 -9.11,14.54 -13.231,22.06 -0.589,1.04 -1.449,2.3 -2.839,2.12 -5.56,0.16 -11.13,0.01 -16.701,0.03 4.731,-9.78 10.111,-19.25 14.521,-29.18 4.89,-14.76 2.689,-30.63 5.59,-45.75 0.34,-0.18 1.03,-0.53 1.37,-0.7 10.3,-0.28 20.63,0.04 30.939,-0.15 6.861,-0.35 14.241,-1.43 19.641,-6.03 3.95,-3.31 5.72,-8.35 7.13,-13.14 -22.191,-0.05 -44.38,-0.04 -66.57,-0.01 -5.161,-0.09 -11.581,2.35 -12.371,8.12 -1.269,12.08 -2.379,24.18 -3.62,36.26 -11.399,-21.84 -22.419,-43.89 -33.979,-65.65 -1.72,-3.48 -4.98,-6.52 -9.03,-6.7 -5.95,-0.15 -11.9,0 -17.85,-0.04 13.54,28.03 27.45,55.89 41.03,83.9 -4.19,9.12 -8.46,18.2 -12.65,27.31 -4.41,-5.59 -8.47,-11.47 -13.21,-16.79 -1.82,-2.12 -4.49,-3.48 -7.32,-3.4 -9.08,-0.08 -18.17,0.01 -27.26,-0.03 0,-32.63 -0.02,-65.27 0.01,-97.9 4.81,-4.77 9.58,-9.58 14.39,-14.36 8.67,0.03 17.33,-0.03 26,0.04 -5.85,5.56 -11.75,11.07 -17.52,16.7 5.82,0.03 11.64,0.02 17.46,0.04 2.34,0.13 4.39,-1.18 6.3,-2.37 6.05,-3.96 10.6,-9.69 16,-14.41 31.4,0.03 62.81,0 94.22,0.01 -4.6,4.65 -9.27,9.23 -13.87,13.88 -1.17,1.01 -0.59,2.76 -0.771,4.09 0.061,9.01 0.011,18.03 0.031,27.05 9.16,-0.56 18.34,-0.14 27.51,-0.27 -3.63,7.83 -5.92,17.25 -13.51,22.32 -4.12,3.03 -9.21,4.32 -14.25,4.55 C 0.01,-97.25 0.02,-48.62 0,0"
             style="fill:#ffffff;fill-opacity:1;fill-rule:nonzero;stroke:none"
             id="path24" /></g><g
           id="g26"
           transform="translate(104.21,200.0601)"><path
             d="m 0,0 c -6.61,2.17 -14.46,0.01 -18.72,-5.56 -5.85,-7.07 -4.51,-18.74 2.97,-24.12 7.67,-6.2 20.51,-3.76 25.13,5.04 C 14.77,-15.82 9.99,-2.91 0,0"
             style="fill:#1ea366;fill-opacity:1;fill-rule:nonzero;stroke:none"
             id="path28" /></g></g></g></g></svg>
