<?xml version="1.0" encoding="UTF-8" standalone="no"?>
<!-- Created with Inkscape (http://www.inkscape.org/) -->

<svg
   version="1.1"
   id="svg2"
   xml:space="preserve"
   width="316"
   height="316"
   viewBox="0 0 316 316"
   xmlns="http://www.w3.org/2000/svg"
   xmlns:svg="http://www.w3.org/2000/svg"><defs
     id="defs6"><clipPath
       clipPathUnits="userSpaceOnUse"
       id="clipPath16"><path
         d="M 0,237 H 237 V 0 H 0 Z"
         id="path14" /></clipPath></defs><g
     id="g8"
     transform="matrix(1.3333333,0,0,-1.3333333,0,316)"><g
       id="g10"><g
         id="g12"
         clip-path="url(#clipPath16)"><g
           id="g18"
           transform="translate(0,237)"><path
             d="m 0,0 h 237 v -236.995 c -79,-0.011 -158,0 -237,0 z"
             style="fill:#1ea366;fill-opacity:1;fill-rule:nonzero;stroke:none"
             id="path20" /></g><g
           id="g22"
           transform="translate(27.3901,161.54)"><path
             d="M 0,0 C 6.33,7.2 9.43,16.46 12.64,25.32 15.08,14.54 16.38,2.34 10.68,-7.68 6.26,-15.76 -0.65,-22.2 -8.12,-27.44 -8.16,-20.12 -8.14,-12.81 -8.13,-5.49 -5.14,-4.13 -2.16,-2.53 0,0"
             style="fill:#ffffff;fill-opacity:1;fill-rule:nonzero;stroke:none"
             id="path24" /></g><g
           id="g26"
           transform="translate(82.9902,186.4902)"><path
             d="M 0,0 C 4.59,0.02 9.17,0.01 13.76,0.01 V -136.24 H 0.02 C -0.01,-90.83 0.02,-45.41 0,0"
             style="fill:#ffffff;fill-opacity:1;fill-rule:nonzero;stroke:none"
             id="path28" /></g><g
           id="g30"
           transform="translate(146.8604,185.9199)"><path
             d="M 0,0 C 7.22,2.81 16.06,-2.54 16.58,-10.34 17.779,-18.07 10.21,-25.39 2.54,-24.03 -4,-23.32 -9,-16.82 -8.11,-10.32 -7.65,-5.71 -4.37,-1.55 0,0"
             style="fill:#ffffff;fill-opacity:1;fill-rule:nonzero;stroke:none"
             id="path32" /></g><g
           id="g34"
           transform="translate(59.1802,174.8501)"><path
             d="M 0,0 C 3.61,2.09 7.9,2.14 11.93,1.69 9.42,-0.39 6.8,-2.56 5.4,-5.59 1.78,-13.53 1.05,-22.46 -2.8,-30.31 c -3.46,-7.61 -8.96,-14.6 -16.61,-18.31 -6.37,-3.44 -13.99,-3.55 -20.85,-1.64 12.82,6.08 21.24,18.62 25.73,31.71 C -12.01,-10.97 -7.34,-3.66 0,0"
             style="fill:#ffffff;fill-opacity:1;fill-rule:nonzero;stroke:none"
             id="path36" /></g><g
           id="g38"
           transform="translate(141.6504,147.9102)"><path
             d="M 0,0 C -0.83,4.86 2.189,10.06 6.949,11.49 12.59,13.63 19.55,9.72 20.51,3.73 c 0.82,-5.11 1.26,-10.27 1.95,-15.4 8.26,-0.1 16.529,0.22 24.779,-0.13 5.181,-0.18 5.521,-8.69 0.37,-9.23 -7.979,-0.33 -15.979,-0.03 -23.969,-0.13 0.479,-3.9 0.94,-7.81 1.4,-11.71 9.569,-0.11 19.14,0.03 28.71,-0.06 2.479,-0.02 4.619,-1.77 5.47,-4.04 5.49,-12.85 10.969,-25.71 16.399,-38.58 1.601,-3.1 0.49,-7.29 -2.439,-9.17 -3.5,-2.46 -9.04,-1.11 -10.71,2.92 -4.941,11.44 -9.76,22.93 -14.651,34.39 -11.019,0.059 -22.049,-0.12 -33.069,0.07 -4.931,0.029 -9.431,3.97 -10,8.88 C 3.109,-25.65 1.609,-12.82 0,0"
             style="fill:#ffffff;fill-opacity:1;fill-rule:nonzero;stroke:none"
             id="path40" /></g><g
           id="g42"
           transform="translate(19.2402,113.4199)"><path
             d="M 0,0 C 20.12,1.021 36.41,15.61 46.97,31.71 48.4,18.13 41.98,5.08 33.15,-4.83 24.34,-13.96 12,-18.47 0.02,-21.74 -0.01,-14.49 0.03,-7.24 0,0"
             style="fill:#ffffff;fill-opacity:1;fill-rule:nonzero;stroke:none"
             id="path44" /></g><g
           id="g46"
           transform="translate(121.8096,87.3398)"><path
             d="m 0,0 c -2.85,16.47 4.761,34.07 18.601,43.39 0.54,-3.9 0.969,-7.83 1.5,-11.74 C 12.601,23.891 8.21,12.86 10.04,2.021 12,-12.72 24.71,-25.12 39.49,-26.72 c 13.63,-1.88 27.561,5.71 34.09,17.68 1.261,-3.899 3.971,-7.64 4.37,-11.609 C 67.54,-34.33 48.471,-40.24 31.99,-35.649 15.54,-31.41 2.41,-16.82 0,0"
             style="fill:#ffffff;fill-opacity:1;fill-rule:nonzero;stroke:none"
             id="path48" /></g><g
           id="g50"
           transform="translate(50.8501,101.1299)"><path
             d="M 0,0 C 5.1,4.32 11.73,7.54 18.57,6.66 23.06,6.34 27.28,4.561 30.92,1.99 26.29,0.83 21.63,-0.8 17.93,-3.92 12.86,-7.89 9.99,-13.87 5.28,-18.189 -4.36,-27.85 -21.46,-28.49 -31.76,-19.5 c 8.02,2.311 16.49,4.7 22.75,10.54 3.26,2.72 5.85,6.13 9.01,8.96"
             style="fill:#ffffff;fill-opacity:1;fill-rule:nonzero;stroke:none"
             id="path52" /></g><g
           id="g54"
           transform="translate(54.8999,73.0303)"><path
             d="m 0,0 c 4.46,2.09 8.35,5.18 11.74,8.72 -1.58,-10.18 -6.11,-20.6 -15.17,-26.21 -9.74,-5.441 -21.37,-5.731 -32.23,-5.05 0.02,7.08 0.01,14.16 0.01,21.24 C -24.14,-4.94 -11.03,-5.5 0,0"
             style="fill:#ffffff;fill-opacity:1;fill-rule:nonzero;stroke:none"
             id="path56" /></g></g></g></g></svg>
