<?xml version="1.0" encoding="UTF-8" standalone="no"?>
<!-- Created with Inkscape (http://www.inkscape.org/) -->

<svg
   version="1.1"
   id="svg2"
   xml:space="preserve"
   width="205.33333"
   height="324"
   viewBox="0 0 205.33333 324"
   xmlns="http://www.w3.org/2000/svg"
   xmlns:svg="http://www.w3.org/2000/svg"><defs
     id="defs6"><clipPath
       clipPathUnits="userSpaceOnUse"
       id="clipPath16"><path
         d="M 0,243 H 154 V 0 H 0 Z"
         id="path14" /></clipPath></defs><g
     id="g8"
     transform="matrix(1.3333333,0,0,-1.3333333,0,324)"><g
       id="g10"><g
         id="g12"
         clip-path="url(#clipPath16)"><g
           id="g18"
           transform="translate(75.77,243)"><path
             d="m 0,0 h 2.58 c 2.26,-2.7 3.98,-5.79 5.84,-8.76 21.67,-34.66 43.33,-69.34 65,-104 1.72,-2.79 3.73,-5.46 4.81,-8.59 v -0.67 c -23.42,-37.54 -46.9,-75.05 -70.34,-112.57 -1.77,-2.81 -3.24,-5.92 -5.94,-8 -0.04,-0.1 -0.1,-0.31 -0.14,-0.41 H 0.62 c -0.04,0.09 -0.12,0.28 -0.16,0.38 -2.71,2.06 -4.17,5.18 -5.95,7.98 -21.66,34.66 -43.33,69.32 -64.99,103.98 -1.8,2.89 -3.71,5.72 -5.29,8.74 v 1.52 c 24.24,39.17 48.85,78.13 73.16,117.26 0.74,1.15 1.65,2.17 2.61,3.14"
             style="fill:#0a0f0c;fill-opacity:1;fill-rule:nonzero;stroke:none"
             id="path20" /></g><g
           id="g22"
           transform="translate(76.8599,233.8301)"><path
             d="m 0,0 c 23.56,-37.22 46.7,-74.72 70.16,-112.01 -23.19,-37.21 -46.48,-74.37 -69.69,-111.56 -0.32,0.19 -0.96,0.57 -1.28,0.759 -23.01,36.971 -46.2,73.831 -69.18,110.811 23.36,37.32 46.71,74.64 69.99,112"
             style="fill:#ffffff;fill-opacity:1;fill-rule:nonzero;stroke:none"
             id="path24" /></g><g
           id="g26"
           transform="translate(38.4502,158.27)"><path
             d="m 0,0 c 2.08,-0.03 4.16,-0.04 6.24,-0.06 -0.3,-14.6 10.71,-28.24 24.9,-31.41 12.44,-3.08 26.33,2.27 33.63,12.76 4,5.41 5.81,12.09 6.2,18.73 C 73.02,0 75.069,-0.01 77.13,-0.04 77.05,-11.84 71.5,-23.54 62,-30.63 56.16,-35.2 48.96,-37.84 41.6,-38.49 41.49,-61.17 41.58,-83.85 41.55,-106.52 H 35.3 c 0,22.65 -0.01,45.3 0.01,67.95 -10.37,1.02 -20.38,6.08 -26.86,14.32 C 2.92,-17.48 -0.17,-8.74 0,0"
             style="fill:#0a0f0c;fill-opacity:1;fill-rule:nonzero;stroke:none"
             id="path28" /></g></g></g></g></svg>
