<?xml version="1.0" encoding="UTF-8" standalone="no"?>
<!-- Created with Inkscape (http://www.inkscape.org/) -->

<svg
   version="1.1"
   id="svg2"
   xml:space="preserve"
   width="430.66666"
   height="260.336"
   viewBox="0 0 430.66666 260.336"
   xmlns="http://www.w3.org/2000/svg"
   xmlns:svg="http://www.w3.org/2000/svg"><defs
     id="defs6"><clipPath
       clipPathUnits="userSpaceOnUse"
       id="clipPath16"><path
         d="M 0,195.252 H 323 V 0 H 0 Z"
         id="path14" /></clipPath></defs><g
     id="g8"
     transform="matrix(1.3333333,0,0,-1.3333333,0,260.336)"><g
       id="g10"><g
         id="g12"
         clip-path="url(#clipPath16)"><g
           id="g18"
           transform="translate(127.7485,97.6256)"><path
             d="m 0,0 c 0,-53.917 43.708,-97.626 97.625,-97.626 53.917,0 97.626,43.709 97.626,97.626 0,53.917 -43.709,97.626 -97.626,97.626 C 43.708,97.626 0,53.917 0,0"
             style="fill:#b71c2d;fill-opacity:1;fill-rule:nonzero;stroke:none"
             id="path20" /></g><g
           id="g22"
           transform="translate(229.25,2.7516)"><path
             d="m 0,0 -11.25,0.75 c -21.8,1.19 -40.13,10.74 -56.5,25.25 -20.82,17.94 -33.56,40.389 -33.81,67.839 -30.47,-8.481 -60.96,-16.901 -91.45,-25.33 0.01,7.739 0.02,15.489 0,23.229 -12.08,0.021 -24.16,0.01 -36.24,0.01 v 6.251 c 12.08,0 24.16,-0.011 36.24,0.009 0.03,7.73 -0.01,15.46 0.02,23.19 30.48,-8.4 60.94,-16.869 91.42,-25.29 0.31,21.191 9.46,40.902 22.57,57.592 13.52,17.45 32.72,29.29 54.25,34.25 21.85,5.17 43.37,1.74 63.5,-8.25 24.29,-11.82 41.303,-31.78 48.763,-57.75 2.21,-7.4 2.647,-13.82 3.237,-21.5 L 91,90.75 C 89.93,66.58 79.21,43.29 62,26.25 44.97,9.06 24.15,1.08 0,0"
             style="fill:#b71c2d;fill-opacity:1;fill-rule:nonzero;stroke:none"
             id="path24" /></g><g
           id="g26"
           transform="translate(235.3496,6.8004)"><path
             d="m 0,0 c -19.939,-2.271 -40.55,2.39 -57.63,12.909 -15.769,9.62 -28.47,24.151 -35.91,41.051 -7.98,17.859 -9.91,38.33 -5.45,57.38 5.1,22.38 19.051,42.599 38.171,55.309 17.569,11.911 39.41,17.361 60.509,15 C 22.25,179.37 43.7,168.16 58.61,151.109 71.33,136.72 79.341,118.229 81.011,99.1 83.17,76.739 76.561,53.689 62.95,35.83 48.051,15.93 24.74,2.59 0,0"
             style="fill:#ffffff;fill-opacity:1;fill-rule:nonzero;stroke:none"
             id="path28" /></g><g
           id="g30"
           transform="translate(165.9238,131.0768)"><path
             d="m 0,0 c 10.091,8.23 24.44,10.43 36.79,6.71 10.08,-3.1 17.69,-11.95 20.231,-22.06 -3.611,-0.82 -7.21,-1.7 -10.831,-2.51 -2,6.86 -6.45,13.55 -13.599,15.72 -8.78,2.5 -19.261,1.08 -25.971,-5.5 -5.269,-4.9 -7.33,-12.17 -8.269,-19.09 -0.911,-9.51 -0.17,-19.66 4.66,-28.12 7.449,-12.46 27.109,-15.009 37.34,-4.629 3.859,3.759 5.939,8.949 7.08,14.129 3.639,-0.94 7.279,-1.86 10.929,-2.719 C 56.341,-57.03 51.311,-65.7 43.28,-70.5 c -8.87,-5.479 -20,-5.79 -29.95,-3.63 -8.199,1.76 -15.43,7.09 -19.709,14.271 -6.411,10.79 -7.94,23.859 -6.261,36.129 C -11.22,-14.74 -7.149,-5.84 0,0"
             style="fill:#b71c2d;fill-opacity:1;fill-rule:nonzero;stroke:none"
             id="path32" /></g><g
           id="g34"
           transform="translate(244.5439,133.4771)"><path
             d="m 0,0 c 6.801,5.19 15.78,6.43 24.11,5.94 7.52,-0.55 15.51,-2.74 20.77,-8.47 4.051,-4.25 5.98,-10.07 6.36,-15.85 -3.54,-0.22 -7.07,-0.52 -10.61,-0.69 -0.51,4.8 -2.59,9.76 -6.81,12.42 -5.179,3.24 -11.57,3.2 -17.46,2.75 C 11.57,-4.33 6.45,-6.31 3.971,-10.69 1.23,-15.1 2.84,-21.68 7.62,-23.94 c 12.09,-5.78 26.731,-4.98 37.84,-13 8.591,-5.97 10.351,-18.661 5.181,-27.411 C 46.46,-72.23 37.601,-76.37 29.061,-77.41 19.78,-78.3 9.811,-77.54 1.59,-72.75 c -7.909,4.59 -12.449,13.6 -12.72,22.6 3.481,0.28 6.96,0.549 10.431,0.92 0.59,-5.47 2.829,-11.19 7.679,-14.22 8.1,-5.17 18.821,-5.85 27.67,-2.27 5.51,2.06 9.58,8.13 8.031,14.06 -1.08,4.76 -5.641,7.47 -9.951,8.91 -8.5,2.78 -17.419,4.12 -25.83,7.2 -5.65,2.12 -11.08,5.97 -13.4,11.74 C -9.85,-15.59 -7.09,-5.36 0,0"
             style="fill:#b71c2d;fill-opacity:1;fill-rule:nonzero;stroke:none"
             id="path36" /></g></g></g></g></svg>
