<?xml version="1.0" encoding="UTF-8" standalone="no"?>
<!-- Created with Inkscape (http://www.inkscape.org/) -->

<svg
   version="1.1"
   id="svg2"
   xml:space="preserve"
   width="430.66666"
   height="260.336"
   viewBox="0 0 430.66666 260.336"
   xmlns="http://www.w3.org/2000/svg"
   xmlns:svg="http://www.w3.org/2000/svg"><defs
     id="defs6"><clipPath
       clipPathUnits="userSpaceOnUse"
       id="clipPath16"><path
         d="M 0,195.252 H 323 V 0 H 0 Z"
         id="path14" /></clipPath></defs><g
     id="g8"
     transform="matrix(1.3333333,0,0,-1.3333333,0,260.336)"><g
       id="g10"><g
         id="g12"
         clip-path="url(#clipPath16)"><g
           id="g18"
           transform="translate(195.3203,97.6256)"><path
             d="m 0,0 c 0,-53.917 -43.724,-97.626 -97.66,-97.626 -53.937,0 -97.66,43.709 -97.66,97.626 0,53.917 43.723,97.626 97.66,97.626 C -43.724,97.626 0,53.917 0,0"
             style="fill:#b71c2d;fill-opacity:1;fill-rule:nonzero;stroke:none"
             id="path20" /></g><g
           id="g22"
           transform="translate(93.75,192.5016)"><path
             d="m 0,0 h 9.25 c 21.8,-1.19 43.63,-12.99 60,-27.5 20.82,-17.94 32.06,-38.89 32.31,-66.34 30.47,8.48 60.96,16.9 91.45,25.33 -0.01,-7.74 -0.02,-15.49 0,-23.23 12.08,-0.02 24.16,-0.01 36.24,-0.01 V -98 c -12.08,0 -24.16,0.01 -36.24,-0.01 -0.03,-7.73 0.01,-15.46 -0.02,-23.19 -30.48,8.4 -60.94,16.87 -91.42,25.29 -0.31,-21.19 -9.96,-40.4 -23.07,-57.09 -13.52,-17.45 -32.22,-28.279 -53.75,-33.239 -21.85,-5.17 -42.62,-3.251 -62.75,6.739 -24.29,11.82 -42.052,31.53 -49.512,57.5 -2.21,7.4 -2.398,14.82 -2.988,22.5 l 0.75,9.75 c 1.07,24.17 10.04,44.71 27.25,61.75 17.03,17.19 38.35,26.92 62.5,28"
             style="fill:#b71c2d;fill-opacity:1;fill-rule:nonzero;stroke:none"
             id="path24" /></g><g
           id="g26"
           transform="translate(87.6499,188.4518)"><path
             d="m 0,0 c 19.94,2.27 40.55,-2.39 57.63,-12.91 15.77,-9.62 28.47,-24.15 35.911,-41.05 7.979,-17.86 9.909,-38.33 5.449,-57.38 -5.1,-22.38 -19.05,-42.6 -38.17,-55.31 -17.57,-11.911 -39.41,-17.36 -60.51,-15 -22.56,2.28 -44.01,13.49 -58.92,30.54 -12.72,14.39 -20.73,32.88 -22.4,52.009 -2.16,22.361 4.45,45.411 18.06,63.271 C -48.05,-15.93 -24.74,-2.59 0,0"
             style="fill:#ffffff;fill-opacity:1;fill-rule:nonzero;stroke:none"
             id="path28" /></g><g
           id="g30"
           transform="translate(38.1899,131.0914)"><path
             d="m 0,0 c 10.09,8.23 24.44,10.43 36.79,6.71 10.08,-3.1 17.69,-11.95 20.23,-22.06 -3.61,-0.82 -7.21,-1.7 -10.83,-2.51 -2,6.86 -6.45,13.55 -13.6,15.72 -8.78,2.5 -19.26,1.08 -25.97,-5.5 -5.27,-4.9 -7.33,-12.17 -8.27,-19.09 -0.91,-9.51 -0.17,-19.66 4.66,-28.12 7.45,-12.46 27.11,-15.009 37.34,-4.629 3.86,3.759 5.94,8.949 7.08,14.129 3.64,-0.94 7.28,-1.86 10.93,-2.72 -2.02,-8.96 -7.05,-17.63 -15.08,-22.43 -8.87,-5.479 -20,-5.79 -29.95,-3.63 -8.2,1.76 -15.43,7.09 -19.71,14.271 C -12.79,-49.07 -14.32,-36 -12.64,-23.73 -11.22,-14.74 -7.15,-5.84 0,0"
             style="fill:#b71c2d;fill-opacity:1;fill-rule:nonzero;stroke:none"
             id="path32" /></g><g
           id="g34"
           transform="translate(116.8101,133.4918)"><path
             d="m 0,0 c 6.8,5.19 15.78,6.43 24.11,5.94 7.52,-0.55 15.51,-2.74 20.77,-8.47 4.05,-4.25 5.98,-10.07 6.36,-15.85 -3.54,-0.22 -7.07,-0.52 -10.61,-0.69 -0.51,4.8 -2.59,9.76 -6.81,12.42 -5.18,3.24 -11.57,3.2 -17.46,2.75 -4.79,-0.43 -9.91,-2.41 -12.39,-6.79 -2.74,-4.41 -1.13,-10.99 3.65,-13.25 12.09,-5.78 26.73,-4.98 37.839,-13 C 54.05,-42.91 55.81,-55.601 50.64,-64.351 46.459,-72.23 37.6,-76.37 29.06,-77.41 19.78,-78.3 9.81,-77.54 1.59,-72.75 c -7.91,4.59 -12.45,13.6 -12.72,22.6 3.48,0.28 6.96,0.549 10.43,0.92 0.59,-5.47 2.83,-11.19 7.68,-14.22 8.1,-5.17 18.82,-5.85 27.67,-2.271 5.51,2.061 9.58,8.131 8.03,14.061 -1.08,4.76 -5.64,7.47 -9.95,8.91 -8.5,2.779 -17.42,4.12 -25.83,7.2 -5.65,2.12 -11.08,5.97 -13.4,11.74 C -9.85,-15.59 -7.09,-5.36 0,0"
             style="fill:#b71c2d;fill-opacity:1;fill-rule:nonzero;stroke:none"
             id="path36" /></g></g></g></g></svg>
