<?xml version="1.0" encoding="UTF-8" standalone="no"?>
<!-- Created with Inkscape (http://www.inkscape.org/) -->

<svg
   version="1.1"
   id="svg2"
   xml:space="preserve"
   width="260.336"
   height="430.66666"
   viewBox="0 0 260.336 430.66666"
   xmlns="http://www.w3.org/2000/svg"
   xmlns:svg="http://www.w3.org/2000/svg"><defs
     id="defs6"><clipPath
       clipPathUnits="userSpaceOnUse"
       id="clipPath16"><path
         d="M 0,323 H 195.252 V 0 H 0 Z"
         id="path14" /></clipPath></defs><g
     id="g8"
     transform="matrix(1.3333333,0,0,-1.3333333,0,430.66667)"><g
       id="g10"><g
         id="g12"
         clip-path="url(#clipPath16)"><g
           id="g18"
           transform="translate(195.2518,97.6551)"><path
             d="m 0,0 c 0,-53.934 -43.665,-97.655 -97.529,-97.655 -53.864,0 -97.53,43.721 -97.53,97.655 0,53.934 43.666,97.655 97.53,97.655 C -43.665,97.655 0,53.934 0,0"
             style="fill:#b71c2d;fill-opacity:1;fill-rule:nonzero;stroke:none"
             id="path20" /></g><g
           id="g22"
           transform="translate(3.7923,92.6258)"><path
             d="M 0,0 -0.667,9 C 0.523,30.8 9.49,52.504 24,68.874 c 17.94,20.82 41.348,33.56 68.798,33.81 -8.48,30.47 -16.9,60.96 -25.33,91.45 7.74,-0.01 15.49,-0.02 23.23,0 0.02,12.08 0.01,24.16 0.01,36.24 h 6.25 c 0,-12.08 -0.01,-24.16 0.009,-36.24 7.731,-0.03 15.46,0.01 23.191,-0.02 -8.401,-30.48 -16.87,-60.94 -25.29,-91.42 21.19,-0.31 38.775,-8.917 55.465,-22.027 17.451,-13.521 29.905,-29.471 34.865,-51 5.17,-21.851 4.126,-46.404 -5.865,-66.535 -18.545,-29.199 -31.102,-40.478 -57,-47.799 -7.4,-2.21 -14.32,-4.076 -22,-4.666 H 88.667 c -24.17,1.069 -41.96,7.456 -59,24.666 C 12.477,-47.637 1.08,-24.15 0,0"
             style="fill:#b71c2d;fill-opacity:1;fill-rule:nonzero;stroke:none"
             id="path24" /></g><g
           id="g26"
           transform="translate(6.8001,87.6502)"><path
             d="m 0,0 c -2.27,19.939 2.39,40.55 12.91,57.63 9.62,15.77 24.15,28.47 41.05,35.91 17.86,7.98 38.33,9.91 57.38,5.45 22.38,-5.1 42.6,-19.05 55.31,-38.171 C 178.56,43.25 184.01,21.41 181.65,0.31 179.37,-22.25 168.16,-43.7 151.11,-58.61 136.72,-71.33 118.23,-79.34 99.1,-81.01 76.74,-83.17 53.69,-76.561 35.83,-62.95 15.93,-48.05 2.59,-24.74 0,0"
             style="fill:#ffffff;fill-opacity:1;fill-rule:nonzero;stroke:none"
             id="path28" /></g><g
           id="g30"
           transform="translate(38.1756,131.0916)"><path
             d="M 0,0 C 10.09,8.229 24.44,10.43 36.79,6.71 46.87,3.609 54.48,-5.24 57.02,-15.351 53.41,-16.17 49.81,-17.05 46.19,-17.86 c -2,6.86 -6.45,13.549 -13.6,15.719 -8.78,2.5 -19.26,1.08 -25.97,-5.5 -5.27,-4.899 -7.33,-12.17 -8.27,-19.089 -0.91,-9.51 -0.17,-19.661 4.66,-28.121 7.45,-12.46 27.11,-15.009 37.34,-4.629 3.86,3.759 5.94,8.95 7.08,14.129 3.64,-0.939 7.28,-1.859 10.93,-2.719 -2.02,-8.96 -7.05,-17.63 -15.08,-22.43 -8.87,-5.48 -20,-5.79 -29.95,-3.63 -8.2,1.76 -15.43,7.09 -19.71,14.27 -6.41,10.79 -7.94,23.86 -6.26,36.13 C -11.22,-14.74 -7.15,-5.84 0,0"
             style="fill:#b71c2d;fill-opacity:1;fill-rule:nonzero;stroke:none"
             id="path32" /></g><g
           id="g34"
           transform="translate(116.7957,133.491)"><path
             d="m 0,0 c 6.8,5.19 15.78,6.431 24.11,5.94 7.52,-0.549 15.51,-2.74 20.77,-8.469 4.05,-4.25 5.98,-10.071 6.36,-15.851 -3.54,-0.22 -7.07,-0.519 -10.61,-0.689 -0.51,4.799 -2.59,9.759 -6.81,12.42 -5.18,3.239 -11.57,3.2 -17.46,2.75 C 11.57,-4.33 6.45,-6.31 3.97,-10.689 1.229,-15.1 2.84,-21.68 7.62,-23.939 c 12.09,-5.781 26.73,-4.981 37.84,-13 8.59,-5.971 10.35,-18.661 5.18,-27.411 -4.18,-7.879 -13.04,-12.02 -21.58,-13.06 -9.28,-0.89 -19.25,-0.13 -27.47,4.66 -7.91,4.59 -12.45,13.601 -12.72,22.601 3.48,0.279 6.96,0.549 10.43,0.92 0.59,-5.47 2.83,-11.191 7.679,-14.22 8.101,-5.171 18.821,-5.851 27.67,-2.271 5.511,2.06 9.58,8.13 8.031,14.06 -1.08,4.761 -5.64,7.471 -9.951,8.91 -8.5,2.78 -17.419,4.12 -25.83,7.2 C 1.25,-33.43 -4.18,-29.58 -6.5,-23.81 -9.851,-15.59 -7.09,-5.359 0,0"
             style="fill:#b71c2d;fill-opacity:1;fill-rule:nonzero;stroke:none"
             id="path36" /></g></g></g></g></svg>
