<?xml version="1.0" encoding="UTF-8" standalone="no"?>
<!-- Created with Inkscape (http://www.inkscape.org/) -->

<svg
   version="1.1"
   id="svg2"
   xml:space="preserve"
   width="260.34"
   height="260.33466"
   viewBox="0 0 260.34 260.33466"
   xmlns="http://www.w3.org/2000/svg"
   xmlns:svg="http://www.w3.org/2000/svg"><defs
     id="defs6"><clipPath
       clipPathUnits="userSpaceOnUse"
       id="clipPath16"><path
         d="M 0,195.251 H 195.255 V 0 H 0 Z"
         id="path14" /></clipPath></defs><g
     id="g8"
     transform="matrix(1.3333333,0,0,-1.3333333,0,260.33467)"><g
       id="g10"><g
         id="g12"
         clip-path="url(#clipPath16)"><g
           id="g18"
           transform="translate(195.2549,97.6275)"><path
             d="m 0,0 c 0,-53.918 -43.709,-97.628 -97.627,-97.628 -53.918,0 -97.628,43.71 -97.628,97.628 0,53.918 43.71,97.627 97.628,97.627 C -43.709,97.627 0,53.918 0,0"
             style="fill:#b71c2d;fill-opacity:1;fill-rule:nonzero;stroke:none"
             id="path20" /></g><g
           id="g22"
           transform="translate(87.5698,187.2891)"><path
             d="m 0,0 c 21.661,2.5 44.121,-3.23 62,-15.7 17.661,-12.16 30.76,-30.73 36.28,-51.44 4.16,-15.34 4.16,-31.739 0.07,-47.09 -5.66,-21.46 -19.47,-40.66 -38.04,-52.81 -17.5,-11.66 -39.149,-16.95 -60.04,-14.589 -18.28,1.899 -35.9,9.589 -49.78,21.619 -17.59,14.99 -29.08,36.921 -31.33,59.921 -2.3,21.469 3.46,43.669 15.85,61.349 C -50.21,-17.3 -25.93,-2.71 0,0"
             style="fill:#ffffff;fill-opacity:1;fill-rule:nonzero;stroke:none"
             id="path24" /></g><g
           id="g26"
           transform="translate(35.3398,129.9307)"><path
             d="M 0,0 C 10.15,9.24 25.37,11.76 38.31,7.83 48.33,4.68 55.72,-4.14 58.43,-14.12 54.82,-15.03 51.2,-15.9 47.56,-16.69 45.5,-9.69 40.84,-2.87 33.48,-0.83 24.92,1.35 14.83,0.09 8.24,-6.21 2.45,-11.38 0.4,-19.34 -0.45,-26.77 c -0.62,-9.22 0.12,-18.99 4.93,-27.11 7.49,-12.241 26.84,-14.75 37.06,-4.59 4,3.76 5.99,9.07 7.28,14.28 3.64,-0.96 7.29,-1.86 10.94,-2.75 -2.13,-8.51 -6.57,-16.851 -14.08,-21.73 -8.99,-6.08 -20.6,-6.56 -30.92,-4.32 -8.08,1.67 -15.23,6.88 -19.53,13.88 -6.47,10.46 -8.06,23.25 -6.71,35.3 C -10.29,-14.95 -6.66,-6.13 0,0"
             style="fill:#b71c2d;fill-opacity:1;fill-rule:nonzero;stroke:none"
             id="path28" /></g><g
           id="g30"
           transform="translate(108.2402,138.2408)"><path
             d="m 0,0 c 3.67,0.02 7.34,0.01 11.01,0 v -33.23 c 13.92,-0.02 27.83,-0.01 41.74,-0.01 0.02,11.08 0,22.17 0.01,33.25 3.59,0 7.17,0.01 10.75,-0.01 0,-26.99 0,-53.99 0.01,-80.98 -3.59,-0.02 -7.17,-0.01 -10.76,-0.01 -0.01,12.67 0.01,25.33 0,38 -13.92,0 -27.84,0.01 -41.76,-0.01 0.01,-12.66 0.01,-25.32 0.01,-37.98 C 7.34,-80.99 3.67,-81 0,-80.98 0.01,-53.99 0.01,-26.99 0,0"
             style="fill:#b71c2d;fill-opacity:1;fill-rule:nonzero;stroke:none"
             id="path32" /></g></g></g></g></svg>
