<?xml version="1.0" encoding="UTF-8" standalone="no"?>
<!-- Created with Inkscape (http://www.inkscape.org/) -->

<svg
   version="1.1"
   id="svg2"
   xml:space="preserve"
   width="316"
   height="316"
   viewBox="0 0 316 316"
   xmlns="http://www.w3.org/2000/svg"
   xmlns:svg="http://www.w3.org/2000/svg"><defs
     id="defs6"><clipPath
       clipPathUnits="userSpaceOnUse"
       id="clipPath16"><path
         d="M 0,237 H 237 V 0 H 0 Z"
         id="path14" /></clipPath></defs><g
     id="g8"
     transform="matrix(1.3333333,0,0,-1.3333333,0,316)"><g
       id="g10"><g
         id="g12"
         clip-path="url(#clipPath16)"><g
           id="g18"
           transform="translate(0,237)"><path
             d="m 0,0 h 237 v -236.995 c -79,-0.011 -158,0 -237,0 z"
             style="fill:#b71c2d;fill-opacity:1;fill-rule:nonzero;stroke:none"
             id="path20" /></g><g
           id="g22"
           transform="translate(15.75,215.1299)"><path
             d="M 0,0 C 1.54,1.54 3.09,3.09 4.64,4.63 7.09,4.62 9.54,4.62 12,4.62 c 0.01,-47.91 0,-95.83 0,-143.74 -2.61,-0.01 -5.23,-0.01 -7.84,-0.02 -1.33,1.72 -2.69,3.42 -4.1,5.08 C -0.08,-89.38 0.04,-44.69 0,0"
             style="fill:#ffffff;fill-opacity:1;fill-rule:nonzero;stroke:none"
             id="path24" /></g><g
           id="g26"
           transform="translate(111,220)"><path
             d="m 0,0 c 2.38,0.01 4.76,0 7.14,-0.03 1.58,-1.62 3.4,-3.01 4.79,-4.8 0.18,-21.39 0.01,-42.79 0.07,-64.18 0.91,0.01 2.74,0.02 3.65,0.03 1.27,7.24 7.3,13.49 14.74,14.18 7,0.92 14.34,-2.97 17.26,-9.44 3.67,-7.35 1.01,-17.12 -5.98,-21.48 -6.63,-4.39 -16.32,-3.31 -21.61,2.7 -2.2,2.2 -3.35,5.13 -4.29,8.03 C 14.83,-75 12.94,-75 12,-75.01 c 0.01,-20.5 0.02,-61.5 0.02,-61.5 0,0 -2.73,-5.14 -4.33,-7.5 C 5.13,-144 2.56,-144 0,-144 Z"
             style="fill:#ffffff;fill-opacity:1;fill-rule:nonzero;stroke:none"
             id="path28" /></g><g
           id="g30"
           transform="translate(31.2598,208.6001)"><path
             d="m 0,0 c 0.12,4.97 7.63,7 10.71,3.35 1.34,-1.05 1.27,-2.84 1.3,-4.37 -0.04,-51.03 -0.02,-102.05 -0.02,-153.07 -4,-0.01 -8,-0.01 -12,-0.01 C 0,-102.73 -0.03,-51.37 0,0"
             style="fill:#ffffff;fill-opacity:1;fill-rule:nonzero;stroke:none"
             id="path32" /></g><g
           id="g34"
           transform="translate(51.71,213.2202)"><path
             d="m 0,0 c 3.42,1.31 8.31,-0.61 8.27,-4.72 0.06,-39.33 -0.02,-78.66 0.04,-117.99 0.05,-2.05 -0.19,-4.32 -1.71,-5.86 -3.27,-3.471 -10.57,-1.42 -10.29,3.79 -0.1,38.97 0.1,77.94 -0.1,116.9 C -4.5,-4.71 -3.31,-1.1 0,0"
             style="fill:#ffffff;fill-opacity:1;fill-rule:nonzero;stroke:none"
             id="path36" /></g><g
           id="g38"
           transform="translate(66.9199,212.9302)"><path
             d="m 0,0 c 3.26,1.65 8.52,-0.38 8.33,-4.43 0,-40.02 0.01,-80.03 -0.01,-120.04 0.32,-4.48 -5.21,-7.03 -8.87,-5.03 -1.91,0.82 -3.06,2.95 -2.87,5 -0.11,16.7 0.25,33.41 -0.26,50.1 0.03,23.02 -0.01,46.04 0.01,69.05 C -3.88,-2.98 -2.1,-0.84 0,0"
             style="fill:#ffffff;fill-opacity:1;fill-rule:nonzero;stroke:none"
             id="path40" /></g><g
           id="g42"
           transform="translate(98.0298,212.77)"><path
             d="m 0,0 c 3.79,2.16 9.5,-0.54 8.97,-5.25 -0.01,-39.33 0.02,-78.66 -0.01,-117.99 0.45,-3.96 -3.31,-7.61 -7.27,-6.65 -3.26,0.24 -5.16,3.54 -4.74,6.6 0.23,39.36 -0.39,78.72 -0.23,118.08 C -3.5,-2.96 -1.9,-1 0,0"
             style="fill:#ffffff;fill-opacity:1;fill-rule:nonzero;stroke:none"
             id="path44" /></g><g
           id="g46"
           transform="translate(82.8101,212.29)"><path
             d="m 0,0 c 3.6,2.13 9.53,-0.09 9.17,-4.76 0.06,-38.35 -0.02,-76.7 0.04,-115.05 -0.07,-2.51 0.34,-5.27 -1.08,-7.51 -2.47,-4.07 -10.19,-3.16 -10.85,1.87 -0.34,19.23 0.26,38.48 -0.35,57.7 0.03,20.98 -0.01,41.96 0.02,62.94 C -3.26,-2.72 -1.67,-0.99 0,0"
             style="fill:#ffffff;fill-opacity:1;fill-rule:nonzero;stroke:none"
             id="path48" /></g><g
           id="g50"
           transform="translate(196.2197,183.7998)"><path
             d="m 0,0 c 3.2,-9.69 6.92,-19.34 12.74,-27.79 3.05,-4.46 7.45,-7.95 12.531,-9.81 0.009,-8.94 0.029,-17.88 -0.01,-26.82 C 14.58,-56.81 4.57,-47.16 -0.21,-34.69 -4.02,-23.5 -2.609,-11.3 0,0"
             style="fill:#ffffff;fill-opacity:1;fill-rule:nonzero;stroke:none"
             id="path52" /></g><g
           id="g54"
           transform="translate(158.2402,171.1401)"><path
             d="m 0,0 c 7.2,1.39 14.76,-0.82 20.01,-5.95 5.62,-4.32 9.08,-10.6 11.57,-17.11 2.83,-7.25 6.55,-14.1 10.55,-20.77 4.939,-8.48 12.599,-15.31 21.38,-19.62 -8.51,-2.32 -18.01,-2.131 -25.7,2.56 -9,4.29 -14.89,12.87 -19.29,21.5 -3.92,7.83 -5.98,16.36 -8.09,24.81 C 9.109,-8.52 4.79,-3.67 0,0"
             style="fill:#ffffff;fill-opacity:1;fill-rule:nonzero;stroke:none"
             id="path56" /></g><g
           id="g58"
           transform="translate(130.7002,151.0298)"><path
             d="M 0,0 C 1.2,4.58 4.6,8.24 9.01,9.89 9.06,6.59 9.05,3.28 9.05,-0.03 6.03,-0.03 3.02,-0.04 0,0"
             style="fill:#b71c2d;fill-opacity:1;fill-rule:nonzero;stroke:none"
             id="path60" /></g><g
           id="g62"
           transform="translate(146.5303,161.0801)"><path
             d="M 0,0 C 4.71,-1.47 8.38,-5.29 9.689,-10.03 6.45,-10.09 3.21,-10.09 -0.03,-10.08 -0.03,-6.72 -0.05,-3.36 0,0"
             style="fill:#b71c2d;fill-opacity:1;fill-rule:nonzero;stroke:none"
             id="path64" /></g><g
           id="g66"
           transform="translate(130.9004,144.9502)"><path
             d="m 0,0 c 2.949,0.06 5.899,0.06 8.85,0.05 0.009,-3 0.009,-6 -0.05,-9 C 4.71,-7.37 1.52,-4.1 0,0"
             style="fill:#b71c2d;fill-opacity:1;fill-rule:nonzero;stroke:none"
             id="path68" /></g><g
           id="g70"
           transform="translate(146.5,145)"><path
             d="M 0,0 C 3.15,0 6.29,0.01 9.44,-0.03 7.9,-4.38 4.49,-7.83 0.04,-9.15 -0.01,-6.1 -0.01,-3.05 0,0"
             style="fill:#b71c2d;fill-opacity:1;fill-rule:nonzero;stroke:none"
             id="path72" /></g><g
           id="g74"
           transform="translate(164.3096,132.8398)"><path
             d="m 0,0 c 7.601,-12.63 18.71,-22.899 31.351,-30.37 7.799,-4.279 16.259,-8.239 25.339,-8.3 0.01,-8.82 -0.009,-17.64 0.01,-26.46 -11.17,2.95 -22.22,7.04 -31.849,13.521 C 14.271,-43.91 6.761,-32.51 2.19,-20.359 -0.31,-13.88 -0.239,-6.84 0,0"
             style="fill:#ffffff;fill-opacity:1;fill-rule:nonzero;stroke:none"
             id="path76" /></g><g
           id="g78"
           transform="translate(145.2803,81.4902)"><path
             d="M 0,0 C 5.47,4.149 12.37,5.97 19.16,5.92 25.6,5.27 31.58,2.38 36.59,-1.62 40.93,-4.601 43.819,-9.101 47.71,-12.58 55.47,-20.101 66.1,-23.42 76.27,-26.25 63.55,-37.681 41.96,-36.19 30.399,-23.82 25.46,-19.01 22.229,-12.73 17,-8.19 12.319,-3.79 6.12,-1.54 0,0"
             style="fill:#ffffff;fill-opacity:1;fill-rule:nonzero;stroke:none"
             id="path80" /></g><g
           id="g82"
           transform="translate(163.7197,55.4102)"><path
             d="m 0,0 c 6.511,-7.84 16.24,-11.98 25.92,-14.37 10.17,-2.63 20.891,-1.12 30.86,1.7 0,-8.56 0.01,-17.13 -0.009,-25.7 C 44.33,-38.95 31.2,-38.48 19.86,-32.8 7.95,-26.351 2.3,-12.71 0,0"
             style="fill:#ffffff;fill-opacity:1;fill-rule:nonzero;stroke:none"
             id="path84" /></g><g
           id="g86"
           transform="translate(30.5801,46.4102)"><path
             d="M 0,0 C 3.96,0.13 7.92,0.18 11.88,-0.05 11.11,-4.95 9.86,-9.76 9.04,-14.65 6.8,-14.66 4.55,-14.67 2.31,-14.69 1.56,-9.79 0.78,-4.9 0,0"
             style="fill:#ffffff;fill-opacity:1;fill-rule:nonzero;stroke:none"
             id="path88" /></g></g></g></g></svg>
