<?xml version="1.0" encoding="UTF-8" standalone="no"?>
<!-- Created with Inkscape (http://www.inkscape.org/) -->

<svg
   version="1.1"
   id="svg2"
   xml:space="preserve"
   width="52.913334"
   height="52.913334"
   viewBox="0 0 52.913334 52.913334"
   xmlns="http://www.w3.org/2000/svg"
   xmlns:svg="http://www.w3.org/2000/svg"><defs
     id="defs6"><clipPath
       clipPathUnits="userSpaceOnUse"
       id="clipPath16"><path
         d="M 0,39.685 H 39.685 V 0 H 0 Z"
         id="path14" /></clipPath></defs><g
     id="g8"
     transform="matrix(1.3333333,0,0,-1.3333333,0,52.913333)"><g
       id="g10"><g
         id="g12"
         clip-path="url(#clipPath16)"><g
           id="g18"
           transform="translate(0,39.685)"><path
             d="m 0,0 h 39.684 c 0,-13.229 0.002,-26.456 0,-39.685 -13.228,-10e-4 -26.456,0 -39.684,0 z"
             style="fill:#b71c2d;fill-opacity:1;fill-rule:nonzero;stroke:none"
             id="path20" /></g><g
           id="g22"
           transform="translate(10.2998,36.0444)"><path
             d="m 0,0 c 1.073,-0.003 2.148,-0.001 3.222,-0.001 v -1.335 c 0.942,0.03 1.877,-0.092 2.762,-0.42 V -3.473 C 5.204,-3.692 4.414,-3.901 3.597,-3.904 3.62,-4.66 3.562,-5.413 3.551,-6.168 c 0.99,-0.238 2.083,-0.581 2.666,-1.484 0.468,-0.746 0.814,-1.616 0.776,-2.512 -0.027,-3.347 0.041,-6.697 -0.047,-10.043 -0.015,-3.185 0.047,-6.371 -0.042,-9.555 -0.002,-0.866 0.045,-1.736 -0.104,-2.593 -0.588,-0.139 -1.192,-0.083 -1.79,-0.089 -2.621,-0.003 -5.239,0.005 -7.859,-0.003 -0.351,-0.006 -0.698,0.048 -1.039,0.115 -0.133,0.68 -0.087,1.373 -0.091,2.061 -10e-4,6.418 0.004,12.836 -10e-4,19.255 -0.039,1.205 0.199,2.454 0.825,3.497 0.541,0.876 1.643,1.148 2.609,1.169 0,0.846 -0.002,1.692 0.002,2.537 -0.359,0.002 -0.715,0.002 -1.074,0 C -2.587,-4.817 -3.62,-5.76 -4.624,-6.731 -4.7,-7.449 -4.777,-8.168 -4.87,-8.885 c -0.413,-0.033 -0.828,-0.036 -1.242,-0.036 -0.023,1.367 -0.003,2.766 0.437,4.077 0.133,0.483 0.601,0.741 0.926,1.085 0.953,0.951 1.973,1.835 3.061,2.629 0.561,-0.004 1.124,-0.002 1.686,-0.002 0,0.377 0,0.756 0.002,1.132"
             style="fill:#ffffff;fill-opacity:1;fill-rule:nonzero;stroke:none"
             id="path24" /></g><g
           id="g26"
           transform="translate(31.4434,25.2798)"><path
             d="M 0,0 C -0.842,1.964 -0.626,4.203 -0.125,6.228 0.423,4.548 1.062,2.865 2.108,1.425 2.601,0.74 3.313,0.239 4.096,-0.062 4.097,-1.553 4.099,-3.041 4.096,-4.531 2.411,-3.373 0.881,-1.869 0,0"
             style="fill:#ffffff;fill-opacity:1;fill-rule:nonzero;stroke:none"
             id="path28" /></g><g
           id="g30"
           transform="translate(24.9463,29.394)"><path
             d="M 0,0 C 0.658,0.047 1.346,0.105 1.976,-0.133 2.741,-0.412 3.335,-0.99 3.927,-1.525 4.573,-2.118 4.886,-2.957 5.225,-3.743 5.861,-5.271 6.634,-6.747 7.565,-8.116 8.382,-9.156 9.42,-10.07 10.643,-10.6 9.181,-11.037 7.535,-10.955 6.222,-10.131 4.858,-9.471 3.963,-8.179 3.25,-6.889 2.419,-5.393 2.075,-3.704 1.646,-2.064 1.325,-1.229 0.72,-0.524 0,0"
             style="fill:#ffffff;fill-opacity:1;fill-rule:nonzero;stroke:none"
             id="path32" /></g><g
           id="g34"
           transform="translate(7.6221,23.9468)"><path
             d="m 0,0 c 2.803,-0.005 5.608,0.002 8.411,-0.005 -0.002,-1.673 0.002,-3.346 0,-5.02 h -8.414 c 0,1.674 -0.003,3.35 0.003,5.025"
             style="fill:#b71c2d;fill-opacity:1;fill-rule:nonzero;stroke:none"
             id="path36" /></g><g
           id="g38"
           transform="translate(26.0498,22.977)"><path
             d="m 0,0 c 1.522,-2.446 3.768,-4.426 6.373,-5.651 0.988,-0.417 2.023,-0.853 3.118,-0.797 v -4.449 C 7.501,-10.308 5.457,-9.672 3.814,-8.354 2.226,-7.081 1.085,-5.308 0.372,-3.416 -0.039,-2.327 -0.045,-1.146 0,0"
             style="fill:#ffffff;fill-opacity:1;fill-rule:nonzero;stroke:none"
             id="path40" /></g><g
           id="g42"
           transform="translate(22.8096,14.3716)"><path
             d="M 0,0 C 0.911,0.712 2.075,1.014 3.217,1.009 4.222,0.89 5.189,0.484 5.983,-0.146 7.056,-0.9 7.758,-2.065 8.858,-2.789 10.042,-3.569 11.412,-3.996 12.771,-4.36 10.973,-6.026 8.069,-6.043 6.05,-4.771 4.531,-3.779 3.806,-1.989 2.331,-0.947 1.645,-0.443 0.815,-0.204 0,0"
             style="fill:#ffffff;fill-opacity:1;fill-rule:nonzero;stroke:none"
             id="path44" /></g><g
           id="g46"
           transform="translate(26.0415,10.0112)"><path
             d="m 0,0 c 1.221,-1.425 3.036,-2.131 4.828,-2.505 1.564,-0.319 3.154,0.002 4.67,0.405 0.003,-1.436 0,-2.873 0.001,-4.309 C 7.262,-6.421 4.814,-6.514 2.875,-5.209 1.144,-4.037 0.445,-1.943 0,0"
             style="fill:#ffffff;fill-opacity:1;fill-rule:nonzero;stroke:none"
             id="path48" /></g></g></g></g></svg>
