<?xml version="1.0" encoding="UTF-8" standalone="no"?>
<!-- Created with Inkscape (http://www.inkscape.org/) -->

<svg
   version="1.1"
   id="svg2"
   xml:space="preserve"
   width="205.33333"
   height="324"
   viewBox="0 0 205.33333 324"
   xmlns="http://www.w3.org/2000/svg"
   xmlns:svg="http://www.w3.org/2000/svg"><defs
     id="defs6"><clipPath
       clipPathUnits="userSpaceOnUse"
       id="clipPath16"><path
         d="M 0,243 H 154 V 0 H 0 Z"
         id="path14" /></clipPath></defs><g
     id="g8"
     transform="matrix(1.3333333,0,0,-1.3333333,0,324)"><g
       id="g10"><g
         id="g12"
         clip-path="url(#clipPath16)"><g
           id="g18"
           transform="translate(75.7598,242.5)"><path
             d="m 0,0 h 2.49 c 0.781,-0.8 1.47,-1.66 2.09,-2.59 24.12,-38.63 48.28,-77.23 72.4,-115.86 0.581,-0.97 1,-2.01 1.26,-3.12 v -0.33 C 53.9,-161.22 29.221,-200.33 4.79,-239.61 4.01,-240.96 2.721,-241.88 1.66,-243 H 0.54 c 0.03,0.15 0.1,0.44 0.13,0.59 -1.81,0.34 -2.54,2.08 -3.48,3.4 -24.29,38.98 -48.68,77.9 -72.95,116.88 v 1.73 c 24.37,39.36 49.08,78.52 73.53,117.84 0.64,0.93 1.39,1.79 2.23,2.56"
             style="fill:#0a0f0c;fill-opacity:1;fill-rule:nonzero;stroke:none"
             id="path20" /></g><g
           id="g22"
           transform="translate(76.8999,233.3501)"><path
             d="M 0,0 C 23.46,-37.3 46.74,-74.73 70.12,-112.09 46.87,-149.28 23.59,-186.45 0.4,-223.67 c -0.19,0.02 -0.57,0.08 -0.76,0.11 -22.74,36.34 -45.42,72.72 -68.19,109.05 -0.41,1.02 -2,2.16 -0.96,3.28 C -46.35,-74.15 -23.16,-37.08 0,0"
             style="fill:#ffffff;fill-opacity:1;fill-rule:nonzero;stroke:none"
             id="path24" /></g></g></g></g></svg>
