<?xml version="1.0" encoding="UTF-8" standalone="no"?>
<!-- Created with Inkscape (http://www.inkscape.org/) -->

<svg
   version="1.1"
   id="svg2"
   xml:space="preserve"
   width="430.66666"
   height="260.332"
   viewBox="0 0 430.66666 260.332"
   xmlns="http://www.w3.org/2000/svg"
   xmlns:svg="http://www.w3.org/2000/svg"><defs
     id="defs6"><clipPath
       clipPathUnits="userSpaceOnUse"
       id="clipPath16"><path
         d="M 0,195.249 H 323 V 0 H 0 Z"
         id="path14" /></clipPath></defs><g
     id="g8"
     transform="matrix(1.3333333,0,0,-1.3333333,0,260.332)"><g
       id="g10"><g
         id="g12"
         clip-path="url(#clipPath16)"><g
           id="g18"
           transform="translate(323,97.6246)"><path
             d="m 0,0 c 0,-53.917 -43.708,-97.625 -97.625,-97.625 -53.916,0 -97.624,43.708 -97.624,97.625 0,53.916 43.708,97.624 97.624,97.624 C -43.708,97.624 0,53.916 0,0"
             style="fill:#b71c2d;fill-opacity:1;fill-rule:nonzero;stroke:none"
             id="path20" /></g><g
           id="g22"
           transform="translate(230.667,2.7491)"><path
             d="m 0,0 h -10.667 c -22,1.2 -38.56,8.906 -55,23.667 -20.54,17.939 -37.06,42.934 -37.31,70.174 -30.47,-8.48 -60.96,-16.901 -91.45,-25.33 0.01,7.74 0.02,15.49 0,23.23 -12.08,0.02 -24.16,0 -36.24,0.01 v 6.25 c 12.08,0.01 24.16,-0.01 36.24,0.01 0.03,7.73 -0.01,15.46 0.02,23.19 30.49,-8.4 60.95,-16.88 91.43,-25.28 0.29,21.19 7.5,42.25 20.62,58.94 13.36,17.24 34.46,26.303 55.69,31.383 21.5,5.26 43.786,3.246 63.796,-6.244 C 57.169,170.64 70.39,156.7 80,136.79 85.859,124.97 87.816,113.13 88.666,100 l 1,-9.667 C 88.597,66.173 78.856,43.707 61.666,26.667 44.626,9.467 24.17,1.08 0,0"
             style="fill:#b71c2d;fill-opacity:1;fill-rule:nonzero;stroke:none"
             id="path24" /></g><g
           id="g26"
           transform="translate(235.3799,6.7999)"><path
             d="m 0,0 c -19.97,-2.28 -40.62,2.4 -57.72,12.94 -16.78,10.24 -30.03,26.07 -37.26,44.34 -6.88,17.33 -8.27,36.78 -3.84,54.9 5.25,22.05 19.09,41.92 37.97,54.47 17.58,11.91 39.43,17.37 60.54,15 22.52,-2.28 43.95,-13.47 58.85,-30.49 C 71.061,137.02 79.03,118.89 80.89,100.09 83.26,77.95 77.05,55.021 63.851,37.09 49,16.521 25.26,2.65 0,0"
             style="fill:#ffffff;fill-opacity:1;fill-rule:nonzero;stroke:none"
             id="path28" /></g><g
           id="g30"
           transform="translate(162.6758,129.5108)"><path
             d="M 0,0 C 9.2,8.75 22.88,11.62 35.141,9.21 46.74,7.1 55.97,-2.45 58.88,-13.71 55.271,-14.61 51.65,-15.48 48.021,-16.27 45.96,-9.28 41.32,-2.48 33.98,-0.42 25.4,1.78 15.26,0.52 8.67,-5.82 2.92,-10.97 0.891,-18.86 0.021,-26.25 c -0.63,-9.22 0.089,-19.02 4.889,-27.16 7.57,-12.48 27.481,-14.86 37.56,-4.17 3.7,3.721 5.57,8.8 6.801,13.8 3.639,-0.94 7.29,-1.85 10.949,-2.74 -2.119,-8.51 -6.57,-16.839 -14.079,-21.73 -8.981,-6.08 -20.58,-6.56 -30.891,-4.32 -8.59,1.74 -16.08,7.53 -20.33,15.14 -4.59,8.23 -6.66,17.781 -6.32,27.17 C -11.58,-19.28 -8,-7.79 0,0"
             style="fill:#b71c2d;fill-opacity:1;fill-rule:nonzero;stroke:none"
             id="path32" /></g><g
           id="g34"
           transform="translate(236.0459,138.2408)"><path
             d="m 0,0 c 3.66,0.02 7.33,0.01 11,0 v -33.23 c 13.91,-0.02 27.83,-0.01 41.75,-0.01 0.01,11.09 -0.01,22.17 0,33.25 3.59,0 7.17,0.01 10.76,-0.01 -0.01,-26.99 -0.01,-53.99 0,-80.98 -3.59,-0.02 -7.17,-0.01 -10.76,-0.01 -0.01,12.67 0.01,25.33 0,38 -13.92,0 -27.84,0.02 -41.76,-0.009 C 11,-55.66 11,-68.32 11,-80.98 7.33,-80.99 3.66,-81 -0.01,-80.97 0.01,-53.98 0,-26.99 0,0"
             style="fill:#b71c2d;fill-opacity:1;fill-rule:nonzero;stroke:none"
             id="path36" /></g></g></g></g></svg>
