<?xml version="1.0" encoding="UTF-8" standalone="no"?>
<!-- Created with Inkscape (http://www.inkscape.org/) -->

<svg
   version="1.1"
   id="svg2"
   xml:space="preserve"
   width="316"
   height="316"
   viewBox="0 0 316 316"
   xmlns="http://www.w3.org/2000/svg"
   xmlns:svg="http://www.w3.org/2000/svg"><defs
     id="defs6"><clipPath
       clipPathUnits="userSpaceOnUse"
       id="clipPath16"><path
         d="M 0,237 H 237 V 0 H 0 Z"
         id="path14" /></clipPath></defs><g
     id="g8"
     transform="matrix(1.3333333,0,0,-1.3333333,0,316)"><g
       id="g10"><g
         id="g12"
         clip-path="url(#clipPath16)"><g
           id="g18"
           transform="translate(0,237)"><path
             d="m 0,0 h 236.997 c 0,-78.999 0.011,-157.998 -0.01,-236.987 -78.989,-0.021 -157.988,-0.01 -236.987,-0.01 z"
             style="fill:#b71c2d;fill-opacity:1;fill-rule:nonzero;stroke:none"
             id="path20" /></g><g
           id="g22"
           transform="translate(189.25,208.5498)"><path
             d="m 0,0 c 2.98,-9.77 6.77,-19.37 12.24,-28.03 3.68,-5.63 9.31,-9.76 15.53,-12.2 -0.08,-9.75 0.08,-19.49 -0.08,-29.24 C 16.86,-62.21 7.62,-52.48 1.48,-40.96 -4.69,-28.22 -3.2,-13.34 0,0"
             style="fill:#ffffff;fill-opacity:1;fill-rule:nonzero;stroke:none"
             id="path24" /></g><g
           id="g26"
           transform="translate(31,187.1899)"><path
             d="m 0,0 c 22.41,5.36 44.83,10.66 67.23,16.06 0.03,-53.42 0.04,-106.84 0,-160.269 C 44.82,-149.53 22.41,-154.88 0,-160.24 -0.01,-106.82 0.01,-53.41 0,0"
             style="fill:#ffffff;fill-opacity:1;fill-rule:nonzero;stroke:none"
             id="path28" /></g><g
           id="g30"
           transform="translate(148.5303,195.46)"><path
             d="m 0,0 c 9.35,1.07 19.27,-2.29 25.239,-9.74 4.99,-6.49 7.881,-14.25 11.301,-21.6 3.449,-7.02 6.72,-14.23 11.63,-20.37 4.89,-6.12 10.76,-11.51 17.51,-15.5 0.929,-0.52 1.74,-1.22 2.46,-2 -11.48,-2.73 -24.79,-1.52 -34.05,6.38 -9.521,8.5 -16.441,19.82 -19.941,32.07 C 12.21,-24.52 12.38,-17.68 9.2,-11.83 7.109,-7.19 3.54,-3.54 0,0"
             style="fill:#ffffff;fill-opacity:1;fill-rule:nonzero;stroke:none"
             id="path32" /></g><g
           id="g34"
           transform="translate(154.6104,153.5698)"><path
             d="m 0,0 c 8.939,-14.63 21.38,-27.47 36.89,-35.07 7.95,-3.88 16.65,-6.139 25.469,-6.84 0.071,-9.53 0.031,-19.06 0.021,-28.6 -18.36,2.66 -35.561,12.18 -47.66,26.22 C 3.83,-32.5 -1.721,-15.97 0,0"
             style="fill:#ffffff;fill-opacity:1;fill-rule:nonzero;stroke:none"
             id="path36" /></g><g
           id="g38"
           transform="translate(32.96,111.4902)"><path
             d="M 0,0 C -0.2,4.67 7.04,6.35 8.9,1.91 7.76,2.16 5.48,2.67 4.33,2.93 2.94,2.09 1.45,0.97 1.63,-0.891 2.75,-3.28 5.73,-3.42 7.78,-4.62 4.43,-6.021 -0.48,-4.19 0,0"
             style="fill:#b71c2d;fill-opacity:1;fill-rule:nonzero;stroke:none"
             id="path40" /></g><g
           id="g42"
           transform="translate(50.6401,115.3301)"><path
             d="m 0,0 c 3.05,1.17 4.89,-3.95 1.78,-4.83 -5.18,-1.09 -10.87,-4.06 -15.97,-1.15 -2.02,0.669 -1.08,4.57 1.11,4.09 C -8.59,-2.97 -4.36,-0.66 0,0"
             style="fill:#b71c2d;fill-opacity:1;fill-rule:nonzero;stroke:none"
             id="path44" /></g><g
           id="g46"
           transform="translate(133.8701,97.9502)"><path
             d="M 0,0 C 7.189,5.479 16.89,7.8 25.689,5.37 31.71,3.979 36.93,0.45 41.59,-3.48 c 5.08,-4.26 8.91,-9.831 14.26,-13.791 7.89,-6.25 17.57,-9.79 27.43,-11.379 -6.49,-4.98 -14.43,-8.19 -22.67,-8.32 C 47.52,-37.53 34.39,-30.7 27.399,-19.61 21.149,-9.98 11.54,-2.04 0,0"
             style="fill:#ffffff;fill-opacity:1;fill-rule:nonzero;stroke:none"
             id="path48" /></g><g
           id="g50"
           transform="translate(153.7305,69.0195)"><path
             d="m 0,0 c 5.38,-6.489 13.02,-10.449 20.72,-13.539 13.639,-5.2 29.09,-4.101 42.55,1.14 -0.031,-9.661 0.07,-19.33 -0.06,-28.991 -15.49,-1.399 -32.091,0.481 -45.471,8.93 C 6.729,-25.35 2.43,-12.21 0,0"
             style="fill:#ffffff;fill-opacity:1;fill-rule:nonzero;stroke:none"
             id="path52" /></g></g></g></g></svg>
