<?xml version="1.0" encoding="UTF-8" standalone="no"?>
<!-- Created with Inkscape (http://www.inkscape.org/) -->

<svg
   version="1.1"
   id="svg2"
   xml:space="preserve"
   width="52.913334"
   height="75.59053"
   viewBox="0 0 52.913334 75.59053"
   xmlns="http://www.w3.org/2000/svg"
   xmlns:svg="http://www.w3.org/2000/svg"><defs
     id="defs6"><clipPath
       clipPathUnits="userSpaceOnUse"
       id="clipPath18"><path
         d="M 0,17.008 H 39.685 V 56.693 H 0 Z"
         id="path16" /></clipPath><clipPath
       clipPathUnits="userSpaceOnUse"
       id="clipPath54"><path
         d="M 0,17.008 H 39.685 V 56.693 H 0 Z"
         id="path52" /></clipPath><clipPath
       clipPathUnits="userSpaceOnUse"
       id="clipPath100"><path
         d="M 0,56.693 H 39.685 V 0 H 0 Z"
         id="path98" /></clipPath><clipPath
       clipPathUnits="userSpaceOnUse"
       id="clipPath126"><path
         d="M 0,56.693 H 39.685 V 0 H 0 Z"
         id="path124" /></clipPath><clipPath
       clipPathUnits="userSpaceOnUse"
       id="clipPath140"><path
         d="M 0,56.693 H 39.685 V 0 H 0 Z"
         id="path138" /></clipPath></defs><g
     id="g8"
     transform="matrix(1.3333333,0,0,-1.3333333,0,75.590533)"><path
       d="M 0,17.009 H 39.685 V 56.693 H 0 Z"
       style="fill:#b71c2d;fill-opacity:1;fill-rule:nonzero;stroke:none"
       id="path10" /><g
       id="g12"><g
         id="g14"
         clip-path="url(#clipPath18)"><g
           id="g20"
           transform="translate(10.5908,50.2397)"><path
             d="M 0,0 C 2.051,2.357 5.931,2.688 8.421,0.834 8.646,0.607 8.917,0.682 9.149,0.855 9.334,0.753 9.516,0.649 9.699,0.544 c 0.11,0.202 0.226,0.4 0.342,0.602 0.445,-0.222 0.885,-0.455 1.319,-0.698 -0.097,-0.19 -0.194,-0.383 -0.29,-0.574 0.186,-0.094 0.37,-0.187 0.556,-0.281 -0.037,-0.561 0.598,-0.672 0.938,-0.973 0.519,-0.424 1.03,-0.946 1.204,-1.612 0.137,-0.426 -0.064,-0.843 -0.2,-1.238 -0.356,-0.039 -0.781,-0.196 -1.061,0.117 -0.565,0.505 -1.197,0.918 -1.882,1.241 -0.479,-0.447 -0.67,-1.094 -0.98,-1.652 1.013,-0.569 1.775,-1.649 1.75,-2.837 0.082,-1.09 -0.578,-2.013 -1.033,-2.944 -1.959,-3.886 -3.927,-7.768 -5.884,-11.656 -0.966,1.264 -2.502,2.111 -4.114,2.046 -2.142,-0.013 -4.111,-1.622 -4.615,-3.695 -0.713,0.354 -1.427,0.71 -2.139,1.068 2.746,5.455 5.513,10.9 8.261,16.356 0.529,0.903 0.822,2.002 1.708,2.644 0.967,0.764 2.337,0.843 3.444,0.344 0.276,0.591 0.608,1.153 0.859,1.755 0.137,0.223 -0.122,0.375 -0.268,0.49 -1.93,1.391 -4.665,1.5 -6.699,0.266 C 0.458,-1.101 -0.285,-0.562 0,0"
             style="fill:#ffffff;fill-opacity:1;fill-rule:nonzero;stroke:none"
             id="path22" /></g><g
           id="g24"
           transform="translate(31.8149,46.2495)"><path
             d="M 0,0 C 0.414,-1.318 0.923,-2.617 1.671,-3.783 2.147,-4.519 2.895,-5.014 3.682,-5.365 3.684,-6.661 3.689,-7.957 3.679,-9.254 2.184,-8.23 0.873,-6.869 0.092,-5.222 -0.594,-3.572 -0.39,-1.698 0,0"
             style="fill:#ffffff;fill-opacity:1;fill-rule:nonzero;stroke:none"
             id="path26" /></g><g
           id="g28"
           transform="translate(26.4048,44.5044)"><path
             d="M 0,0 C 1.393,0.157 2.887,-0.438 3.627,-1.661 4.529,-3.156 5.048,-4.853 6.011,-6.316 6.668,-7.31 7.528,-8.172 8.537,-8.806 8.724,-8.925 8.901,-9.063 9.061,-9.222 7.508,-9.576 5.715,-9.407 4.481,-8.318 2.905,-6.887 1.884,-4.881 1.607,-2.774 1.454,-1.68 0.795,-0.736 0,0"
             style="fill:#ffffff;fill-opacity:1;fill-rule:nonzero;stroke:none"
             id="path30" /></g><g
           id="g32"
           transform="translate(27.2202,38.9331)"><path
             d="M 0,0 C 1.765,-2.938 4.759,-5.343 8.279,-5.577 8.279,-6.845 8.28,-8.112 8.277,-9.38 5.861,-9.019 3.595,-7.781 1.991,-5.937 0.518,-4.365 -0.243,-2.145 0,0"
             style="fill:#ffffff;fill-opacity:1;fill-rule:nonzero;stroke:none"
             id="path34" /></g><g
           id="g36"
           transform="translate(24.4438,31.5503)"><path
             d="M 0,0 C 0.889,0.635 2.009,0.974 3.101,0.779 4.513,0.553 5.642,-0.441 6.557,-1.479 7.725,-2.776 9.382,-3.563 11.099,-3.806 10.211,-4.504 9.103,-4.931 7.967,-4.923 6.276,-4.979 4.606,-4.073 3.69,-2.659 2.843,-1.359 1.556,-0.293 0,0"
             style="fill:#ffffff;fill-opacity:1;fill-rule:nonzero;stroke:none"
             id="path38" /></g><g
           id="g40"
           transform="translate(9.8643,29.5698)"><path
             d="m 0,0 c 1.373,0.408 2.937,0.077 4.016,-0.867 1.662,-1.384 1.957,-4.063 0.644,-5.779 -1.216,-1.732 -3.783,-2.26 -5.591,-1.17 -1.608,0.876 -2.466,2.87 -2.041,4.643 0.31,1.5 1.5,2.761 2.972,3.173"
             style="fill:#ffffff;fill-opacity:1;fill-rule:nonzero;stroke:none"
             id="path42" /></g><g
           id="g44"
           transform="translate(27.083,27.7114)"><path
             d="m 0,0 c 0.976,-1.105 2.368,-1.762 3.781,-2.108 1.547,-0.317 3.17,-0.115 4.638,0.443 -0.006,-1.279 -0.006,-2.559 0,-3.838 C 6.365,-5.737 4.163,-5.434 2.379,-4.336 0.908,-3.383 0.341,-1.628 0,0"
             style="fill:#ffffff;fill-opacity:1;fill-rule:nonzero;stroke:none"
             id="path46" /></g></g></g><g
       id="g48"><g
         id="g50"
         clip-path="url(#clipPath54)"><g
           id="g56"
           transform="translate(0,56.6928)"><path
             d="m 0,0 h 39.684 c 0,-13.229 0.002,-26.456 0,-39.685 -13.228,-10e-4 -26.456,0 -39.684,0 z"
             style="fill:#b71c2d;fill-opacity:1;fill-rule:nonzero;stroke:none"
             id="path58" /></g><g
           id="g60"
           transform="translate(10.2998,53.0522)"><path
             d="m 0,0 c 1.073,-0.003 2.148,-0.001 3.222,-0.001 v -1.335 c 0.942,0.03 1.877,-0.092 2.762,-0.42 V -3.473 C 5.204,-3.692 4.414,-3.901 3.597,-3.904 3.62,-4.66 3.562,-5.413 3.551,-6.168 c 0.99,-0.238 2.083,-0.581 2.666,-1.484 0.468,-0.746 0.814,-1.616 0.776,-2.512 -0.027,-3.347 0.041,-6.697 -0.047,-10.043 -0.015,-3.185 0.047,-6.371 -0.042,-9.555 -0.002,-0.866 0.045,-1.736 -0.104,-2.593 -0.588,-0.139 -1.192,-0.083 -1.79,-0.089 -2.621,-0.003 -5.239,0.005 -7.859,-0.003 -0.351,-0.006 -0.698,0.048 -1.039,0.115 -0.133,0.68 -0.087,1.373 -0.091,2.061 -10e-4,6.418 0.004,12.836 -10e-4,19.255 -0.039,1.205 0.199,2.454 0.825,3.497 0.541,0.876 1.643,1.148 2.609,1.169 0,0.846 -0.002,1.692 0.002,2.537 -0.359,0.002 -0.715,0.002 -1.074,0 C -2.587,-4.817 -3.62,-5.76 -4.624,-6.731 -4.7,-7.449 -4.777,-8.168 -4.87,-8.885 c -0.413,-0.033 -0.828,-0.036 -1.242,-0.036 -0.023,1.367 -0.003,2.766 0.437,4.077 0.133,0.483 0.601,0.741 0.926,1.085 0.953,0.951 1.973,1.835 3.061,2.629 0.561,-0.004 1.124,-0.002 1.686,-0.002 0,0.377 0,0.756 0.002,1.132"
             style="fill:#ffffff;fill-opacity:1;fill-rule:nonzero;stroke:none"
             id="path62" /></g><g
           id="g64"
           transform="translate(31.4434,42.2876)"><path
             d="M 0,0 C -0.842,1.964 -0.626,4.203 -0.125,6.228 0.423,4.548 1.062,2.865 2.108,1.425 2.601,0.74 3.313,0.239 4.096,-0.062 4.097,-1.553 4.099,-3.041 4.096,-4.531 2.411,-3.373 0.881,-1.869 0,0"
             style="fill:#ffffff;fill-opacity:1;fill-rule:nonzero;stroke:none"
             id="path66" /></g><g
           id="g68"
           transform="translate(24.9463,46.4018)"><path
             d="M 0,0 C 0.658,0.047 1.346,0.105 1.976,-0.133 2.741,-0.412 3.335,-0.99 3.927,-1.525 4.573,-2.118 4.886,-2.957 5.225,-3.743 5.861,-5.271 6.634,-6.747 7.565,-8.116 8.382,-9.156 9.42,-10.07 10.643,-10.6 9.181,-11.037 7.535,-10.955 6.222,-10.131 4.858,-9.471 3.963,-8.179 3.25,-6.889 2.419,-5.393 2.075,-3.704 1.646,-2.064 1.325,-1.229 0.72,-0.524 0,0"
             style="fill:#ffffff;fill-opacity:1;fill-rule:nonzero;stroke:none"
             id="path70" /></g><g
           id="g72"
           transform="translate(7.6221,40.9546)"><path
             d="m 0,0 c 2.803,-0.005 5.608,0.002 8.411,-0.005 -0.002,-1.673 0.002,-3.346 0,-5.02 h -8.414 c 0,1.674 -0.003,3.35 0.003,5.025"
             style="fill:#b71c2d;fill-opacity:1;fill-rule:nonzero;stroke:none"
             id="path74" /></g><g
           id="g76"
           transform="translate(26.0498,39.9848)"><path
             d="m 0,0 c 1.522,-2.446 3.768,-4.426 6.373,-5.651 0.988,-0.417 2.023,-0.853 3.118,-0.797 v -4.449 C 7.501,-10.308 5.457,-9.672 3.814,-8.354 2.226,-7.081 1.085,-5.308 0.372,-3.416 -0.039,-2.327 -0.045,-1.146 0,0"
             style="fill:#ffffff;fill-opacity:1;fill-rule:nonzero;stroke:none"
             id="path78" /></g><g
           id="g80"
           transform="translate(22.8096,31.3794)"><path
             d="M 0,0 C 0.911,0.712 2.075,1.014 3.217,1.009 4.222,0.89 5.189,0.484 5.983,-0.146 7.056,-0.9 7.758,-2.065 8.858,-2.789 10.042,-3.569 11.412,-3.996 12.771,-4.36 10.973,-6.026 8.069,-6.043 6.05,-4.771 4.531,-3.779 3.806,-1.989 2.331,-0.947 1.645,-0.443 0.815,-0.204 0,0"
             style="fill:#ffffff;fill-opacity:1;fill-rule:nonzero;stroke:none"
             id="path82" /></g><g
           id="g84"
           transform="translate(26.0415,27.019)"><path
             d="m 0,0 c 1.221,-1.425 3.036,-2.131 4.828,-2.505 1.564,-0.319 3.154,0.002 4.67,0.405 0.003,-1.436 0,-2.873 0.001,-4.309 C 7.262,-6.421 4.814,-6.514 2.875,-5.209 1.144,-4.037 0.445,-1.943 0,0"
             style="fill:#ffffff;fill-opacity:1;fill-rule:nonzero;stroke:none"
             id="path86" /></g></g></g><path
       d="M 0,0 H 39.685 V 17.008 H 0 Z"
       style="fill:#efc521;fill-opacity:1;fill-rule:nonzero;stroke:none"
       id="path88" /><g
       id="g90"
       transform="translate(9.4873,7.2339)"><path
         d="M 0,0 -1.677,4.516 -3.32,0 Z M 4.524,-4.814 H 1.851 L 0.789,-2.051 H -4.076 L -5.08,-4.814 h -2.607 l 4.74,12.168 h 2.598 z"
         style="fill:#231f20;fill-opacity:1;fill-rule:nonzero;stroke:none"
         id="path92" /></g><g
       id="g94"><g
         id="g96"
         clip-path="url(#clipPath100)"><g
           id="g102"
           transform="translate(17.7798,7.7241)"><path
             d="m 0,0 v -3.254 h 2.274 c 0.886,0 1.448,0.025 1.685,0.074 0.366,0.067 0.663,0.229 0.893,0.486 0.23,0.257 0.344,0.602 0.344,1.034 0,0.365 -0.088,0.675 -0.265,0.93 C 4.753,-0.477 4.498,-0.291 4.163,-0.175 3.828,-0.059 3.102,0 1.984,0 Z M 0,4.839 V 2.025 h 1.61 c 0.958,0 1.553,0.014 1.785,0.041 0.42,0.05 0.751,0.196 0.992,0.436 C 4.628,2.743 4.748,3.06 4.748,3.453 4.748,3.829 4.645,4.135 4.437,4.37 4.229,4.605 3.921,4.748 3.511,4.797 3.268,4.825 2.568,4.839 1.411,4.839 Z m -2.457,2.025 h 4.864 c 0.963,0 1.681,-0.04 2.155,-0.12 C 5.034,6.664 5.458,6.496 5.831,6.242 6.205,5.987 6.516,5.648 6.765,5.225 7.014,4.802 7.139,4.327 7.139,3.801 7.139,3.231 6.985,2.708 6.678,2.232 6.371,1.757 5.955,1.399 5.429,1.162 6.17,0.945 6.74,0.578 7.139,0.058 7.537,-0.463 7.736,-1.074 7.736,-1.777 7.736,-2.33 7.607,-2.868 7.351,-3.392 7.093,-3.914 6.742,-4.332 6.296,-4.645 5.851,-4.957 5.301,-5.149 4.648,-5.222 4.239,-5.266 3.251,-5.294 1.685,-5.305 h -4.142 z"
             style="fill:#231f20;fill-opacity:1;fill-rule:nonzero;stroke:none"
             id="path104" /></g><g
           id="g106"
           transform="translate(35.3774,6.894)"><path
             d="M 0,0 2.382,-0.756 C 2.017,-2.084 1.41,-3.07 0.56,-3.715 c -0.849,-0.644 -1.927,-0.967 -3.233,-0.967 -1.616,0 -2.944,0.552 -3.984,1.656 -1.041,1.104 -1.561,2.613 -1.561,4.528 0,2.025 0.523,3.599 1.569,4.719 1.046,1.121 2.421,1.681 4.126,1.681 1.488,0 2.697,-0.44 3.627,-1.32 C 1.657,6.062 2.072,5.314 2.349,4.341 L -0.083,3.76 C -0.227,4.391 -0.527,4.889 -0.984,5.254 -1.44,5.619 -1.995,5.802 -2.648,5.802 -3.55,5.802 -4.282,5.479 -4.843,4.83 -5.405,4.184 -5.686,3.135 -5.686,1.685 c 0,-1.539 0.277,-2.634 0.83,-3.288 0.553,-0.653 1.273,-0.979 2.158,-0.979 0.653,0 1.215,0.207 1.685,0.623 C -0.542,-1.545 -0.205,-0.892 0,0"
             style="fill:#231f20;fill-opacity:1;fill-rule:nonzero;stroke:none"
             id="path108" /></g></g></g><path
       d="M 0,0 H 39.685 V 17.008 H 0 Z"
       style="fill:#0b4e82;fill-opacity:1;fill-rule:nonzero;stroke:none"
       id="path110" /><g
       id="g112"
       transform="translate(3.1909,2.5229)"><path
         d="M 0,0 V 12.169 H 9.023 V 10.11 H 2.457 V 7.412 H 8.566 V 5.362 H 2.457 V 2.051 H 9.255 L 9.255,0 Z"
         style="fill:#ffffff;fill-opacity:1;fill-rule:nonzero;stroke:none"
         id="path114" /></g><g
       id="g116"
       transform="translate(20.9795,7.3374)"><path
         d="M 0,0 -1.677,4.516 -3.32,0 Z M 4.524,-4.814 H 1.851 L 0.789,-2.051 H -4.076 L -5.08,-4.814 h -2.607 l 4.74,12.168 h 2.598 z"
         style="fill:#ffffff;fill-opacity:1;fill-rule:nonzero;stroke:none"
         id="path118" /></g><g
       id="g120"><g
         id="g122"
         clip-path="url(#clipPath126)"><g
           id="g128"
           transform="translate(26.79,14.6919)"><path
             d="m 0,0 h 2.457 v -6.591 c 0,-1.046 0.03,-1.723 0.091,-2.033 0.105,-0.498 0.356,-0.898 0.751,-1.2 0.396,-0.302 0.937,-0.452 1.623,-0.452 0.698,0 1.224,0.142 1.578,0.427 0.354,0.286 0.567,0.635 0.639,1.05 0.071,0.415 0.108,1.105 0.108,2.068 V 0 h 2.457 v -6.392 c 0,-1.461 -0.067,-2.493 -0.2,-3.095 -0.132,-0.604 -0.378,-1.114 -0.734,-1.528 -0.357,-0.416 -0.834,-0.746 -1.432,-0.992 -0.598,-0.246 -1.378,-0.369 -2.341,-0.369 -1.162,0 -2.043,0.134 -2.644,0.402 -0.6,0.269 -1.075,0.618 -1.423,1.046 -0.349,0.429 -0.578,0.878 -0.689,1.349 C 0.08,-8.882 0,-7.853 0,-6.491 Z"
             style="fill:#ffffff;fill-opacity:1;fill-rule:nonzero;stroke:none"
             id="path130" /></g></g></g><path
       d="M 0,0 H 39.685 V 17.008 H 0 Z"
       style="fill:#7b7979;fill-opacity:1;fill-rule:nonzero;stroke:none"
       id="path132" /><g
       id="g134"><g
         id="g136"
         clip-path="url(#clipPath140)"><g
           id="g142"
           transform="translate(11.4131,6.894)"><path
             d="M 0,0 2.382,-0.756 C 2.017,-2.084 1.41,-3.07 0.56,-3.715 c -0.849,-0.644 -1.927,-0.967 -3.233,-0.967 -1.616,0 -2.944,0.552 -3.984,1.656 -1.041,1.104 -1.561,2.613 -1.561,4.528 0,2.025 0.523,3.599 1.569,4.719 1.046,1.121 2.421,1.681 4.126,1.681 1.488,0 2.697,-0.44 3.627,-1.32 C 1.657,6.062 2.072,5.314 2.349,4.341 L -0.083,3.76 C -0.227,4.391 -0.527,4.889 -0.984,5.254 -1.44,5.619 -1.995,5.802 -2.648,5.802 -3.55,5.802 -4.282,5.479 -4.843,4.83 -5.405,4.184 -5.686,3.135 -5.686,1.685 c 0,-1.539 0.277,-2.634 0.83,-3.288 0.553,-0.653 1.273,-0.979 2.158,-0.979 0.653,0 1.215,0.207 1.685,0.623 C -0.542,-1.545 -0.205,-0.892 0,0"
             style="fill:#ffffff;fill-opacity:1;fill-rule:nonzero;stroke:none"
             id="path144" /></g><g
           id="g146"
           transform="translate(17.9375,8.5122)"><path
             d="M 0,0 C 0,-1.378 0.318,-2.423 0.955,-3.134 1.591,-3.845 2.399,-4.2 3.378,-4.2 c 0.98,0 1.784,0.352 2.412,1.058 0.628,0.705 0.942,1.764 0.942,3.175 0,1.395 -0.306,2.435 -0.918,3.121 C 5.203,3.841 4.391,4.184 3.378,4.184 2.366,4.184 1.549,3.836 0.93,3.142 0.31,2.447 0,1.4 0,0 m -2.532,-0.083 c 0,1.239 0.186,2.28 0.556,3.121 0.277,0.62 0.655,1.176 1.133,1.668 0.479,0.493 1.004,0.858 1.573,1.096 0.759,0.321 1.633,0.482 2.624,0.482 1.792,0 3.227,-0.556 4.303,-1.669 C 8.734,3.503 9.272,1.956 9.272,-0.024 9.272,-1.989 8.738,-3.526 7.67,-4.636 6.602,-5.745 5.174,-6.3 3.387,-6.3 c -1.81,0 -3.249,0.552 -4.317,1.655 -1.068,1.105 -1.602,2.625 -1.602,4.562"
             style="fill:#ffffff;fill-opacity:1;fill-rule:nonzero;stroke:none"
             id="path148" /></g><g
           id="g150"
           transform="translate(36.4897,4.5854)"><path
             d="m 0,0 v -2.166 h -8.176 c 0.088,0.819 0.354,1.595 0.797,2.328 0.442,0.734 1.317,1.706 2.623,2.918 1.051,0.98 1.696,1.644 1.934,1.992 0.321,0.482 0.481,0.957 0.481,1.428 0,0.521 -0.139,0.92 -0.419,1.199 -0.28,0.28 -0.665,0.42 -1.158,0.42 -0.487,0 -0.874,-0.147 -1.162,-0.44 C -5.368,7.386 -5.534,6.898 -5.578,6.218 L -7.902,6.45 c 0.138,1.284 0.572,2.205 1.303,2.765 0.73,0.558 1.643,0.838 2.739,0.838 1.201,0 2.145,-0.324 2.831,-0.971 C -0.343,8.434 0,7.629 0,6.666 0,6.118 -0.098,5.597 -0.295,5.102 -0.491,4.606 -0.802,4.087 -1.229,3.545 -1.511,3.186 -2.02,2.668 -2.756,1.992 -3.492,1.317 -3.958,0.869 -4.154,0.648 -4.351,0.427 -4.51,0.211 -4.632,0 Z"
             style="fill:#ffffff;fill-opacity:1;fill-rule:nonzero;stroke:none"
             id="path152" /></g></g></g></g></svg>
