<?xml version="1.0" encoding="UTF-8" standalone="no"?>
<!-- Created with Inkscape (http://www.inkscape.org/) -->

<svg
   version="1.1"
   id="svg2"
   xml:space="preserve"
   width="260.336"
   height="260.32266"
   viewBox="0 0 260.336 260.32266"
   xmlns="http://www.w3.org/2000/svg"
   xmlns:svg="http://www.w3.org/2000/svg"><defs
     id="defs6"><clipPath
       clipPathUnits="userSpaceOnUse"
       id="clipPath16"><path
         d="M 0,195.242 H 195.252 V 0 H 0 Z"
         id="path14" /></clipPath></defs><g
     id="g8"
     transform="matrix(1.3333333,0,0,-1.3333333,0,260.32267)"><g
       id="g10"><g
         id="g12"
         clip-path="url(#clipPath16)"><g
           id="g18"
           transform="translate(195.252,97.6261)"><path
             d="m 0,0 c 0,-53.917 -43.709,-97.626 -97.626,-97.626 -53.917,0 -97.626,43.709 -97.626,97.626 0,53.917 43.709,97.626 97.626,97.626 C -43.709,97.626 0,53.917 0,0"
             style="fill:#b71c2d;fill-opacity:1;fill-rule:nonzero;stroke:none"
             id="path20" /></g><g
           id="g22"
           transform="translate(93.2402,188.8922)"><path
             d="M 0,0 C 20.09,1.02 40.439,-4.91 56.859,-16.53 74.24,-28.68 87.13,-47.08 92.609,-67.57 98.08,-87.68 96.33,-109.66 87.71,-128.64 80.54,-144.59 68.74,-158.419 54.029,-167.9 36.66,-179.27 15.3,-184.41 -5.34,-182.1 c -22.51,2.3 -43.92,13.48 -58.81,30.49 -12.52,14.13 -20.49,32.24 -22.35,51.04 -2.33,21.7 3.57,44.15 16.23,61.93 C -54.39,-15.9 -27.74,-1.15 0,0"
             style="fill:#ffffff;fill-opacity:1;fill-rule:nonzero;stroke:none"
             id="path24" /></g><g
           id="g26"
           transform="translate(135.9697,123.2721)"><path
             d="m 0,0 c 6.95,4.65 15.771,5.57 23.88,4.33 5.511,-1.02 11.16,-3.59 14.35,-8.4 1.81,-2.6 2.77,-5.66 3.741,-8.65 -2.441,-0.74 -4.891,-1.43 -7.341,-2.12 -1.159,3.81 -2.88,7.76 -6.42,9.93 C 21.55,-0.87 12.65,-1.15 5.971,-4.99 -1.12,-9.26 -3.77,-18.16 -3.5,-26.01 c -0.26,-7.789 2.83,-16.57 10.23,-20.159 8.94,-4.811 20.25,-2.75 28.09,3.259 -0.07,3.62 -0.03,7.25 -0.03,10.87 -5.76,0.03 -11.51,0 -17.26,0.01 v 7 c 8.42,0 16.84,0.01 25.25,-0.01 0,-7.32 -0.009,-14.629 0.01,-21.95 -6.8,-5.26 -15.04,-9.19 -23.79,-9.07 -9.14,-0.37 -18.899,2.92 -24.66,10.3 -6.029,7.82 -7.3,18.43 -5.39,27.91 C -9.5,-10.93 -6.069,-4.01 0,0"
             style="fill:#b71c2d;fill-opacity:1;fill-rule:nonzero;stroke:none"
             id="path28" /></g><g
           id="g30"
           transform="translate(20,127.2423)"><path
             d="m 0,0 c 14.08,0 28.16,0.01 42.25,-0.01 0,-2.41 0,-4.83 0.02,-7.24 -12.09,-14.91 -24.01,-29.97 -36.31,-44.7 12.43,-0.12 24.86,-0.01 37.29,-0.06 v -6.98 C 27.66,-59 12.08,-59 -3.5,-59 c 0,2.42 0,4.85 -0.02,7.27 8.3,10.44 16.67,20.84 24.99,31.26 3.63,4.47 7.07,9.12 11.11,13.24 C 21.72,-7.27 10.86,-7.24 0.01,-7.25 0,-4.83 0,-2.42 0,0"
             style="fill:#b71c2d;fill-opacity:1;fill-rule:nonzero;stroke:none"
             id="path32" /></g><g
           id="g34"
           transform="translate(87.4702,127.2125)"><path
             d="m 0,0 c 2.86,0.04 5.71,0.04 8.57,0.02 8.019,-19.66 16.12,-39.3 24.099,-58.99 H 23.54 c -2.36,5.889 -4.55,11.86 -6.911,17.76 -8.069,-0.01 -16.139,-0.01 -24.199,-0.01 -2.15,-5.901 -4.34,-11.79 -6.42,-17.71 -2.86,-0.05 -5.73,-0.05 -8.6,-0.04 7.47,19.679 15.1,39.3 22.59,58.97"
             style="fill:#b71c2d;fill-opacity:1;fill-rule:nonzero;stroke:none"
             id="path36" /></g><g
           id="g38"
           transform="translate(91.6201,120.2023)"><path
             d="M 0,0 C 2.84,-9.41 6.7,-18.46 10.03,-27.69 3.53,-27.72 -2.96,-27.729 -9.45,-27.68 -6.17,-18.51 -2.03,-9.58 0,0"
             style="fill:#ffffff;fill-opacity:1;fill-rule:nonzero;stroke:none"
             id="path40" /></g></g></g></g></svg>
