<?xml version="1.0" encoding="UTF-8" standalone="no"?>
<!-- Created with Inkscape (http://www.inkscape.org/) -->

<svg
   version="1.1"
   id="svg2"
   xml:space="preserve"
   width="52.913334"
   height="75.59053"
   viewBox="0 0 52.913334 75.59053"
   xmlns="http://www.w3.org/2000/svg"
   xmlns:svg="http://www.w3.org/2000/svg"><defs
     id="defs6"><clipPath
       clipPathUnits="userSpaceOnUse"
       id="clipPath16"><path
         d="M 0,17.008 H 39.685 V 56.693 H 0 Z"
         id="path14" /></clipPath><clipPath
       clipPathUnits="userSpaceOnUse"
       id="clipPath62"><path
         d="M 0,56.693 H 39.685 V 0 H 0 Z"
         id="path60" /></clipPath><clipPath
       clipPathUnits="userSpaceOnUse"
       id="clipPath80"><path
         d="M 0,56.693 H 39.685 V 0 H 0 Z"
         id="path78" /></clipPath><clipPath
       clipPathUnits="userSpaceOnUse"
       id="clipPath94"><path
         d="M 0,56.693 H 39.685 V 0 H 0 Z"
         id="path92" /></clipPath></defs><g
     id="g8"
     transform="matrix(1.3333333,0,0,-1.3333333,0,75.590533)"><g
       id="g10"><g
         id="g12"
         clip-path="url(#clipPath16)"><g
           id="g18"
           transform="translate(0,56.6928)"><path
             d="m 0,0 h 39.684 c 0,-13.229 0.002,-26.456 0,-39.685 -13.228,-10e-4 -26.456,0 -39.684,0 z"
             style="fill:#b71c2d;fill-opacity:1;fill-rule:nonzero;stroke:none"
             id="path20" /></g><g
           id="g22"
           transform="translate(10.2998,53.0522)"><path
             d="m 0,0 c 1.073,-0.003 2.148,-0.001 3.222,-0.001 v -1.335 c 0.942,0.03 1.877,-0.092 2.762,-0.42 V -3.473 C 5.204,-3.692 4.414,-3.901 3.597,-3.904 3.62,-4.66 3.562,-5.413 3.551,-6.168 c 0.99,-0.238 2.083,-0.581 2.666,-1.484 0.468,-0.746 0.814,-1.616 0.776,-2.512 -0.027,-3.347 0.041,-6.697 -0.047,-10.043 -0.015,-3.185 0.047,-6.371 -0.042,-9.555 -0.002,-0.866 0.045,-1.736 -0.104,-2.593 -0.588,-0.139 -1.192,-0.083 -1.79,-0.089 -2.621,-0.003 -5.239,0.005 -7.859,-0.003 -0.351,-0.006 -0.698,0.048 -1.039,0.115 -0.133,0.68 -0.087,1.373 -0.091,2.061 -10e-4,6.418 0.004,12.836 -10e-4,19.255 -0.039,1.205 0.199,2.454 0.825,3.497 0.541,0.876 1.643,1.148 2.609,1.169 0,0.846 -0.002,1.692 0.002,2.537 -0.359,0.002 -0.715,0.002 -1.074,0 C -2.587,-4.817 -3.62,-5.76 -4.624,-6.731 -4.7,-7.449 -4.777,-8.168 -4.87,-8.885 c -0.413,-0.033 -0.828,-0.036 -1.242,-0.036 -0.023,1.367 -0.003,2.766 0.437,4.077 0.133,0.483 0.601,0.741 0.926,1.085 0.953,0.951 1.973,1.835 3.061,2.629 0.561,-0.004 1.124,-0.002 1.686,-0.002 0,0.377 0,0.756 0.002,1.132"
             style="fill:#ffffff;fill-opacity:1;fill-rule:nonzero;stroke:none"
             id="path24" /></g><g
           id="g26"
           transform="translate(31.4434,42.2876)"><path
             d="M 0,0 C -0.842,1.964 -0.626,4.203 -0.125,6.228 0.423,4.548 1.062,2.865 2.108,1.425 2.601,0.74 3.313,0.239 4.096,-0.062 4.097,-1.553 4.099,-3.041 4.096,-4.531 2.411,-3.373 0.881,-1.869 0,0"
             style="fill:#ffffff;fill-opacity:1;fill-rule:nonzero;stroke:none"
             id="path28" /></g><g
           id="g30"
           transform="translate(24.9463,46.4018)"><path
             d="M 0,0 C 0.658,0.047 1.346,0.105 1.976,-0.133 2.741,-0.412 3.335,-0.99 3.927,-1.525 4.573,-2.118 4.886,-2.957 5.225,-3.743 5.861,-5.271 6.634,-6.747 7.565,-8.116 8.382,-9.156 9.42,-10.07 10.643,-10.6 9.181,-11.037 7.535,-10.955 6.222,-10.131 4.858,-9.471 3.963,-8.179 3.25,-6.889 2.419,-5.393 2.075,-3.704 1.646,-2.064 1.325,-1.229 0.72,-0.524 0,0"
             style="fill:#ffffff;fill-opacity:1;fill-rule:nonzero;stroke:none"
             id="path32" /></g><g
           id="g34"
           transform="translate(7.6221,40.9546)"><path
             d="m 0,0 c 2.803,-0.005 5.608,0.002 8.411,-0.005 -0.002,-1.673 0.002,-3.346 0,-5.02 h -8.414 c 0,1.674 -0.003,3.35 0.003,5.025"
             style="fill:#b71c2d;fill-opacity:1;fill-rule:nonzero;stroke:none"
             id="path36" /></g><g
           id="g38"
           transform="translate(26.0498,39.9848)"><path
             d="m 0,0 c 1.522,-2.446 3.768,-4.426 6.373,-5.651 0.988,-0.417 2.023,-0.853 3.118,-0.797 v -4.449 C 7.501,-10.308 5.457,-9.672 3.814,-8.354 2.226,-7.081 1.085,-5.308 0.372,-3.416 -0.039,-2.327 -0.045,-1.146 0,0"
             style="fill:#ffffff;fill-opacity:1;fill-rule:nonzero;stroke:none"
             id="path40" /></g><g
           id="g42"
           transform="translate(22.8096,31.3794)"><path
             d="M 0,0 C 0.911,0.712 2.075,1.014 3.217,1.009 4.222,0.89 5.189,0.484 5.983,-0.146 7.056,-0.9 7.758,-2.065 8.858,-2.789 10.042,-3.569 11.412,-3.996 12.771,-4.36 10.973,-6.026 8.069,-6.043 6.05,-4.771 4.531,-3.779 3.806,-1.989 2.331,-0.947 1.645,-0.443 0.815,-0.204 0,0"
             style="fill:#ffffff;fill-opacity:1;fill-rule:nonzero;stroke:none"
             id="path44" /></g><g
           id="g46"
           transform="translate(26.0415,27.019)"><path
             d="m 0,0 c 1.221,-1.425 3.036,-2.131 4.828,-2.505 1.564,-0.319 3.154,0.002 4.67,0.405 0.003,-1.436 0,-2.873 0.001,-4.309 C 7.262,-6.421 4.814,-6.514 2.875,-5.209 1.144,-4.037 0.445,-1.943 0,0"
             style="fill:#ffffff;fill-opacity:1;fill-rule:nonzero;stroke:none"
             id="path48" /></g></g></g><path
       d="M 0,0 H 39.685 V 17.008 H 0 Z"
       style="fill:#efc521;fill-opacity:1;fill-rule:nonzero;stroke:none"
       id="path50" /><g
       id="g52"
       transform="translate(9.4873,7.2339)"><path
         d="M 0,0 -1.677,4.516 -3.32,0 Z M 4.524,-4.814 H 1.851 L 0.789,-2.051 H -4.076 L -5.08,-4.814 h -2.607 l 4.74,12.168 h 2.598 z"
         style="fill:#231f20;fill-opacity:1;fill-rule:nonzero;stroke:none"
         id="path54" /></g><g
       id="g56"><g
         id="g58"
         clip-path="url(#clipPath62)"><g
           id="g64"
           transform="translate(17.7798,7.7241)"><path
             d="m 0,0 v -3.254 h 2.274 c 0.886,0 1.448,0.025 1.685,0.074 0.366,0.067 0.663,0.229 0.893,0.486 0.23,0.257 0.344,0.602 0.344,1.034 0,0.365 -0.088,0.675 -0.265,0.93 C 4.753,-0.477 4.498,-0.291 4.163,-0.175 3.828,-0.059 3.102,0 1.984,0 Z M 0,4.839 V 2.025 h 1.61 c 0.958,0 1.553,0.014 1.785,0.041 0.42,0.05 0.751,0.196 0.992,0.436 C 4.628,2.743 4.748,3.06 4.748,3.453 4.748,3.829 4.645,4.135 4.437,4.37 4.229,4.605 3.921,4.748 3.511,4.797 3.268,4.825 2.568,4.839 1.411,4.839 Z m -2.457,2.025 h 4.864 c 0.963,0 1.681,-0.04 2.155,-0.12 C 5.034,6.664 5.458,6.496 5.831,6.242 6.205,5.987 6.516,5.648 6.765,5.225 7.014,4.802 7.139,4.327 7.139,3.801 7.139,3.231 6.985,2.708 6.678,2.232 6.371,1.757 5.955,1.399 5.429,1.162 6.17,0.945 6.74,0.578 7.139,0.058 7.537,-0.463 7.736,-1.074 7.736,-1.777 7.736,-2.33 7.607,-2.868 7.351,-3.392 7.093,-3.914 6.742,-4.332 6.296,-4.645 5.851,-4.957 5.301,-5.149 4.648,-5.222 4.239,-5.266 3.251,-5.294 1.685,-5.305 h -4.142 z"
             style="fill:#231f20;fill-opacity:1;fill-rule:nonzero;stroke:none"
             id="path66" /></g><g
           id="g68"
           transform="translate(35.3774,6.894)"><path
             d="M 0,0 2.382,-0.756 C 2.017,-2.084 1.41,-3.07 0.56,-3.715 c -0.849,-0.644 -1.927,-0.967 -3.233,-0.967 -1.616,0 -2.944,0.552 -3.984,1.656 -1.041,1.104 -1.561,2.613 -1.561,4.528 0,2.025 0.523,3.599 1.569,4.719 1.046,1.121 2.421,1.681 4.126,1.681 1.488,0 2.697,-0.44 3.627,-1.32 C 1.657,6.062 2.072,5.314 2.349,4.341 L -0.083,3.76 C -0.227,4.391 -0.527,4.889 -0.984,5.254 -1.44,5.619 -1.995,5.802 -2.648,5.802 -3.55,5.802 -4.282,5.479 -4.843,4.83 -5.405,4.184 -5.686,3.135 -5.686,1.685 c 0,-1.539 0.277,-2.634 0.83,-3.288 0.553,-0.653 1.273,-0.979 2.158,-0.979 0.653,0 1.215,0.207 1.685,0.623 C -0.542,-1.545 -0.205,-0.892 0,0"
             style="fill:#231f20;fill-opacity:1;fill-rule:nonzero;stroke:none"
             id="path70" /></g></g></g><path
       d="M 0,0 H 39.685 V 17.008 H 0 Z"
       style="fill:#efc521;fill-opacity:1;fill-rule:nonzero;stroke:none"
       id="path72" /><g
       id="g74"><g
         id="g76"
         clip-path="url(#clipPath80)"><text
           transform="matrix(1,0,0,-1,2.5107,5.5527)"
           style="font-variant:normal;font-weight:bold;font-stretch:normal;font-size:16px;font-family:Arial;-inkscape-font-specification:Arial-BoldMT;writing-mode:lr-tb;fill:#231f20;fill-opacity:1;fill-rule:nonzero;stroke:none"
           id="text84"><tspan
             x="0 11.552 23.104"
             y="0"
             id="tspan82">ABC</tspan></text></g></g><path
       d="M 0,0 H 39.685 V 17.008 H 0 Z"
       style="fill:#efc521;fill-opacity:1;fill-rule:nonzero;stroke:none"
       id="path86" /><g
       id="g88"><g
         id="g90"
         clip-path="url(#clipPath94)"><text
           transform="matrix(1,0,0,-1,2.5107,5.5527)"
           style="font-variant:normal;font-weight:bold;font-stretch:normal;font-size:16px;font-family:Arial;-inkscape-font-specification:Arial-BoldMT;writing-mode:lr-tb;fill:#231f20;fill-opacity:1;fill-rule:nonzero;stroke:none"
           id="text98"><tspan
             x="0 11.552 23.104"
             y="0"
             id="tspan96">ABC</tspan></text></g></g></g></svg>
