<?xml version="1.0" encoding="UTF-8" standalone="no"?>
<!-- Created with Inkscape (http://www.inkscape.org/) -->

<svg
   version="1.1"
   id="svg2"
   xml:space="preserve"
   width="260.332"
   height="430.66666"
   viewBox="0 0 260.332 430.66666"
   xmlns="http://www.w3.org/2000/svg"
   xmlns:svg="http://www.w3.org/2000/svg"><defs
     id="defs6"><clipPath
       clipPathUnits="userSpaceOnUse"
       id="clipPath16"><path
         d="M 0,323 H 195.249 V 0 H 0 Z"
         id="path14" /></clipPath></defs><g
     id="g8"
     transform="matrix(1.3333333,0,0,-1.3333333,0,430.66667)"><g
       id="g10"><g
         id="g12"
         clip-path="url(#clipPath16)"><g
           id="g18"
           transform="translate(195.2495,97.6245)"><path
             d="m 0,0 c 0,-53.917 -43.708,-97.625 -97.625,-97.625 -53.917,0 -97.625,43.708 -97.625,97.625 0,53.917 43.708,97.625 97.625,97.625 C -43.708,97.625 0,53.917 0,0"
             style="fill:#b71c2d;fill-opacity:1;fill-rule:nonzero;stroke:none"
             id="path20" /></g><g
           id="g22"
           transform="translate(2.8745,93.6245)"><path
             d="m 0,0 1.25,8.75 c 1.2,22 8.99,42.686 23.75,59.125 17.94,20.541 41.476,33.561 68.715,33.811 -8.48,30.469 -16.9,60.96 -25.33,91.449 7.74,-0.01 15.49,-0.02 23.23,0 0.02,12.08 0,24.16 0.01,36.24 h 6.25 c 0.011,-12.08 -0.01,-24.16 0.011,-36.24 7.729,-0.03 15.46,0.011 23.189,-0.02 -8.399,-30.49 -16.88,-60.949 -25.279,-91.429 21.189,-0.29 41.014,-9.816 57.704,-22.936 17.24,-13.36 28.92,-30.77 34,-52 5.26,-21.5 1.99,-43.14 -7.5,-63.149 C 170.64,-56.439 157.059,-71.89 137.148,-81.5 125.329,-87.36 112.13,-89.15 99,-90 l -8.25,-0.25 C 66.59,-89.18 43.79,-78.19 26.75,-61 9.55,-43.96 1.08,-24.17 0,0"
             style="fill:#b71c2d;fill-opacity:1;fill-rule:nonzero;stroke:none"
             id="path24" /></g><g
           id="g26"
           transform="translate(6.7998,87.6197)"><path
             d="M 0,0 C -2.28,19.971 2.4,40.62 12.94,57.721 23.18,74.5 39.01,87.75 57.28,94.98 c 17.33,6.88 36.78,8.27 54.9,3.84 22.05,-5.25 41.92,-19.09 54.47,-37.969 11.91,-17.58 17.37,-39.431 15,-60.54 C 179.371,-22.21 168.18,-43.64 151.161,-58.54 137.02,-71.06 118.89,-79.029 100.09,-80.89 77.95,-83.26 55.02,-77.05 37.09,-63.85 16.52,-49 2.65,-25.26 0,0"
             style="fill:#ffffff;fill-opacity:1;fill-rule:nonzero;stroke:none"
             id="path28" /></g><g
           id="g30"
           transform="translate(34.9034,129.4878)"><path
             d="M 0,0 C 9.2,8.75 22.88,11.62 35.14,9.21 46.74,7.1 55.97,-2.45 58.88,-13.71 55.27,-14.61 51.65,-15.48 48.02,-16.271 45.96,-9.28 41.32,-2.48 33.98,-0.42 25.4,1.779 15.26,0.52 8.67,-5.82 2.92,-10.971 0.89,-18.86 0.02,-26.25 c -0.63,-9.221 0.09,-19.021 4.89,-27.16 7.57,-12.481 27.48,-14.861 37.56,-4.17 3.7,3.72 5.57,8.8 6.8,13.8 3.64,-0.941 7.29,-1.85 10.95,-2.741 -2.12,-8.509 -6.57,-16.839 -14.08,-21.729 -8.98,-6.08 -20.58,-6.561 -30.89,-4.32 -8.59,1.74 -16.08,7.53 -20.33,15.139 -4.59,8.231 -6.66,17.781 -6.32,27.17 C -11.58,-19.28 -8,-7.79 0,0"
             style="fill:#b71c2d;fill-opacity:1;fill-rule:nonzero;stroke:none"
             id="path32" /></g><g
           id="g34"
           transform="translate(108.273,138.2173)"><path
             d="m 0,0 c 3.66,0.021 7.33,0.01 11,0 v -33.229 c 13.91,-0.021 27.83,-0.011 41.75,-0.011 0.011,11.091 -0.01,22.171 0,33.25 3.591,0 7.171,0.011 10.761,-0.01 -0.011,-26.99 -0.011,-53.99 0,-80.979 -3.59,-0.021 -7.17,-0.011 -10.761,-0.011 -0.01,12.671 0.011,25.33 0,38 -13.92,0 -27.84,0.02 -41.76,-0.01 C 11,-55.66 11,-68.319 11,-80.979 7.33,-80.99 3.66,-81 -0.01,-80.97 0.011,-53.979 0,-26.99 0,0"
             style="fill:#b71c2d;fill-opacity:1;fill-rule:nonzero;stroke:none"
             id="path36" /></g></g></g></g></svg>
