<?xml version="1.0" encoding="UTF-8" standalone="no"?>
<!-- Created with Inkscape (http://www.inkscape.org/) -->

<svg
   version="1.1"
   id="svg2"
   xml:space="preserve"
   width="446"
   height="260.328"
   viewBox="0 0 446 260.328"
   xmlns="http://www.w3.org/2000/svg"
   xmlns:svg="http://www.w3.org/2000/svg"><defs
     id="defs6"><clipPath
       clipPathUnits="userSpaceOnUse"
       id="clipPath16"><path
         d="M 0,195.246 H 334.5 V 0 H 0 Z"
         id="path14" /></clipPath></defs><g
     id="g8"
     transform="matrix(1.3333333,0,0,-1.3333333,0,260.328)"><g
       id="g10"><g
         id="g12"
         clip-path="url(#clipPath16)"><g
           id="g18"
           transform="translate(264.8564,97.6229)"><path
             d="m 0,0 c 0,-53.916 -43.708,-97.623 -97.624,-97.623 -53.915,0 -97.623,43.707 -97.623,97.623 0,53.916 43.708,97.623 97.623,97.623 C -43.708,97.623 0,53.916 0,0"
             style="fill:#b71c2d;fill-opacity:1;fill-rule:nonzero;stroke:none"
             id="path20" /></g><g
           id="g22"
           transform="translate(164.25,193.246)"><path
             d="m 0,0 8,-0.5 c 24.2,-1.09 48,-13.69 65,-31 17.47,-17.22 24.18,-36.534 25,-61.004 23.22,-0.03 49.03,0.024 72.25,-0.006 -0.01,-2.08 -0.01,-4.16 -0.02,-6.25 -23.21,0.02 -48.51,0.022 -71.73,0.012 -0.72,-19.67 -7.47,-38.682 -19.25,-54.502 -13.2,-17.92 -34.14,-30.32 -55.75,-35.75 -21.18,-5.4 -39.56,-2.24 -59.5,6.75 -22.09,9.81 -37.74,26.29 -47.25,48.51 -4.87,11.25 -8.03,22.76 -8.5,34.99 h -72.5 v 6.25 c 23.2,0.03 48.8,-0.124 72,-0.004 0.66,27.03 15.64,52.524 36.25,70.004 16.32,14.21 34.44,21.37 56,22.5"
             style="fill:#b71c2d;fill-opacity:1;fill-rule:nonzero;stroke:none"
             id="path24" /></g><g
           id="g26"
           transform="translate(134.9399,183.1059)"><path
             d="M 0,0 C 19.43,7.42 41.44,7.85 61.14,1.17 81.15,-5.39 98.53,-19.29 109.71,-37.09 83.88,-51.99 58.06,-66.92 32.22,-81.81 6.41,-66.9 -19.42,-52.01 -45.22,-37.08 -34.74,-20.21 -18.57,-7 0,0"
             style="fill:#ffffff;fill-opacity:1;fill-rule:nonzero;stroke:none"
             id="path28" /></g><g
           id="g30"
           transform="translate(150.5098,173.996)"><path
             d="M 0,0 C 10.75,-0.01 21.49,0.01 32.24,0 V -5.5 C 23.57,-5.51 14.91,-5.49 6.25,-5.51 6.23,-9.92 6.24,-14.33 6.24,-18.74 c 8.09,-0.02 16.17,0 24.25,-0.01 V -24 c -8.08,-0.01 -16.16,0 -24.24,0 -0.02,-4.91 -0.01,-9.83 -0.01,-14.74 9,-0.03 18,0.01 27,-0.02 0,-1.82 0,-3.65 0.01,-5.47 C 22.16,-44.27 11.08,-44.25 0,-44.24 -0.01,-29.5 -0.02,-14.75 0,0"
             style="fill:#b71c2d;fill-opacity:1;fill-rule:nonzero;stroke:none"
             id="path32" /></g><g
           id="g34"
           transform="translate(75.8701,100.7362)"><path
             d="M 0,0 C 0.49,15.19 4.85,30.22 12.61,43.28 12.64,28.86 12.64,14.43 12.62,0.01 8.41,0.01 4.21,0.02 0,0"
             style="fill:#ffffff;fill-opacity:1;fill-rule:nonzero;stroke:none"
             id="path36" /></g><g
           id="g38"
           transform="translate(245.7598,144.1762)"><path
             d="M 0,0 C 7.86,-13.09 12.13,-28.18 12.8,-43.41 8.53,-43.45 4.26,-43.43 0,-43.42 -0.01,-28.95 -0.02,-14.47 0,0"
             style="fill:#ffffff;fill-opacity:1;fill-rule:nonzero;stroke:none"
             id="path40" /></g><g
           id="g42"
           transform="translate(94.75,135.766)"><path
             d="M 0,0 C 20.22,-11.66 40.45,-23.29 60.62,-35.03 40.41,-35 20.21,-35.04 0,-35.01 Z"
             style="fill:#ffffff;fill-opacity:1;fill-rule:nonzero;stroke:none"
             id="path44" /></g><g
           id="g46"
           transform="translate(178.96,100.766)"><path
             d="M 0,0 C 20.18,11.67 40.36,23.31 60.55,34.96 60.53,23.3 60.55,11.65 60.54,-0.01 40.36,-0.02 20.18,-0.04 0,0"
             style="fill:#ffffff;fill-opacity:1;fill-rule:nonzero;stroke:none"
             id="path48" /></g><g
           id="g50"
           transform="translate(75.98,94.496)"><path
             d="M 0,0 H 12.5 C 12.52,-14.38 12.55,-28.76 12.49,-43.14 4.78,-30.14 0.27,-15.13 0,0"
             style="fill:#ffffff;fill-opacity:1;fill-rule:nonzero;stroke:none"
             id="path52" /></g><g
           id="g54"
           transform="translate(94.7598,94.4862)"><path
             d="M 0,0 C 20.19,0.01 40.39,0.02 60.58,0 40.4,-11.69 20.21,-23.38 -0.02,-34.98 0.01,-23.32 -0.03,-11.66 0,0"
             style="fill:#ffffff;fill-opacity:1;fill-rule:nonzero;stroke:none"
             id="path56" /></g><g
           id="g58"
           transform="translate(179.0195,94.4765)"><path
             d="M 0,0 C 20.16,0.039 40.32,0.01 60.471,0.02 60.511,-11.641 60.44,-23.29 60.5,-34.94 40.33,-23.311 20.15,-11.681 0,0"
             style="fill:#ffffff;fill-opacity:1;fill-rule:nonzero;stroke:none"
             id="path60" /></g><g
           id="g62"
           transform="translate(245.7598,94.4862)"><path
             d="M 0,0 C 4.25,0.02 8.51,0.01 12.771,0 12.12,-15.19 7.9,-30.311 -0.01,-43.34 0,-28.891 -0.02,-14.44 0,0"
             style="fill:#ffffff;fill-opacity:1;fill-rule:nonzero;stroke:none"
             id="path64" /></g><g
           id="g66"
           transform="translate(89.6899,49.246)"><path
             d="M 0,0 C 25.85,14.87 51.64,29.84 77.49,44.7 103.32,29.82 129.14,14.91 154.94,-0.02 144.47,-16.71 128.541,-29.94 110.1,-36.94 91.13,-44.29 69.68,-44.93 50.27,-38.83 29.59,-32.42 11.46,-18.36 0,0"
             style="fill:#ffffff;fill-opacity:1;fill-rule:nonzero;stroke:none"
             id="path68" /></g><g
           id="g70"
           transform="translate(164.2598,65.996)"><path
             d="M 0,0 H 5.98 C 6,-14.75 5.99,-29.5 5.99,-44.24 c -2.01,-0.01 -4.01,-0.01 -6,0 C 0,-29.49 -0.02,-14.75 0,0"
             style="fill:#b71c2d;fill-opacity:1;fill-rule:nonzero;stroke:none"
             id="path72" /></g></g></g></g></svg>
