<?xml version="1.0" encoding="UTF-8" standalone="no"?>
<!-- Created with Inkscape (http://www.inkscape.org/) -->

<svg
   version="1.1"
   id="svg2"
   xml:space="preserve"
   width="260.336"
   height="430.66666"
   viewBox="0 0 260.336 430.66666"
   xmlns="http://www.w3.org/2000/svg"
   xmlns:svg="http://www.w3.org/2000/svg"><defs
     id="defs6"><clipPath
       clipPathUnits="userSpaceOnUse"
       id="clipPath16"><path
         d="M 0,323 H 195.252 V 0 H 0 Z"
         id="path14" /></clipPath></defs><g
     id="g8"
     transform="matrix(1.3333333,0,0,-1.3333333,0,430.66667)"><g
       id="g10"><g
         id="g12"
         clip-path="url(#clipPath16)"><g
           id="g18"
           transform="translate(195.2518,225.3743)"><path
             d="m 0,0 c 0,-53.917 -43.709,-97.625 -97.626,-97.625 -53.917,0 -97.626,43.708 -97.626,97.625 0,53.917 43.709,97.626 97.626,97.626 C -43.709,97.626 0,53.917 0,0"
             style="fill:#b71c2d;fill-opacity:1;fill-rule:nonzero;stroke:none"
             id="path20" /></g><g
           id="g22"
           transform="translate(192.6258,229.3758)"><path
             d="m 0,0 -0.25,-8.75 c -1.19,-21.8 -10.24,-42.756 -24.75,-59.126 -17.94,-20.819 -41.515,-33.56 -68.964,-33.81 8.48,-30.47 16.9,-60.96 25.33,-91.45 -7.74,0.01 -15.49,0.02 -23.23,0 -0.02,-12.08 -0.01,-24.16 -0.01,-36.24 h -6.25 c 0,12.08 0.01,24.16 -0.01,36.24 -7.73,0.031 -15.46,-0.01 -23.19,0.02 8.4,30.48 16.87,60.94 25.29,91.421 -21.19,0.309 -41.026,9.585 -57.716,22.695 -17.45,13.52 -27.654,29.97 -32.614,51.5 -5.17,21.85 -2.626,45.28 7.364,65.41 11.82,24.29 31.03,42.017 57,49.477 7.4,2.21 15.07,3.523 22.75,4.113 L -91,91.25 C -66.83,90.18 -47.625,84.183 -30.585,66.973 -13.396,49.942 -1.08,24.15 0,0"
             style="fill:#b71c2d;fill-opacity:1;fill-rule:nonzero;stroke:none"
             id="path24" /></g><g
           id="g26"
           transform="translate(188.452,235.3499)"><path
             d="m 0,0 c 2.27,-19.94 -2.391,-40.55 -12.91,-57.63 -9.62,-15.77 -24.151,-28.47 -41.05,-35.91 -17.86,-7.98 -38.331,-9.91 -57.38,-5.45 -22.38,5.1 -42.6,19.05 -55.31,38.17 -11.911,17.57 -17.36,39.41 -15,60.51 2.279,22.56 13.49,44.01 30.54,58.92 14.39,12.72 32.88,20.73 52.009,22.4 C -76.74,83.17 -53.69,76.56 -35.83,62.95 -15.931,48.05 -2.591,24.74 0,0"
             style="fill:#ffffff;fill-opacity:1;fill-rule:nonzero;stroke:none"
             id="path28" /></g><g
           id="g30"
           transform="translate(38.1902,258.8255)"><path
             d="m 0,0 c 10.09,8.23 24.44,10.43 36.79,6.71 10.08,-3.1 17.69,-11.95 20.23,-22.06 -3.61,-0.82 -7.21,-1.7 -10.83,-2.51 -2,6.86 -6.45,13.55 -13.6,15.72 -8.78,2.5 -19.26,1.08 -25.97,-5.5 -5.27,-4.9 -7.33,-12.17 -8.27,-19.09 -0.91,-9.51 -0.17,-19.66 4.66,-28.12 7.45,-12.46 27.11,-15.01 37.34,-4.63 3.86,3.76 5.94,8.95 7.08,14.13 3.64,-0.94 7.28,-1.86 10.93,-2.72 -2.02,-8.96 -7.05,-17.63 -15.08,-22.43 -8.87,-5.48 -20,-5.79 -29.95,-3.63 -8.2,1.76 -15.43,7.09 -19.71,14.27 -6.41,10.79 -7.94,23.86 -6.26,36.13 C -11.22,-14.74 -7.15,-5.84 0,0"
             style="fill:#b71c2d;fill-opacity:1;fill-rule:nonzero;stroke:none"
             id="path32" /></g><g
           id="g34"
           transform="translate(116.8103,261.2254)"><path
             d="m 0,0 c 6.8,5.19 15.78,6.43 24.11,5.94 7.52,-0.55 15.51,-2.74 20.77,-8.47 4.05,-4.25 5.98,-10.07 6.36,-15.85 -3.54,-0.22 -7.07,-0.52 -10.61,-0.69 -0.51,4.8 -2.59,9.76 -6.81,12.42 -5.18,3.24 -11.57,3.2 -17.46,2.75 -4.79,-0.43 -9.91,-2.41 -12.39,-6.79 -2.741,-4.41 -1.13,-10.99 3.65,-13.25 12.09,-5.78 26.73,-4.98 37.84,-13 8.59,-5.97 10.35,-18.66 5.18,-27.41 -4.18,-7.88 -13.04,-12.02 -21.58,-13.06 -9.28,-0.89 -19.25,-0.13 -27.47,4.66 -7.91,4.59 -12.45,13.6 -12.72,22.6 3.48,0.28 6.96,0.55 10.43,0.92 0.59,-5.47 2.83,-11.19 7.679,-14.22 8.101,-5.17 18.821,-5.85 27.67,-2.27 5.511,2.06 9.58,8.13 8.031,14.06 -1.08,4.76 -5.64,7.47 -9.951,8.91 -8.5,2.78 -17.419,4.12 -25.83,7.2 C 1.25,-33.43 -4.18,-29.58 -6.5,-23.81 -9.851,-15.59 -7.09,-5.36 0,0"
             style="fill:#b71c2d;fill-opacity:1;fill-rule:nonzero;stroke:none"
             id="path36" /></g></g></g></g></svg>
