<?xml version="1.0" encoding="UTF-8" standalone="no"?>
<!-- Created with Inkscape (http://www.inkscape.org/) -->

<svg
   version="1.1"
   id="svg2"
   xml:space="preserve"
   width="373"
   height="260.38531"
   viewBox="0 0 373 260.38531"
   xmlns="http://www.w3.org/2000/svg"
   xmlns:svg="http://www.w3.org/2000/svg"><defs
     id="defs6"><clipPath
       clipPathUnits="userSpaceOnUse"
       id="clipPath16"><path
         d="M 0,195.289 H 279.75 V 0 H 0 Z"
         id="path14" /></clipPath></defs><g
     id="g8"
     transform="matrix(1.3333333,0,0,-1.3333333,0,260.38533)"><g
       id="g10"><g
         id="g12"
         clip-path="url(#clipPath16)"><g
           id="g18"
           transform="translate(44.54,195.289)"><path
             d="m 0,0 h 190.77 c 1.45,-0.82 2.48,-2.26 2.19,-4 0,-30.17 -0.01,-60.33 0,-90.5 14.08,-0.01 28.16,0 42.25,0 -0.01,-2.08 -0.01,-4.16 0,-6.25 -14.08,0 -28.16,0.01 -42.24,0 -0.04,-30.42 0.02,-60.84 -0.03,-91.26 0.12,-1.85 -1.6,-3.41 -3.42,-3.23 -62.68,-0.02 -125.36,-0.02 -188.04,0 -1.95,-0.35 -3.96,1.22 -3.76,3.25 -0.03,30.41 0.01,60.83 -0.01,91.24 -14.09,0.01 -28.17,0 -42.25,0 v 6.25 c 14.08,0.01 28.17,-0.02 42.25,0.01 0.01,30.49 -0.02,60.98 0.01,91.46 C -2.43,-1.57 -1.2,-0.54 0,0"
             style="fill:#0a0f0c;fill-opacity:1;fill-rule:nonzero;stroke:none"
             id="path20" /></g><g
           id="g22"
           transform="translate(48.5,189.0293)"><path
             d="m 0,0 c 60.9,0.03 121.8,-0.03 182.7,0.03 0.12,-60.92 0.02,-121.841 0.05,-182.77 -60.93,0.019 -121.85,-0.05 -182.77,0.04 C 0.03,-121.8 -0.01,-60.9 0,0"
             style="fill:#ffffff;fill-opacity:1;fill-rule:nonzero;stroke:none"
             id="path24" /></g><g
           id="g26"
           transform="translate(137.3398,142.8691)"><path
             d="m 0,0 c 4.311,0.98 9.13,-0.78 11.5,-4.58 18,-27.07 36.101,-54.06 54.05,-81.16 2.53,-3.031 -2.63,-6.87 -4.909,-3.84 C 42.37,-62.45 24.36,-35.13 6.13,-7.97 c -1.55,2.51 -5.67,2.65 -7.18,0.01 -18.03,-26.87 -35.91,-53.851 -53.88,-80.76 -0.96,-2.36 -4.74,-2.65 -5.85,-0.29 -0.84,1.34 -0.15,2.94 0.7,4.08 17.73,26.59 35.47,53.18 53.18,79.78 1.6,2.46 3.94,4.57 6.9,5.15"
             style="fill:#0a0f0c;fill-opacity:1;fill-rule:nonzero;stroke:none"
             id="path28" /></g></g></g></g></svg>
