<?xml version="1.0" encoding="UTF-8" standalone="no"?>
<!-- Created with Inkscape (http://www.inkscape.org/) -->

<svg
   version="1.1"
   id="svg2"
   xml:space="preserve"
   width="373"
   height="260.37601"
   viewBox="0 0 373 260.37601"
   xmlns="http://www.w3.org/2000/svg"
   xmlns:svg="http://www.w3.org/2000/svg"><defs
     id="defs6"><clipPath
       clipPathUnits="userSpaceOnUse"
       id="clipPath16"><path
         d="M 0,195.282 H 279.75 V 0 H 0 Z"
         id="path14" /></clipPath></defs><g
     id="g8"
     transform="matrix(1.3333333,0,0,-1.3333333,0,260.376)"><g
       id="g10"><g
         id="g12"
         clip-path="url(#clipPath16)"><g
           id="g18"
           transform="translate(44.6299,195.2816)"><path
             d="m 0,0 h 190.73 c 1.41,-0.86 2.43,-2.3 2.14,-4.02 0,-30.16 -0.01,-60.32 0,-90.48 14.08,-0.01 28.17,0 42.25,0 -0.01,-2.08 -0.01,-4.16 0,-6.25 -14.08,0 -28.16,0.01 -42.25,0 -0.019,-30.4 0.02,-60.8 -0.01,-91.19 0.13,-1.87 -1.57,-3.48 -3.42,-3.3 -62.72,-0.02 -125.44,-0.02 -188.16,0 -1.9,-0.32 -3.81,1.25 -3.65,3.21 -0.03,30.42 0.01,60.85 -0.01,91.28 -14.09,0.01 -28.17,0 -42.25,0 v 6.25 c 14.08,0 28.17,-0.01 42.25,0.01 C -2.37,-64 -2.4,-33.51 -2.36,-3.02 -2.5,-1.53 -1.27,-0.48 0,0"
             style="fill:#0a0f0c;fill-opacity:1;fill-rule:nonzero;stroke:none"
             id="path20" /></g><g
           id="g22"
           transform="translate(48.5,189.0218)"><path
             d="m 0,0 c 60.91,0.02 121.83,0.01 182.75,0.01 0.01,-60.92 0,-121.83 0,-182.75 -60.92,0 -121.84,-0.01 -182.76,0.01 C 0,-121.82 0,-60.91 0,0"
             style="fill:#ffffff;fill-opacity:1;fill-rule:nonzero;stroke:none"
             id="path24" /></g><g
           id="g26"
           transform="translate(136.75,167.7718)"><path
             d="m 0,0 c 2.08,0.01 4.16,0.01 6.24,0.01 0.04,-39.19 -0.02,-78.38 0.03,-117.58 6.91,-1.84 10.53,-10.531 6.88,-16.71 -3.52,-7.12 -14.64,-7.901 -19.18,-1.42 -4.96,6.07 -1.56,16.21 6.02,18.16 0.02,39.18 0,78.36 0.01,117.54"
             style="fill:#0a0f0c;fill-opacity:1;fill-rule:nonzero;stroke:none"
             id="path28" /></g></g></g></g></svg>
