<?xml version="1.0" encoding="UTF-8" standalone="no"?>
<!-- Created with Inkscape (http://www.inkscape.org/) -->

<svg
   version="1.1"
   id="svg2"
   xml:space="preserve"
   width="260.39468"
   height="260.388"
   viewBox="0 0 260.39468 260.388"
   xmlns="http://www.w3.org/2000/svg"
   xmlns:svg="http://www.w3.org/2000/svg"><defs
     id="defs6"><clipPath
       clipPathUnits="userSpaceOnUse"
       id="clipPath18"><path
         d="M 0,195.291 H 195.296 V 0 H 0 Z"
         id="path16" /></clipPath></defs><g
     id="g8"
     transform="matrix(1.3333333,0,0,-1.3333333,0,260.388)"><path
       d="M 0,0 H 195.291 V 195.291 H 0 Z"
       style="fill:#040606;fill-opacity:1;fill-rule:nonzero;stroke:none"
       id="path10" /><g
       id="g12"><g
         id="g14"
         clip-path="url(#clipPath18)"><g
           id="g20"
           transform="translate(1.6299,195.2911)"><path
             d="m 0,0 h 191.63 c 1.19,-1 2.3,-2.23 1.98,-3.92 0.03,-62.39 0,-124.78 0.02,-187.16 0.141,-1.66 -0.51,-3.74 -2.4,-4.03 -2.959,-0.33 -5.959,-0.1 -8.93,-0.14 -60,0.01 -120,-0.01 -180,0.01 -1.69,-0.29 -2.96,0.77 -3.93,2 V -1.71 C -0.28,-1.9 0.27,-1.33 0,0"
             style="fill:#0a0f0c;fill-opacity:1;fill-rule:nonzero;stroke:none"
             id="path22" /></g><g
           id="g24"
           transform="translate(6.25,189.0411)"><path
             d="m 0,0 c 60.92,0 121.83,-0.01 182.74,0 0.02,-60.91 0.01,-121.83 0.01,-182.75 -60.92,0 -121.84,-0.01 -182.75,0 C 0.01,-121.83 0,-60.92 0,0"
             style="fill:#ffffff;fill-opacity:1;fill-rule:nonzero;stroke:none"
             id="path26" /></g><g
           id="g28"
           transform="translate(122.3896,172.1309)"><path
             d="m 0,0 c 3.011,2.22 6.83,-2.63 3.801,-4.99 -15.561,-14.14 -31.2,-28.2 -46.76,-42.34 -2.081,-1.76 -1.851,-5.18 0.389,-6.72 13.25,-12.05 26.57,-24.05 39.86,-36.08 3.57,-2.99 4.9,-8.38 2.92,-12.64 -1.08,-2.64 -3.47,-4.36 -5.5,-6.23 -14.54,-13.1 -29.03,-26.28 -43.57,-39.39 -2.24,-2.62 -6.82,0.21 -5.329,3.37 1.54,2.11 3.699,3.64 5.579,5.42 14,12.69 28.05,25.31 42.001,38.04 2.309,1.81 1.62,5.26 -0.55,6.86 -13.28,12.07 -26.641,24.08 -39.921,36.16 -4.629,3.88 -4.77,11.63 -0.37,15.74 C -31.61,-28.57 -15.939,-14.12 0,0"
             style="fill:#0a0f0c;fill-opacity:1;fill-rule:nonzero;stroke:none"
             id="path30" /></g></g></g></g></svg>
