<?xml version="1.0" encoding="UTF-8" standalone="no"?>
<!-- Created with Inkscape (http://www.inkscape.org/) -->

<svg
   version="1.1"
   id="svg2"
   xml:space="preserve"
   width="373"
   height="260.40668"
   viewBox="0 0 373 260.40668"
   xmlns="http://www.w3.org/2000/svg"
   xmlns:svg="http://www.w3.org/2000/svg"><defs
     id="defs6"><clipPath
       clipPathUnits="userSpaceOnUse"
       id="clipPath16"><path
         d="M 0,195.305 H 279.75 V 0 H 0 Z"
         id="path14" /></clipPath></defs><g
     id="g8"
     transform="matrix(1.3333333,0,0,-1.3333333,0,260.40667)"><g
       id="g10"><g
         id="g12"
         clip-path="url(#clipPath16)"><g
           id="g18"
           transform="translate(44.1699,195.3048)"><path
             d="m 0,0 h 191.19 c 1.29,-0.94 2.43,-2.25 2.13,-3.97 0.02,-30.18 0,-60.35 0.01,-90.53 h 42.25 v -6.25 h -42.25 c -0.04,-30.41 0.06,-60.83 -0.04,-91.24 0.2,-2.44 -2.33,-3.56 -4.41,-3.27 -62.359,0.03 -124.72,-0.02 -187.08,0.03 -1.92,-0.32 -3.9,1.21 -3.68,3.23 -0.1,30.41 -0.01,60.83 -0.04,91.25 h -42.25 v 6.25 c 14.08,0 28.17,-0.01 42.25,0 0,30.19 0.01,60.37 -0.01,90.55 C -2.21,-2.29 -1.25,-0.96 0,0"
             style="fill:#0a0f0c;fill-opacity:1;fill-rule:nonzero;stroke:none"
             id="path20" /></g><g
           id="g22"
           transform="translate(48.5,189.0548)"><path
             d="m 0,0 c 60.92,0 121.83,0.01 182.75,-0.01 v -182.74 c -60.92,0.01 -121.84,-0.01 -182.76,0.01 C 0.01,-121.83 0,-60.92 0,0"
             style="fill:#ffffff;fill-opacity:1;fill-rule:nonzero;stroke:none"
             id="path24" /></g><g
           id="g26"
           transform="translate(95.1099,111.1647)"><path
             d="M 0,0 C 5.15,8.78 15.92,13.74 25.94,12.05 34.81,10.9 42.49,4.58 46.03,-3.53 60.7,0.47 75.3,4.69 89.99,8.6 93.2,8.86 94.541,3.92 91.581,2.65 79.56,-0.89 67.45,-4.08 55.4,-7.49 c -2.75,-0.84 -5.69,-1.23 -8.21,-2.69 14.58,-0.48 29.19,0.06 43.77,-0.27 3.13,-0.52 2.92,-5.88 -0.24,-6.08 -14.56,-0.34 -29.15,0.27 -43.71,-0.3 14.65,-4.81 29.73,-8.25 44.48,-12.74 3.06,-1.139 1.75,-6.49 -1.58,-5.9 -14.68,3.79 -29.23,8.08 -43.86,12.08 C 42.99,-30.27 37.12,-35.95 29.83,-38.1 20.25,-41.26 9,-38.08 2.49,-30.37 -4.78,-22.18 -5.81,-9.27 0,0"
             style="fill:#0a0f0c;fill-opacity:1;fill-rule:nonzero;stroke:none"
             id="path28" /></g><g
           id="g30"
           transform="translate(112.46,116.6549)"><path
             d="m 0,0 c 10.04,2.84 21.28,-4.1 23.64,-14.17 2.2,-7.78 -1.41,-16.64 -8.12,-21.03 -4.4,-2.89 -10,-4.12 -15.15,-2.79 -9.06,1.949 -16,11.05 -15.14,20.34 C -14.38,-9.37 -8,-1.95 0,0"
             style="fill:#ffffff;fill-opacity:1;fill-rule:nonzero;stroke:none"
             id="path32" /></g></g></g></g></svg>
