<?xml version="1.0" encoding="UTF-8" standalone="no"?>
<!-- Created with Inkscape (http://www.inkscape.org/) -->

<svg
   version="1.1"
   id="svg2"
   xml:space="preserve"
   width="260.40933"
   height="260.40668"
   viewBox="0 0 260.40933 260.40668"
   xmlns="http://www.w3.org/2000/svg"
   xmlns:svg="http://www.w3.org/2000/svg"><defs
     id="defs6"><clipPath
       clipPathUnits="userSpaceOnUse"
       id="clipPath18"><path
         d="M 0,195.305 H 195.307 V 0 H 0 Z"
         id="path16" /></clipPath></defs><g
     id="g8"
     transform="matrix(1.3333333,0,0,-1.3333333,0,260.40667)"><path
       d="M 0,0 H 195.306 V 195.305 H 0 Z"
       style="fill:#040606;fill-opacity:1;fill-rule:nonzero;stroke:none"
       id="path10" /><g
       id="g12"><g
         id="g14"
         clip-path="url(#clipPath18)"><g
           id="g20"
           transform="translate(1.6602,195.3054)"><path
             d="m 0,0 h 191.57 c 1.26,-0.98 2.34,-2.27 2.02,-3.99 -0.02,-62.68 0.04,-125.36 -0.03,-188.03 0.169,-2.25 -2.17,-3.55 -4.161,-3.24 -62.369,0.03 -124.739,-0.01 -187.099,0.02 -1.72,-0.33 -2.99,0.76 -3.96,2.02 V -1.74 C -0.33,-1.89 0.22,-1.31 0,0"
             style="fill:#0a0f0c;fill-opacity:1;fill-rule:nonzero;stroke:none"
             id="path22" /></g><g
           id="g24"
           transform="translate(6.25,189.0554)"><path
             d="m 0,0 c 60.92,0 121.83,-0.01 182.75,0 0.01,-60.91 0,-121.83 0,-182.75 -60.92,0 -121.83,-0.01 -182.75,0 C 0.01,-121.83 0,-60.92 0,0"
             style="fill:#ffffff;fill-opacity:1;fill-rule:nonzero;stroke:none"
             id="path26" /></g><g
           id="g28"
           transform="translate(95.3701,142.9455)"><path
             d="m 0,0 c 4.36,0.86 9.1,-1 11.38,-4.89 17.98,-27.04 36.08,-54.01 54,-81.09 2.45,-3.27 -3.33,-6.78 -5.28,-3.32 -18.11,27 -36.03,54.13 -54.15,81.11 -1.64,2.88 -6.11,2.73 -7.57,-0.24 -17.92,-26.75 -35.73,-53.58 -53.6,-80.361 -0.93,-2.219 -4.41,-2.649 -5.68,-0.529 -1.18,1.41 -0.17,3.25 0.68,4.529 17.57,26.391 35.19,52.761 52.75,79.151 1.7,2.7 4.23,5.05 7.47,5.64"
             style="fill:#0a0f0c;fill-opacity:1;fill-rule:nonzero;stroke:none"
             id="path30" /></g></g></g></g></svg>
