<?xml version="1.0" encoding="UTF-8" standalone="no"?>
<!-- Created with Inkscape (http://www.inkscape.org/) -->

<svg
   version="1.1"
   id="svg2"
   xml:space="preserve"
   width="260.336"
   height="260.336"
   viewBox="0 0 260.336 260.336"
   xmlns="http://www.w3.org/2000/svg"
   xmlns:svg="http://www.w3.org/2000/svg"><defs
     id="defs6"><clipPath
       clipPathUnits="userSpaceOnUse"
       id="clipPath16"><path
         d="M 0,195.252 H 195.252 V 0 H 0 Z"
         id="path14" /></clipPath></defs><g
     id="g8"
     transform="matrix(1.3333333,0,0,-1.3333333,0,260.336)"><g
       id="g10"><g
         id="g12"
         clip-path="url(#clipPath16)"><g
           id="g18"
           transform="translate(0,195.2525)"><path
             d="m 0,0 h 195.25 c 0,-65.08 0.01,-130.16 -0.01,-195.24 -65.08,-0.02 -130.16,-0.01 -195.24,-0.01 z"
             style="fill:#b71c2d;fill-opacity:1;fill-rule:nonzero;stroke:none"
             id="path20" /></g><g
           id="g22"
           transform="translate(6.25,189.0025)"><path
             d="m 0,0 c 59.37,0.01 118.73,-0.01 178.1,0.01 -16.41,-16.47 -32.87,-32.89 -49.3,-49.33 -5.89,9.81 -17.01,15.09 -28.03,16.58 -12.94,1.83 -27.07,0.58 -38.18,-6.82 -12.45,-8.22 -16.69,-26.91 -8.03,-39.3 6.54,-9.45 18.11,-13.11 28.76,-15.69 -7.07,-7.62 -14.62,-14.79 -21.96,-22.15 -0.46,2.08 -0.88,4.17 -1.26,6.27 -4.81,-0.44 -9.62,-0.82 -14.42,-1.3 0.01,-5.83 1.51,-11.54 3.87,-16.84 -16.53,-16.5 -33,-33.06 -49.56,-49.52 0.02,59.36 0,118.72 0.01,178.09"
             style="fill:#ffffff;fill-opacity:1;fill-rule:nonzero;stroke:none"
             id="path24" /></g><g
           id="g26"
           transform="translate(137.9004,133.3726)"><path
             d="m 0,0 c 16.859,17.24 34.08,34.15 51.09,51.24 0.019,-59.45 0.01,-118.91 0.01,-178.36 -59.451,0 -118.911,-0.01 -178.36,0.01 16.179,16.22 32.409,32.39 48.59,48.61 7.96,-10.92 21.68,-15.68 34.74,-16.33 14.27,-1.33 30.2,1.55 40.49,12.269 10.259,10.341 12.11,28.361 2.919,39.951 -6.75,8.51 -17.509,12.02 -27.629,14.65 5.389,5.31 10.69,10.7 16.07,16.02 4.689,0.43 9.399,0.7 14.09,1.1 C 1.8,-7.16 1.3,-3.48 0,0"
             style="fill:#ffffff;fill-opacity:1;fill-rule:nonzero;stroke:none"
             id="path28" /></g><g
           id="g30"
           transform="translate(79.3799,139.6924)"><path
             d="m 0,0 c 5.65,3.19 12.31,3.7 18.66,3.59 6.78,0.05 14.04,-1.2 19.39,-5.66 2.971,-2.41 4.9,-5.81 6.24,-9.34 -7.03,-7.01 -14.06,-14.03 -21.07,-21.08 -8.01,1.82 -16.17,3.45 -23.65,6.93 -4.29,1.94 -7.62,6.23 -7.71,11.03 C -8.8,-8.56 -5.04,-2.88 0,0"
             style="fill:#ffffff;fill-opacity:1;fill-rule:nonzero;stroke:none"
             id="path32" /></g><g
           id="g34"
           transform="translate(70.23,65.9224)"><path
             d="M 0,0 C 8.97,8.83 17.8,17.79 26.73,26.66 35.14,24.29 44.19,23.03 51.6,18.1 57.31,14.43 59.74,6.69 57.34,0.37 55.17,-6.21 48.81,-10.36 42.39,-12.13 34.2,-14.38 25.36,-14.25 17.17,-12.07 10.39,-10.04 3.59,-6.35 0,0"
             style="fill:#ffffff;fill-opacity:1;fill-rule:nonzero;stroke:none"
             id="path36" /></g></g></g></g></svg>
