<?xml version="1.0" encoding="UTF-8" standalone="no"?>
<!-- Created with Inkscape (http://www.inkscape.org/) -->

<svg
   version="1.1"
   id="svg2"
   xml:space="preserve"
   width="260.33334"
   height="260.33868"
   viewBox="0 0 260.33334 260.33868"
   xmlns="http://www.w3.org/2000/svg"
   xmlns:svg="http://www.w3.org/2000/svg"><defs
     id="defs6"><clipPath
       clipPathUnits="userSpaceOnUse"
       id="clipPath16"><path
         d="M 0,195.254 H 195.25 V 0 H 0 Z"
         id="path14" /></clipPath></defs><g
     id="g8"
     transform="matrix(1.3333333,0,0,-1.3333333,0,260.33867)"><g
       id="g10"><g
         id="g12"
         clip-path="url(#clipPath16)"><g
           id="g18"
           transform="translate(0,195.2544)"><path
             d="m 0,0 h 195.25 v -195.25 c -65.09,-0.01 -130.17,0 -195.25,0 z"
             style="fill:#0a0f0c;fill-opacity:1;fill-rule:nonzero;stroke:none"
             id="path20" /></g><g
           id="g22"
           transform="translate(6.25,189.0044)"><path
             d="m 0,0 c 60.92,0 121.83,-0.01 182.74,0 0.02,-60.91 0.01,-121.83 0.01,-182.75 -60.92,0 -121.84,-0.01 -182.75,0.01 C 0.01,-121.83 0,-60.92 0,0"
             style="fill:#ffffff;fill-opacity:1;fill-rule:nonzero;stroke:none"
             id="path24" /></g><g
           id="g26"
           transform="translate(25.3198,130.9444)"><path
             d="m 0,0 c 8.23,8.28 20.31,11.42 31.71,11.29 9,-0.24 18.48,-2.48 25.3,-8.68 4.96,-4.44 7.5,-10.8 9.24,-17.07 -3.51,-0.98 -7.02,-1.92 -10.52,-2.91 -1.77,5.42 -4.14,11.24 -9.24,14.34 C 38.12,2.32 27.2,2.36 18.05,-0.9 9.75,-3.88 3.81,-11.47 1.58,-19.84 c -2.67,-9.04 -2.52,-18.909 0.26,-27.9 2.31,-7.44 7.87,-13.84 15.16,-16.71 12.77,-5.68 28.15,-2.53 38.95,5.88 -0.04,5.29 -0.01,10.58 -0.02,15.88 H 30.68 v 10.25 c 12.25,0 24.5,-0.09 36.74,0.26 0.03,-10.74 0,-21.48 0.01,-32.22 -10.74,-8.83 -24.62,-14.32 -38.65,-13.36 -11.62,0.52 -23.5,5.051 -31.15,14.07 -7.25,8.56 -10.07,20.09 -9.94,31.12 C -11.94,-20.81 -8.26,-8.66 0,0"
             style="fill:#0a0f0c;fill-opacity:1;fill-rule:nonzero;stroke:none"
             id="path28" /></g><g
           id="g30"
           transform="translate(121.7998,134.5142)"><path
             d="m 0,0 c 8.67,6.28 19.84,8.66 30.4,7.36 6.5,-0.74 12.89,-3.21 17.86,-7.53 5.37,-4.44 8.72,-10.83 10.79,-17.39 -3.84,-0.94 -7.69,-1.79 -11.52,-2.74 -2.12,6.74 -6.179,13.51 -13.05,16.18 -10.04,3.8 -22.669,1.81 -30.08,-6.29 -5.54,-5.8 -7.32,-14.05 -8.089,-21.78 -0.521,-9.4 0.46,-19.36 5.339,-27.61 7.56,-12.309 26.22,-15.46 37.55,-6.61 5.31,4.07 8.22,10.471 9.58,16.881 3.89,-0.971 7.79,-1.95 11.69,-2.91 -2.199,-8.88 -6.81,-17.54 -14.52,-22.781 -9.71,-6.88 -22.5,-7.32 -33.769,-4.84 -9.381,2.04 -17.37,8.68 -21.761,17.13 -5.91,11.321 -7.44,24.64 -5.39,37.16 C -13.28,-15.8 -8.359,-5.99 0,0"
             style="fill:#0a0f0c;fill-opacity:1;fill-rule:nonzero;stroke:none"
             id="path32" /></g></g></g></g></svg>
