<?xml version="1.0" encoding="UTF-8" standalone="no"?>
<!-- Created with Inkscape (http://www.inkscape.org/) -->

<svg
   version="1.1"
   id="svg2"
   xml:space="preserve"
   width="260.33868"
   height="260.33868"
   viewBox="0 0 260.33868 260.33868"
   xmlns="http://www.w3.org/2000/svg"
   xmlns:svg="http://www.w3.org/2000/svg"><defs
     id="defs6"><clipPath
       clipPathUnits="userSpaceOnUse"
       id="clipPath16"><path
         d="M 0,195.254 H 195.254 V 0 H 0 Z"
         id="path14" /></clipPath></defs><g
     id="g8"
     transform="matrix(1.3333333,0,0,-1.3333333,0,260.33867)"><g
       id="g10"><g
         id="g12"
         clip-path="url(#clipPath16)"><g
           id="g18"
           transform="translate(0,195.2544)"><path
             d="m 0,0 h 195.25 c 0,-65.08 0.01,-130.16 0,-195.25 -65.09,-0.01 -130.17,0 -195.25,0 z"
             style="fill:#0a0f0c;fill-opacity:1;fill-rule:nonzero;stroke:none"
             id="path20" /></g><g
           id="g22"
           transform="translate(6.25,188.9947)"><path
             d="m 0,0 c 60.91,0.03 121.82,-0.01 182.73,0.02 0.04,-60.92 0.01,-121.84 0.02,-182.76 -60.92,0.01 -121.84,-0.02 -182.76,0.019 C 0.02,-121.811 0,-60.91 0,0"
             style="fill:#ffffff;fill-opacity:1;fill-rule:nonzero;stroke:none"
             id="path24" /></g><g
           id="g26"
           transform="translate(33.27,134.2144)"><path
             d="m 0,0 c 8.27,6.08 18.82,8.25 28.94,7.99 8.41,-0.36 17.11,-2.56 23.67,-8.07 5.32,-4.47 8.04,-11.15 9.86,-17.68 -3.47,-0.93 -6.95,-1.82 -10.37,-2.9 -1.81,4.55 -3.39,9.52 -7.31,12.77 -6.07,5.15 -14.57,6.58 -22.3,5.65 -7.68,-0.7 -15.26,-4.36 -19.8,-10.74 -6.56,-9.1 -7.72,-21.06 -6.13,-31.9 1.29,-9.55 7,-18.93 16.19,-22.63 12.9,-5.99 28.57,-2.81 39.53,5.75 -0.1,5.27 -0.02,10.531 -0.05,15.8 -8.42,0.01 -16.84,-0.019 -25.26,0.02 0.01,3.41 0.01,6.82 0.01,10.23 12.26,-0.18 24.5,0.31 36.75,0.25 -0.01,-10.74 0.01,-21.48 -0.01,-32.22 -10.9,-8.76 -24.77,-14.39 -38.92,-13.35 -12.74,0.66 -26,6.15 -33.24,17.08 -7.59,11.37 -9.14,25.971 -6.32,39.14 C -12.58,-15.32 -7.97,-5.93 0,0"
             style="fill:#0a0f0c;fill-opacity:1;fill-rule:nonzero;stroke:none"
             id="path28" /></g><g
           id="g30"
           transform="translate(113.75,140.7447)"><path
             d="m 0,0 c 20.75,0.01 41.5,0.01 62.25,0.01 v -10.5 c -16.92,-0.01 -33.84,0.02 -50.76,-0.02 0.02,-8.65 0.02,-17.31 0,-25.96 15.84,-0.05 31.68,0.01 47.52,-0.03 -0.02,-3.41 -0.02,-6.82 -0.01,-10.23 -15.83,-0.03 -31.66,0 -47.5,-0.01 0.03,-9.68 -0.07,-19.35 0.05,-29.03 17.56,0.07 35.12,-0.01 52.68,0.04 0.03,-3.5 0.03,-7.01 0,-10.52 -21.41,0.029 -42.82,0 -64.22,0.01 C -0.01,-57.49 0,-28.74 0,0"
             style="fill:#0a0f0c;fill-opacity:1;fill-rule:nonzero;stroke:none"
             id="path32" /></g></g></g></g></svg>
