<?xml version="1.0" encoding="UTF-8" standalone="no"?>
<!-- Created with Inkscape (http://www.inkscape.org/) -->

<svg
   version="1.1"
   id="svg2"
   xml:space="preserve"
   width="260.33868"
   height="260.33868"
   viewBox="0 0 260.33868 260.33868"
   xmlns="http://www.w3.org/2000/svg"
   xmlns:svg="http://www.w3.org/2000/svg"><defs
     id="defs6"><clipPath
       clipPathUnits="userSpaceOnUse"
       id="clipPath16"><path
         d="M 0,195.254 H 195.254 V 0 H 0 Z"
         id="path14" /></clipPath></defs><g
     id="g8"
     transform="matrix(1.3333333,0,0,-1.3333333,0,260.33867)"><g
       id="g10"><g
         id="g12"
         clip-path="url(#clipPath16)"><g
           id="g18"
           transform="translate(0,195.2544)"><path
             d="m 0,0 h 195.25 c 0,-65.08 0.01,-130.16 0,-195.25 -65.09,-0.01 -130.17,0 -195.25,0 z"
             style="fill:#0a0f0c;fill-opacity:1;fill-rule:nonzero;stroke:none"
             id="path20" /></g><g
           id="g22"
           transform="translate(6.25,189.0044)"><path
             d="m 0,0 c 60.92,0 121.83,-0.01 182.74,0 0.02,-60.91 0.01,-121.83 0.01,-182.75 -60.92,0 -121.84,-0.01 -182.75,0.01 C 0.01,-121.83 0,-60.92 0,0"
             style="fill:#ffffff;fill-opacity:1;fill-rule:nonzero;stroke:none"
             id="path24" /></g><g
           id="g26"
           transform="translate(29.6201,133.5245)"><path
             d="M 0,0 C 8.3,6.54 19.15,8.91 29.53,8.69 38.22,8.34 47.26,6.1 53.93,0.24 59,-4.21 61.55,-10.7 63.39,-17.03 c -3.54,-1 -7.09,-1.95 -10.62,-2.94 -1.56,5.42 -4.05,11.01 -8.93,14.22 -8.31,5.33 -19.11,5.61 -28.26,2.41 -6.7,-2.31 -12.11,-7.62 -15,-14.04 -4.22,-9.25 -4.63,-19.91 -2.54,-29.75 1.84,-8.56 7.54,-16.51 15.84,-19.78 12.84,-5.84 28.47,-2.72 39.3,5.88 -0.11,5.25 -0.03,10.5 -0.05,15.75 -8.42,0.03 -16.84,-0.01 -25.25,0.02 0,3.42 0,6.83 0.01,10.24 12.25,-0.03 24.5,-0.04 36.74,0.23 -0.01,-10.73 0.02,-21.45 -0.01,-32.18 C 53.92,-75.62 40.32,-81.2 26.41,-80.38 15.23,-79.94 3.8,-75.9 -4.03,-67.7 -13.84,-57 -16.65,-41.44 -14.49,-27.42 -12.76,-17.1 -8.31,-6.7 0,0"
             style="fill:#0a0f0c;fill-opacity:1;fill-rule:nonzero;stroke:none"
             id="path28" /></g><g
           id="g30"
           transform="translate(101.8604,140.7447)"><path
             d="m 0,0 c 4.22,0.01 8.449,0.02 12.68,-0.01 5.849,-16.66 11.889,-33.25 17.799,-49.89 3.071,-8.64 6.321,-17.23 8.851,-26.05 1.19,3.79 2.3,7.62 3.72,11.33 8,21.55 15.99,43.1 24.04,64.63 3.979,0 7.95,0.01 11.92,-0.01 C 67.76,-28.75 56.51,-57.5 45.25,-86.24 H 33.359 C 22.29,-57.471 11.06,-28.77 0,0"
             style="fill:#0a0f0c;fill-opacity:1;fill-rule:nonzero;stroke:none"
             id="path32" /></g></g></g></g></svg>
