<?xml version="1.0" encoding="UTF-8" standalone="no"?>
<!-- Created with Inkscape (http://www.inkscape.org/) -->

<svg
   version="1.1"
   id="svg2"
   xml:space="preserve"
   width="260.32932"
   height="165.66267"
   viewBox="0 0 260.32932 165.66267"
   xmlns="http://www.w3.org/2000/svg"
   xmlns:svg="http://www.w3.org/2000/svg"><defs
     id="defs6"><clipPath
       clipPathUnits="userSpaceOnUse"
       id="clipPath16"><path
         d="M 0,124.247 H 195.247 V 0 H 0 Z"
         id="path14" /></clipPath></defs><g
     id="g8"
     transform="matrix(1.3333333,0,0,-1.3333333,0,165.66267)"><g
       id="g10"><g
         id="g12"
         clip-path="url(#clipPath16)"><g
           id="g18"
           transform="translate(0,124.2465)"><path
             d="m 0,0 h 195.23 c 0.03,-41.41 0.01,-82.82 0.01,-124.23 -65.08,-0.03 -130.16,-0.01 -195.24,-0.01 z"
             style="fill:#0a0f0c;fill-opacity:1;fill-rule:nonzero;stroke:none"
             id="path20" /></g><g
           id="g22"
           transform="translate(6.2402,117.9965)"><path
             d="m 0,0 c 60.9,0.04 121.8,-0.06 182.7,0.06 0.21,-37.28 0.029,-74.55 0.079,-111.83 -60.929,0.01 -121.869,-0.08 -182.799,0.05 C 0.03,-74.48 -0.01,-37.24 0,0"
             style="fill:#ffffff;fill-opacity:1;fill-rule:nonzero;stroke:none"
             id="path24" /></g><g
           id="g26"
           transform="translate(89.71,88.6967)"><path
             d="m 0,0 c 2.75,0.1 5.5,0.09 8.25,0.16 -7.31,-17.94 -15.32,-35.61 -22.98,-53.41 -2.78,0.18 -5.7,-0.42 -8.39,0.29 -7.51,17.71 -15.45,35.26 -22.55,53.12 2.93,-0.12 5.88,0.03 8.81,-0.23 5.63,-15.53 12.56,-30.6 17.8,-46.26 C -12.68,-30.91 -6.32,-15.45 0,0"
             style="fill:#0a0f0c;fill-opacity:1;fill-rule:nonzero;stroke:none"
             id="path28" /></g><g
           id="g30"
           transform="translate(105,88.7563)"><path
             d="m 0,0 c 2.67,0.03 5.33,0.04 8,0.01 0,-7.24 -0.01,-14.48 0.01,-21.72 10.05,0 20.11,-0.01 30.16,0.01 0.02,7.19 0.09,14.37 -0.04,21.55 2.7,0.32 5.42,0.15 8.14,0.15 -0.07,-17.78 0.14,-35.56 -0.11,-53.34 -2.64,0.03 -5.29,0.04 -7.94,0.05 -0.06,8.32 0.01,16.641 -0.04,24.96 C 28.12,-28.29 18.06,-28.31 8,-28.319 7.97,-36.66 8.04,-45 7.97,-53.34 5.34,-53.29 2.7,-53.3 0.07,-53.37 -0.09,-35.58 0.05,-17.79 0,0"
             style="fill:#0a0f0c;fill-opacity:1;fill-rule:nonzero;stroke:none"
             id="path32" /></g></g></g></g></svg>
