<?xml version="1.0" encoding="UTF-8" standalone="no"?>
<!-- Created with Inkscape (http://www.inkscape.org/) -->

<svg
   version="1.1"
   id="svg2"
   xml:space="preserve"
   width="326.66666"
   height="69.333336"
   viewBox="0 0 326.66666 69.333336"
   xmlns="http://www.w3.org/2000/svg"
   xmlns:svg="http://www.w3.org/2000/svg"><defs
     id="defs6"><clipPath
       clipPathUnits="userSpaceOnUse"
       id="clipPath16"><path
         d="M 0,52 H 245 V 0 H 0 Z"
         id="path14" /></clipPath></defs><g
     id="g8"
     transform="matrix(1.3333333,0,0,-1.3333333,0,69.333333)"><g
       id="g10"><g
         id="g12"
         clip-path="url(#clipPath16)"><g
           id="g18"
           transform="translate(0,52)"><path
             d="m 0,0 h 245 v -50.45 c -2.74,0 -5.48,0.01 -8.22,0.03 -0.04,8.8 -0.08,17.59 0.01,26.39 -7.27,0.03 -14.53,0.04 -21.79,0.03 0.01,-8.81 -0.02,-17.62 0,-26.43 -2.74,-0.01 -5.48,-0.01 -8.22,0.01 -0.05,8.8 -0.08,17.59 0.01,26.39 -7.14,0.05 -14.28,0.05 -21.41,-0.04 0.17,-8.79 0.15,-17.59 0.02,-26.38 -2.73,0.01 -5.46,0.03 -8.18,0.08 0.08,8.79 0.04,17.58 0.01,26.37 L 156,-24 c 0.01,-8.81 -0.02,-17.62 0.01,-26.43 -2.75,-0.01 -5.49,-0.01 -8.23,0.01 -0.05,8.79 -0.07,17.59 0.01,26.39 -7.14,0.05 -14.28,0.05 -21.41,-0.04 0.17,-8.79 0.15,-17.59 0.01,-26.38 -2.72,0.01 -5.45,0.03 -8.18,0.08 0.09,8.79 0.05,17.58 0.02,26.37 L 97,-24 c 0.01,-8.81 -0.02,-17.62 0,-26.43 -2.74,-0.01 -5.48,-0.01 -8.22,0.01 -0.05,8.8 -0.08,17.59 0.01,26.39 -7.19,0.04 -14.39,0.04 -21.58,0 0.08,-8.8 0.06,-17.6 0.01,-26.39 -2.75,-0.02 -5.49,-0.02 -8.23,-0.01 0.03,8.81 0,17.62 0.01,26.43 H 37.77 c -0.03,-8.79 -0.07,-17.58 0.01,-26.37 -2.72,-0.05 -5.45,-0.07 -8.17,-0.08 -0.14,8.79 -0.16,17.59 0.01,26.38 -7.14,0.09 -14.27,0.09 -21.41,0.04 C 8.3,-32.82 8.26,-41.61 8.22,-50.4 5.48,-50.44 2.74,-50.47 0,-50.49 Z"
             style="fill:#b71c2d;fill-opacity:1;fill-rule:nonzero;stroke:none"
             id="path20" /></g></g></g></g></svg>
