<?xml version="1.0" encoding="UTF-8" standalone="no"?>
<!-- Created with Inkscape (http://www.inkscape.org/) -->

<svg
   version="1.1"
   id="svg2"
   xml:space="preserve"
   width="249.33333"
   height="155"
   viewBox="0 0 249.33333 155"
   xmlns="http://www.w3.org/2000/svg"
   xmlns:svg="http://www.w3.org/2000/svg"><defs
     id="defs6"><clipPath
       clipPathUnits="userSpaceOnUse"
       id="clipPath18"><path
         d="M 0,116.25 H 187 V 0 H 0 Z"
         id="path16" /></clipPath></defs><g
     id="g8"
     transform="matrix(1.3333333,0,0,-1.3333333,0,155)"><path
       d="M 0,0 H 187 V 116.25 H 0 Z"
       style="fill:#b71c2d;fill-opacity:1;fill-rule:nonzero;stroke:none"
       id="path10" /><g
       id="g12"><g
         id="g14"
         clip-path="url(#clipPath18)"><g
           id="g20"
           transform="translate(80.4502,82.9102)"><path
             d="m 0,0 c 6.43,3.83 14.97,3.75 21.49,0.2 4.86,-2.67 6.98,-8.26 7.44,-13.52 -2.14,-0.16 -4.27,-0.33 -6.4,-0.48 -0.49,4 -2.5,8.32 -6.711,9.47 -4.429,1.17 -9.949,1.21 -13.549,-2.03 -3.15,-2.79 -2.94,-8.55 0.91,-10.61 6.97,-3.58 15.53,-3.33 21.91,-8.2 7.5,-5.78 6.34,-18.641 -1.28,-23.82 -5.98,-4.1 -13.88,-4.01 -20.59,-1.97 -7.04,2.27 -11.5,9.7 -11.21,16.93 2,0.15 4.01,0.3 6.02,0.46 0.62,-2.65 1.02,-5.54 2.93,-7.64 4.26,-4.83 11.75,-5.55 17.51,-3.32 4.33,1.61 6.83,7.15 4.46,11.3 -1.96,3.33 -6.05,4.24 -9.48,5.3 -5.41,1.65 -11.52,2.42 -15.79,6.47 C -8.58,-15.76 -7.09,-4.34 0,0"
             style="fill:#ffffff;fill-opacity:1;fill-rule:nonzero;stroke:none"
             id="path22" /></g><g
           id="g24"
           transform="translate(121.8301,76.3701)"><path
             d="M 0,0 C 6.17,9.83 21.439,12.66 30.38,5.07 33.87,2.17 35.85,-2.04 37.09,-6.31 34.93,-6.9 32.76,-7.46 30.59,-8.03 29.31,-4.3 27.6,-0.27 23.92,1.66 17.67,4.87 9.08,2.61 5.49,-3.51 2.58,-8.5 1.95,-14.47 2.18,-20.14 c 0.28,-5.07 1.259,-10.45 4.58,-14.48 4.46,-5.46 13.46,-6.58 18.92,-1.981 3.259,2.601 4.6,6.731 5.66,10.601 2.19,-0.601 4.36,-1.21 6.54,-1.82 -1.36,-5.51 -3.8,-11.12 -8.59,-14.48 C 23.47,-46.48 15.52,-46.61 8.939,-44.29 1.47,-41.44 -2.48,-33.601 -3.85,-26.15 -5.42,-17.38 -4.98,-7.66 0,0"
             style="fill:#ffffff;fill-opacity:1;fill-rule:nonzero;stroke:none"
             id="path26" /></g><g
           id="g28"
           transform="translate(43.1602,84.77)"><path
             d="m 0,0 c 2.35,-0.02 4.7,-0.02 7.05,-0.02 6.54,-17.75 13.1,-35.48 19.61,-53.24 -2.5,-0.01 -5.01,-0.01 -7.51,-0.02 -1.86,5.32 -3.75,10.63 -5.51,15.99 -6.61,0.04 -13.23,0.02 -19.84,0.01 -1.63,-5.36 -3.53,-10.64 -5.17,-16 -2.35,0.01 -4.71,0.01 -7.07,0.01 C -12.27,-35.52 -6.19,-17.74 0,0"
             style="fill:#ffffff;fill-opacity:1;fill-rule:nonzero;stroke:none"
             id="path30" /></g><g
           id="g32"
           transform="translate(46.54,78.1899)"><path
             d="m 0,0 c 2.5,-8.3 5.35,-16.49 8.19,-24.67 -5.28,-0.039 -10.56,0 -15.84,-0.039 C -4.95,-16.52 -1.76,-8.46 0,0"
             style="fill:#b71c2d;fill-opacity:1;fill-rule:nonzero;stroke:none"
             id="path34" /></g></g></g></g></svg>
