<?xml version="1.0" encoding="UTF-8" standalone="no"?>
<!-- Created with Inkscape (http://www.inkscape.org/) -->

<svg
   version="1.1"
   id="svg2"
   xml:space="preserve"
   width="260.34268"
   height="260.28534"
   viewBox="0 0 260.34268 260.28534"
   xmlns="http://www.w3.org/2000/svg"
   xmlns:svg="http://www.w3.org/2000/svg"><defs
     id="defs6"><clipPath
       clipPathUnits="userSpaceOnUse"
       id="clipPath16"><path
         d="M 0,195.214 H 195.257 V 0 H 0 Z"
         id="path14" /></clipPath></defs><g
     id="g8"
     transform="matrix(1.3333333,0,0,-1.3333333,0,260.28533)"><g
       id="g10"><g
         id="g12"
         clip-path="url(#clipPath16)"><g
           id="g18"
           transform="translate(195.2568,97.6072)"><path
             d="m 0,0 c 0,-53.907 -43.7,-97.607 -97.607,-97.607 -53.907,0 -97.607,43.7 -97.607,97.607 0,53.907 43.7,97.607 97.607,97.607 C -43.7,97.607 0,53.907 0,0"
             style="fill:#0a0f0c;fill-opacity:1;fill-rule:nonzero;stroke:none"
             id="path20" /></g><g
           id="g22"
           transform="translate(6.5698,105.114)"><path
             d="M 0,0 C 1.08,13.32 5.15,26.39 11.82,37.97 38.19,22.96 64.238,7.485 90.618,-7.495 64.328,-22.745 38.16,-37.95 11.74,-52.959 2.73,-36.97 -1.63,-18.32 0,0"
             style="fill:#ffffff;fill-opacity:1;fill-rule:nonzero;stroke:none"
             id="path24" /></g><g
           id="g26"
           transform="translate(98.1563,97.5593)"><path
             d="M 0,0 C 26.24,15.24 52.59,30.31 78.83,45.57 95.12,18.15 95.11,-18.01 78.85,-45.451 52.57,-30.28 26.35,-15.02 0,0"
             style="fill:#ffffff;fill-opacity:1;fill-rule:nonzero;stroke:none"
             id="path28" /></g></g></g></g></svg>
