<?xml version="1.0" encoding="UTF-8" standalone="no"?>
<!-- Created with Inkscape (http://www.inkscape.org/) -->

<svg
   version="1.1"
   id="svg2"
   xml:space="preserve"
   width="354.66934"
   height="165.66667"
   viewBox="0 0 354.66934 165.66667"
   xmlns="http://www.w3.org/2000/svg"
   xmlns:svg="http://www.w3.org/2000/svg"><defs
     id="defs6"><clipPath
       clipPathUnits="userSpaceOnUse"
       id="clipPath16"><path
         d="M 0,124.25 H 266.003 V 0 H 0 Z"
         id="path14" /></clipPath></defs><g
     id="g8"
     transform="matrix(1.3333333,0,0,-1.3333333,0,165.66667)"><g
       id="g10"><g
         id="g12"
         clip-path="url(#clipPath16)"><g
           id="g18"
           transform="translate(0,124.25)"><path
             d="m 0,0 h 242.5 c 0,-9.83 -0.01,-19.67 0,-29.5 7.83,-0.01 15.66,0 23.5,0 0,-21.75 0.01,-43.5 -0.01,-65.25 H 242.5 c -0.01,-9.84 0.01,-19.67 -0.01,-29.5 H 0 Z"
             style="fill:#0a0f0c;fill-opacity:1;fill-rule:nonzero;stroke:none"
             id="path20" /></g><g
           id="g22"
           transform="translate(16.5098,118)"><path
             d="M 0,0 C 28.43,0.08 56.87,-0.17 85.3,0.12 71.89,-4.69 60.23,-14.19 53.2,-26.62 35.48,-17.72 17.73,-8.88 0,0"
             style="fill:#ffffff;fill-opacity:1;fill-rule:nonzero;stroke:none"
             id="path24" /></g><g
           id="g26"
           transform="translate(140.5898,118.02)"><path
             d="M 0,0 C 28.46,-0.06 56.93,0 85.4,-0.03 67.66,-8.9 49.91,-17.77 32.17,-26.64 25.101,-14.28 13.51,-4.55 0,0"
             style="fill:#ffffff;fill-opacity:1;fill-rule:nonzero;stroke:none"
             id="path28" /></g><g
           id="g30"
           transform="translate(6.25,8.1396)"><path
             d="M 0,0 C -0.01,35.96 0.02,71.91 -0.01,107.87 20.2,97.771 40.38,87.62 60.62,77.581 54.21,62.68 54.15,45.19 60.65,30.311 40.43,20.21 20.23,10.08 0,0"
             style="fill:#ffffff;fill-opacity:1;fill-rule:nonzero;stroke:none"
             id="path32" /></g><g
           id="g34"
           transform="translate(175.5996,85.6899)"><path
             d="M 0,0 C 20.23,10.09 40.431,20.22 60.66,30.31 60.631,-5.64 60.67,-41.59 60.641,-77.55 40.42,-67.47 20.221,-57.34 0,-47.24 6.42,-32.35 6.44,-14.89 0,0"
             style="fill:#ffffff;fill-opacity:1;fill-rule:nonzero;stroke:none"
             id="path36" /></g><g
           id="g38"
           transform="translate(113.1099,114.1099)"><path
             d="M 0,0 C 12.51,2.07 25.69,-0.81 36.35,-7.63 48.34,-15.24 57.081,-27.86 59.791,-41.83 62.26,-53.82 60.22,-66.65 54.26,-77.34 46.9,-90.95 33.2,-100.89 18,-103.75 c -13.17,-2.57 -27.29,0.18 -38.5,7.57 -11.96,7.69 -20.53,20.43 -23.13,34.41 -2.88,14.4 0.92,29.9 9.84,41.53 C -25.64,-9.52 -13.33,-2.05 0,0"
             style="fill:#ffffff;fill-opacity:1;fill-rule:nonzero;stroke:none"
             id="path40" /></g><g
           id="g42"
           transform="translate(242.5,35.75)"><path
             d="M 0,0 C 0,17.58 -0.01,35.17 0.01,52.75 H 17.25 V 0 C 11.5,-0.01 5.75,0 0,0"
             style="fill:#ffffff;fill-opacity:1;fill-rule:nonzero;stroke:none"
             id="path44" /></g><g
           id="g46"
           transform="translate(16.8198,6.3301)"><path
             d="M 0,0 C 17.68,8.74 35.28,17.64 52.94,26.42 59.87,14.24 71.25,4.64 84.48,-0.01 56.32,-0.13 28.16,-0.14 0,0"
             style="fill:#ffffff;fill-opacity:1;fill-rule:nonzero;stroke:none"
             id="path48" /></g><g
           id="g50"
           transform="translate(141.0195,6.3203)"><path
             d="M 0,0 C 13.351,4.51 24.7,14.25 31.711,26.42 49.381,17.66 66.961,8.729 84.65,0.02 56.431,-0.15 28.211,-0.11 0,0"
             style="fill:#ffffff;fill-opacity:1;fill-rule:nonzero;stroke:none"
             id="path52" /></g></g></g></g></svg>
