<?xml version="1.0" encoding="UTF-8" standalone="no"?>
<!-- Created with Inkscape (http://www.inkscape.org/) -->

<svg
   version="1.1"
   id="svg2"
   xml:space="preserve"
   width="276.66666"
   height="307.29333"
   viewBox="0 0 276.66666 307.29333"
   xmlns="http://www.w3.org/2000/svg"
   xmlns:svg="http://www.w3.org/2000/svg"><defs
     id="defs6"><clipPath
       clipPathUnits="userSpaceOnUse"
       id="clipPath16"><path
         d="M 0,230.47 H 207.5 V 0 H 0 Z"
         id="path14" /></clipPath></defs><g
     id="g8"
     transform="matrix(1.3333333,0,0,-1.3333333,0,307.29333)"><g
       id="g10"><g
         id="g12"
         clip-path="url(#clipPath16)"><g
           id="g18"
           transform="translate(99.9502,230.47)"><path
             d="M 0,0 H 7.399 C 21.99,-0.85 36.33,-6.15 47.689,-15.38 64.16,-28.37 74.03,-49.07 74.03,-70.02 c 0.06,-43.74 -0.01,-87.48 0.03,-131.22 11.16,-0.04 22.32,0.03 33.49,-0.01 v -6.2 c -2.21,-0.22 -4.981,0.62 -6.54,-1.45 -7.191,-7.18 -14.361,-14.4 -21.58,-21.57 -1.04,1.03 -2.08,2.07 -3.111,3.1 6.631,6.65 13.241,13.33 19.951,19.91 -7.701,-0.12 -15.39,0.03 -23.081,-0.07 -1.479,-0.12 -3.21,0 -4.269,-1.25 -7.231,-7.26 -14.691,-14.29 -21.88,-21.59 -0.99,1 -1.971,2 -2.96,3 6.63,6.66 13.25,13.32 19.94,19.92 -8.64,-0.1 -17.28,-0.04 -25.93,-0.04 -7.981,-7.41 -15.57,-15.22 -23.29,-22.88 -1,1 -1.981,2 -2.97,3 6.67,6.65 13.239,13.4 20.029,19.93 -7.939,-0.14 -15.88,-0.03 -23.819,-0.05 -1.2,-0.06 -2.641,0.15 -3.48,-0.92 -7.39,-7.26 -14.66,-14.65 -22.01,-21.96 -0.99,1.01 -1.98,2.03 -2.96,3.04 6.68,6.62 13.22,13.37 19.99,19.88 -8.46,-0.16 -16.93,0.06 -25.39,-0.09 -1.23,0.06 -2.01,-1.05 -2.85,-1.77 -7,-7.04 -14.01,-14.05 -21.05,-21.05 -1,0.99 -2,1.98 -3,2.98 6.66,6.64 13.26,13.34 19.98,19.92 -8.37,-0.13 -16.73,0.04 -25.1,-0.07 -1.24,0.13 -2.07,-0.86 -2.9,-1.61 -7.06,-7.08 -14.12,-14.17 -21.22,-21.22 -1,0.99 -2.01,1.98 -3.01,2.97 6.66,6.65 13.27,13.34 19.98,19.94 -8.65,-0.19 -17.32,0.13 -25.96,-0.15 -2.3,-1.39 -3.95,-3.58 -5.86,-5.41 -1.01,1.01 -2.02,2.02 -3.03,3.02 0.9,0.87 1.8,1.73 2.7,2.58 -0.94,-0.04 -1.88,-0.08 -2.82,-0.13 v 6.29 c 11.16,0.05 22.33,-0.03 33.49,0.01 0,42.07 0.03,84.15 -0.01,126.22 -1,19.37 5.74,39.22 19.33,53.22 C -34.97,-8.83 -17.73,-1.02 0,0"
             style="fill:#0b4e82;fill-opacity:1;fill-rule:nonzero;stroke:none"
             id="path20" /></g><g
           id="g22"
           transform="translate(91.8301,223.0701)"><path
             d="m 0,0 c 16.65,3.32 34.52,-0.63 48.38,-10.38 15.48,-10.68 25.79,-28.51 27.23,-47.27 0.45,-8.62 0.28,-17.26 0.31,-25.88 v -110.31 c -42.67,0.03 -85.33,-0.09 -128,0.06 0.05,43.05 -0.1,86.11 0.08,129.15 -0.46,14.64 4.37,29.35 13.37,40.89 C -29.2,-11.49 -15.21,-2.82 0,0"
             style="fill:#ffffff;fill-opacity:1;fill-rule:nonzero;stroke:none"
             id="path24" /></g><g
           id="g26"
           transform="translate(94.4902,128.8401)"><path
             d="m 0,0 c 11.1,2.57 23.27,0.34 32.59,-6.25 8.74,-6 14.939,-15.57 16.82,-26 1.61,-9.09 0.319,-18.771 -4.15,-26.89 -5.01,-9.53 -14.01,-16.83 -24.321,-19.87 -8.75,-2.551 -18.369,-2.19 -26.849,1.199 -9.91,3.851 -18.11,11.821 -22.34,21.571 -4.89,11.2 -4.46,24.63 1.27,35.44 5.4,10.43 15.53,18.23 26.98,20.8"
             style="fill:#0b4e82;fill-opacity:1;fill-rule:nonzero;stroke:none"
             id="path28" /></g><g
           id="g30"
           transform="translate(96.46,122.8201)"><path
             d="M 0,0 C 16.65,4 35.04,-6.64 40.06,-22.97 45.42,-37.92 38.48,-55.78 24.75,-63.581 16.35,-68.62 5.74,-69.8 -3.54,-66.64 c -8.61,2.809 -15.97,9.17 -20.04,17.26 -4.84,9.38 -4.99,21.04 -0.29,30.5 C -19.41,-9.331 -10.28,-2.22 0,0"
             style="fill:#ffffff;fill-opacity:1;fill-rule:nonzero;stroke:none"
             id="path32" /></g></g></g></g></svg>
