<?xml version="1.0" encoding="UTF-8" standalone="no"?>
<!-- Created with Inkscape (http://www.inkscape.org/) -->

<svg
   version="1.1"
   id="svg2"
   xml:space="preserve"
   width="316"
   height="316"
   viewBox="0 0 316 316"
   xmlns="http://www.w3.org/2000/svg"
   xmlns:svg="http://www.w3.org/2000/svg"><defs
     id="defs6"><clipPath
       clipPathUnits="userSpaceOnUse"
       id="clipPath16"><path
         d="M 0,237 H 237 V 0 H 0 Z"
         id="path14" /></clipPath></defs><g
     id="g8"
     transform="matrix(1.3333333,0,0,-1.3333333,0,316)"><g
       id="g10"><g
         id="g12"
         clip-path="url(#clipPath16)"><g
           id="g18"
           transform="translate(0,237)"><path
             d="m 0,0 h 236.997 c 0,-78.999 0.011,-157.998 -0.01,-236.987 -78.989,-0.021 -157.988,-0.01 -236.987,-0.01 z"
             style="fill:#1ea366;fill-opacity:1;fill-rule:nonzero;stroke:none"
             id="path20" /></g><g
           id="g22"
           transform="translate(165.2402,202.6099)"><path
             d="m 0,0 c 4.319,4.32 8.6,8.67 12.979,12.92 0.071,-9.21 0,-18.41 0.041,-27.62 9.22,9.15 18.37,18.39 27.589,27.55 3.311,-3.18 6.511,-6.47 9.771,-9.7 -9.29,-9.12 -18.231,-18.59 -27.46,-27.76 9.2,-0.01 18.399,0.02 27.6,-0.01 -4.14,-4.54 -8.791,-8.56 -13.07,-12.96 C 24.97,-37.65 12.49,-37.6 0.01,-37.6 0,-25.07 0.01,-12.54 0,0"
             style="fill:#ffffff;fill-opacity:1;fill-rule:nonzero;stroke:none"
             id="path24" /></g><g
           id="g26"
           transform="translate(21.5298,205.6001)"><path
             d="m 0,0 c 3.24,3.34 6.53,6.63 9.87,9.86 9.21,-9.17 18.37,-18.4 27.59,-27.56 0.04,9.21 -0.04,18.42 0.04,27.62 4.38,-4.25 8.66,-8.6 12.98,-12.91 -0.02,-12.54 0,-25.07 -0.01,-37.61 -12.54,-0.01 -25.08,0 -37.62,0 -4.3,4.32 -8.66,8.59 -12.9,12.96 9.21,0.09 18.42,0.02 27.63,0.05 C 18.4,-18.38 9.19,-9.21 0,0"
             style="fill:#ffffff;fill-opacity:1;fill-rule:nonzero;stroke:none"
             id="path28" /></g><g
           id="g30"
           transform="translate(114.7598,174.1699)"><path
             d="M 0,0 C 5.36,2.9 12.84,-1.49 12.54,-7.66 13.23,-14.11 5.46,-18.9 -0.11,-15.77 -6.5,-13.02 -6.45,-2.65 0,0"
             style="fill:#ffffff;fill-opacity:1;fill-rule:nonzero;stroke:none"
             id="path32" /></g><g
           id="g34"
           transform="translate(94.6401,161.3398)"><path
             d="M 0,0 C 6.45,1.76 12.65,-5.18 10.28,-11.4 8.54,-17.95 -1.21,-19.46 -5.02,-13.95 -8.92,-9.21 -6.08,-1.1 0,0"
             style="fill:#ffffff;fill-opacity:1;fill-rule:nonzero;stroke:none"
             id="path36" /></g><g
           id="g38"
           transform="translate(138.6104,161.3301)"><path
             d="M 0,0 C 6.18,1.7 12.29,-4.61 10.5,-10.74 9.22,-17.49 -0.49,-19.67 -4.7,-14.35 -8.94,-9.7 -6.32,-1.11 0,0"
             style="fill:#ffffff;fill-opacity:1;fill-rule:nonzero;stroke:none"
             id="path40" /></g><g
           id="g42"
           transform="translate(76.02,130.4102)"><path
             d="m 0,0 c 0.01,6.07 5.46,11.41 11.52,11.33 5.99,0.04 11.99,0.01 17.98,0.01 6.09,0.12 11.66,-5.15 11.71,-11.28 0.06,-7.67 -0.01,-15.36 0.04,-23.04 0.99,-4.02 -5.93,-4.71 -7.21,-1.57 -0.15,8.1 -0.03,16.22 -0.04,24.32 -0.62,0.04 -1.85,0.11 -2.47,0.14 -0.08,-22.301 -0.09,-44.61 0,-66.92 -2.38,-3.28 -10.43,-3.08 -9.82,2.05 -0.03,12.569 0.14,25.14 -0.07,37.7 -0.53,0.06 -1.58,0.18 -2.11,0.25 -0.08,-13.35 -0.09,-26.69 0.01,-40.04 -2.37,-2.67 -7.94,-3.14 -9.74,0.32 -0.18,22.2 0,44.41 -0.08,66.61 -0.63,-0.03 -1.89,-0.1 -2.52,-0.13 0.03,-7.88 0.08,-15.76 0,-23.641 -0.03,-2.679 -3.67,-2.969 -5.59,-2.219 -2.13,0.339 -1.57,2.73 -1.66,4.219 C 0.03,-14.59 -0.08,-7.29 0,0"
             style="fill:#ffffff;fill-opacity:1;fill-rule:nonzero;stroke:none"
             id="path44" /></g><g
           id="g46"
           transform="translate(120.0098,130.4502)"><path
             d="m 0,0 c 0.04,6.04 5.471,11.37 11.521,11.29 6.309,0 12.629,0.08 18.939,-0.04 C 36.21,10.92 41.061,5.8 41.221,0.07 41.29,-7.62 41.2,-15.311 41.26,-23 c 0.91,-4.01 -5.88,-4.74 -7.21,-1.63 -0.15,8.109 -0.05,16.22 -0.029,24.32 -0.621,0.05 -1.861,0.15 -2.481,0.2 -0.09,-22.321 -0.08,-44.64 0,-66.97 -2.04,-2.441 -5.85,-2.65 -8.53,-1.22 -1.699,0.79 -1.19,2.84 -1.3,4.34 0.09,12.2 -0.04,24.399 0.07,36.609 -0.55,0.071 -1.65,0.231 -2.2,0.301 -0.17,-13.35 -0.1,-26.71 -0.04,-40.07 -2.37,-2.64 -8.019,-3.1 -9.72,0.349 C 9.62,-44.561 9.811,-22.33 9.73,-0.12 9.141,-0.15 7.95,-0.23 7.36,-0.27 6.98,-8.39 7.48,-16.54 7.141,-24.66 5.95,-27.2 1.53,-27.08 0.07,-24.92 -0.12,-16.62 0.021,-8.3 0,0"
             style="fill:#ffffff;fill-opacity:1;fill-rule:nonzero;stroke:none"
             id="path48" /></g><g
           id="g50"
           transform="translate(21.46,58.7803)"><path
             d="m 0,0 c 4.26,4.38 8.61,8.66 12.93,12.97 12.54,0 25.07,0.009 37.6,0 0.05,-12.5 -0.05,-25 0.05,-37.5 -4.28,-4.401 -8.61,-8.75 -13.03,-13.01 -0.03,9.2 0,18.399 -0.01,27.6 -9.22,-9.161 -18.38,-18.371 -27.57,-27.55 -3.39,3.2 -6.64,6.53 -9.89,9.849 9.16,9.231 18.4,18.37 27.55,27.601 C 18.42,0 9.21,-0.07 0,0"
             style="fill:#ffffff;fill-opacity:1;fill-rule:nonzero;stroke:none"
             id="path52" /></g><g
           id="g54"
           transform="translate(165.25,71.75)"><path
             d="m 0,0 c 12.45,0.01 24.9,0 37.35,0 4.39,-4.33 8.98,-8.46 13.17,-13 -9.21,-0.01 -18.42,0.01 -27.63,-0.01 9.18,-9.16 18.3,-18.39 27.55,-27.49 -3.13,-3.47 -6.51,-6.7 -9.86,-9.95 -9.19,9.19 -18.37,18.38 -27.57,27.56 -0.02,-9.21 -0.01,-18.41 0,-27.62 -4.45,4.25 -8.8,8.61 -13.06,13.04 C 0.07,-24.98 -0.04,-12.49 0,0"
             style="fill:#ffffff;fill-opacity:1;fill-rule:nonzero;stroke:none"
             id="path56" /></g></g></g></g></svg>
