<?xml version="1.0" encoding="UTF-8" standalone="no"?>
<!-- Created with Inkscape (http://www.inkscape.org/) -->

<svg
   version="1.1"
   id="svg2"
   xml:space="preserve"
   width="260.332"
   height="260.32532"
   viewBox="0 0 260.332 260.32532"
   xmlns="http://www.w3.org/2000/svg"
   xmlns:svg="http://www.w3.org/2000/svg"><defs
     id="defs6"><clipPath
       clipPathUnits="userSpaceOnUse"
       id="clipPath16"><path
         d="M 0,195.244 H 195.249 V 0 H 0 Z"
         id="path14" /></clipPath></defs><g
     id="g8"
     transform="matrix(1.3333333,0,0,-1.3333333,0,260.32533)"><g
       id="g10"><g
         id="g12"
         clip-path="url(#clipPath16)"><g
           id="g18"
           transform="translate(93.3999,195.2438)"><path
             d="m 0,0 h 8.93 c 21.8,-1.18 43.17,-9.59 59.55,-24.08 18.3,-15.85 30.311,-38.79 32.77,-62.9 2.38,-21.13 -2.38,-43.03 -13.48,-61.19 -10.81,-17.96 -27.57,-32.26 -47.05,-40.04 -23.21,-9.41 -50.06,-9.38 -73.25,0.1 -19.21,7.73 -35.76,21.8 -46.54,39.47 -8.65,13.93 -13.39,30.09 -14.33,46.43 v 8.78 c 1.11,26.34 13.31,51.97 33.23,69.26 C -43.64,-9.55 -22.03,-1 0,0"
             style="fill:#b71c2d;fill-opacity:1;fill-rule:nonzero;stroke:none"
             id="path20" /></g><g
           id="g22"
           transform="translate(87.5601,188.4338)"><path
             d="m 0,0 c 18.3,2.09 37.2,-1.62 53.38,-10.41 19.1,-10.22 34.23,-27.49 41.98,-47.7 6.22,-16.14 7.73,-34.07 4.18,-51.01 -4.69,-23.47 -19.16,-44.78 -39.17,-57.89 -17.48,-11.66 -39.1,-16.96 -59.98,-14.63 -18.32,1.88 -35.98,9.58 -49.89,21.63 -17.34,14.78 -28.75,36.301 -31.22,58.94 -2.41,20.58 2.54,41.92 13.75,59.34 C -52.42,-18.7 -27.13,-2.82 0,0"
             style="fill:#ffffff;fill-opacity:1;fill-rule:nonzero;stroke:none"
             id="path24" /></g><g
           id="g26"
           transform="translate(48.3599,135.0637)"><path
             d="m 0,0 c 7.06,4.13 15.58,4.98 23.6,4.2 7.11,-0.74 14.5,-3.17 19.35,-8.69 3.88,-4.19 5.62,-9.88 5.99,-15.49 -3.53,-0.18 -7.04,-0.53 -10.57,-0.63 -0.6,4.59 -2.44,9.37 -6.4,12.08 -4.99,3.47 -11.4,3.45 -17.22,3.12 -4.93,-0.34 -10.26,-2.17 -12.93,-6.61 -3.05,-4.54 -1.24,-11.49 3.87,-13.67 10.52,-4.78 22.51,-5.06 32.98,-10.03 5.07,-2.46 9.53,-6.59 11.42,-12 2.52,-7.5 0.82,-16.23 -4.46,-22.15 -6.19,-6.969 -15.94,-9.58 -24.99,-9.48 -8.75,0.1 -18.13,1.7 -24.93,7.62 -5.78,4.95 -8.8,12.49 -9.11,19.99 3.48,0.29 6.97,0.62 10.46,0.87 0.55,-5.38 2.74,-11.02 7.47,-14.06 7.58,-4.96 17.47,-5.73 26.02,-3.07 5.36,1.581 10.22,6.25 10.14,12.14 0.17,4.75 -3.37,8.771 -7.6,10.47 -10.37,4.35 -22,4.88 -32.12,9.92 -6.24,3.09 -11.14,9.42 -11.11,16.58 C -10.69,-11.34 -6.54,-3.76 0,0"
             style="fill:#b71c2d;fill-opacity:1;fill-rule:nonzero;stroke:none"
             id="path28" /></g><g
           id="g30"
           transform="translate(112.5098,115.9938)"><path
             d="m 0,0 h 10.24 v -37.76 c 0.01,-3.77 0.51,-8.07 3.55,-10.68 7.3,-6.36 20.66,-1.88 22.74,7.57 0.72,2.98 0.941,6.06 0.97,9.12 -0.01,10.59 -0.02,21.17 0,31.75 3.431,-0.02 6.87,0.1 10.311,-0.12 -0.161,-19.54 -0.021,-39.08 -0.071,-58.62 -3.09,-0.01 -6.17,-0.01 -9.25,-0.01 -0.01,2.68 -0.01,5.36 0.031,8.03 C 31.46,-61.54 14.9,-63.31 5.25,-55.07 0.88,-50.92 -0.04,-44.53 -0.02,-38.79 0.01,-25.86 -0.029,-12.93 0,0"
             style="fill:#b71c2d;fill-opacity:1;fill-rule:nonzero;stroke:none"
             id="path32" /></g></g></g></g></svg>
