<?xml version="1.0" encoding="UTF-8" standalone="no"?>
<!-- Created with Inkscape (http://www.inkscape.org/) -->

<svg
   version="1.1"
   id="svg2"
   xml:space="preserve"
   width="260.33334"
   height="260.33334"
   viewBox="0 0 260.33334 260.33334"
   xmlns="http://www.w3.org/2000/svg"
   xmlns:svg="http://www.w3.org/2000/svg"><defs
     id="defs6"><clipPath
       clipPathUnits="userSpaceOnUse"
       id="clipPath16"><path
         d="M 0,195.25 H 195.25 V 0 H 0 Z"
         id="path14" /></clipPath></defs><g
     id="g8"
     transform="matrix(1.3333333,0,0,-1.3333333,0,260.33333)"><g
       id="g10"><g
         id="g12"
         clip-path="url(#clipPath16)"><g
           id="g18"
           transform="translate(0,195.25)"><path
             d="m 0,0 h 195.25 c -0.01,-65.08 0,-130.16 -0.01,-195.24 -65.08,-0.01 -130.16,0 -195.24,-0.01 z"
             style="fill:#0a0f0c;fill-opacity:1;fill-rule:nonzero;stroke:none"
             id="path20" /></g><g
           id="g22"
           transform="translate(10.7202,189.0098)"><path
             d="M 0,0 C 57.83,-0.01 115.67,-0.01 173.5,0 159.63,-14.29 145.36,-28.21 131.33,-42.35 119.4,-31.5 103.4,-25.24 87.26,-25.25 70.84,-25.08 54.42,-31.3 42.37,-42.49 28.26,-28.31 14,-14.28 0,0"
             style="fill:#ffffff;fill-opacity:1;fill-rule:nonzero;stroke:none"
             id="path24" /></g><g
           id="g26"
           transform="translate(6.2402,184.5298)"><path
             d="m 0,0 c 14.31,-13.96 28.07,-28.47 42.35,-42.46 -11.05,-12.11 -17.3,-28.45 -17.1,-44.85 0,-16.12 6.24,-32.109 17.1,-44.02 C 28.22,-145.41 14.19,-159.6 -0.01,-173.61 0.03,-115.74 0.01,-57.87 0,0"
             style="fill:#ffffff;fill-opacity:1;fill-rule:nonzero;stroke:none"
             id="path28" /></g><g
           id="g30"
           transform="translate(146.5098,142.1602)"><path
             d="m 0,0 c 14.18,14.12 28.25,28.35 42.48,42.41 0.081,-58 0,-116 0.041,-174 C 28.35,-117.42 14.2,-103.23 0,-89.09 9.35,-78.84 15.37,-65.601 16.82,-51.79 18.98,-33.18 12.74,-13.75 0,0"
             style="fill:#ffffff;fill-opacity:1;fill-rule:nonzero;stroke:none"
             id="path32" /></g><g
           id="g34"
           transform="translate(87.4702,156.6299)"><path
             d="m 0,0 c 13.06,2.38 26.85,-0.02 38.49,-6.35 14.47,-7.67 25.4,-21.6 29.52,-37.44 3.81,-13.84 2.14,-29.02 -4.31,-41.82 -5.74,-11.579 -15.35,-21.19 -26.94,-26.94 -12.35,-6.21 -26.9,-8 -40.35,-4.7 -14.98,3.521 -28.42,13.07 -36.67,26.061 -7.67,11.989 -11.04,26.79 -8.82,40.899 2.16,14.73 10.03,28.55 21.68,37.84 C -19.55,-6.03 -9.98,-1.75 0,0"
             style="fill:#ffffff;fill-opacity:1;fill-rule:nonzero;stroke:none"
             id="path36" /></g><g
           id="g38"
           transform="translate(10.6099,6.2402)"><path
             d="m 0,0 c 14.14,14.189 28.34,28.319 42.47,42.51 13.51,-12.52 32.5,-18.781 50.81,-16.93 14.11,1.23 27.62,7.33 38.16,16.75 14.1,-14.221 28.48,-28.17 42.62,-42.351 C 116.04,0.01 58.02,-0.03 0,0"
             style="fill:#ffffff;fill-opacity:1;fill-rule:nonzero;stroke:none"
             id="path40" /></g></g></g></g></svg>
