<?xml version="1.0" encoding="UTF-8" standalone="no"?>
<!-- Created with Inkscape (http://www.inkscape.org/) -->

<svg
   version="1.1"
   id="svg2"
   xml:space="preserve"
   width="315.08401"
   height="369.60532"
   viewBox="0 0 315.08401 369.60532"
   xmlns="http://www.w3.org/2000/svg"
   xmlns:svg="http://www.w3.org/2000/svg"><defs
     id="defs6"><clipPath
       clipPathUnits="userSpaceOnUse"
       id="clipPath16"><path
         d="M 0,277.204 H 236.313 V 0 H 0 Z"
         id="path14" /></clipPath></defs><g
     id="g8"
     transform="matrix(1.3333333,0,0,-1.3333333,0,369.60533)"><g
       id="g10"><g
         id="g12"
         clip-path="url(#clipPath16)"><g
           id="g18"
           transform="translate(116.25,277.2041)"><path
             d="m 0,0 h 3.57 c 3.85,-1.09 5.22,-5.11 7.11,-8.18 36.08,-62.55 72.22,-125.07 108.3,-187.62 1.78,-2.85 1.38,-6.97 -1.3,-9.13 -2.45,-2.17 -5.96,-1.45 -8.95,-1.59 -72.65,0.06 -145.3,-0.01 -217.95,0.04 -3.25,-0.3 -5.88,2.05 -7.03,4.91 v 3.92 c 36.9,64.28 74.12,128.37 111.09,192.61 1.12,2.2 2.8,4.13 5.16,5.04"
             style="fill:#0a0f0c;fill-opacity:1;fill-rule:nonzero;stroke:none"
             id="path20" /></g><g
           id="g22"
           transform="translate(117.4902,250.814)"><path
             d="M 0,0 C 0.26,0.08 0.78,0.24 1.04,0.32 32.67,-54.36 64.31,-109.04 95.77,-163.83 32.31,-163.9 -31.15,-163.87 -94.61,-163.84 -63.09,-109.21 -31.6,-54.57 0,0"
             style="fill:#efc521;fill-opacity:1;fill-rule:nonzero;stroke:none"
             id="path24" /></g><g
           id="g26"
           transform="translate(106.6602,212.7241)"><path
             d="M 0,0 C 8.06,-0.05 16.109,-0.03 24.17,-0.01 15.609,-17.83 6.86,-35.57 -1.54,-53.47 c 12.39,6.96 24.59,14.24 36.96,21.22 -5.39,-22.18 -11.01,-44.29 -16.35,-66.48 3.36,1.27 6.68,2.65 10.05,3.9 -5.73,-8.39 -11.06,-17.12 -17.34,-25.11 -3.17,9.59 -6.62,19.09 -9.73,28.69 3,-2.01 5.77,-4.35 8.78,-6.35 2.39,15.74 4.859,31.47 7.29,47.21 C 5.69,-57.43 -6.59,-64.75 -19.06,-71.73 -13.05,-47.74 -6.35,-23.91 0,0"
             style="fill:#0a0f0c;fill-opacity:1;fill-rule:nonzero;stroke:none"
             id="path28" /></g><g
           id="g30"
           transform="translate(22.168,1.0381)"><path
             d="M 0,0 V 50.551 H -18.055 V 60.844 H 30.298 V 50.551 H 12.285 V 0 Z"
             style="fill:#0a0f0c;fill-opacity:1;fill-rule:nonzero;stroke:none"
             id="path32" /></g><g
           id="g34"
           transform="translate(88.6982,23.4082)"><path
             d="m 0,0 v 10.251 h 26.479 v -24.238 c -2.573,-2.491 -6.301,-4.684 -11.184,-6.578 -4.885,-1.895 -9.83,-2.843 -14.838,-2.843 -6.364,0 -11.912,1.335 -16.644,4.005 -4.731,2.67 -8.287,6.488 -10.666,11.455 -2.379,4.967 -3.569,10.369 -3.569,16.207 0,6.336 1.328,11.967 3.985,16.892 2.656,4.925 6.542,8.702 11.662,11.33 3.901,2.02 8.757,3.031 14.568,3.031 7.554,0 13.453,-1.585 17.701,-4.753 4.247,-3.168 6.98,-7.547 8.197,-13.135 L 13.489,19.341 c -0.858,2.988 -2.469,5.346 -4.835,7.076 -2.366,1.729 -5.32,2.594 -8.861,2.594 -5.368,0 -9.637,-1.701 -12.804,-5.105 -3.169,-3.403 -4.753,-8.453 -4.753,-15.149 0,-7.221 1.605,-12.637 4.815,-16.248 3.21,-3.612 7.415,-5.416 12.617,-5.416 2.573,0 5.153,0.504 7.741,1.513 2.586,1.01 4.807,2.235 6.661,3.674 l 0,7.72 z"
             style="fill:#0a0f0c;fill-opacity:1;fill-rule:nonzero;stroke:none"
             id="path36" /></g><g
           id="g38"
           transform="translate(138.835,27.5586)"><path
             d="m 0,0 v -16.27 h 11.372 c 4.427,0 7.235,0.124 8.426,0.374 1.826,0.333 3.312,1.141 4.461,2.428 1.148,1.287 1.722,3.009 1.722,5.167 0,1.826 -0.442,3.376 -1.328,4.649 -0.885,1.272 -2.165,2.2 -3.839,2.78 C 19.14,-0.29 15.509,0 9.92,0 Z M 0,24.196 V 10.127 h 8.052 c 4.787,0 7.761,0.069 8.924,0.208 2.102,0.248 3.755,0.975 4.959,2.178 1.204,1.205 1.805,2.788 1.805,4.753 0,1.881 -0.518,3.409 -1.556,4.587 -1.038,1.174 -2.58,1.887 -4.627,2.136 -1.218,0.139 -4.718,0.207 -10.501,0.207 z m -12.285,10.127 h 24.321 c 4.815,0 8.404,-0.201 10.771,-0.601 2.365,-0.402 4.482,-1.239 6.349,-2.511 1.868,-1.273 3.425,-2.968 4.67,-5.085 1.245,-2.115 1.867,-4.488 1.867,-7.117 0,-2.85 -0.767,-5.465 -2.303,-7.844 C 31.854,8.784 29.772,7 27.144,5.811 c 3.708,-1.08 6.557,-2.919 8.549,-5.521 1.993,-2.601 2.989,-5.658 2.989,-9.172 0,-2.767 -0.644,-5.457 -1.93,-8.072 -1.287,-2.615 -3.044,-4.705 -5.272,-6.268 -2.227,-1.563 -4.973,-2.525 -8.238,-2.884 -2.048,-0.221 -6.986,-0.36 -14.816,-0.415 h -20.711 z"
             style="fill:#0a0f0c;fill-opacity:1;fill-rule:nonzero;stroke:none"
             id="path40" /></g><g
           id="g42"
           transform="translate(201.5889,1.0381)"><path
             d="M 0,0 V 50.551 H -18.054 V 60.844 H 30.298 V 50.551 H 12.285 L 12.285,0 Z"
             style="fill:#0a0f0c;fill-opacity:1;fill-rule:nonzero;stroke:none"
             id="path44" /></g></g></g></g></svg>
