<?xml version="1.0" encoding="UTF-8" standalone="no"?>
<!-- Created with Inkscape (http://www.inkscape.org/) -->

<svg
   version="1.1"
   id="svg2"
   xml:space="preserve"
   width="323.20001"
   height="165.48267"
   viewBox="0 0 323.20001 165.48267"
   xmlns="http://www.w3.org/2000/svg"
   xmlns:svg="http://www.w3.org/2000/svg"><defs
     id="defs6"><clipPath
       clipPathUnits="userSpaceOnUse"
       id="clipPath16"><path
         d="M 0,124.112 H 242.4 V 0 H 0 Z"
         id="path14" /></clipPath></defs><g
     id="g8"
     transform="matrix(1.3333333,0,0,-1.3333333,0,165.48267)"><g
       id="g10"><g
         id="g12"
         clip-path="url(#clipPath16)"><g
           id="g18"
           transform="translate(0,124.1116)"><path
             d="m 0,0 h 242.4 c -0.05,-41.36 0.01,-82.71 -0.02,-124.07 -80.79,-0.08 -161.59,-0.02 -242.38,-0.02 z"
             style="fill:#0a0f0c;fill-opacity:1;fill-rule:nonzero;stroke:none"
             id="path20" /></g><g
           id="g22"
           transform="translate(6.2402,117.8714)"><path
             d="m 0,0 c 76.67,0.02 153.34,-0.03 230,0.02 0.109,-37.28 0.02,-74.56 0.05,-111.839 C 153.359,-111.79 76.68,-111.85 0,-111.79 Z"
             style="fill:#efc521;fill-opacity:1;fill-rule:nonzero;stroke:none"
             id="path24" /></g><g
           id="g26"
           transform="translate(37.5,96.4715)"><path
             d="m 0,0 c 15.44,4.26 33.01,-3.41 40.38,-17.62 5.05,-9.37 5.55,-21.03 1.42,-30.83 -4.51,-10.91 -14.81,-19.21 -26.47,-21.17 -14.1,-2.77 -29.42,4.02 -36.78,16.37 -6.79,10.791 -7.01,25.27 -0.67,36.31 C -17.45,-8.59 -9.27,-2.33 0,0"
             style="fill:#0a0f0c;fill-opacity:1;fill-rule:nonzero;stroke:none"
             id="path28" /></g><g
           id="g30"
           transform="translate(112.46,96.5218)"><path
             d="m 0,0 c 15.17,4.08 32.36,-3.28 39.87,-17.06 6.5,-11.41 6,-26.42 -1.39,-37.3 -7.5,-11.65 -22.27,-17.89 -35.86,-15.35 -11.86,1.95 -22.38,10.39 -26.85,21.54 -2.77,6.569 -3.13,13.96 -1.9,20.91 C -23.57,-14.15 -12.95,-3.18 0,0"
             style="fill:#0a0f0c;fill-opacity:1;fill-rule:nonzero;stroke:none"
             id="path32" /></g><g
           id="g34"
           transform="translate(187.4502,96.5716)"><path
             d="m 0,0 c 9.76,2.38 20.55,0.56 28.8,-5.24 8.44,-5.67 14.15,-15.22 15.19,-25.33 1.199,-9.65 -1.761,-19.77 -8.15,-27.13 -9.521,-11.16 -26.21,-15.76 -39.95,-10.27 -11.05,4.02 -19.56,13.96 -22.08,25.41 -1.57,7.24 -0.97,14.99 1.91,21.84 C -20,-10.54 -10.76,-2.57 0,0"
             style="fill:#0a0f0c;fill-opacity:1;fill-rule:nonzero;stroke:none"
             id="path36" /></g><g
           id="g38"
           transform="translate(39.5801,90.3914)"><path
             d="M 0,0 C 14.94,4.12 31.69,-6.17 35.21,-21.17 39.44,-35.79 29.9,-52.4 15.32,-56.49 0.23,-61.57 -17.4,-51.669 -21.35,-36.35 -26.19,-21.04 -15.63,-3.35 0,0"
             style="fill:#efc521;fill-opacity:1;fill-rule:nonzero;stroke:none"
             id="path40" /></g><g
           id="g42"
           transform="translate(114.4502,90.4314)"><path
             d="M 0,0 C 14.29,3.84 30.16,-5.31 34.58,-19.29 39.359,-32.61 32.609,-48.589 19.87,-54.66 7.4,-61.37 -9.41,-56.919 -17.24,-45.209 -23.2,-36.89 -24.22,-25.3 -19.7,-16.11 -16.01,-8.14 -8.55,-2.01 0,0"
             style="fill:#efc521;fill-opacity:1;fill-rule:nonzero;stroke:none"
             id="path44" /></g><g
           id="g46"
           transform="translate(192.1396,90.9915)"><path
             d="M 0,0 C 13.53,2.07 27.591,-6.81 31.681,-19.83 35.42,-30.5 32.23,-43.26 23.61,-50.649 14.851,-58.689 1.08,-60.85 -9.46,-55.08 c -12.199,5.99 -18.859,21.181 -14.76,34.2 C -21.159,-9.98 -11.239,-1.43 0,0"
             style="fill:#efc521;fill-opacity:1;fill-rule:nonzero;stroke:none"
             id="path48" /></g></g></g></g></svg>
