<?xml version="1.0" encoding="UTF-8" standalone="no"?>
<!-- Created with Inkscape (http://www.inkscape.org/) -->

<svg
   version="1.1"
   id="svg2"
   xml:space="preserve"
   width="533.02667"
   height="398.66666"
   viewBox="0 0 533.02667 398.66666"
   xmlns="http://www.w3.org/2000/svg"
   xmlns:svg="http://www.w3.org/2000/svg"><defs
     id="defs6"><clipPath
       clipPathUnits="userSpaceOnUse"
       id="clipPath16"><path
         d="M 0,299 H 399.77 V 0 H 0 Z"
         id="path14" /></clipPath></defs><g
     id="g8"
     transform="matrix(1.3333333,0,0,-1.3333333,0,398.66667)"><g
       id="g10"><g
         id="g12"
         clip-path="url(#clipPath16)"><g
           id="g18"
           transform="translate(345.6396,299)"><path
             d="M 0,0 H 0.681 C 1.74,-1.08 3.091,-2.21 2.82,-3.9 2.29,-4.29 1.25,-5.08 0.721,-5.47 c -16.66,-16.69 -33.29,-33.42 -50.051,-50.01 -0.14,-20.08 -0.02,-40.17 -0.06,-60.26 34.5,-0.03 69.01,0.01 103.51,-0.02 -0.01,-1.41 -0.019,-2.83 -0.029,-4.25 -34.5,0.02 -69,0.02 -103.49,-0.01 0.029,-19.57 -0.01,-39.15 0.009,-58.73 34.491,-0.03 68.981,0.05 103.47,-0.04 0.011,-1.41 0.03,-2.82 0.05,-4.23 -34.51,0.04 -69.02,0.02 -103.529,0.01 0,-19.32 0.04,-38.64 -0.021,-57.96 0.011,-1.51 0.11,-3.01 0.311,-4.51 -1.141,-0.39 -2.311,-0.57 -3.511,-0.54 -52.659,0.05 -105.33,0 -158,0.02 -9.69,-0.12 -19.39,0.23 -29.069,-0.15 -15.23,-14.67 -29.971,-29.91 -45.02,-44.79 -2.48,-2.69 -5.52,-4.93 -7.48,-8.06 h -1.011 c -0.06,1.54 -1.91,2.28 -2.05,3.63 16.98,16.68 33.64,33.68 50.57,50.41 0.741,0.87 1.94,1.68 1.77,2.98 0.06,19.66 -0.009,39.32 0.03,58.97 -34.26,0.02 -68.51,0.01 -102.76,0 v 4.26 h 102.741 c 0.029,19.58 -0.011,39.16 0.019,58.73 -34.25,0.04 -68.51,0.01 -102.76,0.02 v 4.26 c 34.25,-0.02 68.5,0 102.75,-0.01 v 55.81 c 0.01,2.65 -0.43,5.44 0.83,7.91 0.57,-0.13 1.73,-0.4 2.3,-0.54 61.98,0.17 123.97,0 185.96,0.09 1.79,-0.11 2.821,1.6 4.03,2.63 C -33.26,-33.15 -16.59,-16.61 0,0"
             style="fill:#0a0f0c;fill-opacity:1;fill-rule:nonzero;stroke:none"
             id="path20" /></g><g
           id="g22"
           transform="translate(107.0098,242.2598)"><path
             d="M 0,0 C 60.61,-0.01 121.221,0 181.82,-0.01 121.271,-60.75 60.42,-121.2 0.03,-182.09 -0.06,-121.399 0,-60.7 0,0"
             style="fill:#efc521;fill-opacity:1;fill-rule:nonzero;stroke:none"
             id="path24" /></g><g
           id="g26"
           transform="translate(110.2002,57.2998)"><path
             d="m 0,0 c 60.51,60.65 121.21,121.11 181.68,181.8 0.25,-60.62 0.1,-121.239 0.07,-181.86 C 121.17,0 60.58,-0.12 0,0"
             style="fill:#efc521;fill-opacity:1;fill-rule:nonzero;stroke:none"
             id="path28" /></g></g></g></g></svg>
