<?xml version="1.0" encoding="UTF-8" standalone="no"?>
<!-- Created with Inkscape (http://www.inkscape.org/) -->

<svg
   version="1.1"
   id="svg2"
   xml:space="preserve"
   width="535.66669"
   height="398.82666"
   viewBox="0 0 535.66669 398.82666"
   xmlns="http://www.w3.org/2000/svg"
   xmlns:svg="http://www.w3.org/2000/svg"><defs
     id="defs6"><clipPath
       clipPathUnits="userSpaceOnUse"
       id="clipPath16"><path
         d="M 0,299.12 H 401.75 V 0 H 0 Z"
         id="path14" /></clipPath></defs><g
     id="g8"
     transform="matrix(1.3333333,0,0,-1.3333333,0,398.82667)"><g
       id="g10"><g
         id="g12"
         clip-path="url(#clipPath16)"><g
           id="g18"
           transform="translate(347.4004,299.12)"><path
             d="m 0,0 h 0.189 c 1.51,-1.42 2.951,-2.91 4.411,-4.38 -26.451,-26.33 -53.14,-52.41 -79.54,-78.79 8.54,-9.21 15.27,-20.08 19.7,-31.83 H 54.35 c -0.01,-2.08 -0.01,-4.16 -0.01,-6.25 -35.811,-0.01 -71.611,0.03 -107.42,-0.02 5.439,-18.31 5.42,-38.14 0.1,-56.48 H 54.35 c -0.01,-2.08 -0.01,-4.17 0,-6.25 -36.491,-0.02 -72.981,0.04 -109.47,-0.03 -9.021,-24.44 -28.57,-44.58 -52.441,-54.88 -18.009,-7.96 -38.439,-10.12 -57.759,-6.44 -18.051,3.43 -35.02,12.22 -48.35,24.85 -9.63,-8.78 -18.4,-18.46 -27.931,-27.35 -17.199,-17.16 -34.489,-34.22 -51.799,-51.27 -1.491,1.48 -2.98,2.97 -4.46,4.46 26.569,26.23 53.009,52.6 79.68,78.73 -8.56,9.19 -15.39,20.05 -19.72,31.85 -36.5,0.19 -73,0.03 -109.5,0.08 v 6.25 h 107.25 c -5.44,18.31 -5.42,38.18 0,56.5 -35.75,0.01 -71.5,0 -107.25,0 v 6.25 c 36.509,0.06 73.009,-0.12 109.52,0.09 7.12,19.33 20.799,36.12 38.069,47.31 15.77,10.26 34.571,15.91 53.411,15.62 24.7,0.34 49.099,-9.72 67.019,-26.62 C -53,-52.32 -26.4,-26.26 0,0"
             style="fill:#0a0f0c;fill-opacity:1;fill-rule:nonzero;stroke:none"
             id="path20" /></g><g
           id="g22"
           transform="translate(168.0898,234.91)"><path
             d="m 0,0 c 19.98,7.73 42.71,8.05 62.91,0.92 12.1,-4.2 23.16,-11.12 32.53,-19.81 -8.75,-8.06 -16.74,-16.89 -25.45,-24.99 -34.7,-34.5 -69.59,-68.8 -104.31,-103.28 -13.48,14.13 -21.83,32.96 -23.85,52.36 -2,19.06 2.12,38.75 11.85,55.29 C -35.99,-21.58 -19.35,-7.37 0,0"
             style="fill:#efc521;fill-opacity:1;fill-rule:nonzero;stroke:none"
             id="path24" /></g><g
           id="g26"
           transform="translate(138.1699,83.1395)"><path
             d="M 0,0 C 43.14,42.91 86.59,85.5 129.69,128.471 143.85,113.161 152.59,92.94 153.79,72.11 155.25,49.801 148.23,26.98 134.14,9.591 119.58,-8.59 97.93,-20.899 74.85,-24.029 47.94,-27.869 19.65,-18.76 0,0"
             style="fill:#efc521;fill-opacity:1;fill-rule:nonzero;stroke:none"
             id="path28" /></g></g></g></g></svg>
