<?xml version="1.0" encoding="UTF-8" standalone="no"?>
<!-- Created with Inkscape (http://www.inkscape.org/) -->

<svg
   version="1.1"
   id="svg2"
   xml:space="preserve"
   width="260.332"
   height="430.66666"
   viewBox="0 0 260.332 430.66666"
   xmlns="http://www.w3.org/2000/svg"
   xmlns:svg="http://www.w3.org/2000/svg"><defs
     id="defs6"><clipPath
       clipPathUnits="userSpaceOnUse"
       id="clipPath16"><path
         d="M 0,323 H 195.249 V 0 H 0 Z"
         id="path14" /></clipPath></defs><g
     id="g8"
     transform="matrix(1.3333333,0,0,-1.3333333,0,430.66667)"><g
       id="g10"><g
         id="g12"
         clip-path="url(#clipPath16)"><g
           id="g18"
           transform="translate(195.2495,225.3755)"><path
             d="m 0,0 c 0,-53.917 -43.708,-97.625 -97.625,-97.625 -53.917,0 -97.625,43.708 -97.625,97.625 0,53.917 43.708,97.625 97.625,97.625 C -43.708,97.625 0,53.917 0,0"
             style="fill:#b71c2d;fill-opacity:1;fill-rule:nonzero;stroke:none"
             id="path20" /></g><g
           id="g22"
           transform="translate(192.6245,230.6245)"><path
             d="m 0,0 -0.25,-9.25 c -1.2,-22 -8.99,-43.435 -23.75,-59.875 -17.94,-20.539 -42.726,-33.56 -69.966,-33.81 8.481,-30.469 16.901,-60.96 25.33,-91.45 -7.739,0.01 -15.489,0.021 -23.229,0 -0.021,-12.08 0,-24.16 -0.01,-36.24 h -6.25 c -0.01,12.08 0.01,24.16 -0.01,36.24 -7.73,0.031 -15.46,-0.01 -23.191,0.021 8.401,30.489 16.881,60.95 25.281,91.429 -21.19,0.29 -40.765,10.315 -57.455,23.435 -17.24,13.36 -27.789,29.77 -32.868,51 -5.26,21.5 -2.872,45.177 6.618,65.187 9.36,20.04 24.34,34.453 44.25,44.063 11.82,5.86 23.12,8.4 36.25,9.25 l 8,0.25 C -67.09,89.18 -45.54,79.94 -28.5,62.75 -11.3,45.71 -1.08,24.17 0,0"
             style="fill:#b71c2d;fill-opacity:1;fill-rule:nonzero;stroke:none"
             id="path24" /></g><g
           id="g26"
           transform="translate(188.4488,235.3799)"><path
             d="m 0,0 c 2.28,-19.97 -2.399,-40.62 -12.939,-57.72 -10.241,-16.78 -26.071,-30.03 -44.34,-37.26 -17.33,-6.88 -36.781,-8.27 -54.901,-3.84 -22.049,5.25 -41.92,19.09 -54.47,37.97 -11.91,17.58 -17.37,39.43 -15,60.54 2.28,22.52 13.47,43.95 30.49,58.85 14.14,12.52 32.27,20.49 51.07,22.35 22.141,2.37 45.07,-3.84 63,-17.04 C -16.52,49 -2.649,25.26 0,0"
             style="fill:#ffffff;fill-opacity:1;fill-rule:nonzero;stroke:none"
             id="path28" /></g><g
           id="g30"
           transform="translate(34.9014,257.2832)"><path
             d="m 0,0 c 9.2,8.75 22.88,11.62 35.14,9.21 11.6,-2.11 20.83,-11.66 23.74,-22.92 -3.61,-0.9 -7.23,-1.77 -10.86,-2.56 -2.06,6.99 -6.7,13.79 -14.04,15.85 -8.58,2.2 -18.72,0.94 -25.31,-5.4 -5.75,-5.15 -7.78,-13.04 -8.65,-20.43 -0.63,-9.22 0.09,-19.02 4.89,-27.16 7.57,-12.48 27.48,-14.86 37.56,-4.17 3.7,3.72 5.57,8.8 6.8,13.8 3.64,-0.94 7.29,-1.85 10.95,-2.74 -2.12,-8.51 -6.57,-16.84 -14.08,-21.73 -8.98,-6.08 -20.58,-6.56 -30.89,-4.32 -8.59,1.74 -16.08,7.53 -20.33,15.14 -4.59,8.23 -6.66,17.78 -6.32,27.17 C -11.58,-19.28 -8,-7.79 0,0"
             style="fill:#b71c2d;fill-opacity:1;fill-rule:nonzero;stroke:none"
             id="path32" /></g><g
           id="g34"
           transform="translate(108.272,266.0132)"><path
             d="m 0,0 c 3.659,0.02 7.329,0.01 11,0 v -33.23 c 13.909,-0.02 27.829,-0.01 41.75,-0.01 0.01,11.09 -0.011,22.17 0,33.25 3.59,0 7.17,0.01 10.76,-0.01 -0.01,-26.99 -0.01,-53.99 0,-80.98 -3.59,-0.02 -7.17,-0.01 -10.76,-0.01 -0.011,12.67 0.01,25.33 0,38 -13.921,0 -27.841,0.02 -41.761,-0.01 C 11,-55.66 11,-68.32 11,-80.98 7.329,-80.99 3.659,-81 -0.011,-80.97 0.01,-53.98 0,-26.99 0,0"
             style="fill:#b71c2d;fill-opacity:1;fill-rule:nonzero;stroke:none"
             id="path36" /></g></g></g></g></svg>
