<?xml version="1.0" encoding="UTF-8" standalone="no"?>
<!-- Created with Inkscape (http://www.inkscape.org/) -->

<svg
   version="1.1"
   id="svg2"
   xml:space="preserve"
   width="52.913334"
   height="52.913334"
   viewBox="0 0 52.913334 52.913334"
   xmlns="http://www.w3.org/2000/svg"
   xmlns:svg="http://www.w3.org/2000/svg"><defs
     id="defs6"><clipPath
       clipPathUnits="userSpaceOnUse"
       id="clipPath18"><path
         d="M 0,39.685 H 39.685 V 0 H 0 Z"
         id="path16" /></clipPath></defs><g
     id="g8"
     transform="matrix(1.3333333,0,0,-1.3333333,0,52.913333)"><path
       d="M 0,0.001 H 39.685 V 39.685 L 0,39.685 Z"
       style="fill:#b71c2d;fill-opacity:1;fill-rule:nonzero;stroke:none"
       id="path10" /><g
       id="g12"><g
         id="g14"
         clip-path="url(#clipPath18)"><g
           id="g20"
           transform="translate(10.5908,33.2319)"><path
             d="M 0,0 C 2.051,2.357 5.931,2.688 8.421,0.834 8.646,0.607 8.917,0.682 9.149,0.855 9.334,0.753 9.516,0.649 9.699,0.544 c 0.11,0.202 0.226,0.4 0.342,0.602 0.445,-0.222 0.885,-0.455 1.319,-0.698 -0.097,-0.19 -0.194,-0.383 -0.29,-0.574 0.186,-0.094 0.37,-0.187 0.556,-0.281 -0.037,-0.561 0.598,-0.672 0.938,-0.973 0.519,-0.424 1.03,-0.946 1.204,-1.612 0.137,-0.426 -0.064,-0.843 -0.2,-1.238 -0.356,-0.039 -0.781,-0.196 -1.061,0.117 -0.565,0.505 -1.197,0.918 -1.882,1.241 -0.479,-0.447 -0.67,-1.094 -0.98,-1.652 1.013,-0.569 1.775,-1.649 1.75,-2.837 0.082,-1.09 -0.578,-2.013 -1.033,-2.944 -1.959,-3.886 -3.927,-7.768 -5.884,-11.656 -0.966,1.264 -2.502,2.111 -4.114,2.046 -2.142,-0.013 -4.111,-1.622 -4.615,-3.695 -0.713,0.354 -1.427,0.71 -2.139,1.068 2.746,5.455 5.513,10.9 8.261,16.356 0.529,0.903 0.822,2.002 1.708,2.644 0.967,0.764 2.337,0.843 3.444,0.344 0.276,0.591 0.608,1.153 0.859,1.755 0.137,0.223 -0.122,0.375 -0.268,0.49 -1.93,1.391 -4.665,1.5 -6.699,0.266 C 0.458,-1.101 -0.285,-0.562 0,0"
             style="fill:#ffffff;fill-opacity:1;fill-rule:nonzero;stroke:none"
             id="path22" /></g><g
           id="g24"
           transform="translate(31.8149,29.2417)"><path
             d="M 0,0 C 0.414,-1.318 0.923,-2.617 1.671,-3.783 2.147,-4.519 2.895,-5.014 3.682,-5.365 3.684,-6.661 3.689,-7.957 3.679,-9.254 2.184,-8.23 0.873,-6.869 0.092,-5.222 -0.594,-3.572 -0.39,-1.698 0,0"
             style="fill:#ffffff;fill-opacity:1;fill-rule:nonzero;stroke:none"
             id="path26" /></g><g
           id="g28"
           transform="translate(26.4048,27.4966)"><path
             d="M 0,0 C 1.393,0.157 2.887,-0.438 3.627,-1.661 4.529,-3.156 5.048,-4.853 6.011,-6.316 6.668,-7.31 7.528,-8.172 8.537,-8.806 8.724,-8.925 8.901,-9.063 9.061,-9.222 7.508,-9.576 5.715,-9.407 4.481,-8.318 2.905,-6.887 1.884,-4.881 1.607,-2.774 1.454,-1.68 0.795,-0.736 0,0"
             style="fill:#ffffff;fill-opacity:1;fill-rule:nonzero;stroke:none"
             id="path30" /></g><g
           id="g32"
           transform="translate(27.2202,21.9253)"><path
             d="M 0,0 C 1.765,-2.938 4.759,-5.343 8.279,-5.577 8.279,-6.845 8.28,-8.112 8.277,-9.38 5.861,-9.019 3.595,-7.781 1.991,-5.937 0.518,-4.365 -0.243,-2.145 0,0"
             style="fill:#ffffff;fill-opacity:1;fill-rule:nonzero;stroke:none"
             id="path34" /></g><g
           id="g36"
           transform="translate(24.4438,14.5425)"><path
             d="M 0,0 C 0.889,0.635 2.009,0.974 3.101,0.779 4.513,0.553 5.642,-0.441 6.557,-1.479 7.725,-2.776 9.382,-3.563 11.099,-3.806 10.211,-4.504 9.103,-4.931 7.967,-4.923 6.276,-4.979 4.606,-4.073 3.69,-2.659 2.843,-1.359 1.556,-0.293 0,0"
             style="fill:#ffffff;fill-opacity:1;fill-rule:nonzero;stroke:none"
             id="path38" /></g><g
           id="g40"
           transform="translate(9.8643,12.562)"><path
             d="m 0,0 c 1.373,0.408 2.937,0.077 4.016,-0.867 1.662,-1.384 1.957,-4.063 0.644,-5.779 -1.216,-1.732 -3.783,-2.26 -5.591,-1.17 -1.608,0.876 -2.466,2.87 -2.041,4.643 0.31,1.5 1.5,2.761 2.972,3.173"
             style="fill:#ffffff;fill-opacity:1;fill-rule:nonzero;stroke:none"
             id="path42" /></g><g
           id="g44"
           transform="translate(27.083,10.7036)"><path
             d="m 0,0 c 0.976,-1.105 2.368,-1.762 3.781,-2.108 1.547,-0.317 3.17,-0.115 4.638,0.443 -0.006,-1.279 -0.006,-2.559 0,-3.838 C 6.365,-5.737 4.163,-5.434 2.379,-4.336 0.908,-3.383 0.341,-1.628 0,0"
             style="fill:#ffffff;fill-opacity:1;fill-rule:nonzero;stroke:none"
             id="path46" /></g></g></g></g></svg>
