<?xml version="1.0" encoding="UTF-8" standalone="no"?>
<!-- Created with Inkscape (http://www.inkscape.org/) -->

<svg
   version="1.1"
   id="svg2"
   xml:space="preserve"
   width="354.66934"
   height="165.66667"
   viewBox="0 0 354.66934 165.66667"
   xmlns="http://www.w3.org/2000/svg"
   xmlns:svg="http://www.w3.org/2000/svg"><defs
     id="defs6"><clipPath
       clipPathUnits="userSpaceOnUse"
       id="clipPath16"><path
         d="M 0,124.25 H 266.003 V 0 H 0 Z"
         id="path14" /></clipPath></defs><g
     id="g8"
     transform="matrix(1.3333333,0,0,-1.3333333,0,165.66667)"><g
       id="g10"><g
         id="g12"
         clip-path="url(#clipPath16)"><g
           id="g18"
           transform="translate(0,124.25)"><path
             d="m 0,0 h 242.5 c 0,-9.83 -0.01,-19.67 0,-29.5 7.83,-0.01 15.66,0 23.5,0 0,-21.75 0.01,-43.5 -0.01,-65.25 H 242.5 c -0.01,-9.84 0.01,-19.67 -0.01,-29.5 H 0 Z"
             style="fill:#0a0f0c;fill-opacity:1;fill-rule:nonzero;stroke:none"
             id="path20" /></g><g
           id="g22"
           transform="translate(16.52,117.9902)"><path
             d="M 0,0 C 28.42,0.03 56.84,-0.02 85.26,0.03 71.82,-4.62 60.23,-14.24 53.21,-26.61 35.47,-17.73 17.73,-8.87 0,0"
             style="fill:#ffffff;fill-opacity:1;fill-rule:nonzero;stroke:none"
             id="path24" /></g><g
           id="g26"
           transform="translate(140.6904,118.0098)"><path
             d="M 0,0 C 28.43,-0.03 56.859,0 85.3,-0.02 67.56,-8.89 49.81,-17.76 32.069,-26.63 25.02,-14.29 13.46,-4.61 0,0"
             style="fill:#ffffff;fill-opacity:1;fill-rule:nonzero;stroke:none"
             id="path28" /></g><g
           id="g30"
           transform="translate(6.25,8.1504)"><path
             d="M 0,0 C -0.01,35.949 0.01,71.899 -0.01,107.859 20.2,97.76 40.38,87.609 60.62,77.57 54.2,62.66 54.19,45.21 60.61,30.29 40.42,20.17 20.22,10.069 0,0"
             style="fill:#ffffff;fill-opacity:1;fill-rule:nonzero;stroke:none"
             id="path32" /></g><g
           id="g34"
           transform="translate(175.5996,85.6899)"><path
             d="M 0,0 C 20.23,10.09 40.44,20.22 60.66,30.31 60.631,-5.64 60.67,-41.59 60.641,-77.54 40.42,-67.47 20.21,-57.35 0,-47.23 6.431,-32.34 6.44,-14.88 0,0"
             style="fill:#ffffff;fill-opacity:1;fill-rule:nonzero;stroke:none"
             id="path36" /></g><g
           id="g38"
           transform="translate(113.0801,114.1001)"><path
             d="m 0,0 c 12.71,2.12 26.12,-0.89 36.87,-7.94 11.73,-7.62 20.24,-20.07 22.94,-33.82 2.37,-11.48 0.64,-23.73 -4.76,-34.13 -6.48,-12.89 -18.51,-22.81 -32.38,-26.76 -12.52,-3.6 -26.43,-2.4 -38.05,3.56 -14.23,7.02 -24.88,20.82 -28.03,36.38 -3.06,14.01 0.18,29.2 8.48,40.86 C -26.84,-10.27 -13.98,-2.16 0,0"
             style="fill:#ffffff;fill-opacity:1;fill-rule:nonzero;stroke:none"
             id="path40" /></g><g
           id="g42"
           transform="translate(242.5,35.75)"><path
             d="m 0,0 c 0,17.58 -0.01,35.17 0.01,52.75 5.74,0 11.49,0.01 17.24,-0.01 V 0 C 11.5,-0.01 5.75,0 0,0"
             style="fill:#ffffff;fill-opacity:1;fill-rule:nonzero;stroke:none"
             id="path44" /></g><g
           id="g46"
           transform="translate(137.5,84.6499)"><path
             d="m 0,0 c 6.07,1.35 12.88,0.79 18.13,-2.8 5.56,-3.54 8.53,-10.06 9.19,-16.45 0.78,-7.08 -0.77,-14.83 -5.71,-20.2 -8.46,-9.07 -25.16,-8.59 -32.55,1.61 -5.12,6.881 -5.68,16.26 -3.26,24.27 2,6.56 7.47,11.98 14.2,13.57"
             style="fill:#0a0f0c;fill-opacity:1;fill-rule:nonzero;stroke:none"
             id="path48" /></g><g
           id="g50"
           transform="translate(77.4102,84.4902)"><path
             d="m 0,0 c 2.25,0.01 4.51,0.01 6.76,0.01 4.58,-13.09 9.56,-26.05 13.85,-39.24 4.4,13.23 9.59,26.18 14.4,39.27 2.1,-0.03 4.2,-0.03 6.31,-0.02 C 35.53,-15.01 29.55,-29.96 23.76,-44.99 H 17.42 C 11.66,-29.98 5.82,-14.99 0,0"
             style="fill:#0a0f0c;fill-opacity:1;fill-rule:nonzero;stroke:none"
             id="path52" /></g><g
           id="g54"
           transform="translate(139.5801,79.54)"><path
             d="m 0,0 c 5.36,1.42 11.53,-0.33 15.08,-4.65 2.84,-3.54 4,-8.18 3.88,-12.66 0.15,-4.73 -0.88,-9.79 -4.22,-13.33 -5.34,-6.35 -16.33,-6.36 -21.75,-0.09 -5.02,5.61 -5.06,13.93 -3.23,20.84 C -9.01,-4.99 -4.8,-1.27 0,0"
             style="fill:#ffffff;fill-opacity:1;fill-rule:nonzero;stroke:none"
             id="path56" /></g><g
           id="g58"
           transform="translate(16.8501,6.3896)"><path
             d="M 0,0 C 17.68,8.66 35.23,17.561 52.84,26.351 59.91,14.301 71.12,4.431 84.48,0.021 56.33,-0.27 28.15,-0.21 0,0"
             style="fill:#ffffff;fill-opacity:1;fill-rule:nonzero;stroke:none"
             id="path60" /></g><g
           id="g62"
           transform="translate(141.25,6.2695)"><path
             d="M 0,0 C 13.16,4.79 24.55,14.28 31.48,26.471 49.14,17.671 66.79,8.83 84.44,-0.01 56.29,-0.02 28.15,-0.039 0,0"
             style="fill:#ffffff;fill-opacity:1;fill-rule:nonzero;stroke:none"
             id="path64" /></g></g></g></g></svg>
