<?xml version="1.0" encoding="UTF-8" standalone="no"?>
<!-- Created with Inkscape (http://www.inkscape.org/) -->

<svg
   version="1.1"
   id="svg2"
   xml:space="preserve"
   width="430.66666"
   height="260.332"
   viewBox="0 0 430.66666 260.332"
   xmlns="http://www.w3.org/2000/svg"
   xmlns:svg="http://www.w3.org/2000/svg"><defs
     id="defs6"><clipPath
       clipPathUnits="userSpaceOnUse"
       id="clipPath16"><path
         d="M 0,195.249 H 323 V 0 H 0 Z"
         id="path14" /></clipPath></defs><g
     id="g8"
     transform="matrix(1.3333333,0,0,-1.3333333,0,260.332)"><g
       id="g10"><g
         id="g12"
         clip-path="url(#clipPath16)"><g
           id="g18"
           transform="translate(195.249,97.6246)"><path
             d="m 0,0 c 0,-53.917 -43.708,-97.625 -97.625,-97.625 -53.916,0 -97.624,43.708 -97.624,97.625 0,53.916 43.708,97.624 97.624,97.624 C -43.708,97.624 0,53.916 0,0"
             style="fill:#b71c2d;fill-opacity:1;fill-rule:nonzero;stroke:none"
             id="path20" /></g><g
           id="g22"
           transform="translate(93,192.2491)"><path
             d="m 0,0 9.25,-0.25 c 22,-1.2 42.81,-9.24 59.25,-24 20.54,-17.94 33.56,-42.1 33.81,-69.34 30.47,8.48 60.96,16.9 91.45,25.33 -0.01,-7.74 -0.02,-15.49 0,-23.23 12.08,-0.02 24.16,0 36.24,-0.01 v -6.25 c -12.08,-0.01 -24.16,0.01 -36.24,-0.01 -0.03,-7.73 0.01,-15.46 -0.02,-23.19 -30.49,8.4 -60.95,16.88 -91.43,25.28 -0.29,-21.19 -10.43,-41.64 -23.55,-58.33 -13.36,-17.24 -29.78,-28.67 -51.01,-33.75 -21.5,-5.26 -43.74,-2.74 -63.75,6.75 -20.04,9.36 -34.64,24.551 -44.25,44.461 -5.86,11.82 -9.4,24.409 -10.25,37.539 l -0.25,7.75 c 1.07,24.16 11.81,46.21 29,63.25 17.04,17.2 37.58,26.92 61.75,28"
             style="fill:#b71c2d;fill-opacity:1;fill-rule:nonzero;stroke:none"
             id="path24" /></g><g
           id="g26"
           transform="translate(87.6201,188.4493)"><path
             d="m 0,0 c 19.97,2.28 40.62,-2.4 57.72,-12.94 16.78,-10.24 30.03,-26.07 37.259,-44.34 6.881,-17.33 8.271,-36.781 3.841,-54.901 -5.25,-22.049 -19.091,-41.92 -37.97,-54.469 -17.58,-11.911 -39.43,-17.371 -60.54,-15 -22.52,2.28 -43.95,13.469 -58.85,30.49 -12.52,14.139 -20.49,32.269 -22.35,51.07 -2.37,22.14 3.84,45.07 17.04,63 C -49,-16.52 -25.26,-2.65 0,0"
             style="fill:#ffffff;fill-opacity:1;fill-rule:nonzero;stroke:none"
             id="path28" /></g><g
           id="g30"
           transform="translate(34.8799,129.5089)"><path
             d="m 0,0 c 9.2,8.75 22.88,11.62 35.14,9.21 11.6,-2.11 20.83,-11.66 23.74,-22.92 -3.61,-0.9 -7.23,-1.77 -10.86,-2.56 -2.06,6.99 -6.7,13.79 -14.04,15.85 -8.58,2.2 -18.72,0.94 -25.31,-5.4 -5.75,-5.15 -7.78,-13.04 -8.65,-20.43 -0.63,-9.22 0.09,-19.02 4.89,-27.16 7.57,-12.48 27.48,-14.86 37.56,-4.17 3.7,3.721 5.57,8.801 6.8,13.801 3.64,-0.941 7.29,-1.851 10.95,-2.741 -2.12,-8.509 -6.57,-16.839 -14.08,-21.73 -8.98,-6.08 -20.58,-6.56 -30.89,-4.319 -8.59,1.739 -16.08,7.529 -20.33,15.139 -4.59,8.23 -6.66,17.781 -6.32,27.17 C -11.58,-19.28 -8,-7.79 0,0"
             style="fill:#b71c2d;fill-opacity:1;fill-rule:nonzero;stroke:none"
             id="path32" /></g><g
           id="g34"
           transform="translate(108.25,138.2393)"><path
             d="m 0,0 c 3.66,0.02 7.33,0.01 11,0 v -33.23 c 13.91,-0.02 27.83,-0.01 41.75,-0.01 0.01,11.09 -0.01,22.17 0,33.25 3.59,0 7.17,0.01 10.76,-0.01 -0.01,-26.99 -0.01,-53.99 0,-80.98 -3.59,-0.02 -7.17,-0.01 -10.76,-0.01 -0.01,12.67 0.01,25.33 0,38 -13.92,0 -27.84,0.019 -41.76,-0.01 C 11,-55.66 11,-68.32 11,-80.98 7.33,-80.99 3.66,-81 -0.01,-80.971 0.01,-53.98 0,-26.99 0,0"
             style="fill:#b71c2d;fill-opacity:1;fill-rule:nonzero;stroke:none"
             id="path36" /></g></g></g></g></svg>
