<?xml version="1.0" encoding="UTF-8" standalone="no"?>
<!-- Created with Inkscape (http://www.inkscape.org/) -->

<svg
   version="1.1"
   id="svg2"
   xml:space="preserve"
   width="260.33334"
   height="260.31732"
   viewBox="0 0 260.33334 260.31732"
   xmlns="http://www.w3.org/2000/svg"
   xmlns:svg="http://www.w3.org/2000/svg"><defs
     id="defs6"><clipPath
       clipPathUnits="userSpaceOnUse"
       id="clipPath16"><path
         d="M 0,195.238 H 195.25 V 0 H 0 Z"
         id="path14" /></clipPath></defs><g
     id="g8"
     transform="matrix(1.3333333,0,0,-1.3333333,0,260.31733)"><g
       id="g10"><g
         id="g12"
         clip-path="url(#clipPath16)"><g
           id="g18"
           transform="translate(195.25,97.6189)"><path
             d="m 0,0 c 0,-53.913 -43.705,-97.619 -97.619,-97.619 -53.914,0 -97.619,43.706 -97.619,97.619 0,53.914 43.705,97.619 97.619,97.619 C -43.705,97.619 0,53.914 0,0"
             style="fill:#b71c2d;fill-opacity:1;fill-rule:nonzero;stroke:none"
             id="path20" /></g><g
           id="g22"
           transform="translate(87.5601,188.428)"><path
             d="m 0,0 c 18.3,2.09 37.19,-1.62 53.38,-10.4 19.329,-10.35 34.6,-27.93 42.26,-48.47 5.84,-15.57 7.33,-32.76 4.13,-49.089 -4.12,-22.071 -16.85,-42.371 -34.82,-55.801 -17.96,-13.65 -41.13,-20.26 -63.59,-17.98 -15.58,1.44 -30.72,7.06 -43.52,16.05 -18.53,12.77 -31.93,32.7 -36.87,54.66 -4.56,19.63 -2.22,40.72 6.33,58.95 C -59.59,-23.73 -31.13,-3.15 0,0"
             style="fill:#ffffff;fill-opacity:1;fill-rule:nonzero;stroke:none"
             id="path24" /></g><g
           id="g26"
           transform="translate(36.0601,129.178)"><path
             d="m 0,0 c 9.08,8.9 22.77,11.9 35.06,9.61 11.76,-2 21.29,-11.59 24.11,-23.05 -3.63,-0.83 -7.23,-1.71 -10.86,-2.52 -2.03,7.15 -6.88,14.05 -14.42,15.98 -8.34,1.99 -18.06,0.77 -24.57,-5.21 -5.9,-5.16 -8.1,-13.15 -8.96,-20.66 -0.69,-9.18 0.1,-18.89 4.74,-27.03 7.2,-12.09 25.85,-14.95 36.38,-5.64 4.45,3.84 6.88,9.48 8.11,15.13 3.62,-1.03 7.28,-1.91 10.93,-2.819 -2.08,-8.661 -6.75,-17.111 -14.44,-21.971 -9.2,-5.98 -20.95,-6.3 -31.35,-3.87 -8.14,1.92 -15.19,7.45 -19.32,14.67 -4.7,8.3 -6.81,17.96 -6.49,27.46 C -11.2,-19.09 -7.77,-7.79 0,0"
             style="fill:#b71c2d;fill-opacity:1;fill-rule:nonzero;stroke:none"
             id="path28" /></g><g
           id="g30"
           transform="translate(116.2402,133.0178)"><path
             d="m 0,0 c 6.569,5.41 15.529,6.79 23.8,6.45 7.59,-0.39 15.639,-2.44 21.139,-8 4.371,-4.27 6.491,-10.36 6.831,-16.37 -3.53,-0.22 -7.05,-0.53 -10.57,-0.69 -0.511,4.81 -2.591,9.8 -6.85,12.42 -5.161,3.27 -11.56,3.18 -17.44,2.75 -4.78,-0.46 -9.95,-2.39 -12.39,-6.82 -2.911,-4.66 -0.831,-11.57 4.37,-13.57 10.25,-4.45 21.74,-4.98 31.969,-9.52 4.571,-2.2 8.851,-5.47 11.131,-10.12 3.56,-7.34 2.51,-16.61 -2.49,-23.04 -5.48,-7.32 -14.91,-10.43 -23.75,-10.76 -9.2,-0.189 -19.12,1.09 -26.521,7.02 -6.189,4.93 -9.489,12.76 -9.79,20.56 3.481,0.26 6.96,0.57 10.431,0.93 0.569,-5.75 3.109,-11.699 8.33,-14.659 8.25,-4.841 18.949,-5.391 27.68,-1.531 5.43,2.27 9.14,8.66 7.149,14.45 -1.229,4.15 -5.219,6.541 -9.029,7.98 -8.94,3.09 -18.44,4.29 -27.271,7.74 -5.62,2.2 -10.87,6.3 -12.95,12.15 C -9.01,-14.76 -6.5,-5.31 0,0"
             style="fill:#b71c2d;fill-opacity:1;fill-rule:nonzero;stroke:none"
             id="path32" /></g></g></g></g></svg>
