<?xml version="1.0" encoding="UTF-8" standalone="no"?>
<!-- Created with Inkscape (http://www.inkscape.org/) -->

<svg
   version="1.1"
   id="svg2"
   xml:space="preserve"
   width="680.14001"
   height="260.332"
   viewBox="0 0 680.14001 260.332"
   xmlns="http://www.w3.org/2000/svg"
   xmlns:svg="http://www.w3.org/2000/svg"><defs
     id="defs6"><clipPath
       clipPathUnits="userSpaceOnUse"
       id="clipPath16"><path
         d="M 0,195.249 H 510.105 V 0 H 0 Z"
         id="path14" /></clipPath></defs><g
     id="g8"
     transform="matrix(1.3333333,0,0,-1.3333333,0,260.332)"><g
       id="g10"><g
         id="g12"
         clip-path="url(#clipPath16)"><g
           id="g18"
           transform="translate(352.5596,97.6243)"><path
             d="m 0,0 c 0,-53.917 -43.702,-97.625 -97.613,-97.625 -53.91,0 -97.613,43.708 -97.613,97.625 0,53.917 43.703,97.625 97.613,97.625 C -43.702,97.625 0,53.917 0,0"
             style="fill:#0a0f0c;fill-opacity:1;fill-rule:nonzero;stroke:none"
             id="path20" /></g><g
           id="g22"
           transform="translate(163.9199,104.0286)"><path
             d="M 0,0 C 0.95,13.74 5.1,27.21 11.92,39.16 38.23,24.01 64.46,8.74 90.8,-6.33 65.46,-21.1 39.99,-35.66 14.62,-50.39 13.69,-50.9 12.73,-51.36 11.78,-51.799 2.99,-36.129 -1.33,-17.95 0,0"
             style="fill:#ffffff;fill-opacity:1;fill-rule:nonzero;stroke:none"
             id="path24" /></g><g
           id="g26"
           transform="translate(255.3501,97.6287)"><path
             d="M 0,0 C 26.31,15.16 52.6,30.35 78.89,45.55 95.09,18.03 95.08,-18.02 78.88,-45.54 52.61,-30.31 26.32,-15.13 0,0"
             style="fill:#ffffff;fill-opacity:1;fill-rule:nonzero;stroke:none"
             id="path28" /></g><g
           id="g30"
           transform="translate(0,98.9989)"><path
             d="M 0,0 C 0.51,0.44 1.52,1.31 2.03,1.75 4.65,1.74 7.28,1.92 9.88,1.55 12.36,0.1 11.88,-4.12 8.86,-4.4 5.91,-4.36 1.5,-5.7 0,-2.23 Z"
             style="fill:#0a0f0c;fill-opacity:1;fill-rule:nonzero;stroke:none"
             id="path32" /></g><g
           id="g34"
           transform="translate(19.1499,100.1888)"><path
             d="M 0,0 C 2.38,1.12 5.21,0.45 7.77,0.48 10.55,-0.38 10.52,-4.709 7.78,-5.55 5.53,-5.8 3.24,-5.8 0.99,-5.56 -1.43,-4.99 -2,-1.39 0,0"
             style="fill:#0a0f0c;fill-opacity:1;fill-rule:nonzero;stroke:none"
             id="path36" /></g><g
           id="g38"
           transform="translate(36.3901,99.8787)"><path
             d="M 0,0 C 1.06,1.4 3.07,0.66 4.56,0.89 19.23,0.8 33.91,0.97 48.59,0.81 c 3.49,0 3.37,-6.17 -0.06,-6.14 C 33.23,-5.439 17.93,-5.36 2.63,-5.37 -0.2,-5.89 -2.26,-1.89 0,0"
             style="fill:#0a0f0c;fill-opacity:1;fill-rule:nonzero;stroke:none"
             id="path40" /></g><g
           id="g42"
           transform="translate(94.2798,98.7489)"><path
             d="m 0,0 c 1.18,3.11 5.13,1.74 7.68,2 2.67,0.21 3.38,-2.53 3.17,-4.64 C 8.71,-5.02 5.38,-4.21 2.55,-4.19 0.62,-4.18 -0.96,-1.73 0,0"
             style="fill:#0a0f0c;fill-opacity:1;fill-rule:nonzero;stroke:none"
             id="path44" /></g><g
           id="g46"
           transform="translate(406.29,100.179)"><path
             d="M 0,0 C 1.96,1.17 4.5,0.4 6.7,0.56 9.86,0.89 10.93,-3.98 8.21,-5.27 6.14,-6.07 3.77,-5.61 1.6,-5.64 -1.21,-5.76 -2.51,-1.35 0,0"
             style="fill:#0a0f0c;fill-opacity:1;fill-rule:nonzero;stroke:none"
             id="path48" /></g><g
           id="g50"
           transform="translate(423.46,99.869)"><path
             d="M 0,0 C 1.14,1.32 3.06,0.74 4.58,0.9 19.23,0.81 33.88,0.98 48.53,0.82 52.04,0.81 51.96,-5.26 48.521,-5.311 33.2,-5.44 17.87,-5.34 2.55,-5.36 -0.27,-5.9 -2.33,-1.82 0,0"
             style="fill:#0a0f0c;fill-opacity:1;fill-rule:nonzero;stroke:none"
             id="path52" /></g><g
           id="g54"
           transform="translate(481.7002,99.619)"><path
             d="M 0,0 C 1.88,1.92 4.88,0.92 7.28,1.13 9.88,1.43 11.58,-2.1 9.83,-4 7.79,-5.97 4.64,-4.92 2.12,-5.061 -0.311,-5.03 -1.38,-1.8 0,0"
             style="fill:#0a0f0c;fill-opacity:1;fill-rule:nonzero;stroke:none"
             id="path56" /></g><g
           id="g58"
           transform="translate(498.8604,99.2288)"><path
             d="M 0,0 C 2.22,2.57 6,1.29 8.96,1.45 12.13,0.72 11.8,-3.54 9.21,-4.77 6.71,-4.64 4.17,-4.97 1.699,-4.52 -0.24,-3.97 -0.36,-1.63 0,0"
             style="fill:#0a0f0c;fill-opacity:1;fill-rule:nonzero;stroke:none"
             id="path60" /></g></g></g></g></svg>
