<?xml version="1.0" encoding="UTF-8" standalone="no"?>
<!-- Created with Inkscape (http://www.inkscape.org/) -->

<svg
   version="1.1"
   id="svg2"
   xml:space="preserve"
   width="316"
   height="316"
   viewBox="0 0 316 316"
   xmlns="http://www.w3.org/2000/svg"
   xmlns:svg="http://www.w3.org/2000/svg"><defs
     id="defs6"><clipPath
       clipPathUnits="userSpaceOnUse"
       id="clipPath16"><path
         d="M 0,237 H 237 V 0 H 0 Z"
         id="path14" /></clipPath></defs><g
     id="g8"
     transform="matrix(1.3333333,0,0,-1.3333333,0,316)"><g
       id="g10"><g
         id="g12"
         clip-path="url(#clipPath16)"><g
           id="g18"
           transform="translate(0,237)"><path
             d="m 0,0 h 236.997 c 0,-78.999 0.011,-157.998 -0.01,-236.987 -78.989,-0.021 -157.988,-0.01 -236.987,-0.01 z"
             style="fill:#1ea366;fill-opacity:1;fill-rule:nonzero;stroke:none"
             id="path20" /></g><g
           id="g22"
           transform="translate(170.4297,214.25)"><path
             d="M 0,0 H 44.061 C 43.811,-4.75 44.63,-9.65 43.65,-14.32 35.61,-31.44 26.761,-48.25 16.5,-64.15 10.37,-71.9 2.4,-78.56 -7.02,-81.86 c -25.14,-10.76 -51.57,-18.03 -77.95,-25.04 -2.85,4.98 -0.37,11.21 2.761,15.47 4.099,5.72 11.329,7.16 17.639,9.13 8.2,1.91 15.43,6.41 23.131,9.65 -2.101,6.75 -3.271,14.48 -8.451,19.68 -8.31,-0.18 -17.13,1.58 -24.96,-2.01 -4.839,-2.08 -10.39,-2.88 -14.45,-6.46 -5.06,-4.01 -10.38,-7.7 -15.37,-11.79 -3.3,-5.49 -4.76,-12.03 -8.75,-17.12 -4.44,-4.81 -12.82,-7.36 -18.43,-3.16 4.141,9.39 8.44,18.71 12.661,28.07 1.119,3.01 3.989,4.69 6.409,6.56 6.14,4.52 12.051,9.36 18.28,13.76 6.35,3.13 13,5.62 19.45,8.52 3.95,1.61 7.77,3.89 12.13,4.1 15.33,0.78 30.65,1.63 45.971,2.42 5.46,-0.11 9.399,4.56 11.019,9.32 C -3.66,-13.93 -1.89,-6.94 0,0"
             style="fill:#ffffff;fill-opacity:1;fill-rule:nonzero;stroke:none"
             id="path24" /></g><g
           id="g26"
           transform="translate(85.6401,152.3301)"><path
             d="M 0,0 C 7.34,2.59 14.56,6.76 22.6,6.09 19.57,4.54 16.06,3.86 13.47,1.53 8.18,-2.88 2.7,-7.06 -2.5,-11.57 c -3.39,-5.13 -4.79,-11.42 -8.54,-16.36 -4.13,-5.12 -11.45,-6.72 -17.59,-4.73 5.76,5.1 7.42,12.86 11.01,19.34 C -11.83,-8.79 -6.01,-4.23 0,0"
             style="fill:#ffffff;fill-opacity:1;fill-rule:nonzero;stroke:none"
             id="path28" /></g><g
           id="g30"
           transform="translate(99.5098,150.4102)"><path
             d="M 0,0 C 3.89,3.6 9.26,4.68 14.01,6.72 8.88,1.97 3.39,-2.39 -1.79,-7.08 c -4.07,-4.68 -3.83,-12.24 -9.23,-15.88 -1.88,-1.46 -2.94,-3.69 -4.75,-5.19 -2.49,-1.27 -5.37,-1.49 -8.12,-1.37 4.56,5.13 6.27,11.96 9.71,17.76 C -9.71,-7.55 -4.64,-4.02 0,0"
             style="fill:#ffffff;fill-opacity:1;fill-rule:nonzero;stroke:none"
             id="path32" /></g><g
           id="g34"
           transform="translate(113.6802,153.2998)"><path
             d="M 0,0 C 1.91,1.82 4.4,2.8 6.81,3.78 7.14,3.07 7.8,1.65 8.129,0.94 4.04,-2.68 -0.24,-6.09 -4.24,-9.8 c -1.82,-2.7 -2.72,-5.91 -4.16,-8.82 -3.33,-0.95 -6.63,-2 -9.93,-3.05 1.52,3.13 2.34,6.66 4.38,9.49 C -9.39,-8.02 -4.62,-4.1 0,0"
             style="fill:#ffffff;fill-opacity:1;fill-rule:nonzero;stroke:none"
             id="path36" /></g><g
           id="g38"
           transform="translate(102.1499,101.8799)"><path
             d="m 0,0 c 8.13,6.46 20.09,7.4 29.19,2.44 8.72,-4.51 14.15,-14.08 14.24,-23.81 -6.28,-0.02 -12.55,0 -18.83,-0.02 0.01,-15.74 0,-31.49 0,-47.24 h 18.74 c 0.01,-3.58 0.01,-7.16 0.01,-10.75 -17.92,0 -35.84,-0.01 -53.75,0.01 v 10.74 H 8.35 v 47.25 c -6.29,0.02 -12.58,-0.04 -18.87,0.04 C -10.31,-13.149 -6.64,-4.95 0,0"
             style="fill:#ffffff;fill-opacity:1;fill-rule:nonzero;stroke:none"
             id="path40" /></g><g
           id="g42"
           transform="translate(22.71,39.5098)"><path
             d="M 0,0 C 0.04,1.44 0.09,2.87 0.14,4.3 27.35,4.16 54.57,4.28 81.79,4.24 v -8.25 h -6.25 v 3.99 C 50.36,0.01 25.18,-0.029 0,0"
             style="fill:#ffffff;fill-opacity:1;fill-rule:nonzero;stroke:none"
             id="path44" /></g><g
           id="g46"
           transform="translate(132.75,35.5098)"><path
             d="M 0,0 C -0.03,2.76 -0.01,5.521 0.07,8.29 27.3,8.181 54.52,8.271 81.75,8.24 V 3.99 H 6.26 C 6.25,2.66 6.25,1.32 6.24,-0.01 4.16,-0.01 2.08,0 0,0"
             style="fill:#ffffff;fill-opacity:1;fill-rule:nonzero;stroke:none"
             id="path48" /></g></g></g></g></svg>
