<?xml version="1.0" encoding="UTF-8" standalone="no"?>
<!-- Created with Inkscape (http://www.inkscape.org/) -->

<svg
   version="1.1"
   id="svg2"
   xml:space="preserve"
   width="260.33734"
   height="260.31866"
   viewBox="0 0 260.33734 260.31866"
   xmlns="http://www.w3.org/2000/svg"
   xmlns:svg="http://www.w3.org/2000/svg"><defs
     id="defs6"><clipPath
       clipPathUnits="userSpaceOnUse"
       id="clipPath16"><path
         d="M 0,195.239 H 195.253 V 0 H 0 Z"
         id="path14" /></clipPath></defs><g
     id="g8"
     transform="matrix(1.3333333,0,0,-1.3333333,0,260.31867)"><g
       id="g10"><g
         id="g12"
         clip-path="url(#clipPath16)"><g
           id="g18"
           transform="translate(194.2393,97.6195)"><path
             d="m 0,0 c 0,-53.914 -43.482,-97.62 -97.12,-97.62 -53.637,0 -97.119,43.706 -97.119,97.62 0,53.914 43.482,97.62 97.119,97.62 C -43.482,97.62 0,53.914 0,0"
             style="fill:#b71c2d;fill-opacity:1;fill-rule:nonzero;stroke:none"
             id="path20" /></g><g
           id="g22"
           transform="translate(87.6602,188.4393)"><path
             d="m 0,0 c 18.27,2.07 37.13,-1.65 53.29,-10.42 19.09,-10.22 34.22,-27.5 41.97,-47.71 5.96,-15.48 7.61,-32.61 4.59,-48.931 -4,-22.62 -17.02,-43.469 -35.5,-57.089 -18.15,-13.59 -41.52,-20.031 -64.07,-17.5 -17.82,1.82 -34.96,9.19 -48.71,20.64 -15.53,12.82 -26.56,30.949 -30.85,50.619 -5.11,22.781 -0.96,47.501 11.39,67.331 C -53.46,-19.3 -27.69,-2.84 0,0"
             style="fill:#ffffff;fill-opacity:1;fill-rule:nonzero;stroke:none"
             id="path24" /></g><g
           id="g26"
           transform="translate(44.9702,132.179)"><path
             d="m 0,0 c 10.28,7.5 24.27,9.28 36.27,5.33 9.71,-3.25 16.8,-11.97 19.38,-21.72 -3.57,-0.91 -7.17,-1.72 -10.76,-2.57 -2.15,6.63 -6.31,13.34 -13.29,15.57 -9.36,2.92 -20.82,1.08 -27.52,-6.51 -5.76,-6.53 -7.27,-15.6 -7.55,-24.02 0.22,-8.95 1.63,-18.68 7.77,-25.62 8.81,-9.16 25.23,-10.32 34.51,-1.24 3.88,3.81 6.03,9.01 7.19,14.24 3.73,-0.72 7.39,-1.77 11.08,-2.669 -2.13,-8.241 -6.37,-16.271 -13.47,-21.25 -9.09,-6.601 -21.17,-7.071 -31.79,-4.741 -8.47,1.82 -15.86,7.52 -20.04,15.06 -6.26,11.27 -7.84,24.84 -5.4,37.41 C -11.95,-13.88 -7.29,-5.42 0,0"
             style="fill:#b71c2d;fill-opacity:1;fill-rule:nonzero;stroke:none"
             id="path28" /></g><g
           id="g30"
           transform="translate(130.5498,116.5091)"><path
             d="m 0,0 c 9.51,2.09 20.48,-0.11 27.13,-7.61 5.67,-6.03 7.431,-14.63 7.31,-22.67 -0.23,-6.79 -1.04,-14.02 -5.19,-19.67 -9.59,-13.42 -31.89,-14.58 -42.88,-2.33 -5.309,5.97 -7.16,14.24 -6.95,22.04 -0.22,7.6 1.34,15.63 6.23,21.66 3.6,4.41 8.83,7.32 14.35,8.58"
             style="fill:#b71c2d;fill-opacity:1;fill-rule:nonzero;stroke:none"
             id="path32" /></g><g
           id="g34"
           transform="translate(132.2197,107.9593)"><path
             d="m 0,0 c 6.16,2.1 13.42,0.09 17.53,-4.97 4.071,-4.88 4.901,-11.54 4.75,-17.68 -0.219,-5.94 -1.5,-12.391 -5.969,-16.66 -5.181,-5.11 -13.96,-5.95 -19.96,-1.811 -3.681,2.321 -6.051,6.261 -7.161,10.401 -1.52,6.24 -1.52,12.86 0.161,19.059 C -9.229,-6.37 -5.25,-1.74 0,0"
             style="fill:#ffffff;fill-opacity:1;fill-rule:nonzero;stroke:none"
             id="path36" /></g></g></g></g></svg>
