<?xml version="1.0" encoding="UTF-8" standalone="no"?>
<!-- Created with Inkscape (http://www.inkscape.org/) -->

<svg
   version="1.1"
   id="svg2"
   xml:space="preserve"
   width="260.33334"
   height="165.65868"
   viewBox="0 0 260.33334 165.65868"
   xmlns="http://www.w3.org/2000/svg"
   xmlns:svg="http://www.w3.org/2000/svg"><defs
     id="defs6"><clipPath
       clipPathUnits="userSpaceOnUse"
       id="clipPath16"><path
         d="M 0,124.244 H 195.25 V 0 H 0 Z"
         id="path14" /></clipPath></defs><g
     id="g8"
     transform="matrix(1.3333333,0,0,-1.3333333,0,165.65867)"><g
       id="g10"><g
         id="g12"
         clip-path="url(#clipPath16)"><g
           id="g18"
           transform="translate(0,124.2444)"><path
             d="m 0,0 h 195.25 c -0.02,-41.41 0,-82.83 -0.01,-124.24 -65.08,-0.01 -130.16,0 -195.24,0 z"
             style="fill:#0a0f0c;fill-opacity:1;fill-rule:nonzero;stroke:none"
             id="path20" /></g><g
           id="g22"
           transform="translate(6.2402,118.0042)"><path
             d="m 0,0 h 182.779 c 0.031,-37.27 0.011,-74.529 0.011,-111.79 -60.931,0.011 -121.86,-0.02 -182.79,0.011 z"
             style="fill:#ffffff;fill-opacity:1;fill-rule:nonzero;stroke:none"
             id="path24" /></g><g
           id="g26"
           transform="translate(45.0298,88.7147)"><path
             d="M 0,0 C 2.91,0.07 5.82,0.08 8.73,0.06 14.84,-15.48 21.31,-30.9 27,-46.6 c 5.8,15.75 12.6,31.12 18.93,46.67 2.74,-0.01 5.48,0 8.22,-0.03 C 46.62,-17.79 38.78,-35.49 31.11,-53.27 H 22.82 C 15.19,-35.53 7.56,-17.78 0,0"
             style="fill:#0a0f0c;fill-opacity:1;fill-rule:nonzero;stroke:none"
             id="path28" /></g><g
           id="g30"
           transform="translate(105.4805,88.7645)"><path
             d="m 0,0 c 7.159,0.02 14.31,0 21.47,0.02 4.45,-0.04 9.08,-0.3 13.13,-2.33 5.049,-2.56 8.37,-8.61 6.879,-14.23 -0.82,-3.93 -4.15,-6.55 -7.339,-8.62 4.46,-0.87 8.429,-4.13 9.899,-8.46 1.65,-5.57 -0.18,-12.04 -4.729,-15.72 -3.621,-2.8 -8.331,-3.57 -12.781,-3.93 C 17.72,-53.43 8.909,-53.21 0.1,-53.38 -0.15,-35.59 0.05,-17.79 0,0"
             style="fill:#0a0f0c;fill-opacity:1;fill-rule:nonzero;stroke:none"
             id="path32" /></g><g
           id="g34"
           transform="translate(113.5303,82.2347)"><path
             d="m 0,0 c 6.87,-0.21 13.87,0.62 20.64,-0.88 5.17,-1.22 6.86,-8.73 3.06,-12.26 -2.16,-2.06 -5.32,-2.5 -8.18,-2.58 C 10.35,-15.74 5.189,-15.7 0.02,-15.73 -0.021,-10.48 0.01,-5.24 0,0"
             style="fill:#ffffff;fill-opacity:1;fill-rule:nonzero;stroke:none"
             id="path36" /></g><g
           id="g38"
           transform="translate(113.5498,59.9847)"><path
             d="m 0,0 c 7.17,-0.24 14.46,0.62 21.54,-0.9 4.37,-0.9 7.66,-5.531 6.49,-9.97 -0.79,-4.42 -5.36,-6.97 -9.58,-7.021 C 12.3,-18.021 6.141,-17.92 -0.01,-17.92 -0.01,-11.95 -0.04,-5.971 0,0"
             style="fill:#ffffff;fill-opacity:1;fill-rule:nonzero;stroke:none"
             id="path40" /></g></g></g></g></svg>
