<?xml version="1.0" encoding="UTF-8" standalone="no"?>
<!-- Created with Inkscape (http://www.inkscape.org/) -->

<svg
   version="1.1"
   id="svg2"
   xml:space="preserve"
   width="257.62668"
   height="324.77866"
   viewBox="0 0 257.62668 324.77866"
   xmlns="http://www.w3.org/2000/svg"
   xmlns:svg="http://www.w3.org/2000/svg"><defs
     id="defs6"><clipPath
       clipPathUnits="userSpaceOnUse"
       id="clipPath16"><path
         d="M 0,243.584 H 193.22 V 0 H 0 Z"
         id="path14" /></clipPath></defs><g
     id="g8"
     transform="matrix(1.3333333,0,0,-1.3333333,0,324.77867)"><g
       id="g10"><g
         id="g12"
         clip-path="url(#clipPath16)"><g
           id="g18"
           transform="translate(91.6401,243.5838)"><path
             d="m 0,0 h 10.22 c 20.9,-1.22 41.35,-9.24 57.29,-22.83 18.75,-15.68 31.08,-38.76 33.699,-63.07 0.851,-6.15 0.21,-12.48 -1.649,-18.39 -13.99,-43.57 -28.03,-87.13 -42.01,-130.7 -0.71,-2.95 -3.33,-5.17 -6.35,-5.43 -30.68,-4.23 -61.95,-4.21 -92.63,0.01 -2.99,0.22 -5.53,2.46 -6.24,5.34 -12.95,40.33 -25.92,80.65 -38.88,120.98 -1.99,6.48 -4.6,12.86 -5.09,19.69 v 5.94 c 2.17,25.89 15.24,50.63 35.52,66.89 C -40.33,-8.62 -20.35,-1.15 0,0"
             style="fill:#0a0f0c;fill-opacity:1;fill-rule:nonzero;stroke:none"
             id="path20" /></g><g
           id="g22"
           transform="translate(29.23,206.3538)"><path
             d="m 0,0 c 14.4,16.41 35.01,27.2 56.7,29.66 17.21,2.05 35,-0.92 50.53,-8.64 20.23,-9.96 36.47,-27.81 44.3,-48.97 3.62,-9.31 5.23,-19.27 5.8,-29.2 -27.76,14.66 -59.1,22.42 -90.5,22.4 -31,-0.19 -61.96,-7.81 -89.33,-22.39 0.41,20.92 8.58,41.55 22.5,57.14"
             style="fill:#ffffff;fill-opacity:1;fill-rule:nonzero;stroke:none"
             id="path24" /></g><g
           id="g26"
           transform="translate(79.5801,163.784)"><path
             d="m 0,0 c 30.68,2.89 62.07,-2.15 90.34,-14.41 2.3,-0.68 2.56,-4.31 0.22,-5.13 -46.32,-20.44 -101.15,-20.4 -147.43,0.13 -2.09,1 -1.66,4.31 0.47,4.99 17.86,7.78 37,12.6 56.4,14.42"
             style="fill:#ffffff;fill-opacity:1;fill-rule:nonzero;stroke:none"
             id="path28" /></g></g></g></g></svg>
