<?xml version="1.0" encoding="UTF-8" standalone="no"?>
<!-- Created with Inkscape (http://www.inkscape.org/) -->

<svg
   version="1.1"
   id="svg2"
   xml:space="preserve"
   width="524"
   height="260.336"
   viewBox="0 0 524 260.336"
   xmlns="http://www.w3.org/2000/svg"
   xmlns:svg="http://www.w3.org/2000/svg"><defs
     id="defs6"><clipPath
       clipPathUnits="userSpaceOnUse"
       id="clipPath16"><path
         d="M 0,195.252 H 393 V 0 H 0 Z"
         id="path14" /></clipPath></defs><g
     id="g8"
     transform="matrix(1.3333333,0,0,-1.3333333,0,260.336)"><g
       id="g10"><g
         id="g12"
         clip-path="url(#clipPath16)"><g
           id="g18"
           transform="translate(41.5,195.2525)"><path
             d="m 0,0 h 195.25 c -0.01,-19.24 0.01,-38.49 -0.01,-57.73 13.96,5.29 27.87,10.71 41.8,16.05 -3.26,-16.25 -6.5,-32.5 -9.75,-48.74 21.94,8.41 43.88,16.86 65.81,25.31 -1.81,4.67 -3.61,9.34 -5.41,14.02 21.27,1.98 42.52,4.38 63.81,5.99 v -0.16 c -17.31,-12.45 -34.38,-25.22 -51.58,-37.82 -1.72,4.66 -3.55,9.28 -5.29,13.93 -24.34,-9.42 -48.72,-18.72 -73.05,-28.13 3.16,16.26 6.45,32.51 9.68,48.76 -12,-4.72 -24.1,-9.18 -36.07,-13.97 0.14,-44.25 0.02,-88.5 0.06,-132.75 -65.08,-0.02 -130.16,-0.01 -195.24,-0.01 0.04,19.21 -0.11,38.42 0.07,57.63 -13.49,-4.78 -26.72,-10.28 -40.15,-15.24 -0.49,1.23 -0.97,2.46 -1.43,3.7 v 0.4 c 13.87,5.22 27.69,10.6 41.53,15.92 C -0.03,-88.56 0.02,-44.28 0,0"
             style="fill:#0a0f0c;fill-opacity:1;fill-rule:nonzero;stroke:none"
             id="path20" /></g><g
           id="g22"
           transform="translate(47.79,189.0225)"><path
             d="m 0,0 c 60.9,-0.05 121.81,0 182.71,-0.03 0.019,-60.89 -0.04,-121.79 0.04,-182.68 -60.93,-0.14 -121.86,-0.03 -182.79,-0.06 C -0.02,-121.84 -0.09,-60.92 0,0"
             style="fill:#ffffff;fill-opacity:1;fill-rule:nonzero;stroke:none"
             id="path24" /></g><g
           id="g26"
           transform="translate(94.0801,141.0123)"><path
             d="m 0,0 c 4.11,-0.08 8.22,0.12 12.33,-0.13 11.48,-28.4 23.23,-56.71 34.75,-85.099 -4.37,-0.041 -8.74,-0.05 -13.11,0 -3.32,8.569 -6.6,17.149 -9.9,25.719 -11.76,0 -23.51,0.01 -35.27,-0.01 -3.01,-8.56 -6.28,-17.03 -9.19,-25.629 -4.11,-0.221 -8.23,-0.091 -12.34,-0.071 C -21.87,-56.8 -10.97,-28.39 0,0"
             style="fill:#0a0f0c;fill-opacity:1;fill-rule:nonzero;stroke:none"
             id="path28" /></g><g
           id="g30"
           transform="translate(150.02,141.0123)"><path
             d="m 0,0 c 3.84,-0.05 7.69,0.07 11.53,-0.09 -0.11,-17.86 -0.04,-35.73 -0.03,-53.59 0.4,-5.96 0.89,-12.75 5.57,-17.08 5.39,-5.389 13.7,-6.12 20.9,-5.19 5.49,0.61 11.5,2.85 14.17,8.051 2.67,5.259 3.06,11.29 3.34,17.069 0.02,16.94 -0.01,33.89 0.01,50.83 3.82,-0.01 7.64,-0.02 11.47,0 0.06,-16.24 -0.01,-32.49 0.03,-48.74 -0.18,-7.6 -0.48,-15.47 -3.62,-22.51 -3.88,-8.37 -12.62,-13.62 -21.58,-14.81 -8.31,-1.04 -17.04,-0.879 -24.94,2.19 -5.42,2.11 -10.13,6.13 -12.77,11.35 -3.11,6.07 -3.79,13.02 -4.09,19.741 C -0.02,-35.19 -0.04,-17.59 0,0"
             style="fill:#0a0f0c;fill-opacity:1;fill-rule:nonzero;stroke:none"
             id="path32" /></g><g
           id="g34"
           transform="translate(99.8599,131.0923)"><path
             d="M 0,0 C 4.38,-13.54 9.75,-26.74 14.67,-40.09 5.29,-40.13 -4.1,-40.01 -13.48,-40.16 -9.1,-26.74 -2.69,-13.93 0,0"
             style="fill:#ffffff;fill-opacity:1;fill-rule:nonzero;stroke:none"
             id="path36" /></g></g></g></g></svg>
