<?xml version="1.0" encoding="UTF-8" standalone="no"?>
<!-- Created with Inkscape (http://www.inkscape.org/) -->

<svg
   version="1.1"
   id="svg2"
   xml:space="preserve"
   width="373"
   height="260.38266"
   viewBox="0 0 373 260.38266"
   xmlns="http://www.w3.org/2000/svg"
   xmlns:svg="http://www.w3.org/2000/svg"><defs
     id="defs6"><clipPath
       clipPathUnits="userSpaceOnUse"
       id="clipPath16"><path
         d="M 0,195.287 H 279.75 V 0 H 0 Z"
         id="path14" /></clipPath></defs><g
     id="g8"
     transform="matrix(1.3333333,0,0,-1.3333333,0,260.38267)"><g
       id="g10"><g
         id="g12"
         clip-path="url(#clipPath16)"><g
           id="g18"
           transform="translate(44.4702,195.2873)"><path
             d="m 0,0 h 190.87 c 1.4,-0.83 2.45,-2.23 2.16,-3.94 0,-30.19 -0.01,-60.37 0,-90.56 14.08,-0.01 28.16,0 42.25,0 -0.01,-2.08 -0.01,-4.16 0,-6.25 -14.08,0 -28.16,0.01 -42.24,0 -0.03,-30.42 0.009,-60.84 -0.02,-91.25 0.12,-1.87 -1.65,-3.45 -3.48,-3.24 -62.68,-0.02 -125.36,-0.02 -188.04,0 -1.96,-0.35 -3.93,1.29 -3.71,3.31 -0.02,30.39 0,60.78 -0.01,91.18 -14.09,0.01 -28.17,0 -42.25,0 v 6.25 c 14.08,0.01 28.17,-0.02 42.25,0.01 0.01,30.5 -0.02,60.99 0.01,91.49 -0.15,1.43 1.09,2.42 2.21,3"
             style="fill:#0a0f0c;fill-opacity:1;fill-rule:nonzero;stroke:none"
             id="path20" /></g><g
           id="g22"
           transform="translate(48.5,189.0276)"><path
             d="m 0,0 c 60.91,0.02 121.83,0.01 182.75,0.01 v -182.75 c -60.92,0 -121.84,-0.02 -182.76,0.01 C 0.01,-121.82 0,-60.91 0,0"
             style="fill:#ffffff;fill-opacity:1;fill-rule:nonzero;stroke:none"
             id="path24" /></g><g
           id="g26"
           transform="translate(164.3398,171.9475)"><path
             d="M 0,0 C 1.891,1.76 5.46,-0.06 5.17,-2.64 5.01,-4.63 3.101,-5.6 1.84,-6.85 c -14.739,-13.3 -29.42,-26.66 -44.16,-39.95 -1.59,-1.26 -2.39,-3.59 -1.36,-5.45 1.2,-1.7 2.88,-2.98 4.41,-4.37 12.4,-11.25 24.85,-22.46 37.24,-33.72 3.33,-2.931 4.36,-8.07 2.56,-12.1 -1.07,-2.76 -3.55,-4.52 -5.639,-6.46 -14.58,-13.161 -29.111,-26.371 -43.701,-39.52 -1.26,-1.23 -3.89,-1.06 -4.8,0.52 -0.99,1.41 -0.54,3.549 0.89,4.49 15.41,13.98 30.88,27.9 46.27,41.9 2.16,1.619 2.06,5.04 -0.06,6.65 -13.44,12.25 -26.99,24.38 -40.42,36.63 -4.46,3.86 -4.58,11.44 -0.35,15.5 C -31.51,-28.49 -15.8,-14.2 0,0"
             style="fill:#0a0f0c;fill-opacity:1;fill-rule:nonzero;stroke:none"
             id="path28" /></g></g></g></g></svg>
