<?xml version="1.0" encoding="UTF-8" standalone="no"?>
<!-- Created with Inkscape (http://www.inkscape.org/) -->

<svg
   version="1.1"
   id="svg2"
   xml:space="preserve"
   width="260"
   height="569.58667"
   viewBox="0 0 260 569.58667"
   xmlns="http://www.w3.org/2000/svg"
   xmlns:svg="http://www.w3.org/2000/svg"><defs
     id="defs6"><clipPath
       clipPathUnits="userSpaceOnUse"
       id="clipPath16"><path
         d="M 0,427.19 H 195 V 0 H 0 Z"
         id="path14" /></clipPath></defs><g
     id="g8"
     transform="matrix(1.3333333,0,0,-1.3333333,0,569.58667)"><g
       id="g10"><g
         id="g12"
         clip-path="url(#clipPath16)"><g
           id="g18"
           transform="translate(195,214.4898)"><path
             d="m 0,0 c 0,-53.848 -43.652,-97.5 -97.5,-97.5 -53.848,0 -97.5,43.652 -97.5,97.5 0,53.848 43.652,97.5 97.5,97.5 C -43.652,97.5 0,53.848 0,0"
             style="fill:#0a0f0c;fill-opacity:1;fill-rule:nonzero;stroke:none"
             id="path20" /></g><g
           id="g22"
           transform="translate(97.5698,427.19)"><path
             d="m 0,0 v 0 c 8.02,-22.29 15.78,-44.67 23.74,-66.99 -6.94,-0.03 -20.82,-0.03 -20.82,-0.03 0,0 -0.03,-34.586 0,-50.647 22.85,-0.47 43.59,-9.013 60.51,-24.333 19.66,-17.48 30.807,-42.083 31.667,-68.333 v -2.367 c -0.79,-23.82 -8.351,-46.533 -25.032,-63.633 C 52.735,-294.873 28.15,-305.827 2.86,-306.667 3,-345.316 2.847,-427.19 2.847,-427.19 H -2.85 c 0,0 0.124,81.463 -0.216,120.523 -22.93,0.46 -45.564,9.59 -62.504,25 -18.98,16.95 -26.913,38.297 -28.333,63.667 l -1.333,9.333 c 1.299,25.07 13.823,49.344 32.333,66.334 17.07,15.919 36.483,24.54 59.843,25 0.02,16.07 -0.01,50.333 -0.01,50.333 0,0 -13.92,-0.02 -20.87,0.01 C -16.13,-44.64 -7.82,-22.35 0,0"
             style="fill:#0a0f0c;fill-opacity:1;fill-rule:nonzero;stroke:none"
             id="path24" /></g><g
           id="g26"
           transform="translate(55.4302,295.7901)"><path
             d="m 0,0 c 12,6.33 25.5,9.83 39.06,10.19 0.03,-12.3 0,-24.6 0.01,-36.9 -27.92,-27.92 -55.82,-55.86 -83.76,-83.76 -7.08,20.95 -6.29,44.46 2.41,64.8 C -34.06,-26.16 -18.86,-9.65 0,0"
             style="fill:#ffffff;fill-opacity:1;fill-rule:nonzero;stroke:none"
             id="path28" /></g><g
           id="g30"
           transform="translate(100.4297,305.8399)"><path
             d="m 0,0 c 20.87,-0.18 41.38,-8.65 57.07,-22.3 16.241,-14.11 27.33,-34.09 30.42,-55.4 2.2,-14.27 0.84,-29.03 -3.76,-42.7 C 55.82,-92.55 27.95,-64.64 0.061,-36.76 0.03,-24.51 0.16,-12.25 0,0"
             style="fill:#ffffff;fill-opacity:1;fill-rule:nonzero;stroke:none"
             id="path32" /></g><g
           id="g34"
           transform="translate(47.2192,213.4302)"><path
             d="m 0,0 c 0,0 31.761,31.89 47.281,47.35 0,-45.79 -0.01,-91.58 0.01,-137.371 -16.74,0.451 -33.26,5.781 -47.26,14.941 C 0.021,-51.061 0,0 0,0"
             style="fill:#ffffff;fill-opacity:1;fill-rule:nonzero;stroke:none"
             id="path36" /></g><g
           id="g38"
           transform="translate(100.4902,260.5401)"><path
             d="m 0,0 c 15.7,-15.61 31.3,-31.32 46.99,-46.94 0.039,-25.11 0.02,-50.23 0.02,-75.34 C 33.069,-131.37 16.649,-136.63 0,-137.13 0.01,-91.42 0.02,-45.71 0,0"
             style="fill:#ffffff;fill-opacity:1;fill-rule:nonzero;stroke:none"
             id="path40" /></g><g
           id="g42"
           transform="translate(153.4902,207.3004)"><path
             d="M 0,0 C 9.45,-9.4 18.859,-18.851 28.29,-28.271 22.1,-42.591 12.399,-55.41 0.029,-64.95 -0.021,-43.301 0.029,-21.65 0,0"
             style="fill:#ffffff;fill-opacity:1;fill-rule:nonzero;stroke:none"
             id="path44" /></g><g
           id="g46"
           transform="translate(13.1001,179.1597)"><path
             d="M 0,0 C 9.39,9.38 18.75,18.771 28.15,28.13 28.16,6.511 28.14,-15.12 28.16,-36.75 15.92,-27.09 6.01,-14.41 0,0"
             style="fill:#ffffff;fill-opacity:1;fill-rule:nonzero;stroke:none"
             id="path48" /></g></g></g></g></svg>
