<?xml version="1.0" encoding="UTF-8" standalone="no"?>
<!-- Created with Inkscape (http://www.inkscape.org/) -->

<svg
   version="1.1"
   id="svg2"
   xml:space="preserve"
   width="511"
   height="260.32132"
   viewBox="0 0 511 260.32132"
   xmlns="http://www.w3.org/2000/svg"
   xmlns:svg="http://www.w3.org/2000/svg"><defs
     id="defs6"><clipPath
       clipPathUnits="userSpaceOnUse"
       id="clipPath16"><path
         d="M 0,195.241 H 383.25 V 0 H 0 Z"
         id="path14" /></clipPath></defs><g
     id="g8"
     transform="matrix(1.3333333,0,0,-1.3333333,0,260.32133)"><g
       id="g10"><g
         id="g12"
         clip-path="url(#clipPath16)"><g
           id="g18"
           transform="translate(227.0801,97.6455)"><path
             d="m 0,0 c 0,-53.947 -43.773,-97.68 -97.77,-97.68 -53.997,0 -97.77,43.733 -97.77,97.68 0,53.947 43.773,97.68 97.77,97.68 C -43.773,97.68 0,53.947 0,0"
             style="fill:#0a0f0c;fill-opacity:1;fill-rule:nonzero;stroke:none"
             id="path20" /></g><g
           id="g22"
           transform="translate(213.1904,147.981)"><path
             d="M 0,0 C 0,0 113.369,0 170.06,0.01 V -100.74 H -0.091 -167.5 -213.19 V 0.01 c 15.25,0.02 45.74,0.04 45.74,0.04 z"
             style="fill:#0a0f0c;fill-opacity:1;fill-rule:nonzero;stroke:none"
             id="path24" /></g><g
           id="g26"
           transform="translate(103.9902,185.3809)"><path
             d="M 0,0 C 18.29,5.34 38.25,4.75 56.17,-1.73 74.65,-8.26 90.76,-21.07 101.6,-37.36 50.81,-37.42 0.03,-37.39 -50.76,-37.37 -38.95,-19.45 -20.62,-5.96 0,0"
             style="fill:#b71c2d;fill-opacity:1;fill-rule:nonzero;stroke:none"
             id="path28" /></g><g
           id="g30"
           transform="translate(216.8203,141.731)"><path
             d="M 0,0 C 3.16,0.05 6.319,0.05 9.47,-0.1 9.17,-9.47 9.88,-18.89 9.109,-28.24 7.319,-18.45 4.06,-9.06 0,0"
             style="fill:#b71c2d;fill-opacity:1;fill-rule:nonzero;stroke:none"
             id="path32" /></g><g
           id="g34"
           transform="translate(6.1802,141.6309)"><path
             d="M 0,0 C 6.35,0.25 12.71,0.07 19.06,0.1 19.07,-29.32 19.09,-58.73 19.05,-88.14 12.73,-88.13 6.4,-88.15 0.07,-88.13 0.02,-58.76 0.17,-29.38 0,0"
             style="fill:#b71c2d;fill-opacity:1;fill-rule:nonzero;stroke:none"
             id="path36" /></g><g
           id="g38"
           transform="translate(46.4302,135.8008)"><path
             d="M 0,0 C 1.05,2.2 1.95,4.54 3.7,6.31 3.89,-23.36 3.94,-53.041 3.67,-82.71 -1.21,-75.74 -3.78,-67.37 -5.91,-59.2 -10.66,-39.55 -8.51,-18.34 0,0"
             style="fill:#b71c2d;fill-opacity:1;fill-rule:nonzero;stroke:none"
             id="path40" /></g><g
           id="g42"
           transform="translate(56.5,141.7408)"><path
             d="m 0,0 c 6.33,0.01 12.66,0.01 19,0 -0.01,-29.28 0.06,-58.55 -0.04,-87.83 l -0.34,-0.36 C 12.43,-88.39 6.24,-88.14 0.06,-88.29 -0.08,-58.86 0.02,-29.43 0,0"
             style="fill:#b71c2d;fill-opacity:1;fill-rule:nonzero;stroke:none"
             id="path44" /></g><g
           id="g46"
           transform="translate(81.75,141.731)"><path
             d="m 0,0 c 6.25,0.03 12.5,0.02 18.74,0.01 -0.06,-29.45 0.19,-58.901 -0.12,-88.33 -6.21,0.17 -12.41,0.04 -18.61,0.08 C -0.01,-58.82 0,-29.41 0,0"
             style="fill:#b71c2d;fill-opacity:1;fill-rule:nonzero;stroke:none"
             id="path48" /></g><g
           id="g50"
           transform="translate(106.7598,141.731)"><path
             d="m 0,0 c 6.34,0.01 12.68,0.07 19.02,-0.04 -0.08,-29.4 0,-58.8 -0.04,-88.2 C 12.66,-88.25 6.34,-88.23 0.02,-88.25 -0.04,-58.83 0,-29.41 0,0"
             style="fill:#b71c2d;fill-opacity:1;fill-rule:nonzero;stroke:none"
             id="path52" /></g><g
           id="g54"
           transform="translate(132,141.731)"><path
             d="m 0,0 c 6.27,-0.01 12.54,0.12 18.8,-0.08 -0.13,-29.38 0,-58.771 -0.06,-88.16 C 12.5,-88.25 6.26,-88.23 0.02,-88.25 -0.02,-58.83 0.01,-29.42 0,0"
             style="fill:#b71c2d;fill-opacity:1;fill-rule:nonzero;stroke:none"
             id="path56" /></g><g
           id="g58"
           transform="translate(157,141.7408)"><path
             d="m 0,0 c 6.33,0.01 12.66,0.02 19,-0.01 -0.01,-29.41 0.02,-58.83 -0.01,-88.24 -6.32,0 -12.64,0.01 -18.96,-0.02 C -0.03,-58.85 0.01,-29.42 0,0"
             style="fill:#b71c2d;fill-opacity:1;fill-rule:nonzero;stroke:none"
             id="path60" /></g><g
           id="g62"
           transform="translate(182.1699,141.6109)"><path
             d="m 0,0 c 6.27,0.3 12.55,0.07 18.83,0.13 -0.01,-29.42 0.02,-58.84 -0.019,-88.26 -6.241,0.02 -12.491,0 -18.731,0.02 C 0.02,-58.74 0.19,-29.37 0,0"
             style="fill:#b71c2d;fill-opacity:1;fill-rule:nonzero;stroke:none"
             id="path64" /></g><g
           id="g66"
           transform="translate(232.5098,141.7408)"><path
             d="m 0,0 c 6.24,0.01 12.49,0.02 18.73,-0.01 0,-29.41 0.05,-58.83 -0.02,-88.25 -6.279,0.1 -12.56,-0.18 -18.83,0.17 C 0.13,-58.73 -0.1,-29.36 0,0"
             style="fill:#b71c2d;fill-opacity:1;fill-rule:nonzero;stroke:none"
             id="path68" /></g><g
           id="g70"
           transform="translate(257.5,141.731)"><path
             d="M 0,0 C 6.33,0.02 12.66,0.02 19,0.01 19.09,-29.35 18.86,-58.721 19.11,-88.07 12.76,-88.45 6.39,-88.12 0.03,-88.26 -0.05,-58.84 0.01,-29.42 0,0"
             style="fill:#b71c2d;fill-opacity:1;fill-rule:nonzero;stroke:none"
             id="path72" /></g><g
           id="g74"
           transform="translate(282.7598,141.731)"><path
             d="M 0,0 C 6.29,0.06 12.59,-0.06 18.891,0.08 19.13,-29.36 18.92,-58.8 18.99,-88.24 12.66,-88.25 6.34,-88.23 0.03,-88.25 -0.05,-58.83 0,-29.41 0,0"
             style="fill:#b71c2d;fill-opacity:1;fill-rule:nonzero;stroke:none"
             id="path76" /></g><g
           id="g78"
           transform="translate(308,141.7408)"><path
             d="m 0,0 c 6.26,-0.02 12.53,0.08 18.79,-0.06 -0.1,-29.39 -0.01,-58.79 -0.05,-88.19 -6.24,0 -12.48,0.01 -18.72,-0.01 C -0.02,-58.84 0.01,-29.42 0,0"
             style="fill:#b71c2d;fill-opacity:1;fill-rule:nonzero;stroke:none"
             id="path80" /></g><g
           id="g82"
           transform="translate(333,141.7408)"><path
             d="m 0,0 c 6.33,0.01 12.66,0.01 19,0 -0.01,-29.42 0.02,-58.84 -0.02,-88.26 -6.32,0.02 -12.64,0.01 -18.97,0 C -0.02,-58.84 0.01,-29.42 0,0"
             style="fill:#b71c2d;fill-opacity:1;fill-rule:nonzero;stroke:none"
             id="path84" /></g><g
           id="g86"
           transform="translate(358.1904,141.6509)"><path
             d="m 0,0 c 6.27,0.21 12.54,0.06 18.81,0.09 -0.01,-29.42 0.019,-58.84 -0.02,-88.26 -6.24,0.02 -12.48,0 -18.73,0.02 C 0.02,-58.771 0.14,-29.39 0,0"
             style="fill:#b71c2d;fill-opacity:1;fill-rule:nonzero;stroke:none"
             id="path88" /></g><g
           id="g90"
           transform="translate(216.5801,53.4712)"><path
             d="M 0,0 C 4.55,8.979 7.45,18.68 9.4,28.529 9.96,19.039 9.61,9.5 9.59,-0.011 6.39,0.029 3.189,0.029 0,0"
             style="fill:#b71c2d;fill-opacity:1;fill-rule:nonzero;stroke:none"
             id="path92" /></g><g
           id="g94"
           transform="translate(53.2002,47.2212)"><path
             d="M 0,0 C 50.8,0.029 101.59,0.039 152.38,0 140.18,-18.44 121.14,-32.23 99.74,-37.87 79.65,-43.29 57.72,-41.521 38.77,-32.91 23.07,-25.9 9.57,-14.261 0,0"
             style="fill:#b71c2d;fill-opacity:1;fill-rule:nonzero;stroke:none"
             id="path96" /></g><g
           id="g98"
           transform="translate(41.0234,53.9234)"><path
             d="m 0,0 c -3.16,-0.05 -6.32,-0.05 -9.47,0.1 0.3,9.37 -0.41,18.79 0.36,28.14 C -7.32,18.45 -4.06,9.06 0,0"
             style="fill:#b71c2d;fill-opacity:1;fill-rule:nonzero;stroke:none"
             id="path100" /></g><g
           id="g102"
           transform="translate(41.2632,142.1831)"><path
             d="M 0,0 C -4.55,-8.98 -7.45,-18.68 -9.4,-28.53 -9.96,-19.04 -9.61,-9.5 -9.59,0.01 -6.39,-0.03 -3.19,-0.03 0,0"
             style="fill:#b71c2d;fill-opacity:1;fill-rule:nonzero;stroke:none"
             id="path104" /></g><g
           id="g106"
           transform="translate(211.2363,59.3804)"><path
             d="M 0,0 C -1.051,-2.199 -1.95,-4.54 -3.7,-6.31 -3.891,23.36 -3.94,53.041 -3.67,82.71 1.21,75.74 3.779,67.37 5.909,59.2 10.659,39.55 8.51,18.341 0,0"
             style="fill:#b71c2d;fill-opacity:1;fill-rule:nonzero;stroke:none"
             id="path108" /></g></g></g></g></svg>
