<?xml version="1.0" encoding="UTF-8" standalone="no"?>
<!-- Created with Inkscape (http://www.inkscape.org/) -->

<svg
   version="1.1"
   id="svg2"
   xml:space="preserve"
   width="205.33333"
   height="441.33334"
   viewBox="0 0 205.33333 441.33334"
   xmlns="http://www.w3.org/2000/svg"
   xmlns:svg="http://www.w3.org/2000/svg"><defs
     id="defs6"><clipPath
       clipPathUnits="userSpaceOnUse"
       id="clipPath16"><path
         d="M 0,331 H 154 V 0 H 0 Z"
         id="path14" /></clipPath></defs><g
     id="g8"
     transform="matrix(1.3333333,0,0,-1.3333333,0,441.33333)"><g
       id="g10"><g
         id="g12"
         clip-path="url(#clipPath16)"><g
           id="g18"
           transform="translate(75.8198,331)"><path
             d="m 0,0 h 2.4 c 1.78,-1.65 2.87,-3.85 4.16,-5.87 22.8,-36.47 45.601,-72.95 68.4,-109.42 1.19,-2.01 2.75,-3.9 3.22,-6.26 v -0.41 C 53.32,-162.05 28.1,-201.93 3.28,-242.04 3.05,-256.85 3.22,-271.69 3.2,-286.51 c 3.27,0.01 6.54,0.01 9.81,0.02 C 9.97,-298.78 6.48,-310.96 3.291,-323.21 2.69,-325.78 1.51,-328.32 1.68,-331 H 0.63 c -0.14,1.65 -0.44,3.29 -0.87,4.88 -3.59,13.2 -7.07,26.42 -10.64,39.62 3.25,0.01 6.5,0.01 9.75,-0.04 0,14.98 0.28,30.01 -0.13,44.96 -24.81,39.88 -49.85,79.62 -74.56,119.56 v 1.62 c 24.37,39.37 49.09,78.53 73.54,117.85 C -1.66,-1.58 -0.9,-0.73 0,0"
             style="fill:#0a0f0c;fill-opacity:1;fill-rule:nonzero;stroke:none"
             id="path20" /></g><g
           id="g22"
           transform="translate(76.8501,321.8101)"><path
             d="M 0,0 C 23.59,-37.21 46.75,-74.72 70.169,-112.05 46.94,-149.24 23.63,-186.39 0.48,-223.62 c -0.21,0.03 -0.63,0.1 -0.84,0.13 -22.94,36.79 -45.93,73.53 -68.91,110.29 -0.15,0.32 -0.44,0.97 -0.59,1.3 C -46.65,-74.56 -23.23,-37.34 0,0"
             style="fill:#ffffff;fill-opacity:1;fill-rule:nonzero;stroke:none"
             id="path24" /></g></g></g></g></svg>
