<?xml version="1.0" encoding="UTF-8" standalone="no"?>
<!-- Created with Inkscape (http://www.inkscape.org/) -->

<svg
   version="1.1"
   id="svg2"
   xml:space="preserve"
   width="297.16"
   height="260"
   viewBox="0 0 297.16 260"
   xmlns="http://www.w3.org/2000/svg"
   xmlns:svg="http://www.w3.org/2000/svg"><defs
     id="defs6"><clipPath
       clipPathUnits="userSpaceOnUse"
       id="clipPath16"><path
         d="M 0,195 H 222.87 V 0 H 0 Z"
         id="path14" /></clipPath></defs><g
     id="g8"
     transform="matrix(1.3333333,0,0,-1.3333333,0,260)"><g
       id="g10"><g
         id="g12"
         clip-path="url(#clipPath16)"><g
           id="g18"
           transform="translate(111.3799,195)"><path
             d="m 0,0 h 0.15 c 17.22,-30.2 34.49,-60.38 51.81,-90.52 19.141,0.02 38.29,0.07 57.44,-0.03 -0.02,-1.98 -0.03,-3.96 -0.04,-5.94 -18.009,-0.03 -36.009,0.01 -54.02,-0.02 3.86,-6.84 7.84,-13.61 11.69,-20.45 14.11,-0.1 28.23,0 42.34,-0.05 v -5.98 c -12.95,-0.03 -25.9,0.01 -38.849,-0.02 13.589,-24.03 27.639,-47.81 40.969,-71.99 h -222.87 c 0,0 27.23,48.29 40.9,72 h -38.9 v 6 c 14.01,0.08 28.04,-0.14 42.04,0.1 4.47,6.4 7.92,13.65 12,20.38 -18.01,0.04 -36.03,0.02 -54.05,0.01 0.03,2.02 0.06,4.04 0.09,6.06 19.12,-0.14 38.23,0.02 57.34,-0.08 C -34.54,-60.41 -17.48,-30.08 0,0"
             style="fill:#b71c2d;fill-opacity:1;fill-rule:nonzero;stroke:none"
             id="path20" /></g><g
           id="g22"
           transform="translate(111.3901,182.9399)"><path
             d="m 0,0 c 14.919,-26.16 29.94,-52.26 44.84,-78.43 -29.9,0.08 -59.81,-0.2 -89.71,0.13 C -29.81,-52.25 -14.96,-26.09 0,0"
             style="fill:#ffffff;fill-opacity:1;fill-rule:nonzero;stroke:none"
             id="path24" /></g><g
           id="g26"
           transform="translate(51.3501,78)"><path
             d="m 0,0 c 3.9,6.83 7.82,13.65 11.7,20.49 32.24,0 64.48,0.06 96.719,-0.03 C 112.23,13.61 116.23,6.87 120.03,0 80.02,-0.01 40.01,0 0,0"
             style="fill:#ffffff;fill-opacity:1;fill-rule:nonzero;stroke:none"
             id="path28" /></g><g
           id="g30"
           transform="translate(47.9199,72)"><path
             d="M 0,0 C 42.3,0 84.61,-0.01 126.91,0.01 139.54,-21.88 152,-43.86 164.6,-65.77 97.19,-65.72 29.78,-65.78 -37.63,-65.73 -25.08,-43.83 -12.55,-21.91 0,0"
             style="fill:#ffffff;fill-opacity:1;fill-rule:nonzero;stroke:none"
             id="path32" /></g></g></g></g></svg>
