<?xml version="1.0" encoding="UTF-8" standalone="no"?>
<!-- Created with Inkscape (http://www.inkscape.org/) -->

<svg
   version="1.1"
   id="svg2"
   xml:space="preserve"
   width="315.08932"
   height="275.37866"
   viewBox="0 0 315.08932 275.37866"
   xmlns="http://www.w3.org/2000/svg"
   xmlns:svg="http://www.w3.org/2000/svg"><defs
     id="defs6"><clipPath
       clipPathUnits="userSpaceOnUse"
       id="clipPath16"><path
         d="M 0,206.534 H 236.317 V 0 H 0 Z"
         id="path14" /></clipPath></defs><g
     id="g8"
     transform="matrix(1.3333333,0,0,-1.3333333,0,275.37867)"><g
       id="g10"><g
         id="g12"
         clip-path="url(#clipPath16)"><g
           id="g18"
           transform="translate(116.2998,206.5343)"><path
             d="m 0,0 h 3.53 c 3.861,-1.08 5.2,-5.11 7.1,-8.18 36.07,-62.53 72.181,-125.04 108.27,-187.55 1.81,-2.85 1.44,-7.02 -1.259,-9.19 -2.431,-2.17 -5.911,-1.48 -8.881,-1.6 -72.699,0.06 -145.4,-0.01 -218.1,0.03 -3.25,-0.25 -6.02,2.13 -6.96,5.12 v 3.62 c 1.85,3.67 4.03,7.16 6.06,10.74 34.38,59.57 68.79,119.12 103.15,178.7 1.91,3.1 3.31,7.06 7.09,8.31"
             style="fill:#0a0f0c;fill-opacity:1;fill-rule:nonzero;stroke:none"
             id="path20" /></g><g
           id="g22"
           transform="translate(22.8501,16.2941)"><path
             d="M 0,0 C 31.79,54.92 63.38,109.96 95.25,164.84 127.14,109.98 158.73,54.94 190.49,0.01 126.99,-0.02 63.5,-0.02 0,0"
             style="fill:#efc521;fill-opacity:1;fill-rule:nonzero;stroke:none"
             id="path24" /></g><g
           id="g26"
           transform="translate(79.54,72.0343)"><path
             d="m 0,0 c 6.22,10.47 22.63,12.97 31.53,4.62 2.51,-2.3 3.98,-5.44 4.95,-8.64 -2.04,-0.48 -4.09,-0.95 -6.12,-1.46 -1.47,3.23 -3.03,6.87 -6.5,8.37 C 17.55,5.6 8.96,3.65 5.62,-2.7 c -3.7,-7.78 -3.7,-18.06 1.52,-25.16 4.51,-5.23 13.19,-6.22 18.67,-1.94 2.86,2.17 4.16,5.69 5.25,8.98 2.04,-0.54 4.1,-1.06 6.15,-1.58 -1.32,-6.19 -5.4,-12.04 -11.5,-14.25 C 20.02,-38.61 13.55,-38.31 8,-36 1.45,-33.05 -2.01,-25.96 -3.03,-19.17 -3.81,-12.7 -3.48,-5.71 0,0"
             style="fill:#0a0f0c;fill-opacity:1;fill-rule:nonzero;stroke:none"
             id="path28" /></g><g
           id="g30"
           transform="translate(124,80.7941)"><path
             d="m 0,0 c 2.08,0 4.17,0 6.25,-0.01 0.01,-6.23 0.02,-12.469 0,-18.71 7.83,-0.04 15.67,-0.059 23.51,0.02 -0.03,6.23 -0.02,12.46 -0.01,18.69 C 31.83,0 33.91,0 36,0 v -45.77 h -6.25 c -0.01,7.161 -0.02,14.331 0.01,21.491 -7.84,0.029 -15.68,0.029 -23.52,0 0.03,-7.16 0.02,-14.33 0.01,-21.491 H 0 Z"
             style="fill:#0a0f0c;fill-opacity:1;fill-rule:nonzero;stroke:none"
             id="path32" /></g></g></g></g></svg>
