<?xml version="1.0" encoding="UTF-8" standalone="no"?>
<!-- Created with Inkscape (http://www.inkscape.org/) -->

<svg
   version="1.1"
   id="svg2"
   xml:space="preserve"
   width="315.07999"
   height="369.328"
   viewBox="0 0 315.07999 369.328"
   xmlns="http://www.w3.org/2000/svg"
   xmlns:svg="http://www.w3.org/2000/svg"><defs
     id="defs6"><clipPath
       clipPathUnits="userSpaceOnUse"
       id="clipPath16"><path
         d="M 0,276.996 H 236.31 V 0 H 0 Z"
         id="path14" /></clipPath></defs><g
     id="g8"
     transform="matrix(1.3333333,0,0,-1.3333333,0,369.328)"><g
       id="g10"><g
         id="g12"
         clip-path="url(#clipPath16)"><g
           id="g18"
           transform="translate(116.2202,276.9961)"><path
             d="m 0,0 h 3.61 c 3.849,-1.09 5.21,-5.12 7.099,-8.19 35.361,-61.27 70.721,-122.54 106.111,-183.79 1.349,-2.54 3.5,-5.01 3.25,-8.07 0.019,-3.75 -3.6,-6.82 -7.28,-6.45 -74,0.01 -148,-0.01 -222,0.01 -3.23,-0.28 -5.89,2.06 -7.01,4.92 v 4.02 c 37.12,64.41 74.34,128.75 111.48,193.15 1,2 2.67,3.55 4.74,4.4"
             style="fill:#0a0f0c;fill-opacity:1;fill-rule:nonzero;stroke:none"
             id="path20" /></g><g
           id="g22"
           transform="translate(116.6499,249.3062)"><path
             d="m 0,0 c 0.29,1.08 1.96,2.61 2.48,0.7 31.33,-54.43 62.88,-108.73 94.11,-163.2 -63.45,-0.12 -126.9,-0.09 -190.35,-0.01 C -62.54,-108.32 -31.18,-54.21 0,0"
             style="fill:#efc521;fill-opacity:1;fill-rule:nonzero;stroke:none"
             id="path24" /></g><g
           id="g26"
           transform="translate(79.5298,142.4761)"><path
             d="m 0,0 c 6,10.09 21.3,12.74 30.49,5.61 3.02,-2.44 4.98,-5.93 5.97,-9.65 -2.04,-0.44 -4.07,-0.9 -6.09,-1.42 -1.46,3.23 -3.03,6.88 -6.52,8.38 C 17.56,5.61 9,3.68 5.65,-2.64 2.25,-9.45 2.27,-17.81 5.2,-24.79 c 3.18,-7.37 13.44,-9.94 19.96,-5.47 3.31,2.11 4.74,5.97 5.97,9.5 2.02,-0.56 4.05,-1.1 6.08,-1.63 -1.32,-6.2 -5.43,-12.07 -11.55,-14.26 -5.67,-1.91 -12.09,-1.62 -17.62,0.64 -6.38,2.89 -9.88,9.71 -10.96,16.35 C -3.84,-13.05 -3.55,-5.86 0,0"
             style="fill:#0a0f0c;fill-opacity:1;fill-rule:nonzero;stroke:none"
             id="path28" /></g><g
           id="g30"
           transform="translate(124,151.2461)"><path
             d="m 0,0 h 6.25 c 0.1,-6.28 -0.2,-12.57 0.17,-18.84 7.8,0.29 15.6,-0.09 23.39,0.21 C 29.68,-12.42 29.76,-6.21 29.76,0 H 36 c -0.09,-15.29 0.18,-30.59 -0.13,-45.88 -2.07,0.07 -4.13,0.15 -6.18,0.28 0.15,7.09 -0.04,14.18 0.11,21.28 -7.86,0.13 -15.72,0.08 -23.58,0.02 -0.07,-7.18 0.32,-14.39 -0.21,-21.57 -2.02,0.07 -4.04,0.13 -6.07,0.21 C 0.07,-30.44 -0.03,-15.22 0,0"
             style="fill:#0a0f0c;fill-opacity:1;fill-rule:nonzero;stroke:none"
             id="path32" /></g><g
           id="g34"
           transform="translate(22.7163,0.9961)"><path
             d="M 0,0 V 60.845 H 41.711 V 50.552 H 12.285 V 36.15 H 37.686 V 25.857 H 12.285 V 0 Z"
             style="fill:#0a0f0c;fill-opacity:1;fill-rule:nonzero;stroke:none"
             id="path36" /></g><path
           d="M 74.472,45.073 H 86.135 V 0.996 H 74.472 Z m 0,16.768 H 86.135 V 51.05 H 74.472 Z"
           style="fill:#0a0f0c;fill-opacity:1;fill-rule:nonzero;stroke:none"
           id="path38" /><g
           id="g40"
           transform="translate(107.3428,23.0352)"><path
             d="m 0,0 c 0,-4.373 1.038,-7.721 3.113,-10.045 2.075,-2.324 4.634,-3.486 7.679,-3.486 3.043,0 5.596,1.162 7.656,3.486 2.062,2.324 3.093,5.7 3.093,10.127 0,4.316 -1.031,7.637 -3.093,9.961 -2.06,2.324 -4.613,3.486 -7.656,3.486 -3.045,0 -5.604,-1.162 -7.679,-3.486 C 1.038,7.719 0,4.371 0,0 m -11.953,0.622 c 0,3.874 0.954,7.622 2.864,11.247 1.909,3.625 4.613,6.393 8.113,8.301 3.5,1.91 7.409,2.864 11.726,2.864 6.668,0 12.133,-2.165 16.394,-6.495 4.261,-4.331 6.392,-9.803 6.392,-16.415 0,-6.669 -2.152,-12.196 -6.455,-16.581 -4.303,-4.386 -9.719,-6.578 -16.248,-6.578 -4.041,0 -7.894,0.913 -11.56,2.739 -3.666,1.826 -6.453,4.503 -8.362,8.031 -1.91,3.528 -2.864,7.824 -2.864,12.887"
             style="fill:#0a0f0c;fill-opacity:1;fill-rule:nonzero;stroke:none"
             id="path42" /></g><g
           id="g44"
           transform="translate(179.0205,0.9961)"><path
             d="M 0,0 V 6.6 C -1.604,4.247 -3.715,2.393 -6.329,1.037 c -2.615,-1.355 -5.375,-2.033 -8.28,-2.033 -2.961,0 -5.618,0.65 -7.969,1.951 -2.353,1.3 -4.054,3.126 -5.105,5.479 -1.052,2.351 -1.578,5.602 -1.578,9.753 v 27.89 h 11.663 V 23.823 c 0,-6.198 0.214,-9.996 0.644,-11.392 0.428,-1.398 1.21,-2.505 2.345,-3.321 1.133,-0.817 2.573,-1.224 4.316,-1.224 1.992,0 3.776,0.546 5.355,1.639 1.576,1.092 2.656,2.449 3.236,4.068 0.582,1.618 0.872,5.582 0.872,11.89 V 44.077 H 10.833 L 10.833,0 Z"
             style="fill:#0a0f0c;fill-opacity:1;fill-rule:nonzero;stroke:none"
             id="path46" /></g><path
           d="m 201.931,61.841 h 11.663 V 0.996 h -11.663 z"
           style="fill:#0a0f0c;fill-opacity:1;fill-rule:nonzero;stroke:none"
           id="path48" /></g></g></g></svg>
