<?xml version="1.0" encoding="UTF-8" standalone="no"?>
<!-- Created with Inkscape (http://www.inkscape.org/) -->

<svg
   version="1.1"
   id="svg2"
   xml:space="preserve"
   width="215.49867"
   height="157.66933"
   viewBox="0 0 215.49867 157.66933"
   xmlns="http://www.w3.org/2000/svg"
   xmlns:svg="http://www.w3.org/2000/svg"><defs
     id="defs6"><clipPath
       clipPathUnits="userSpaceOnUse"
       id="clipPath16"><path
         d="M 0,118.252 H 161.624 V 0 H 0 Z"
         id="path14" /></clipPath></defs><g
     id="g8"
     transform="matrix(1.3333333,0,0,-1.3333333,0,157.66933)"><g
       id="g10"><g
         id="g12"
         clip-path="url(#clipPath16)"><g
           id="g18"
           transform="translate(1e-4,118.2525)"><path
             d="m 0,0 h 161.622 c 0,-39.41 0.007,-78.83 -0.007,-118.24 C 107.748,-118.26 53.874,-118.25 0,-118.25 Z"
             style="fill:#b71c2d;fill-opacity:1;fill-rule:nonzero;stroke:none"
             id="path20" /></g><g
           id="g22"
           transform="translate(15.0787,47.4615)"><path
             d="m 0,0 12.237,1.278 c 0.737,-4.414 2.231,-7.655 4.483,-9.724 2.252,-2.071 5.29,-3.105 9.114,-3.105 4.051,0 7.103,0.92 9.157,2.762 2.053,1.842 3.081,3.995 3.081,6.461 0,1.582 -0.433,2.929 -1.296,4.04 -0.865,1.11 -2.373,2.077 -4.525,2.899 -1.474,0.547 -4.831,1.522 -10.071,2.922 -6.742,1.795 -11.472,4.003 -14.192,6.62 -3.824,3.683 -5.736,8.173 -5.736,13.469 0,3.408 0.899,6.597 2.698,9.564 1.799,2.968 4.39,5.228 7.776,6.78 3.384,1.552 7.471,2.328 12.258,2.328 7.819,0 13.704,-1.842 17.655,-5.524 3.952,-3.683 6.027,-8.599 6.225,-14.747 L 36.287,25.43 c -0.538,3.439 -1.693,5.912 -3.463,7.419 -1.771,1.506 -4.427,2.26 -7.967,2.26 -3.654,0 -6.516,-0.807 -8.583,-2.42 -1.332,-1.035 -1.997,-2.419 -1.997,-4.154 0,-1.583 0.622,-2.938 1.869,-4.063 1.586,-1.431 5.439,-2.922 11.558,-4.475 6.119,-1.552 10.644,-3.158 13.576,-4.816 2.931,-1.66 5.226,-3.927 6.883,-6.803 1.657,-2.877 2.486,-6.431 2.486,-10.661 0,-3.835 -0.992,-7.427 -2.975,-10.775 -1.983,-3.348 -4.787,-5.836 -8.413,-7.463 -3.626,-1.628 -8.144,-2.444 -13.554,-2.444 -7.875,0 -13.923,1.956 -18.144,5.867 C 3.342,-13.188 0.821,-7.487 0,0"
             style="fill:#ffffff;fill-opacity:1;fill-rule:nonzero;stroke:none"
             id="path24" /></g><g
           id="g26"
           transform="translate(73.1212,47.4615)"><path
             d="m 0,0 12.236,1.278 c 0.737,-4.414 2.231,-7.655 4.483,-9.724 2.252,-2.071 5.29,-3.105 9.114,-3.105 4.051,0 7.103,0.92 9.157,2.762 2.054,1.842 3.08,3.995 3.08,6.461 0,1.582 -0.431,2.929 -1.296,4.04 -0.864,1.11 -2.373,2.077 -4.525,2.899 -1.473,0.547 -4.83,1.522 -10.07,2.922 -6.742,1.795 -11.473,4.003 -14.191,6.62 -3.824,3.683 -5.736,8.173 -5.736,13.469 0,3.408 0.899,6.597 2.698,9.564 1.799,2.968 4.391,5.228 7.775,6.78 3.384,1.552 7.471,2.328 12.258,2.328 7.819,0 13.704,-1.842 17.656,-5.524 3.951,-3.683 6.026,-8.599 6.224,-14.747 L 36.286,25.43 c -0.538,3.439 -1.693,5.912 -3.463,7.419 -1.77,1.506 -4.427,2.26 -7.967,2.26 -3.654,0 -6.516,-0.807 -8.584,-2.42 -1.331,-1.035 -1.997,-2.419 -1.997,-4.154 0,-1.583 0.623,-2.938 1.871,-4.063 1.585,-1.431 5.438,-2.922 11.557,-4.475 6.118,-1.552 10.644,-3.158 13.575,-4.816 2.933,-1.66 5.227,-3.927 6.884,-6.803 1.657,-2.877 2.485,-6.431 2.485,-10.661 0,-3.835 -0.991,-7.427 -2.973,-10.775 -1.984,-3.348 -4.788,-5.836 -8.413,-7.463 -3.627,-1.628 -8.145,-2.444 -13.555,-2.444 -7.876,0 -13.923,1.956 -18.143,5.867 C 3.342,-13.188 0.821,-7.487 0,0"
             style="fill:#ffffff;fill-opacity:1;fill-rule:nonzero;stroke:none"
             id="path28" /></g><path
           d="m 133.967,92.614 h 12.578 v -66.93 h -12.578 z"
           style="fill:#ffffff;fill-opacity:1;fill-rule:nonzero;stroke:none"
           id="path30" /></g></g></g></svg>
