<?xml version="1.0" encoding="UTF-8" standalone="no"?>
<!-- Created with Inkscape (http://www.inkscape.org/) -->

<svg
   version="1.1"
   id="svg2"
   xml:space="preserve"
   width="205.33333"
   height="441.33334"
   viewBox="0 0 205.33333 441.33334"
   xmlns="http://www.w3.org/2000/svg"
   xmlns:svg="http://www.w3.org/2000/svg"><defs
     id="defs6"><clipPath
       clipPathUnits="userSpaceOnUse"
       id="clipPath16"><path
         d="M 0,331 H 154 V 0 H 0 Z"
         id="path14" /></clipPath></defs><g
     id="g8"
     transform="matrix(1.3333333,0,0,-1.3333333,0,441.33333)"><g
       id="g10"><g
         id="g12"
         clip-path="url(#clipPath16)"><g
           id="g18"
           transform="translate(75.79,331)"><path
             d="M 0,0 H 2.479 C 3.25,-0.83 3.95,-1.71 4.58,-2.64 c 23.33,-37.33 46.66,-74.67 70,-111.99 1.33,-2.19 2.95,-4.29 3.63,-6.8 v -0.65 C 53.26,-162.07 28.1,-201.96 3.33,-242.06 c -0.26,-14.81 -0.11,-29.65 -0.06,-44.48 3.26,0.04 6.52,0.05 9.78,0.04 C 9.55,-300.43 5.61,-314.26 2,-328.17 1.92,-328.88 1.75,-330.29 1.67,-331 H 0.66 c -0.34,3.78 -1.61,7.37 -2.54,11.02 -2.97,11.17 -6.01,22.33 -8.94,33.51 3.27,-0.06 6.55,-0.05 9.82,0.05 -0.08,13.83 -0.05,27.65 -0.01,41.47 -0.11,1.31 0.2,2.77 -0.54,3.93 -24.17,38.59 -48.22,77.27 -72.4,115.85 -0.65,1.08 -1.29,2.17 -1.84,3.3 v 1.47 c 23.86,38.54 48.05,76.88 72,115.37 1.07,1.81 2.17,3.65 3.79,5.03"
             style="fill:#0a0f0c;fill-opacity:1;fill-rule:nonzero;stroke:none"
             id="path20" /></g><g
           id="g22"
           transform="translate(76.7202,321.5801)"><path
             d="M 0,0 C 0.21,-0.16 0.61,-0.48 0.82,-0.64 23.98,-37.71 47.16,-74.75 70.299,-111.83 47.06,-149 23.78,-186.15 0.62,-223.36 c -0.22,0.03 -0.65,0.1 -0.86,0.14 -23.16,37.17 -46.48,74.26 -69.6,111.46 C -46.55,-74.51 -23.26,-37.26 0,0"
             style="fill:#ffffff;fill-opacity:1;fill-rule:nonzero;stroke:none"
             id="path24" /></g><g
           id="g26"
           transform="translate(38.4902,246.25)"><path
             d="m 0,0 c 2.07,0 4.15,0 6.22,-0.02 -0.32,-14.1 9.96,-27.42 23.52,-31.06 10.239,-3.02 21.85,-0.31 29.85,6.72 6.99,6.02 11.11,15.09 11.22,24.3 2.08,0.08 4.16,0.07 6.24,0.06 0.019,-11.13 -4.981,-22.17 -13.5,-29.36 -6.13,-5.25 -13.93,-8.45 -21.97,-9.09 -0.17,-22.68 -0.02,-45.37 -0.07,-68.05 h -6.25 c 0.01,22.64 -0.03,45.28 0.02,67.91 -9.41,1 -18.52,5.16 -24.97,12.15 C 3.66,-19.39 -0.28,-9.72 0,0"
             style="fill:#0a0f0c;fill-opacity:1;fill-rule:nonzero;stroke:none"
             id="path28" /></g></g></g></g></svg>
